<?xml version="1.0" encoding="utf-8"?>
<!-- Generator: Adobe Illustrator 26.2.1, SVG Export Plug-In . SVG Version: 6.00 Build 0)  -->
<svg version="1.1" id="Calque_1" xmlns="http://www.w3.org/2000/svg" xmlns:xlink="http://www.w3.org/1999/xlink" x="0px" y="0px"
	 viewBox="0 0 510.6 449.8" style="enable-background:new 0 0 510.6 449.8;" xml:space="preserve">
<style type="text/css">
	.st0{fill:#FFE900;}
	.st1{fill:#FED702;}
	.st2{fill:#FBF2A1;}
	.st3{fill:none;}
	.st4{fill:#F9FBC3;}
	.st5{fill:#E40D17;}
	.st6{fill:#BA1417;}
	.st7{stroke:#000000;stroke-width:0.5;stroke-miterlimit:10;}
	.st8{fill:#FFFFFF;}
	.st9{fill:#DED5AE;}
	.st10{fill:#EDE7C3;}
	.st11{fill:#FEFBDA;}
	.st12{fill:#ECE6C2;}
	.st13{fill:#E5DEB2;}
	.st14{fill:#BFD87C;}
	.st15{clip-path:url(#SVGID_00000068664097389216185260000008312969697408649634_);}
	.st16{font-family:'MyriadArabic-Regular';}
	.st17{font-size:5.85px;}
	.st18{fill:none;stroke:#FFFCF8;stroke-width:0.49;stroke-miterlimit:10;}
	.st19{clip-path:url(#SVGID_00000057143502629875341500000010895587463387461520_);}
</style>
<g id="a">
	<g>
		<path class="st0" d="M494.2,62.7c-8.1-26.4-28.5-31.3-45.2-30.5c3,5.4-4.8,8.2-4.8,8.2s-14.5,4.9-23.5,11.7
			c-9,6.9-11.9,21.3-17.5,25.9c-3.1,2.6-5.1,0.8-6.2-1.3c-1.2,3.7-2.3,7.8-3.3,12.3c0,0,0-6.7,2-15.7v0l-2,5.8
			c-6-8.2-11.4-13.9-15.9-17.8c3.5,3.1,6.9,7,10,11.7c-9.9-8.5-19-9.1-19.4-9.1c-0.9-1.5-1.9-3.1-3-4.7c3.4,7,6.3,15.8,6.4,16.1
			c-7-8.2-14.6-13.4-21.6-16.7c4.7,2.5,9.5,6,14.3,10.6c-9.7-4.7-17.8-4.1-21.9-3.4c5.7,5.9,7,10.9,7,10.9c-1.5-0.9-3-1.8-4.5-2.5
			c-21.8-11-41-4.8-41-4.8c7.9,0.9,14.5,3.6,19.6,6.6c9,5.3,13.8,11.8,14,12.1c-3-2.6-6.5-4.7-10.3-6.6c0,0-37.7,20.3-54.7,59.8
			c0,0-8.1,15.3-21.2,16.2c5.3-0.1,10.8,1.6,16.1,4.3c1.6,0.8,3.1,1.6,4.5,2.6c5.4,0.9,8.2,2.4,18.1,1.1c0.2,0,0.4-0.1,0.7-0.1
			c-0.7-0.2-1.3-0.5-2-0.8c-8.7-4.6-9.9-19.6-2.6-33.3c7.3-13.8,20.3-21.2,29.1-16.5c8.7,4.6,9.9,19.6,2.6,33.3
			c-3.1,5.8-7.2,10.5-11.5,13.6c-3.6,4.4-20.6,8.4-26.9,9.8c3.7,5.7,3.9,13.1-1.1,23c-4.4,8.8-11.3,15.2-18.6,18.5
			c0,0-3.8,22.4,44.9,26.3c15.3-5,26.4-13.9,26.4-13.9c-2.4-6.6-9.4-11.4-9.4-11.4s8.6-0.7,16.9,9.3c8.4,10,3.8,19.1,3.8,19.1
			c-1.7-7.6-5.8-10.5-5.8-10.5c-22,60.5-40,58.1-48.9,55.4c-9-2.7-2.6-39.1-2.6-39.1c-15.5,0.6-25.1-1.9-37.4-10.3
			c-11.7-8-15.8-30.9-15.9-31.7c-5.6-8.7-5.7-22.2,0.6-34.7c3-5.9,6.7-9.7,10.7-11.8c-13.9,5.6-32.1,22.7-29.9,52.8
			c2.3,33.3,29.6,104,123.1,106.7c-4.3-41.1,15.2-70.8,39.9-67.7c9.2,1.2,14.5,6.7,17.4,13.5c40.8-19.8,55-116.3,55-116.3
			s4-2.6,9.8-7.1C474.6,128.4,505.2,98.2,494.2,62.7L494.2,62.7z M309.9,103.5c10.7-14.6,23.5-6.2,23.5-6.2
			C319.5,95.2,310.4,103,309.9,103.5z M364,162.2c-7.5,16.6-22.2,26.1-32.7,21.4c-10.5-4.8-13-22.1-5.4-38.7
			c7.5-16.6,22.2-26.2,32.7-21.4C369.1,128.3,371.6,145.7,364,162.2L364,162.2z M373.1,109.4c25.6,10.3,7.4,37.5,7.4,37.5
			C384.3,118.5,373.1,109.4,373.1,109.4z M381.6,161.5c0.4-0.3,14-10.4,14.1-28.7C395.7,132.7,405.2,150.7,381.6,161.5z
			 M437.4,101.8c-0.7,0.6-1.4,1.1-2.2,1.7c0,0,0.7-0.8,1.8-2.3c-3.7-5.2-11.3-6-11.3-6c-1,2.2-1.9,4.4-2.7,6.8c0,0,3-42,42.5-45.5
			c0,0-2.3,1.1-5.9,3.2l0,0C459.6,60.3,462,82.2,437.4,101.8L437.4,101.8z"/>
		<g>
			<path class="st0" d="M423,32c-17.2,10-24.3,28.3-27.2,41.5c0,0,0,0,0,0c0,0-21.2-31.3-45.8-26c0,0,3.3,1.3,8.8,12.3
				c-0.3-0.2-5.3-3.9-13.2-6.9c0.7-7.6,5.1-33,33.4-35.8C412.3,13.6,423,31.9,423,32z"/>
			<path d="M422.6,31.3c-12.3,7.2-20.5,19.4-25,32.7c-0.5,1.6-1,3.1-1.5,4.8c-0.4,1.5-0.6,3.1-1.1,4.5l1.4-0.2
				c-2.6-3.8-5.7-7.3-8.9-10.6c-6.2-6.3-13.5-12-22-14.8c-5.1-1.7-10.5-2.2-15.8-1c-0.6,0.1-0.8,1.1-0.2,1.4
				c0.8,0.4,1.6,1.2,2.2,1.9c2.6,3,4.6,6.6,6.4,10.1l1-1c-4.1-3-8.8-5.2-13.4-7l0.5,0.7c1.1-12.2,6.9-24.4,17.9-30.6
				c4-2.3,8.5-3.6,13.1-4.3c5.6-0.8,11.4-0.8,17.1-0.2c7.5,0.9,14.9,3.3,21.1,7.7c2.6,1.9,5.3,4.2,6.9,6.9c0.5,0.8,1.8,0.1,1.3-0.8
				c-1.4-2.4-3.6-4.5-5.8-6.2c-5.8-4.6-12.9-7.4-20.1-8.6c-5.5-0.9-11.1-1.1-16.6-0.7c-5.1,0.4-10.2,1.4-14.9,3.5
				c-7.2,3.2-12.9,9-16.5,15.9c-2.8,5.4-4.4,11.3-4.9,17.3c0,0.3,0.3,0.6,0.5,0.7c4.5,1.8,9.1,4,13.1,6.8c0.6,0.5,1.3-0.4,1-1
				c-1.9-3.6-3.9-7.3-6.6-10.4c-0.7-0.8-1.5-1.8-2.5-2.2l-0.2,1.4c16.9-3.5,32.3,9.8,42.1,22c1,1.2,1.9,2.4,2.8,3.7
				c0.4,0.5,1.2,0.4,1.4-0.2c0.4-1.2,0.6-2.5,0.9-3.7c0.4-1.4,0.8-2.8,1.2-4.1c1-3,2.1-5.9,3.4-8.7c2.9-6.2,6.6-11.9,11.4-16.8
				c3-3,6.4-5.6,10-7.7C424.2,32.1,423.4,30.8,422.6,31.3L422.6,31.3z"/>
		</g>
		<path class="st1" d="M282,258.8c0,0-50,1.6-47-39.9s0,0,0,0l56.3,28.5L282,258.8L282,258.8L282,258.8z"/>
		<path class="st2" d="M304.6,239.6c-8.9,2.9-19.2,4.5-29.6,2.1c-28.1-6.4-32-19.7-33.3-27.2c5.6,2,12,1.5,18-1.2
			C259.7,213.3,255.9,235.7,304.6,239.6L304.6,239.6z"/>
		<path class="st2" d="M387.8,73.1c-9.9-8.5-19-9.1-19.4-9.1c-0.9-1.5-1.9-3.1-3-4.7c-2.7-3.8-6.2-7.5-10.7-10.8
			c0,0,11.6,2.5,23,12.8c0,0,0.1,0.1,0.1,0.1C381.3,64.5,384.7,68.4,387.8,73.1z"/>
		<path class="st2" d="M364.4,69.4c-9.7-4.7-17.8-4.1-21.9-3.4c-1.6,0.3-2.6,0.7-2.8,0.7c-4.9-5.6-11.5-11-20.1-14.2
			c0,0,14.2-2.5,30.4,6.2c10.8,5.8,10.8,5.8,0,0C354.8,61.3,359.6,64.7,364.4,69.4z"/>
		<path class="st3" d="M323.6,76.3L323.6,76.3"/>
		<path class="st1" d="M430.6,373l3.5,2.8c-0.6,0.5-1.1,1-1.7,1.5c-29.7,25.1-49.3-10.8-49.3-10.8c2.8,17.5-8.4,25.3-20.9,28.1
			s-25.9-14.8-25.9-14.8h0l4.6-4.2l7.5-6.8l26.9-24.5l1.4-1.3l3.2-2.9h0l4.9-4.5l1,0.8l9,7.3l4.6,3.8l18.3,15l8.6,7l2.4,2L430.6,373
			L430.6,373z"/>
		<path class="st4" d="M444.2,40.5c0,0-14.5,4.9-23.5,11.7c-9,6.9-11.9,21.3-17.5,25.9c-3.1,2.6-5.1,0.8-6.2-1.3
			c-0.8-1.5-1.2-3.2-1.2-3.4v0c0,0,0,0,0,0l6.5-13.7L415.4,41c0,0,28.5-15.8,33-9.7c0.2,0.3,0.5,0.7,0.6,1
			C452.1,37.7,444.2,40.5,444.2,40.5L444.2,40.5z"/>
		<path class="st1" d="M459.6,210.6c-0.1,11.1-9.6,27.1-21.3,42.8c-0.2,0.2-0.3,0.4-0.5,0.6c-2.2,3-4.6,6-6.9,8.9
			c-13.7,6.6-25,24.1-30.8,34.4h0c-3.8,3.9-6.2,6.2-6.2,6.2l0,0l-0.5-4l-3.9-32.9c1.2-0.5,2.5-1,3.7-1.5
			c40.8-19.8,55-116.3,55-116.3h0l11.3-4.6c0,0,0,0,0,0C464,151.4,460,181.3,459.6,210.6L459.6,210.6z"/>
		<path class="st1" d="M437,101.2C437,101.2,437,101.2,437,101.2c-3.8-5.2-11.4-6-11.4-6c0,0,0,0,0-0.1c0.3-0.5,1.9-3.6,4.4-7.8
			c7-12.1,20.7-33.2,26.8-25.9c0,0,0,0,0,0C465.2,71.5,437.8,100.4,437,101.2z"/>
		<path class="st1" d="M282,178.5c0,0,35.6-10.8,38.1-28.2c0,0,1.5-3.4-2.3-2c-3.7,1.3-38.4,23.4-38.4,23.4L282,178.5L282,178.5z"/>
		<path class="st1" d="M378.8,58.7c0,0,19.6-6.9,17.8-40.6c0,0,16.7,0.7,25.2,13.5c5.3,7.9,0,1,0,1l-27.2,41.5L378.8,58.7"/>
		<path class="st5" d="M418.6,334.7c0,0,5.5,0.4,9.4-2c0,0,18.6,25-4.2,38.4c-22.8,13.4-34.7-16.7-34.7-16.7l-0.6-0.6
			c6.3-1.5,14.7-6.5,20.3-21.8c8.8-24-1.3-31-11.5-29.3c0.7-1.3,1.6-3.2,2.8-5.4h0c5.7-10.2,17-27.7,30.8-34.4
			c7.2-3.5,15.1-4,23.2,1.1C484.6,283.4,418.6,334.7,418.6,334.7L418.6,334.7z"/>
		<path class="st5" d="M402.1,333.4c0,0-8.5,18.9-21.7,15.4v0.2c0.1-8.7-1.1-15.8-2.6-17.1c0,0,9-11.2,14.5-23.9
			C392.2,307.9,414.7,302.4,402.1,333.4L402.1,333.4z"/>
		<path class="st5" d="M338,331.8c0,0-1.9,2.7-4,6.9c-9.7-1.4-72.6-11.1-78.7-37.7c35.4,24.5,74.4,24.6,81.5,24.5
			C337.2,327.6,337.6,329.7,338,331.8L338,331.8z"/>
		<path class="st6" d="M315.4,319.9c0,0,7.2,12.6-1.4,18.8l17.5,5.5l9.5-15.8l-1.6-8.5L315.4,319.9L315.4,319.9z"/>
		<path class="st6" d="M385.8,310.4c0,0,7.5-2.1,7.5,1.1c0.2,6.9-12.6,43.9-16.2,33C373.5,333.5,385.8,310.4,385.8,310.4
			L385.8,310.4z"/>
		<path class="st1" d="M363.6,423.7c8-7.7,17.7-14.3,28.3-15.7l-5.7,6.5l-33.9,38.6H341c0,0,7.2-13.3,18.5-25.5
			C360.9,426.3,362.2,425,363.6,423.7L363.6,423.7z"/>
		<path class="st1" d="M397.2,407.2c0.6-0.1,1.2-0.2,1.8-0.2L397.2,407.2z"/>
		<path class="st2" d="M255.9,303l3.8,13.3c-50.4,46.6-49.2,136.9-49.2,136.9h-15.1c-9-58.1,23.9-109.2,44.5-134.8
			c0.6-0.8,1.2-1.5,1.9-2.3c7-8.5,12.3-13.6,13.4-14.8c0.1-0.1,0.2-0.2,0.2-0.2l0,0v0l0,0.1l0.2,0.7L255.9,303L255.9,303L255.9,303z
			"/>
		<path class="st3" d="M262.9,313.3L262.9,313.3"/>
		<path class="st1" d="M432.4,377.3c-29.7,25.1-49.3-10.8-49.3-10.8c2.8,17.5-8.4,25.3-20.9,28.1s-25.9-14.8-25.9-14.8h0
			c-12.2-9.6-9.2-24.9-4.8-35.6c-45-8.5-64-19.2-71.8-27.9c-50.4,46.6-49.2,136.9-49.2,136.9H341c0,0,7.2-13.3,18.5-25.5
			c-3.7-6.9-9.8-15-10.1-15.4c4.3,2,10.1,7.3,14.1,11.4c8-7.7,17.7-14.3,28.3-15.7l-5.7,6.5c-10.5,13.7-23.9,38.6-23.9,38.6h88.5
			c0,0,12-10.2,15.1-24.8C468.3,416.9,443.2,388.7,432.4,377.3L432.4,377.3z M397.2,407.2c0.6-0.1,1.2-0.2,1.8-0.2L397.2,407.2z"/>
		<path class="st0" d="M248.6,306c-13.1,10.5-35,32.5-49.1,71c0,0-59.1-10.9-81-112.9c13.2-8.1,19.3-17.3,19.3-17.3
			c-45.7,43-103.2,27.6-104.4,4.5c-1-17.5,41.3-7.6,42.7-7.3c-36.6-13.4-45.6,0.8-45.6,0.8s-0.4,1.4-0.6,3.6c0,0-12.5-1.6-11.8-11.6
			s15.7-12.3,15.7-12.3l48.2,3.9c0,0,5.6,7,5.1,16.4c0,0,5.4-20.3-7.8-30.7l42.7-58c0,0,25.2-9.7,30.6-1.7
			c5.5,8-15.8,35.8-15.8,35.8s17.1,12.5,13.5,44.6C150.2,235,220.9,299.2,248.6,306z"/>
		<path class="st2" d="M60.3,241.5c0,0-13.6,3.6-11.7,11.7s14.2,27.9,89.3-6.4s0,0,0,0s-30.3,40.7-91.9,23.4s0,0,0,0
			s-20-14.7-13.2-24.1S60.3,241.5,60.3,241.5"/>
		<path class="st2" d="M155.9,163.3c0,0-10-6.8-37.3,0s15.7-12.9,15.7-12.9l18.6,1.1L155.9,163.3z"/>
		<g>
			<path d="M460.6,143.7c-0.3,0.2-0.7,0.3-1,0.5c-0.8,0.4-1.7,0.8-2.5,1.2c-2.8,1.2-5.7,2.4-8.8,3.4c0.2-0.1,4.2-2.7,9.8-7.1
				c16.5-13.2,47.1-43.5,36.2-78.9c-8.1-26.4-28.5-31.3-45.2-30.5c-13.5,0.7-24.6,5.2-24.6,5.2s-17,6.7-27.5,39.4
				c-1.2,3.7-2.3,7.8-3.3,12.3c0,0,0-6.7,2-15.7v0c0,0,0,0,0,0c2.9-13.2,10-31.5,27.2-41.5l2.7-1.5c6.1-3.1,13.5-5.1,22.2-5.6
				c53.7-3.2,55.1,51.4,55.1,51.4S508.1,120.4,460.6,143.7z"/>
			<path d="M460.3,143.1c-3.9,2-8,3.6-12.1,5l0.6,1.4c6.5-4.1,12.5-9.1,18-14.3c6.5-6.1,12.6-12.8,17.6-20.1
				c5.5-8.1,10-17.1,11.9-26.8c2-10.3,1-20.9-3-30.6c-3.4-8.4-9-15.8-16.9-20.4c-6.6-3.8-14.1-5.5-21.7-5.8
				c-9.5-0.3-19.2,1.4-28.2,4.5c-2.1,0.7-3.9,1.5-5.8,2.8c-4.8,3.2-8.7,7.5-12,12.2c-6.2,8.6-10.3,18.5-13.3,28.6
				c-0.9,3.1-1.7,6.2-2.4,9.4l1.5,0.2c0-5.1,0.9-10.3,2-15.2c0-0.2,0-0.3,0.1-0.4c-0.1,0.4,0-0.1,0-0.1c0.1-0.3,0.1-0.5,0.2-0.8
				c0.1-0.6,0.3-1.3,0.5-1.9c0.3-1.3,0.7-2.7,1.1-3.9c0.9-2.8,1.8-5.5,3-8.1c2.5-5.8,5.8-11.3,10-16c4-4.6,8.8-8.2,14.2-11.1
				c6.1-3.3,13.1-5,19.9-5.7c6-0.6,12.1-0.5,18.1,0.6c8.8,1.6,17,5.6,23.3,12c5.1,5.2,8.9,11.5,11.4,18.3c1.8,4.9,3.1,10.1,3.8,15.3
				c0.2,1.7,0.3,3.3,0.4,5c0.3,4.5-0.1,9-0.8,13.4c-1.4,8.2-4.2,16.1-8.4,23.2c-5.8,10-14.2,18.2-23.9,24.3
				C466.3,139.9,463.3,141.5,460.3,143.1c-0.9,0.4-0.1,1.7,0.8,1.3c11.4-5.6,21.6-13.4,29.2-23.6c5.5-7.4,9.5-16,11.7-25
				c1.3-5.5,2.1-11.3,1.9-17c0-1.6-0.1-3.2-0.3-4.8c-0.5-4.8-1.4-9.6-2.9-14.2c-2.1-6.8-5.3-13.4-9.8-19c-5.4-6.8-12.7-11.7-21-14.4
				c-5.1-1.6-10.6-2.4-16-2.5c-7.4-0.2-14.8,0.7-21.8,3c-11.9,4-21.6,12.2-28.1,22.9c-6.3,10.5-9.7,22.8-10.9,34.9
				c-0.1,1.4-0.2,2.9-0.3,4.3c0,0.8,1.3,1,1.5,0.2c2.5-11.2,6.2-22.3,12-32.2c3.4-5.7,7.5-11.1,12.7-15.3c1.3-1.1,2.7-2.1,4.2-2.9
				c0.4-0.2,0.7-0.4,1.1-0.6c0.1,0,0.2-0.1,0.3-0.1c0,0-0.2,0.1-0.1,0c7.6-3.1,16-4.7,24.1-5.2c7.3-0.4,14.7,0.3,21.5,3
				c7.8,3,14.2,8.7,18.5,15.9c5.2,8.9,7.7,19.6,6.9,29.9c-0.7,9.7-4.3,19-9.2,27.3c-8.8,14.8-21.8,27.5-35.9,37.3
				c-0.8,0.6-1.7,1.2-2.5,1.7c-0.7,0.4-0.3,1.7,0.6,1.4c4.2-1.5,8.5-3.2,12.5-5.2C461.9,143.9,461.1,142.6,460.3,143.1L460.3,143.1z
				"/>
		</g>
		<g>
			<g>
				<path d="M465.5,56.5c0,0-2.3,1.1-5.9,3.2l0,0c0,0-0.1,0.1-0.2,0.1c-0.8,0.5-1.6,1-2.5,1.6C449.2,66.3,438,75,430,87.3
					c-1.6,2.5-3.1,5.1-4.4,7.8c0,0,0,0,0,0.1c-1,2.2-1.9,4.4-2.7,6.8C423,102,426,60,465.5,56.5L465.5,56.5z"/>
				<path d="M465.1,55.8c-0.8,0.4-1.5,0.8-2.3,1.2c-0.8,0.5-1.7,0.9-2.5,1.4c-0.5,0.3-1.6,0.6-1.6,1.4l0.4-0.7
					c-5.6,3.2-10.9,7.3-15.7,11.6c-5.9,5.3-11.1,11.4-15.2,18.2c-2.5,4.1-4.5,8.4-6,13l1.5,0.2c0.3-4.6,1.7-9.6,3.3-14
					c3.4-9.4,9.2-18.1,17.5-23.7c6.2-4.2,13.5-6.4,20.9-7.1c1-0.1,1-1.6,0-1.5c-6.8,0.6-13.5,2.5-19.5,5.9
					c-4.9,2.8-9.1,6.7-12.5,11.1c-5.3,6.9-8.7,15.3-10.4,23.8c-0.4,1.8-0.7,3.7-0.8,5.5c-0.1,0.9,1.2,1,1.5,0.2
					c4.8-14.7,15.4-26.9,27.6-36.1c2.7-2.1,5.6-4.1,8.6-5.8c0.2-0.1,0.4-0.4,0.4-0.7l0,0l-0.4,0.6c1.9-1.2,3.9-2.3,5.9-3.2
					C466.7,56.7,465.9,55.4,465.1,55.8L465.1,55.8z"/>
			</g>
			<g>
				<path d="M437.4,101.8c-0.7,0.6-1.4,1.1-2.2,1.7c0,0,0.7-0.8,1.8-2.3c0,0,0,0,0,0c5.7-7.3,22.5-30.1,16.6-37.7l3.2-2.1l2.5-1.6
					l0.2-0.1l0,0C459.6,60.3,462,82.2,437.4,101.8L437.4,101.8z"/>
				<path d="M436.9,101.2c-0.7,0.5-1.4,1.1-2,1.6l0.9,1.2c3.8-4.7,7.4-9.6,10.6-14.6c3.7-5.7,7.6-11.9,8.9-18.7
					c0.5-2.5,0.6-5.4-1-7.6l-0.3,1c2-1.3,3.9-2.6,5.9-3.8l-1.1-0.7c0,2.9,0,5.7-0.5,8.7c-1.3,7.2-4.5,14-8.8,19.9
					C445.9,93.2,441.6,97.5,436.9,101.2c-0.7,0.6,0.3,1.7,1.1,1.1c12-9.6,21.8-23.6,22.4-39.4c0-1.1-0.1-2.1-0.1-3.2
					c0-0.6-0.6-1-1.1-0.7c-2,1.2-3.9,2.6-5.9,3.8c-0.3,0.2-0.5,0.7-0.3,1c1.4,1.8,1.3,4.2,0.9,6.3c-0.6,3-1.8,5.9-3.2,8.7
					c-3,6.1-6.8,11.7-10.8,17.2c-1.7,2.3-3.4,4.6-5.3,6.9c-0.5,0.6,0.2,1.7,0.9,1.2c0.8-0.6,1.6-1.2,2.4-1.8
					S437.6,100.6,436.9,101.2L436.9,101.2z"/>
			</g>
		</g>
		<path d="M461.2,143.4c0,0,18,68.5-17,109.2l-9,2.1c0,0,35.2-40,21.9-109.3L461.2,143.4L461.2,143.4z"/>
		<path d="M425.7,30.5L423,32c0,0-10.7-18.4-44-15c-28.2,2.9-32.7,28.2-33.4,35.8c-0.1,1.4-0.1,2.2-0.1,2.2l-7.9-3.8
			c0,0,0.1-0.3,0.2-0.8c1.4-5.4,10.2-35.5,38-38.5C409.5,8.4,425.7,30.5,425.7,30.5L425.7,30.5z"/>
		<g>
			<path d="M395.7,73.4l-2,5.8c-6-8.2-11.4-13.9-15.9-17.8c0,0-0.1-0.1-0.1-0.1c-10.5-9.1-16.6-8.8-16.6-8.8
				c1.4,1.6,2.9,4.1,4.2,6.8c3.4,7,6.3,15.8,6.4,16.2c-7-8.2-14.6-13.4-21.6-16.7c-4.7-2.2-4.7-2.2,0,0c-14.9-6.9-27.4-5.3-27.4-5.3
				c9.5,3.7,15.8,8.3,19.8,12.6c5.5,5.8,6.9,10.6,7,10.9c-1.5-0.9-3-1.8-4.5-2.5c-21.8-11-41-4.8-41-4.8c7.9,0.9,14.5,3.6,19.6,6.6
				c9,5.3,13.8,11.8,14,12.1c-3-2.6-6.5-4.7-10.3-6.6h0c-16.1-8.2-36-10.3-36-10.3c11-13.2,39.6-7,40.4-6.8
				c-8.9-7.8-22-12.9-22-12.9c10.1-3.7,19.9-3.2,28-1.3c2.8,0.7,5.4,1.5,7.8,2.4c7.9,3,13,6.7,13.2,6.9c-5.5-11-8.8-12.3-8.8-12.3
				C374.5,42.1,395.7,73.5,395.7,73.4L395.7,73.4z"/>
			<path d="M395,73.2l-2,5.8l1.4-0.2c-4.5-6.2-9.4-12.1-15.1-17.2c-4.4-4-9.5-7.9-15.3-9.5c-0.9-0.2-1.9-0.5-2.8-0.5
				c-0.7,0-1,0.8-0.5,1.3c3.4,3.9,5.5,9.3,7.3,14.1c1.1,2.8,2.2,5.7,3.1,8.6l1.2-0.7C361,61.9,345,53.1,327.6,52.6
				c-1.6,0-3.3-0.1-5,0.2c-0.8,0.1-1,1.2-0.2,1.5c6.5,2.5,12.8,6,17.9,10.8c3.5,3.2,7.1,7.5,8.4,12.2l1.1-0.8
				c-12.8-7.7-28.2-11-42.9-8.2c-1,0.2-2.1,0.4-3.1,0.8c-0.9,0.3-0.6,1.4,0.2,1.5c8,1,15.6,3.9,22.3,8.5c3.9,2.7,7.9,6.1,10.7,9.9
				l1.2-0.9c-6.7-5.6-14.8-9.2-22.9-11.8c-6.5-2.1-13.1-3.7-19.9-4.8c-1.3-0.2-2.7-0.4-4-0.6l0.5,1.3c4.4-5.2,11.4-7.2,18-7.9
				c5.9-0.6,11.9-0.3,17.7,0.6c1.4,0.2,2.7,0.4,4,0.7c0.7,0.2,1.3-0.7,0.7-1.2c-6.4-5.7-14.3-10-22.3-13.1v1.5
				c14.6-5.2,30.6-2.4,43.9,5.1c1.6,0.9,3.1,1.8,4.6,2.9c0.6,0.5,1.3-0.4,1-1c-1.9-3.6-3.9-7.3-6.6-10.4c-0.7-0.8-1.5-1.8-2.5-2.2
				l-0.2,1.4c16.9-3.5,32.3,9.8,42.1,22c1,1.2,1.9,2.4,2.8,3.7c0.5,0.8,1.8,0,1.3-0.8c-2.6-3.8-5.7-7.3-8.9-10.6
				c-6.2-6.3-13.5-12-22-14.8c-5.1-1.7-10.5-2.2-15.8-1c-0.6,0.1-0.8,1.1-0.2,1.4c0.8,0.4,1.6,1.2,2.2,1.9c2.6,3,4.6,6.6,6.4,10.1
				l1-1c-4.1-3-8.7-5.2-13.4-7c-7.1-2.7-14.7-4.2-22.3-3.8c-4.7,0.2-9.4,1.2-13.9,2.7c-0.7,0.3-0.7,1.2,0,1.5
				c7.7,3,15.4,7.2,21.6,12.7l0.7-1.2c-3.7-0.8-7.5-1.2-11.3-1.5c-6.8-0.4-14.1-0.2-20.5,2.3c-3.6,1.3-6.9,3.3-9.4,6.2
				c-0.4,0.5-0.1,1.2,0.5,1.3c3.6,0.4,7.2,1.1,10.8,1.9c7.7,1.7,15.4,3.9,22.5,7.2c4.4,2,8.6,4.5,12.4,7.6c0.6,0.5,1.7-0.2,1.2-0.9
				c-3-4.1-7-7.5-11.2-10.4c-6.9-4.7-14.8-7.7-23-8.7l0.2,1.5c2.8-0.9,5.8-1.3,8.7-1.5c7.2-0.6,14.6,0.2,21.5,2.2
				c5.2,1.5,10.1,3.8,14.7,6.6c0.6,0.3,1.3-0.2,1.1-0.8c-1.4-4.9-5.1-9.4-8.8-12.9c-5.3-5-11.8-8.5-18.5-11.2l-0.2,1.5
				c4.4-0.6,9,0,13.3,0.8c8.4,1.6,16.5,5.1,23.4,10.1c4.4,3.1,8.3,6.8,11.8,10.9c0.5,0.6,1.5,0,1.2-0.7c-0.9-3.2-2.1-6.3-3.4-9.3
				c-1.9-4.8-4-10.1-7.4-14l-0.5,1.3c2.6-0.1,5.5,1.4,7.6,2.6c5.9,3.3,11,8,15.5,13c3.1,3.4,6,7.1,8.8,10.8c0.4,0.5,1.1,0.5,1.4-0.2
				l2-5.8C396.8,72.7,395.3,72.3,395,73.2L395,73.2z"/>
		</g>
		<path class="st7" d="M315.3,115c-8.7-4.6-21.7,2.8-29.1,16.5c-7.3,13.8-6.2,28.7,2.6,33.3c0.6,0.3,1.3,0.6,2,0.8
			c-0.2,0-0.4,0.1-0.7,0.1c-9.8,1.3-12.7-0.2-18.1-1.1c-1.4-0.9-2.9-1.8-4.5-2.6c-5.3-2.7-10.9-4.4-16.1-4.3c-0.1,0-0.1,0-0.1,0
			c-2.9,0.1-5.6,0.7-8.2,2c0,0,0,0,0,0c-4.1,2.1-7.7,5.8-10.7,11.8c-6.3,12.5-6.2,25.9-0.6,34.7c2,3.1,4.6,5.6,8,7.2
			c0.7,0.4,1.4,0.7,2.2,0.9c5.6,2,12,1.5,18-1.2c7.4-3.3,14.2-9.7,18.6-18.5c5-10,4.8-17.4,1.1-23c6.3-1.4,23.2-5.4,26.9-9.8
			c4.4-3.1,8.5-7.8,11.5-13.6C325.2,134.6,324,119.6,315.3,115L315.3,115z M275.4,174.7c-1.5,3.3-8.6,3.3-15.9,0
			c-7.3-3.3-12-8.7-10.5-12c1.5-3.3,8.6-3.3,15.9,0.1C272.2,166.1,276.9,171.4,275.4,174.7L275.4,174.7z M309,148
			c-0.8,0.9-2,1.6-3.5,2.1c-2.3,0.7-4.7,0.3-5.7-0.9c-0.2-0.2-0.4-0.5-0.4-0.8c-0.5-1.8,1.4-3.9,4.3-4.7c2.3-0.7,4.7-0.3,5.7,0.9
			c0.2,0.2,0.4,0.5,0.4,0.8C310.1,146.2,309.8,147.1,309,148L309,148z M315.6,147.1c-1.6,3-3.5,5.7-5.6,8c1-1.8,1.5-3.7,1.7-5.4
			c0.3-2.7-0.4-4.9-2-6.1c-0.5-0.4-1.2-0.7-1.9-0.9c-3.5-0.9-8.5,1.6-12,6c-4.3,5.4-5.1,12-1.8,14.6c0.2,0.1,0.4,0.3,0.6,0.4
			c-0.3,0-0.6,0-0.9,0c-1.4-0.1-2.7-0.4-3.9-1.1c-7.4-3.9-8-17.6-1.5-29.9c5.4-10.2,14.4-17,21.7-16.5c1.4,0.1,2.7,0.4,3.9,1.1
			c3.4,1.8,5.5,5.8,6,11.2C320.5,134.3,318.9,140.9,315.6,147.1z"/>
		<path class="st7" d="M275.4,174.7c-1.5,3.3-8.6,3.3-15.9,0c-7.3-3.3-12-8.7-10.5-12c1.5-3.3,8.6-3.3,15.9,0.1
			C272.2,166.1,276.9,171.4,275.4,174.7L275.4,174.7z"/>
		<path class="st8" d="M275.4,174.7c-1.5,3.3-8.6,3.3-15.9,0c-7.3-3.3-12-8.7-10.5-12c1.5-3.3,8.6-3.3,15.9,0.1
			C272.2,166.1,276.9,171.4,275.4,174.7L275.4,174.7z"/>
		<g>
			<g>
				<path d="M364,162.2c-7.5,16.6-22.2,26.1-32.7,21.4c-10.5-4.8-13-22.1-5.4-38.7c7.5-16.6,22.2-26.2,32.7-21.4
					C369.1,128.3,371.6,145.7,364,162.2L364,162.2z"/>
				<path class="st8" d="M337.2,181.8c-1.6,0-3.2-0.3-4.6-1c-8.9-4-10.6-19.9-3.9-34.7c5.6-12.3,15.5-20.8,24.1-20.8
					c1.6,0,3.2,0.3,4.6,1c4.1,1.9,6.9,6.3,7.8,12.6c1,6.8-0.4,14.6-3.8,22.1C355.7,173.3,345.8,181.9,337.2,181.8L337.2,181.8z"/>
			</g>
			<g>
				<path class="st7" d="M339.8,182.3c-0.8-0.1-1.6-0.5-2.2-0.9c-4-2.8-3.6-10.5,1-17.2c3.8-5.4,9.3-8.6,13.5-7.8
					c0.8,0.1,1.6,0.5,2.2,0.9c1.9,1.3,2.9,3.8,2.7,6.9c-0.1,3.3-1.5,6.9-3.8,10.2C349.5,179.9,344,183.1,339.8,182.3z"/>
				<path class="st8" d="M343.1,164.5c-0.2-0.3-0.4-0.6-0.6-0.9c-0.7-2,1.4-4.6,4.7-5.8c2.7-1,5.4-0.7,6.7,0.6
					c0.2,0.3,0.4,0.6,0.6,0.9c0.3,0.9,0.1,2.1-0.8,3.1c-0.9,1.1-2.3,2.1-3.9,2.7C347.2,166.1,344.4,165.8,343.1,164.5L343.1,164.5z"
					/>
			</g>
		</g>
		<g>
			<g>
				<path d="M309,148c-0.8,0.9-2,1.6-3.5,2.1c-2.3,0.7-4.7,0.3-5.7-0.9c-0.2-0.2-0.4-0.5-0.4-0.8c-0.5-1.8,1.4-3.9,4.3-4.7
					c2.3-0.7,4.7-0.3,5.7,0.9c0.2,0.2,0.4,0.5,0.4,0.8C310.1,146.2,309.8,147.1,309,148L309,148z"/>
				<path d="M315.6,147.1c-1.6,3-3.5,5.7-5.6,8c1-1.8,1.5-3.7,1.7-5.4c0.3-2.7-0.4-4.9-2-6.1c-0.5-0.4-1.2-0.7-1.9-0.9
					c-3.5-0.9-8.5,1.6-12,6c-4.3,5.4-5.1,12-1.8,14.6c0.2,0.1,0.4,0.3,0.6,0.4c-0.3,0-0.6,0-0.9,0c-1.4-0.1-2.7-0.4-3.9-1.1
					c-7.4-3.9-8-17.6-1.5-29.9c5.4-10.2,14.4-17,21.7-16.5c1.4,0.1,2.7,0.4,3.9,1.1c3.4,1.8,5.5,5.8,6,11.2
					C320.5,134.3,318.9,140.9,315.6,147.1z"/>
				<path class="st8" d="M309,148c-0.8,0.9-2,1.6-3.5,2.1c-2.3,0.7-4.7,0.3-5.7-0.9c-0.2-0.2-0.4-0.5-0.4-0.8
					c-0.5-1.8,1.4-3.9,4.3-4.7c2.3-0.7,4.7-0.3,5.7,0.9c0.2,0.2,0.4,0.5,0.4,0.8C310.1,146.2,309.8,147.1,309,148L309,148z"/>
				<path class="st8" d="M315.6,147.1c-1.6,3-3.5,5.7-5.6,8c1-1.8,1.5-3.7,1.7-5.4c0.3-2.7-0.4-4.9-2-6.1c-0.5-0.4-1.2-0.7-1.9-0.9
					c-3.5-0.9-8.5,1.6-12,6c-4.3,5.4-5.1,12-1.8,14.6c0.2,0.1,0.4,0.3,0.6,0.4c-0.3,0-0.6,0-0.9,0c-1.4-0.1-2.7-0.4-3.9-1.1
					c-7.4-3.9-8-17.6-1.5-29.9c5.4-10.2,14.4-17,21.7-16.5c1.4,0.1,2.7,0.4,3.9,1.1c3.4,1.8,5.5,5.8,6,11.2
					C320.5,134.3,318.9,140.9,315.6,147.1z"/>
			</g>
			<g>
				<path class="st7" d="M309,148c-0.8,0.9-2,1.6-3.5,2.1c-2.3,0.7-4.7,0.3-5.7-0.9c-0.2-0.2-0.4-0.5-0.4-0.8
					c-0.5-1.8,1.4-3.9,4.3-4.7c2.3-0.7,4.7-0.3,5.7,0.9c0.2,0.2,0.4,0.5,0.4,0.8C310.1,146.2,309.8,147.1,309,148L309,148z"/>
				<path class="st8" d="M309,148c-0.8,0.9-2,1.6-3.5,2.1c-2.3,0.7-4.7,0.3-5.7-0.9c-0.2-0.2-0.4-0.5-0.4-0.8
					c-0.5-1.8,1.4-3.9,4.3-4.7c2.3-0.7,4.7-0.3,5.7,0.9c0.2,0.2,0.4,0.5,0.4,0.8C310.1,146.2,309.8,147.1,309,148L309,148z"/>
			</g>
		</g>
		<g>
			<path d="M342.4,242.6c-1.7-7.6-5.8-10.5-5.8-10.5c-22,60.5-40,58.1-48.9,55.4c-9-2.7-2.6-39.1-2.6-39.1
				c-15.5,0.6-25.1-1.9-37.4-10.3c-11.7-8-15.8-30.9-15.9-31.7v0l10.1,8.2c1.3,7.5,5.2,20.9,33.3,27.2c10.3,2.4,20.7,0.8,29.6-2.1
				c15.3-5,26.4-13.9,26.4-13.9c-2.4-6.6-9.4-11.4-9.4-11.4s8.6-0.7,16.9,9.3C347,233.5,342.4,242.6,342.4,242.6L342.4,242.6z"/>
			<path d="M343.1,242.4c-0.9-3.9-2.7-8.6-6.2-11c-0.4-0.3-1,0-1.1,0.4c-5,13.6-10.6,27.4-18.8,39.4c-4,5.9-9,11.9-15.6,14.9
				c-3.6,1.6-7.6,2-11.4,1.1c-0.7-0.2-1.5-0.3-2.2-0.6c-1.2-0.4-2-1.5-2.5-2.7c-1.7-3.7-1.7-8.2-1.8-12.2c0-7.7,0.8-15.4,2-22.9
				c0-0.1,0-0.3,0.1-0.4c0.1-0.5-0.2-1-0.7-0.9c-6.4,0.2-12.8,0-19-1.6c-6-1.5-11.5-4.3-16.6-7.7c-8.3-5.5-12.4-15.2-15.1-24.4
				c-0.5-1.8-1-3.6-1.4-5.4c-0.1-0.6-0.2-1.1-0.3-1.6c0-0.1-0.1-0.9-0.1-0.6l-1.3,0.5l5.9,4.8l3.4,2.7c0.2,0.2,0.6,0.4,0.8,0.6
				c-0.1-0.1-0.1-0.3-0.1,0.1c0,0.2,0.1,0.5,0.1,0.8c1,5,3.2,9.6,6.7,13.3c6.1,6.6,14.9,10.2,23.5,12.5c6.5,1.7,13,2.4,19.7,1.7
				c6.3-0.7,12.5-2.3,18.3-4.6c7.8-3.1,15.6-7.2,22.2-12.5c0.2-0.1,0.3-0.5,0.2-0.7c-1.8-4.8-5.5-9-9.7-11.9l-0.4,1.4
				c3.7-0.3,7.7,1.7,10.7,3.7c6.1,4.3,11.1,11.4,10.5,19.1c-0.1,1.4-0.5,3.2-1.1,4.4c-0.4,0.9,0.9,1.6,1.3,0.8c2-4,1.7-9.3,0.1-13.4
				c-2.8-7.1-9.5-13.4-16.8-15.5c-1.5-0.4-3.1-0.8-4.6-0.6c-0.8,0.1-1,1-0.4,1.4c3.8,2.6,7.4,6.6,9,11l0.2-0.7
				c-5.1,4.1-11.5,7.7-17.6,10.4c-11.8,5.4-25.2,8.3-38.1,5.3c-8.9-2.1-18.2-5.3-24.9-11.9c-3.6-3.6-6-8-7.1-13
				c-0.2-0.8-0.2-1.8-0.8-2.4c-1-0.9-2.1-1.7-3.2-2.6l-6.7-5.4c-0.5-0.4-1.3-0.2-1.3,0.5s0.2,1.4,0.4,2c0.3,1.6,0.7,3.2,1.1,4.7
				c1.2,4.6,2.8,9,4.9,13.3c2.2,4.5,5.1,8.9,9.1,11.9c5,3.7,10.8,6.8,16.7,8.6c7,2.2,14.4,2.6,21.8,2.3l-0.7-0.9
				c-1.2,6.9-1.9,13.9-2.1,20.9c-0.1,4.5-0.1,9.3,1.1,13.7c0.8,2.8,2.2,4.9,5.1,5.7c3.9,1.1,7.9,1.2,11.7-0.1
				c6.5-2.2,11.6-7.4,15.7-12.7c8.4-10.9,14.1-23.9,19-36.6c0.9-2.2,1.7-4.5,2.5-6.8l-1.1,0.4c0,0,0.4,0.3,0.5,0.5
				c0.6,0.5,1.1,1.1,1.5,1.8c1.7,2.3,2.8,5.1,3.4,7.9C341.9,243.7,343.3,243.3,343.1,242.4L343.1,242.4z"/>
		</g>
		<path class="st5" d="M285.4,271.7c0,0-1.2,12.9,5.7,13.6c7.8,0.8,15-1.4,23.7-16.1c8-13.6-13-12.5-16.2-12.3
			c-0.3,0-0.5,0.1-0.8,0.1C295.7,257.7,287,260.9,285.4,271.7L285.4,271.7z"/>
		<g>
			<path d="M380.5,146.9c3.8-28.4-7.4-37.5-7.4-37.5C398.7,119.7,380.5,146.9,380.5,146.9z"/>
			<path d="M381.2,146.9c1.1-8.4,1.3-17.1-0.9-25.3c-1.1-4-2.7-8-5.4-11.3c-0.4-0.5-0.9-1.1-1.4-1.5l-0.7,1.2
				c4,1.6,7.9,4.1,10.3,7.7c1.8,2.7,2.7,5.9,2.8,9.2c0.2,5.6-1.7,11.2-4.3,16.2c-0.6,1.1-1.2,2.2-1.9,3.3c-0.5,0.8,0.8,1.6,1.3,0.8
				c2.1-3.2,3.7-6.8,4.9-10.4c2-6.3,2.4-13.6-1.2-19.4c-2.7-4.2-6.9-7-11.5-8.8c-0.7-0.3-1.3,0.8-0.7,1.2c1.5,1.2,2.5,3,3.4,4.6
				c2.8,5,4,10.8,4.4,16.5c0.4,5.3,0.1,10.6-0.6,15.9C379.6,147.8,381.1,147.8,381.2,146.9L381.2,146.9z"/>
		</g>
		<g>
			<path d="M381.6,161.5c0.4-0.3,14-10.4,14.1-28.7C395.7,132.7,405.2,150.7,381.6,161.5z"/>
			<path d="M382,162.1c6-4.3,10.5-11.3,12.7-18.2c1.2-3.6,1.7-7.4,1.8-11.1l-1.4,0.4c3.3,6.3,1.9,14.6-2.8,19.9
				c-3,3.4-6.9,5.8-11,7.7C380.4,161.2,381.2,162.5,382,162.1c6.6-3,12.9-7.7,15.4-14.7c1.4-4,1.3-8.4,0-12.4
				c-0.3-0.9-0.6-1.8-1-2.6c-0.4-0.7-1.4-0.3-1.4,0.4c-0.1,10.1-4.5,19.8-11.9,26.6c-0.6,0.5-1.4,1.2-1.8,1.5
				C380.5,161.4,381.2,162.7,382,162.1L382,162.1z"/>
		</g>
		<g>
			<path d="M333.5,97.3c-14-2.1-23,5.7-23.5,6.2C320.6,88.8,333.5,97.3,333.5,97.3z"/>
			<path d="M333.7,96.6c-8.3-1.2-17.8,0.7-24.3,6.3l1.2,0.9c3.7-5,9-8.7,15.4-8.2c2.4,0.2,5.1,0.9,7.2,2.3c0.8,0.5,1.6-0.8,0.8-1.3
				c-5-3.3-12-3.3-17.1-0.4c-3,1.7-5.4,4.1-7.4,6.9c-0.5,0.7,0.6,1.4,1.2,0.9c6-5.3,15.1-7.1,22.8-6
				C334.2,98.2,334.6,96.7,333.7,96.6L333.7,96.6z"/>
		</g>
		<path d="M338,325.5c0,0-0.4,0-1.2,0c-7.2,0.2-46.1,0.1-81.5-24.5c-6.3-4.4-12.6-9.5-18.4-15.6c-42.4-43.7-34.6-88.1-27.5-103.6
			c7.1-15.6,24.9-28.9,37.4-30c12.5-1.1,21.7-12.2,24.1-20.2c2.4-8,32.3-51.2,53.7-51.2l2.7,1.3h0c0,0-37.7,20.3-54.7,59.8
			c0,0-8.1,15.3-21.2,16.2c-0.1,0-0.1,0-0.1,0c-2.4,0.1-5.2,0.8-8.2,2c0,0,0,0,0,0c-13.9,5.6-32.1,22.7-29.9,52.8
			c2.3,33.3,29.6,104,123,106.7c0.1,0,0.1,0,0.2,0L338,325.5L338,325.5z"/>
		<path d="M335.3,338.9l-2.6,5.5c-0.4-0.1-0.8-0.1-1.2-0.2c-45-8.5-64-19.2-71.8-27.9c-5.7-6.3-5.4-11.4-4.8-13.8
			c0.2-0.7,0.4-1.1,0.4-1.3c0,0,0-0.1,0-0.1l0,0v0c0,0,0,0,0,0.1h0c0.1,0.2,0.1,0.5,0.2,0.7c0.1,0.4,0.2,0.7,0.3,1l0,0.1
			c1.3,3.8,3.8,7.2,7,10.3c0,0,0,0,0,0c12.5,11.8,36.9,18.8,53.9,22.4c8.1,1.7,14.6,2.7,17.2,3.1c0.3,0,0.5,0.1,0.7,0.1
			C335.1,338.9,335.3,338.9,335.3,338.9z"/>
		<path d="M393.3,265.1c-2.9-6.8-8.2-12.4-17.4-13.5c-24.7-3.1-44.2,26.6-39.9,67.7c0,0.2,0,0.4,0.1,0.6c0.2,1.8,0.5,3.7,0.8,5.6
			c0.3,2.1,0.7,4.2,1.2,6.3c0,0-1.9,2.7-4,6.9c-0.8,1.6-1.7,3.5-2.5,5.5c-4.4,10.7-7.4,26,4.8,35.6c2.8,2.2,6.4,4.1,10.9,5.6
			c23.6,7.8,31.5-13.4,32.9-31.5c0.1-1.7,0.2-3.3,0.2-4.9v-0.1c0-0.8,0-1.6,0-2.3c0-0.3,0-0.6,0-0.9c0-0.2,0-0.3,0-0.5
			c0-0.3,0-0.5,0-0.8c0-0.4,0-0.8-0.1-1.2v-0.1c0-0.8-0.1-1.6-0.2-2.4c0-0.2,0-0.4-0.1-0.6c0-0.4-0.1-0.9-0.1-1.3c0-0.1,0-0.3,0-0.4
			c0-0.2-0.1-0.4-0.1-0.6c0-0.2,0-0.4-0.1-0.5c0-0.2-0.1-0.5-0.1-0.7c-0.2-1.2-0.5-2.1-0.7-2.9l-0.1-0.3c0-0.1-0.1-0.2-0.1-0.3
			c0-0.1-0.1-0.2-0.1-0.3c0-0.1-0.1-0.2-0.1-0.2s-0.1-0.1-0.1-0.2c-0.1-0.2-0.3-0.4-0.4-0.5l0.1-0.1c0.1-0.1,0.3-0.4,0.6-0.7
			c0.1-0.1,0.2-0.3,0.4-0.5c0.4-0.5,0.9-1.2,1.4-1.9c0.1-0.2,0.3-0.4,0.4-0.6c0.7-1,1.5-2.2,2.4-3.5c0.3-0.5,0.6-1,1-1.5
			c0-0.1,0.1-0.1,0.1-0.2c0.5-0.8,1.1-1.7,1.6-2.6c1.9-3.1,3.9-6.7,5.6-10.4c0.3-0.6,0.6-1.2,0.8-1.9c0.4-1,0.8-1.9,1.2-2.9
			c0.2-0.5,0.4-1,0.5-1.5l0,0c0.8-2.3,1.5-4.7,1.9-7c0,0,0.1-0.7,0.3-1.9l0,0C396.8,289.7,397.9,275.9,393.3,265.1L393.3,265.1z
			 M350.6,379.2c-4-0.7-7.2-2-9.7-3.6c-17.5-11.2-1.5-40.1-1.5-40.1s0,0,0,0.1c0.2,0.7,2.4,6.4,6.5,7c0,0-0.1-0.6-0.3-1.7
			c-0.8-4.1-2.8-15.1-3.1-27.8c0-0.2,0-0.4,0-0.7c-0.2-9.8,0.5-20.6,3.5-29.9c0-0.1,0.1-0.2,0.1-0.3c4.1-12.8,12.5-22.7,28.4-23.5
			c0,0,33.4,5.6,0,70.5c0,0,1,6.6,1,15C375.3,360.4,371.7,383.1,350.6,379.2L350.6,379.2z"/>
		<path class="st5" d="M374.3,329.3c0,0,8.4,55.9-23.7,49.9c-32.1-5.9-11.2-43.7-11.2-43.7s0,0,0,0.1c0.2,0.7,2.4,6.4,6.5,7
			c0,0-0.1-0.6-0.3-1.7c0.3,0.1,0.7,0.2,1,0.2c0,0-3.4-12.6-4.1-28.1c0-0.2,0-0.4,0-0.7c-0.2-9.8,0.5-20.6,3.5-29.9
			c0-0.1,0.1-0.2,0.1-0.3c4.1-12.8,12.5-22.7,28.4-23.5C374.3,258.8,407.7,264.4,374.3,329.3L374.3,329.3z"/>
		<path class="st3" d="M342.4,312.5c-0.4-9.7,0.2-20.5,3.5-29.9C342.9,291.9,342.2,302.6,342.4,312.5z"/>
		<path class="st3" d="M345.9,342.6c-4.1-0.6-6.2-6.3-6.5-7c0.3,0.5,2.6,4.2,6.1,5.3C345.8,342,345.9,342.6,345.9,342.6z"/>
		<path class="st3" d="M342.4,312.5c-0.4-9.7,0.2-20.5,3.5-29.9C342.9,291.9,342.2,302.6,342.4,312.5z"/>
		<path class="st3" d="M345.9,342.6c-4.1-0.6-6.2-6.3-6.5-7c0.3,0.5,2.6,4.2,6.1,5.3C345.8,342,345.9,342.6,345.9,342.6z"/>
		<path d="M408.8,332c-5.6,15.2-14,20.3-20.3,21.8c-2.1,0.5-4,0.6-5.4,0.6c-1.8,0-2.9-0.3-3-0.4h0l0.2-4.9v-0.3
			c13.3,3.5,21.7-15.4,21.7-15.4c12.6-31-9.8-25.5-9.8-25.5s-7.1-0.4-1.6-3h0c0.8-0.4,1.9-0.9,3.4-1.4c1.1-0.4,2.2-0.7,3.3-0.9h0
			C407.5,301,417.6,308,408.8,332L408.8,332z"/>
		<path d="M432,330.3c17.8,16.5,7,46.9-16.9,49.4c-23.9,2.5-32-25.3-32-25.3h0l2.6-3l2.8,2.5l0.6,0.6c0,0,11.9,30.1,34.7,16.7
			c22.8-13.4,4.2-38.4,4.2-38.4c-4,2.4-9.4,2-9.4,2s66-51.3,35.5-70.6c-8.1-5.1-16-4.6-23.2-1.1c-13.7,6.6-25,24.1-30.8,34.4h0
			c-1.2,2.2-2.2,4-2.8,5.4h0c-0.8,1.5-1.2,2.4-1.2,2.4l-2.7-0.1l-2.8-0.1h0l2.9-5.3l2.6-4.9l0,0c12.8-29.4,27.8-38.9,39.8-41
			c0.8-0.1,1.6-0.2,2.4-0.3c1-0.1,2-0.1,3-0.1c9.9,0,16.7,4.4,16.7,4.4C487,289.3,432,330.3,432,330.3L432,330.3z"/>
		<path class="st8" d="M353,298.2c0.1-9.8,4-19.2,10.6-26.5c1.2-1.3,2.4-2.6,4.2-3.2c2.3-0.7,4.5-0.3,6.7,1.2l0.4,0.9
			c-0.1,2.6-0.1,4.1-0.9,6c-0.5,1.2-1.6,1.9-2.5,2.8c-1.8,1.8-3.6,3.8-5.5,5.9c-3.6,4.1-8.1,9.5-12.1,13.2L353,298.2L353,298.2
			L353,298.2z"/>
		<path class="st8" d="M419.8,287.8c3.2-8.6,9.7-15.4,17.9-19.5c2.6-1.5,5.7-2,8.2,0.1c0.8,0.7,1.4,1.3,2,2.3l0.1,1
			c-0.7,1.9-1.5,3.8-2.7,5.2c-0.8,0.9-1.9,1.1-3,1.6c-4.6,1.9-9.2,4.4-13.8,6.7c-2.5,1.2-5,2.4-7.9,3.4L419.8,287.8L419.8,287.8
			L419.8,287.8z"/>
		<path class="st8" d="M338.3,355.9c3.4,6.8,7.8,9.8,15.1,11c2.3,0.4,4.7,0.6,7.4,0.8l0.2,0.4c-6.3,6.5-19.2,5-23-3.6
			c-1.3-2.8-1.4-5.9-0.3-8.6L338.3,355.9L338.3,355.9z"/>
		<path class="st8" d="M404.9,363.1c14.5-1.7,15.3-3.8,19.4-17.2h1c2.4,9.1-1.5,20.1-12.3,20c-3,0-5.8-0.5-8.4-1.9L404.9,363.1
			L404.9,363.1L404.9,363.1z"/>
		<path d="M461.7,453.1h-10.9c0,0,12-10.2,15.1-24.8c2.5-11.5-22.7-39.7-33.5-51.1c-1.2-1.3-2.3-2.4-3.1-3.2
			c-1.1-1.1-1.7-1.8-1.7-1.8l1.1-0.9l2.7-2c0.5,0.4,1,0.9,1.5,1.3c1.1,1,2.3,2,3.4,3h0c22.2,20.4,37.1,42.5,37.5,52.5
			C474.3,437,461.7,453.1,461.7,453.1z"/>
		<g>
			<path d="M391.8,407.2c-1.7,1.6-3.6,3.8-5.7,6.5c-10.5,13.7-23.9,38.6-23.9,38.6h-10c0.8-4.6,10-18.8,10-18.8
				c-0.2-1.8-1.2-4.1-2.6-6.7c-3.7-6.9-9.8-15-10.1-15.4c4.3,2,10.1,7.3,14.1,11.4c2.7,2.8,4.6,4.9,4.6,4.9
				C382.9,410.3,391.3,407.4,391.8,407.2L391.8,407.2z"/>
			<path d="M391.3,406.7c-3.4,3.1-6.1,6.9-8.8,10.7s-4.9,7.3-7.2,11c-4,6.4-7.8,13-11.5,19.6c-0.8,1.3-1.5,2.7-2.2,4l0.6-0.4h-10
				l0.7,1c0.5-2.6,2-5.2,3.3-7.5c1.5-2.8,3.2-5.5,4.8-8.2c0.5-0.8,1-1.6,1.5-2.4s0.4-1.4,0.1-2.3c-1.3-4.5-4.1-8.8-6.7-12.7
				c-1.9-2.8-3.8-5.6-5.8-8.3l-1,1c4.1,1.9,7.5,5.1,10.8,8.2c2.7,2.5,5.3,5.2,7.7,7.9c0.2,0.3,0.8,0.3,1.1,0
				c4.3-5.1,8.9-10.1,14.1-14.4c2.4-2,5-4,7.9-5.4c0.6-0.3,0.8-0.4,1.3-0.6c0.9-0.3,0.5-1.7-0.4-1.5c-1.5,0.5-2.9,1.4-4.2,2.2
				c-3.9,2.5-7.5,5.6-10.8,8.9c-3.1,3.1-6.1,6.3-9,9.7h1.1c-2.5-2.9-5.2-5.6-8-8.2c-3.2-3-6.7-6.2-10.8-8.1c-0.6-0.3-1.5,0.4-1,1
				c1.6,2.1,3.2,4.3,4.7,6.6c2.6,3.9,5.4,8,7.1,12.5c0.2,0.5,0.4,1.1,0.5,1.6c0.1,0.3,0.1,1.3,0.3,0.7c0,0.1-0.2,0.3-0.2,0.4
				c-0.5,0.8-1,1.5-1.5,2.3c-1.6,2.6-3.2,5.2-4.7,7.9s-3.2,5.4-3.7,8.3c-0.1,0.5,0.2,1,0.7,1h10c0.3,0,0.5-0.1,0.6-0.4
				c6-11.2,12.5-22.3,19.7-32.8c2.9-4.3,6-8.6,9.8-12.2C393,407.1,392,406.1,391.3,406.7L391.3,406.7z"/>
		</g>
		<path class="st7" d="M259.6,298.4c-1.3,1-2.5,2-3.7,3.1c-0.1,0.1-0.3,0.2-0.4,0.4c0,0,0,0,0,0c-0.2,0.2-0.5,0.4-0.7,0.6
			c-4.8,4.2-9.1,8.8-13.2,13.6c-0.8,1-1.6,2-2.4,3c-41.8,52.9-43.9,134.1-43.9,134.1h-9c0.5-25.7,4.3-47.5,9.9-66
			c1.1-3.5,2.2-6.8,3.4-10c14.1-38.5,36-60.6,49.1-71.1h0c2-1.6,3.9-3,5.4-4.1l0.1-0.1c0.3-0.2,0.6-0.4,0.9-0.6
			c0.1,0,0.1-0.1,0.2-0.1l0,0c0,0,0,0,0.1,0h0l0,0C257.9,299.4,259.5,298.5,259.6,298.4L259.6,298.4z"/>
		<path d="M255.3,301.1L255.3,301.1l-1.1,0.8l-0.1,0.1l-5.4,4.1h0c-27.8-6.9-98.4-71.1-98.4-71.1c3.6-32.1-13.5-44.6-13.5-44.6
			s21.2-27.8,15.8-35.8c-5.4-8-30.6,1.7-30.6,1.7s23.4-20.1,35.2-5.9c11.8,14.2-12,40.4-12,40.4c14.9,9.6,12,41.1,12,41.1
			C169.1,248.2,252.7,299.4,255.3,301.1C255.3,301.1,255.3,301.1,255.3,301.1L255.3,301.1z"/>
		<path d="M199.6,377.1l-3.4,10c-77.6-35.8-77.7-119-77.7-122.9V264c0,0,0,0.1,0,0.1C140.5,366.2,199.6,377.1,199.6,377.1
			L199.6,377.1z"/>
		<g>
			<path d="M137.9,246.9c0,0-6.1,9.2-19.3,17.3c0,0,0,0,0,0c-10.4,6.4-25.2,12.1-44.9,12.1c-36.8-0.1-43.2-15.3-43.8-24.6v0
				c-0.1-1.2,0-2.3,0-3.2c0.2-2.2,0.6-3.6,0.6-3.6s9-14.2,45.6-0.8c-1.4-0.3-43.7-10.2-42.7,7.3C34.7,274.5,92.1,289.9,137.9,246.9z
				"/>
			<path d="M137.2,246.5c-2.6,3.9-6.2,7.3-9.8,10.4c-6.4,5.4-13.7,9.7-21.4,12.8c-8.5,3.4-17.5,5.2-26.7,5.8s-18.2,0.1-27-2.1
				s-18-7.2-20.9-16.5c-0.4-1.4-0.7-2.8-0.8-4.2c-0.1-1.7-0.1-3.4,0.1-5.1c0.1-0.7,0.2-1.4,0.4-2.1c0-0.2-0.1,0.2,0,0.1
				c0.1-0.3,0,0,0.2-0.3c0.2-0.2,0.4-0.5,0.7-0.7c0.8-0.7,1.6-1.4,2.5-1.9c3.4-2.1,7.5-2.9,11.4-3.2c7.6-0.5,15.2,1,22.5,3.2
				c2.5,0.7,5,1.6,7.5,2.5l0.4-1.4c-7.5-1.8-15.3-2.9-23-3.1c-7.4-0.2-21.2,0.6-20.6,11.1c0.5,9.1,8.8,15.4,16.4,18.7
				c11.8,5.1,25.3,5.7,37.9,3.6c16.9-2.7,32.6-10.6,45.8-21.4c1.9-1.6,3.8-3.2,5.6-4.9c0.7-0.7-0.4-1.7-1.1-1.1
				c-12.6,11.8-27.8,20.7-44.7,24.7c-12.5,3-26.1,3.3-38.5-0.7c-7.9-2.5-17.2-7.6-19.6-16.2c-1-3.6-0.4-7.4,2.9-9.5
				c3.7-2.4,8.7-2.8,13-2.9c8.3-0.1,16.6,1.1,24.7,2.9c0.2,0.1,0.4,0.1,0.7,0.2c0.9,0.2,1.3-1.1,0.4-1.4c-8.4-3.1-17.3-5.5-26.2-5.8
				c-4.9-0.1-9.9,0.4-14.4,2.5c-2,0.9-4,2.2-5.4,3.9c-0.7,0.8-0.8,1.8-0.9,2.8c-0.4,2.6-0.4,5.2,0.1,7.7c1.6,9,8.7,15.1,16.9,18.3
				c7.6,3,16,3.9,24.1,4.1c10.1,0.3,20.2-0.8,29.8-3.8c14.4-4.4,28.4-12.9,37.6-25.1c0.2-0.3,0.4-0.6,0.6-0.9
				C139.1,246.5,137.8,245.7,137.2,246.5L137.2,246.5z"/>
		</g>
		<g>
			<path d="M87,245c0.5-9.5-5.1-16.4-5.1-16.4l-48.2-3.9c0,0-15,2.3-15.7,12.3s11.8,11.6,11.8,11.6l0,3.2v0l0,3.4
				c-4.5-0.5-16.1-4.3-17.2-16.8c-1.1-12.4,11.6-16.6,11.6-16.6c-0.9-6.4,5.6-9,5.6-9c26.6-7.4,41.3-4.7,49.3,1.6
				C92.4,224.7,87,245,87,245z"/>
			<path d="M87.8,245c0.3-5.7-1.5-11.5-4.7-16.2c-0.4-0.6-0.7-0.9-1.4-1c-0.8-0.1-1.6-0.1-2.3-0.2l-23.8-1.9L34.6,224
				c-1.5-0.1-2.9,0.3-4.3,0.7c-4.1,1.2-8.3,3.2-10.9,6.7c-2.9,3.9-2.7,9.4,0.5,13c2.3,2.6,5.9,4.1,9.2,4.7c0.3,0.1,0.5,0.1,0.8,0.1
				l-0.8-0.8c0,2.2,0,4.4-0.1,6.6l0.8-0.8c-6-0.7-12-4.4-14.7-9.8c-1.9-3.7-2.4-8.3-1.1-12.3c1-3,3.2-5.6,5.8-7.4
				c1.4-1,3-1.9,4.6-2.4c0.3-0.1,0.6-0.4,0.5-0.7c-0.4-3.3,1.2-6,3.9-7.7c0.9-0.6,1.3-0.7,2.1-0.9c2.6-0.7,5.1-1.3,7.7-1.9
				c8-1.7,16.3-2.8,24.5-2c5.2,0.5,10.4,1.9,14.7,5c5.8,4.1,8.7,10.8,9.3,17.7c0.4,4.2,0.2,8.7-0.9,12.8c-0.2,0.9,1.2,1.3,1.4,0.4
				c1-3.7,1.3-7.8,1.1-11.6c-0.3-7.3-2.9-14.7-8.7-19.5c-4.2-3.5-9.6-5.3-14.9-6.1c-8.3-1.2-16.8-0.2-24.9,1.4
				c-3.1,0.6-6.1,1.3-9.2,2.1c-1.2,0.3-2.1,0.6-3.1,1.3c-3.1,2-5,5.2-4.5,8.9L24,221c-4.7,1.6-9.1,5.2-11,9.8
				c-3.4,8,0.5,17.2,7.5,21.7c2.8,1.8,6,3,9.3,3.4c0.4,0.1,0.8-0.4,0.8-0.8c0-2.2,0-4.4,0.1-6.6c0-0.4-0.4-0.7-0.8-0.8
				c0.4,0.1-0.4-0.1-0.5-0.1c-0.6-0.1-1.1-0.2-1.7-0.4c-1.7-0.5-3.4-1.2-4.9-2.2c-3.9-2.7-5.2-7.8-2.8-12c2.1-3.6,6.4-5.6,10.2-6.8
				c1.1-0.3,2.3-0.6,3.4-0.8c0.4-0.1,0.1,0,0.1,0c0.2,0,0.4,0,0.5,0L53,227l23.9,1.9l3.5,0.3c0.2,0,1.3,0.3,1.5,0.1
				c-0.3,0.2-0.8-0.7-0.2,0.2c0.4,0.6,0.9,1.3,1.2,2c1.4,2.4,2.4,5.1,2.9,7.9c0.4,1.9,0.5,3.7,0.4,5.6C86.2,246,87.7,246,87.8,245
				L87.8,245z"/>
		</g>
	</g>
</g>
<g id="b">
	<g>
		<path class="st9" d="M121.6,188.2c0,0-11.9-8.2-4.4-24.5c-10.3-3.4-14.2-8.9-15.2-14l-9.3,8.8l14.8-115l24.4-2.9
			c7.1,7,9.3,20.8-1.7,44.3c-3.5,7.6-2.4,16.5,2.6,23.2c7,9.4,13.2,25.3,0.3,45.9c-4.7,7.6-5.1,17.1-1.1,25
			c8.6,17.1,12.7,44-1.8,54.3L121.6,188.2L121.6,188.2z"/>
		<path class="st9" d="M65.1,194.6l3.9-6.4l-25-4.9c2.3-4.8,4.6-13.5-0.2-24.1c10.9,0.3,15.6-3.2,17.2-7.5l24.3,10.5l-3-109.8
			c0,0-25.3-8.1-51.2-16.3c-9.9,6.1-14,21.4-1.2,48.8c3.5,7.6,2.4,16.4-2.6,23.2c-7,9.4-13.2,25.4-0.3,45.9c4.7,7.6,5.1,17.1,1.1,25
			c-9.9,19.7-12.7,52.2,11.4,57.7L65.1,194.6L65.1,194.6z"/>
		<path class="st10" d="M87.9,231.2l31.1-14.4l2.6-28.6c-2.6-1.9-10-12.2-4.4-24.5c-15.2-5.6-15.2-14-15.2-14s8.2-1.2,10.4-1.2
			s-3.2-54.2-3.2-54.2h-51L50.8,124L61,151l-3.5-3.2c1.3,2.5-2.2,12.6-13.7,11.5c4.1,17.4-4.8,39.7-4.8,39.7l38,31.3
			c1.4-0.6,2.8-1.2,4.3-1.9C83.5,229.4,85.8,230.4,87.9,231.2"/>
		<g id="c">
			<path class="st11" d="M130.2,233.3c-6.5,4.6-16.8,5.9-32.1,1.4c-3.2-0.9-6.6-2.1-10.2-3.5c-1.9-9.2-3-33,33.7-43
				C133.5,198.8,139.6,216.2,130.2,233.3L130.2,233.3z"/>
			<path class="st11" d="M76.9,230.2c-4.5,1.9-8.7,3.4-12.6,4.5c-10.5,3-18.7,3.4-25,1.9c-7-15-7.2-39.6,3.9-52.6
				C75.5,192.6,77.5,219.3,76.9,230.2L76.9,230.2z"/>
			<path class="st11" d="M119.8,71.4c0.2-4.3-0.7-7.9-2.4-10.8c-2.4-4.2-6.4-6.8-10.8-7.8c0.6-0.7,7.3-8.7,19.9-6.2
				C134.6,61,121.6,68.9,119.8,71.4L119.8,71.4z"/>
			<path class="st11" d="M55.8,53.2c-4.1,0.9-7.8,3.1-10.3,6.6c-1.9,2.7-3.1,6.2-3,10.5c-0.3-2.4,0.8-4.9-1-6.8
				c-7-7-1.4-17.6-0.2-19.7l0,0c0.1-0.2,0.2-0.4,0.2-0.4c13.4,0.7,14.3,9.3,14.3,9.3L55.8,53.2L55.8,53.2z"/>
			<path class="st11" d="M121.7,101.2c-4.4-6.6-5.5-14.8-3.2-22.3c0.8-2.7,1.2-5.2,1.3-7.5c0.2-4.3-0.7-7.9-2.4-10.8
				c-2.4-4.2-6.4-6.8-10.8-7.8c-11.9-3-26.4,5.5-19.1,24.9c0.3,0.8,0.5,1.6,0.6,2.3c1.3,9.2-13.2,10.7-11.5,0
				c0.1-0.7,0.3-1.4,0.5-2.2C83,59,67.9,50.5,55.8,53.2c-4.1,0.9-7.8,3.1-10.3,6.6c-1.9,2.7-3.1,6.2-3,10.5c0,2.6,0.4,5.4,1.4,8.5
				c2.2,7.6,4.1,15.8-0.3,22.3c-9.2,13.7-17.9,36.8-2,49.2c5.1,4,8.9,5.6,15.1,3.7c1.2-0.4,2.4-0.9,3.5-1.6c4.6-2.9,8.9-11,6.5-23.1
				c-1-5-3-11-6.3-18.4c-0.3-0.7-0.7-1.5-1-2.2c-2.7-5.7,4-2.8,8-2c-2.3-2.2-4.5-5-6.3-8.7c0-0.1,0.1-0.2,0.2-0.1
				c5.5,4.1,20,3.5,20,3.5s17.9,0.6,24.1-3.2c0.2-0.2,0.5,0.1,0.4,0.3c-1.9,4.2-4.4,7.2-7.2,9.4c0.4,0,0.8,0,1,0
				c3.6-1.2,10-2.5,7.3,3.1c-0.2,0.5-0.5,1.1-0.7,1.6c-4.5,9.8-6.7,17.3-7.3,23.1c-0.7,6.7,0.8,11.1,3.2,14c1.8,2.2,4.3,3.6,6.7,4.3
				c6.2,2,12.9,0.3,18.1-3.7C142.6,138,131,114.9,121.7,101.2L121.7,101.2z M64.9,76.2c-3.5,0-6.3-2.8-6.3-6.3s2.8-6.3,6.3-6.3
				s6.3,2.8,6.3,6.3S68.3,76.2,64.9,76.2z M98.3,76.2c-3.5,0-6.3-2.8-6.3-6.3s2.8-6.3,6.3-6.3s6.3,2.8,6.3,6.3S101.7,76.2,98.3,76.2
				z"/>
		</g>
		<path class="st12" d="M131.9,40.6c-2.2,1.8-4,4-5.4,6C114,44,107.2,52,106.6,52.7c-11.9-3-26,5.3-19.1,24.9
			c4.8,13.7-15.2,14.5-10.4,0c6.2-18.5-9.2-27.2-21.3-24.5l0-0.4c0,0-0.9-8.5-14.3-9.3c0,0-0.1,0.1-0.2,0.4
			c-0.9-3.6-3.8-7.1-11.6-7.2c7.6-5.5,19.5-4.9,30.2,0.3c2.6,1.2,5.5,1.4,8.3,0.7c5.3-1.4,13-1.8,13-1.8s7.8,0.5,13,1.8
			c2.8,0.7,5.7,0.5,8.3-0.7C111.3,33.2,124.4,33.1,131.9,40.6L131.9,40.6z"/>
		<path class="st9" d="M46,59.8c-3,4.6-4.8,9.5-5.9,14.8C37.9,69.3,40.6,62.2,46,59.8L46,59.8z"/>
		<path class="st9" d="M126.4,46.9c-7.2-0.1-14.1,2.4-19.7,6.8l-0.3-1.4c1.4,0.6,2.9,1.2,4.2,2.1c0.4,0.3,0.9,0.6,1.2,1
			c-0.8-0.4-2.1-0.6-3-0.8c-0.9-0.2-3.5-0.8-4.3-1C109.8,47.5,118.8,43.8,126.4,46.9L126.4,46.9L126.4,46.9z"/>
		<path class="st9" d="M54.8,87.3c1.4-0.2,2.8-0.3,4.2-0.5l0.2,0.1c14.8,8.9,32.5,7.3,47.6,0.1l0.1,0c1.1,0.1,2.1,0.2,3.1,0.3
			c-1,0.1-2.1,0.2-3.1,0.3l0.1,0c-13.9,10.4-34.9,11.9-48.5,0.1l0.3,0.1C57.6,87.6,56.2,87.5,54.8,87.3L54.8,87.3L54.8,87.3z"/>
		<ellipse class="st13" cx="82.3" cy="83.2" rx="5.1" ry="3.7"/>
		<path class="st13" d="M105.7,98.6c-1.9,4.2-4.4,7.2-7.2,9.4c-7.3,5.9-16,6-16.2,6c0,0-7.9-0.4-15-7.2c-2.3-2.2-4.5-5-6.3-8.7
			c0-0.1,0.1-0.2,0.2-0.1c5.5,4.1,37.9,4.1,44.1,0.3C105.5,98.1,105.8,98.3,105.7,98.6L105.7,98.6z"/>
		<g id="d">
			<path class="st8" d="M36.3,99.2c5.9-3.2,15.2-1.5,17.8,5.2C48.6,100.9,42.6,100.4,36.3,99.2C36.3,99.2,36.3,99.2,36.3,99.2z"/>
			<path class="st8" d="M41.3,43.9c6.3-2.2,15.2,1.9,14.6,9.3C53.1,47.1,47.6,45.2,41.3,43.9L41.3,43.9z"/>
			<path class="st8" d="M120.2,70.9c2.9-3.4,5.9-6.9,7.1-11.2c1.2-4.3,0.8-8.8-0.7-13.1C133.4,54.9,129.3,66.4,120.2,70.9
				L120.2,70.9L120.2,70.9z"/>
			<g>
				<path class="st14" d="M105.4,114c0,0-6.8,9.7-6.8,24.5"/>
				<path class="st8" d="M105.4,114c-2.7,8.2-4.7,16.2-6.8,24.5C96.6,130.1,99.1,120.1,105.4,114L105.4,114z"/>
			</g>
			<g>
				<path class="st8" d="M74.9,137.8c-3.6-1.4-4.7-6.4-3-9.6C72.9,131.5,73.3,134.4,74.9,137.8L74.9,137.8z"/>
				<path class="st8" d="M78,137.8c0.7-3.6,1.2-6.5,1.5-10C81.8,130.7,81,135.6,78,137.8L78,137.8z"/>
				<path class="st8" d="M87.8,145.8c-3.4-1.8-4.1-6.9-2-9.9C86.4,139.4,86.5,142.3,87.8,145.8L87.8,145.8z"/>
				<path class="st8" d="M90.8,146.1c1.1-3.5,1.8-6.3,2.5-9.8C95.3,139.4,94.1,144.2,90.8,146.1L90.8,146.1z"/>
				<path class="st8" d="M81.8,182.1c-3.4-1.8-4.1-6.9-2-9.9C80.4,175.8,80.6,178.7,81.8,182.1L81.8,182.1z"/>
				<path class="st8" d="M84.9,182.4c1.1-3.5,1.8-6.3,2.5-9.8C89.4,175.8,88.1,180.6,84.9,182.4L84.9,182.4z"/>
				<path class="st8" d="M83.3,202.2c-3.4-1.8-4.1-6.9-2-9.9C81.9,195.8,82.1,198.7,83.3,202.2L83.3,202.2z"/>
				<path class="st8" d="M86.4,202.5c1.1-3.5,1.8-6.3,2.5-9.8C90.9,195.8,89.6,200.6,86.4,202.5L86.4,202.5L86.4,202.5z"/>
				<path class="st8" d="M69,186.1c-3.8-0.9-5.7-5.6-4.4-9.1C66.1,180.2,66.9,183,69,186.1C69,186.1,69,186.1,69,186.1z"/>
				<path class="st8" d="M72.1,185.6c0.2-3.6,0.2-6.6,0-10.1C74.8,178,74.7,183,72.1,185.6L72.1,185.6z"/>
				<path class="st8" d="M97.4,185.6c-3.1-2.2-3-7.4-0.5-10.1C97,179,96.7,182,97.4,185.6L97.4,185.6z"/>
				<path class="st8" d="M100.5,186.3c1.6-3.3,2.7-6,3.9-9.4C105.9,180.4,103.9,185,100.5,186.3L100.5,186.3z"/>
				<path class="st8" d="M85.6,123c-3.7-1.2-5.1-6.1-3.5-9.4C83.2,116.9,83.8,119.8,85.6,123L85.6,123z"/>
				<path class="st8" d="M88.7,122.8c0.5-3.6,0.8-6.5,0.9-10.1C92.1,115.5,91.6,120.4,88.7,122.8L88.7,122.8z"/>
				<path class="st8" d="M74.4,161.6c-3.7-1.2-5.1-6.1-3.5-9.4C72.1,155.5,72.7,158.3,74.4,161.6L74.4,161.6z"/>
				<path class="st8" d="M77.5,161.4c0.5-3.6,0.8-6.5,0.9-10.1C80.9,154.1,80.4,159,77.5,161.4L77.5,161.4z"/>
				<path class="st8" d="M89.4,164.1c-3.2-2.2-3.2-7.3-0.7-10.1C88.8,157.6,88.6,160.5,89.4,164.1L89.4,164.1z"/>
				<path class="st8" d="M92.4,164.8c1.5-3.3,2.6-6,3.8-9.4C97.7,158.8,95.8,163.4,92.4,164.8L92.4,164.8z"/>
			</g>
			<path class="st8" d="M114.2,198.6c-6.5,5.5-14.6,8.6-18.8,16.3C94.1,205.6,106.1,198.7,114.2,198.6L114.2,198.6z"/>
			<path class="st8" d="M34.8,204.5c1.5,10.8,1.2,21.4,4.5,31.9C31.4,228.9,31.1,214.2,34.8,204.5L34.8,204.5z"/>
		</g>
		<g>
			<defs>
				<circle id="SVGID_1_" cx="65.6" cy="69.1" r="8.2"/>
			</defs>
			<clipPath id="SVGID_00000030446861972004456730000010883596372270686138_">
				<use xlink:href="#SVGID_1_"  style="overflow:visible;"/>
			</clipPath>
			<g style="clip-path:url(#SVGID_00000030446861972004456730000010883596372270686138_);">
				<g>
					<circle class="st12" cx="65.6" cy="69.2" r="8.3"/>
					<path class="st8" d="M65.1,60.8c1.8-0.9,4.1-0.5,5.9,0.7c5.8,3.7,5.1,13-1.7,15.1c1.1-1.6,2-3.1,2.4-4.7
						C73,67.2,70.1,61.8,65.1,60.8L65.1,60.8L65.1,60.8z"/>
					<path class="st9" d="M66,60.8c-5.1,2.8-7.8,7.2-4.5,12.5c0.9,1.5,2.2,2.9,3.9,4.2c-4.6,0.2-9-4-9-8.8
						C56.3,63.7,61.4,59.9,66,60.8L66,60.8L66,60.8z"/>
					<text transform="matrix(1 0 0 1 15.77 97.71)" class="st16 st17">ff</text>
					<text transform="matrix(1 0 0 1 15.77 97.71)" class="st18 st16 st17">ff</text>
					<text transform="matrix(1 0 0 1 19.18 97.71)" class="st16 st17">f</text>
					<text transform="matrix(1 0 0 1 19.18 97.71)" class="st18 st16 st17">f</text>
					<text transform="matrix(1 0 0 1 20.81 97.71)" class="st16 st17">c</text>
					<text transform="matrix(1 0 0 1 20.81 97.71)" class="st18 st16 st17">c</text>
					<text transform="matrix(1 0 0 1 23.44 97.71)" class="st16 st17">f8</text>
					<text transform="matrix(1 0 0 1 23.44 97.71)" class="st18 st16 st17">f8</text>
				</g>
			</g>
		</g>
		<g>
			<defs>
				<circle id="SVGID_00000063606789620063909690000009550405952529281177_" cx="96.8" cy="69.1" r="8.2"/>
			</defs>
			<clipPath id="SVGID_00000061471440726418438620000015524495667874268800_">
				<use xlink:href="#SVGID_00000063606789620063909690000009550405952529281177_"  style="overflow:visible;"/>
			</clipPath>
			<g style="clip-path:url(#SVGID_00000061471440726418438620000015524495667874268800_);">
				<g>
					<circle class="st12" cx="96.8" cy="69.1" r="8.3"/>
					<path class="st8" d="M97.3,77.4c-1.8,0.9-4.1,0.5-5.9-0.7c-5.8-3.7-5.1-13,1.7-15.1c-1.1,1.6-2,3.1-2.4,4.7
						C89.4,71.1,92.3,76.4,97.3,77.4L97.3,77.4L97.3,77.4z"/>
					<path class="st9" d="M96.3,77.4c5.1-2.8,7.8-7.2,4.5-12.5c-0.9-1.5-2.2-2.9-3.9-4.2c4.6-0.2,9,4,9,8.8
						C106.1,74.6,101,78.3,96.3,77.4L96.3,77.4L96.3,77.4z"/>
				</g>
			</g>
		</g>
	</g>
</g>
</svg>
