<?xml version="1.0" encoding="UTF-8"?><svg xmlns="http://www.w3.org/2000/svg" viewBox="0 0 50 50"><defs><style>.d{fill:#fff;}.e{fill:#bd8e1d;}</style></defs><g id="a"/><g id="b"/><g id="c"><g><path class="e" d="M34.07,19.04c6.12,10.62,3.3,36.63-16.63,28.8C-2.49,40.02,14.53,15.48,25.9,15.83c0,0,1.4-3.56-1.76-8.08,3.13,.41,4.27,1.68,4.27,1.68,0,0-.61-6.81,.66-7.96l2.16,4.96,3.94-5.85,.18,5.82s5.67-1.88,6.1-.89c0,0-4.37,4.86-4.22,6.56,0,0,3.84,.69,4.27,1.68s-5.7,1.87-7.44,5.3Z"/><ellipse class="d" cx="29.28" cy="25.57" rx="1.22" ry=".81" transform="translate(-5.09 43.72) rotate(-68.98)"/><ellipse class="d" cx="24.25" cy="38.63" rx="1.22" ry=".81" transform="translate(-20.51 47.41) rotate(-68.98)"/><ellipse class="d" cx="21.74" cy="45.17" rx="1.22" ry=".81" transform="translate(-28.22 49.26) rotate(-68.98)"/><ellipse class="d" cx="26.55" cy="43.8" rx="1.22" ry=".81" transform="translate(-23.86 52.87) rotate(-68.98)"/><ellipse class="d" cx="29.06" cy="37.27" rx="1.22" ry=".81" transform="translate(-16.15 51.03) rotate(-68.98)"/><ellipse class="d" cx="31.93" cy="29.8" rx="1.22" ry=".81" transform="translate(-7.34 48.92) rotate(-68.98)"/><ellipse class="d" cx="33.3" cy="34.61" rx="1.22" ry=".81" transform="translate(-10.95 53.28) rotate(-68.98)"/><ellipse class="d" cx="31.13" cy="42.33" rx=".88" ry=".59" transform="translate(-19.55 56.2) rotate(-68.98)"/><ellipse class="d" cx="18.85" cy="40.82" rx=".88" ry=".59" transform="translate(-26.01 43.77) rotate(-68.98)"/><ellipse class="d" cx="26.53" cy="31.99" rx=".88" ry=".59" transform="translate(-12.84 45.28) rotate(-68.98)"/></g></g></svg>