<?xml version="1.0" encoding="UTF-8"?><svg xmlns="http://www.w3.org/2000/svg" viewBox="0 0 50 50"><defs><style>.c{fill:#bd8e1d;}</style></defs><g id="a"/><g id="b"><path class="c" d="M21.27,47.31h0c-1.03-1.03-2.51-1.45-3.93-1.12l-.18,.04c-2.59,.61-5.27-.49-6.71-2.73C-6.62,16.76,12.55,.92,24.08,8.92c-4.08-3.5-2.72-7.78-2.72-7.78,0,0,6.8,2.14,6.8,8.16,.58,.39,2.92-5.25,2.92-5.25,0,0,.19,1.17,1.75,2.14-3.3,1.94-3.69,5.05-3.69,5.05,29.49-2.4,15.99,33.65-2.88,37.56-1.81,.37-3.68-.2-4.99-1.5Z"/></g></svg>