<?xml version="1.0" encoding="UTF-8"?><svg xmlns="http://www.w3.org/2000/svg" viewBox="0 0 50 50"><defs><style>.c{fill:#fff;}.d{fill:#bd8e1d;}</style></defs><g id="a"/><g id="b"><path class="d" d="M15.34,16.36S19.56,4.89,13.32,1.35c0,0-5.65,10.54-1.43,14.09,0,0-3.71-2.36-7.25-1.18l.84,1.52s3.71-.84,5.91,.84c-8.1,0-9.62,4.89-9.62,4.89,0,0,8.27,2.19,11.14-1.69-3.88,7.93,.17,17.38,5.91,21.93,15.99,11.99,20.76,2.32,26.25,4,.3,.09,.57-.21,.46-.5-1.89-5.08,5.93-14-6.8-25.77,0,0-10.63-11.3-23.37-3.12Z"/><ellipse class="c" cx="40.15" cy="26.15" rx=".76" ry=".93"/><ellipse class="c" cx="38.29" cy="28.76" rx=".93" ry="1.01"/><ellipse class="c" cx="41.83" cy="29.61" rx=".76" ry=".84"/><circle class="c" cx="39.81" cy="31.89" r=".59"/><ellipse class="c" cx="37.36" cy="24.63" rx=".51" ry=".42"/><ellipse class="c" cx="38.21" cy="23.53" rx=".51" ry=".34"/></g></svg>