<?xml version="1.0" encoding="UTF-8"?><svg xmlns="http://www.w3.org/2000/svg" viewBox="0 0 50 50"><defs><style>.c{fill:#fff;}.d{fill:#bd8e1d;}</style></defs><g id="a"/><g id="b"><path class="d" d="M33.55,16.21s6.86-1.2,10.11-8.4c-5.48-2.57-12.34,3.6-12.34,3.6,0,0,4.97-5.31,.34-9.94-6,2.4-3.94,8.74-3.94,8.74,0,0-2.23-7.03-8.74-9.43-2.4,7.03,4.97,13.2,4.97,13.2-6.33-3.09-27.14,6.14-7.42,31.77,2.12,2.75,5.82,3.74,9.02,2.38,28.51-12.12,16.26-32.9,8-31.93Z"/><ellipse class="c" cx="31.76" cy="30.92" rx="1.22" ry=".81" transform="translate(-6.45 53.4) rotate(-74.71)"/><ellipse class="c" cx="35.89" cy="37.12" rx="1.22" ry=".81" transform="translate(-9.39 61.95) rotate(-74.71)"/><ellipse class="c" cx="40.02" cy="26.79" rx="1.22" ry=".81" transform="translate(3.62 58.33) rotate(-74.71)"/><ellipse class="c" cx="34.86" cy="21.63" rx="1.22" ry=".81" transform="translate(4.8 49.55) rotate(-74.71)"/><ellipse class="c" cx="35.89" cy="26.79" rx=".88" ry=".59" transform="translate(.58 54.34) rotate(-74.71)"/><ellipse class="c" cx="37.95" cy="32.99" rx=".88" ry=".59" transform="translate(-3.88 60.9) rotate(-74.71)"/><ellipse class="c" cx="31.76" cy="40.22" rx=".88" ry=".59" transform="translate(-15.42 60.24) rotate(-74.71)"/></g></svg>