<?xml version="1.0" encoding="UTF-8"?><svg xmlns="http://www.w3.org/2000/svg" viewBox="0 0 50 50"><defs><style>.d{fill:#fff;}.e{fill:#bd8e1d;}</style></defs><g id="a"/><g id="b"/><g id="c"><path class="e" d="M11.57,15.54s-2.5-1.67-3.06-7.1c2.92,4.04,10.02,4.04,10.02,4.04,0,0-1.25-3.48-.42-7.65,1.39,4.59,5.01,7.65,6.12,7.24l-2.23-10.06c1,0,2.44-1,2.44-1l1.11,11.13s4.31,.28,5.7-5.43c1.39,1.81,.28,5.43,.28,5.43,0,0,5.29,.97,11.69-5.7-2.5,8.21-4.17,8.63-4.17,8.63,1.25-.7,9.74,5.43,2.23,10.85,0,0,4.94,7.1-3.86,9.67,1.63,5.91-3.79,7.03-4.77,7.17,1.11,2.37-3.62,5.7-5.84,4.87-.97,1.53-8.63,3.2-9.18-4.73-7.65,2.37-7.65-7.1-6.68-7.51-3.34-1.11-5.01-5.01-2.64-9.04-2.09-.83-6.68-9.46,3.27-10.78Z"/><ellipse class="d" cx="12.57" cy="29.57" rx=".59" ry=".88"/><ellipse class="d" cx="17.57" cy="25.57" rx=".59" ry=".88"/><ellipse class="d" cx="15.57" cy="38.57" rx=".59" ry=".88"/><ellipse class="d" cx="22.57" cy="43.57" rx=".59" ry=".88"/><ellipse class="d" cx="30.57" cy="38.57" rx=".59" ry=".88"/><ellipse class="d" cx="22.94" cy="33.3" rx="1.22" ry=".81" transform="translate(-11.17 55.01) rotate(-87.91)"/><ellipse class="d" cx="10.94" cy="21.3" rx="1.22" ry=".81" transform="translate(-10.75 31.45) rotate(-87.91)"/></g></svg>