<?xml version="1.0" encoding="UTF-8"?><svg xmlns="http://www.w3.org/2000/svg" xmlns:xlink="http://www.w3.org/1999/xlink" viewBox="0 0 50 85"><defs><style>.ai{clip-path:url(#ac);}.aj{fill:#38a933;}.ak{fill:#36ad35;}.al{fill:#79b823;}.am{letter-spacing:0em;}.an{font-family:MyriadPro-Regular, Myriad Pro;font-size:2.36px;stroke:#fffcf8;stroke-miterlimit:10;stroke-width:.2px;}.ao{clip-path:url(#h);}.ap{fill:#76b727;}.aq{fill:#fef6a3;}.ar{fill:#e5deb2;}.as{fill:#117b23;}.at{fill:#d45700;}.au{fill:#a71009;}.av{clip-path:url(#ah);}.aw{fill:#ffee02;}.ax{clip-path:url(#ag);}.ay{clip-path:url(#x);}.b`{fill:#fed404;}.ba{fill:#801100;}.bb{clip-path:url(#n);}.bc{fill:#fdd501;}.bd{clip-path:url(#ab);}.be{fill:#f9bd05;}.bf{fill:#c00c0d;}.bg{clip-path:url(#o);}.bh{clip-path:url(#m);}.bi{fill:#bfd87c;}.bj{fill:#fecd04;}.bk{clip-path:url(#t);}.bl{fill:#ece6c2;}.bm{clip-path:url(#w);}.bn{fill:#e84c0f;}.bo{fill:#ff8a72;}.bp{fill:none;}.bq{fill:#f28801;}.br{fill:#ede7c3;}.bs{fill:#00842d;}.bt{fill:#149737;}.bu{fill:#e96908;}.bv{clip-path:url(#y);}.bw{fill:#ded5ae;}.bx{fill:#ec6804;}.by{fill:#fefbda;}.c`{clip-path:url(#s);}.ca{fill:#f8be75;}.cb{clip-path:url(#r);}.cc{fill:#fffcf8;}.cd{fill:#9e1006;}.ce{clip-path:url(#i);}.cf{fill:#c4d97e;}.cg{letter-spacing:-.01em;}.ch{clip-path:url(#ad);}</style><clipPath id="h"><rect class="bp" x="-70.5" y="150" width="501" height="128"/></clipPath><clipPath id="i"><circle class="bp" cx="148.07" cy="77.31" r="16.76"/></clipPath><clipPath id="m"><circle class="bp" cx="19.06" cy="15.91" r="3.29"/></clipPath><clipPath id="n"><circle class="bp" cx="31.62" cy="15.91" r="3.29"/></clipPath><clipPath id="o"><rect class="bp" x="25.23" y="-13.98" width="49.07" height="44.16"/></clipPath><clipPath id="r"><circle class="bp" cx="19.06" cy="15.91" r="3.29"/></clipPath><clipPath id="s"><circle class="bp" cx="31.62" cy="15.91" r="3.29"/></clipPath><clipPath id="t"><rect class="bp" x="-23.84" y="-13.98" width="49.07" height="44.16"/></clipPath><clipPath id="w"><circle class="bp" cx="19.06" cy="15.91" r="3.29"/></clipPath><clipPath id="x"><circle class="bp" cx="31.62" cy="15.91" r="3.29"/></clipPath><clipPath id="y"><rect class="bp" x="25.23" y="55.31" width="49.07" height="40.63"/></clipPath><clipPath id="ab"><circle class="bp" cx="19.06" cy="15.91" r="3.29"/></clipPath><clipPath id="ac"><circle class="bp" cx="31.62" cy="15.91" r="3.29"/></clipPath><clipPath id="ad"><rect class="bp" x="-23.84" y="30.18" width="98.34" height="25.12"/></clipPath><clipPath id="ag"><circle class="bp" cx="19.06" cy="15.91" r="3.29"/></clipPath><clipPath id="ah"><circle class="bp" cx="31.62" cy="15.91" r="3.29"/></clipPath></defs><g id="a"/><g id="b"/><g id="c"/><g id="d"/><g id="e"/><g id="f"/><g id="g"><g/><g class="ao"><g class="ce"><g/></g></g></g><g id="j"><g><path class="bs" d="M41.64,63.9s-4.78-3.29-1.79-9.87c-4.16-1.39-5.72-3.57-6.13-5.63l-3.74,3.53L35.95,5.6l9.84-1.18c2.86,2.83,3.74,8.36-.69,17.87-1.42,3.06-.98,6.63,1.03,9.34,2.82,3.8,5.32,10.22,.12,18.5-1.91,3.05-2.04,6.88-.43,10.09,3.46,6.89,5.12,17.72-.72,21.87l-3.46-18.18Z"/><path class="bs" d="M18.86,66.47l1.55-2.57-10.08-1.96c.91-1.94,1.85-5.45-.08-9.7,4.38,.12,6.27-1.28,6.94-3.03l9.8,4.22-1.2-44.25S15.58,5.91,5.16,2.61C1.19,5.07-.46,11.23,4.69,22.29c1.42,3.06,.98,6.63-1.03,9.34-2.82,3.8-5.32,10.22-.12,18.5,1.91,3.05,2.04,6.88,.43,10.09C0,68.14-1.15,81.27,8.57,83.46l10.29-16.99Z"/><path class="ak" d="M28.06,81.23l12.53-5.82,1.05-11.51c-1.05-.75-4.04-4.93-1.79-9.87-6.13-2.24-6.13-5.63-6.13-5.63,0,0,3.29-.5,4.18-.5s-1.29-21.82-1.29-21.82H16.05l-2.96,11.95,4.12,10.87-1.43-1.3c.51,1.01-.9,5.08-5.53,4.63,1.64,7.03-1.94,16-1.94,16l15.3,12.6c.57-.24,1.15-.49,1.74-.76,.94,.43,1.85,.81,2.72,1.16"/><g id="k"><path class="al" d="M45.1,82.08c-2.63,1.86-6.77,2.37-12.94,.57-1.28-.37-2.64-.84-4.1-1.42-.78-3.7-1.22-13.28,13.57-17.33,4.77,4.27,7.22,11.27,3.46,18.18Z"/><path class="al" d="M23.61,80.83c-1.83,.76-3.52,1.37-5.08,1.82-4.21,1.22-7.51,1.38-10.06,.78-2.81-6.03-2.91-15.94,1.56-21.19,13.03,3.41,13.82,14.18,13.58,18.59Z"/><path class="ap" d="M40.91,16.82c.08-1.74-.29-3.19-.97-4.34-.97-1.68-2.59-2.73-4.34-3.16,.24-.3,2.95-3.5,8.01-2.48,3.26,5.79-2,8.99-2.7,9.98Z"/><path class="ap" d="M15.13,9.49c-1.64,.37-3.15,1.25-4.14,2.68-.77,1.09-1.23,2.51-1.22,4.25-.12-.96,.33-1.99-.42-2.74-2.84-2.84-.58-7.09-.09-7.93h0c.05-.1,.09-.15,.09-.15,5.38,.3,5.76,3.74,5.76,3.74l.02,.16Z"/><path class="al" d="M41.68,28.84c-1.78-2.64-2.21-5.94-1.31-9,.32-1.09,.49-2.1,.54-3.02,.08-1.74-.29-3.19-.97-4.34-.97-1.68-2.59-2.73-4.34-3.16-4.78-1.19-10.65,2.21-7.71,10.04,.12,.32,.2,.62,.24,.91,.52,3.73-5.32,4.33-4.64-.01,.04-.28,.11-.58,.22-.89,2.37-7.5-3.71-10.95-8.57-9.86-1.64,.37-3.15,1.25-4.14,2.68-.77,1.09-1.23,2.51-1.22,4.25,0,1.03,.18,2.17,.55,3.42,.9,3.06,1.67,6.36-.11,9-3.71,5.5-7.21,14.81-.81,19.83,2.07,1.62,3.58,2.27,6.08,1.48,.48-.15,.96-.36,1.41-.64,1.87-1.15,3.58-4.44,2.61-9.31-.4-2.01-1.21-4.45-2.56-7.4-.13-.29-.27-.59-.42-.89-1.09-2.28,1.59-1.11,3.21-.81-.92-.88-1.8-2.02-2.53-3.5-.02-.04,.03-.08,.07-.06,2.22,1.66,8.07,1.41,8.07,1.41,0,0,7.22,.24,9.7-1.3,.09-.06,.21,.04,.16,.14-.76,1.68-1.79,2.9-2.9,3.8,.17,.02,.31,.01,.41-.01,1.46-.46,4.02-1.01,2.95,1.23-.1,.21-.2,.42-.3,.63-1.83,3.94-2.7,6.98-2.93,9.33-.27,2.7,.32,4.48,1.28,5.64,.74,.9,1.72,1.43,2.69,1.74,2.51,.79,5.21,.14,7.28-1.48,6.4-5.01,1.71-14.32-2-19.83Zm-22.92-10.08c-1.4,0-2.54-1.14-2.54-2.54s1.14-2.54,2.54-2.54,2.54,1.14,2.54,2.54-1.14,2.54-2.54,2.54Zm13.45,0c-1.4,0-2.54-1.14-2.54-2.54s1.14-2.54,2.54-2.54,2.54,1.14,2.54,2.54-1.14,2.54-2.54,2.54Z"/></g><path class="aj" d="M45.79,4.42c-.88,.71-1.62,1.6-2.19,2.42-5.06-1.03-7.77,2.18-8.01,2.48-4.78-1.19-10.48,2.15-7.71,10.04,1.94,5.53-6.13,5.83-4.19,0,2.49-7.47-3.71-10.95-8.57-9.86l-.02-.16s-.38-3.44-5.76-3.74c0,0-.03,.05-.09,.14-.37-1.47-1.55-2.86-4.67-2.89,3.06-2.2,7.84-1.96,12.18,.12,1.03,.49,2.22,.56,3.33,.27,2.12-.56,5.24-.75,5.24-.75,0,0,3.12,.19,5.24,.75,1.11,.29,2.28,.19,3.33-.27,3.55-1.53,8.83-1.56,11.87,1.44Z"/><path class="bs" d="M11.14,12.18c-1.24,1.93-1.92,3.78-2.39,5.98-.85-2.16,.24-5.02,2.39-5.98h0Z"/><path class="bs" d="M43.58,6.94c-2.9-.06-5.67,.98-7.94,2.75l-.12-.55c.77,.33,1.59,.64,2.21,1.23-.88-.32-2.04-.5-2.95-.73,2.11-2.42,5.68-3.94,8.81-2.7h0Z"/><path class="as" d="M14.73,23.24c.57-.07,1.13-.13,1.7-.18l.07,.04c5.87,3.61,13.23,2.92,19.25,.03l1.25,.11-1.25,.11c-5.28,4.11-14.12,4.8-19.48,.03l.11,.04c-.55-.05-1.11-.11-1.66-.18h0Z"/><ellipse class="as" cx="25.79" cy="21.59" rx="2.06" ry="1.49"/><path class="bt" d="M35.2,27.8c-.76,1.68-1.79,2.9-2.9,3.8-2.96,2.4-6.44,2.41-6.51,2.41,0,0-3.2-.17-6.05-2.9-.92-.88-1.8-2.02-2.53-3.5-.02-.04,.03-.08,.07-.06,2.22,1.66,15.29,1.65,17.77,.11,.09-.06,.21,.04,.16,.14Z"/><g id="l"><path class="cf" d="M7.25,28.02c2.37-1.27,6.14-.61,7.18,2.09-2.28-1.4-4.54-1.6-7.18-2.09h0Z"/><path class="cf" d="M9.26,5.74c2.52-.91,6.11,.78,5.87,3.75-1.09-2.43-3.36-3.23-5.87-3.75h0Z"/><path class="cf" d="M41.04,16.63c2.63-2.66,3.98-6.15,2.56-9.79,2.75,3.12,1.08,8.15-2.56,9.79h0Z"/><g><path class="bi" d="M35.1,34s-2.73,3.89-2.73,9.87"/><path class="cf" d="M35.1,34c-1.08,3.22-1.9,6.58-2.73,9.87-.83-3.42,.17-7.41,2.73-9.87h0Z"/></g><g><path class="cf" d="M22.8,43.57c-1.44-.58-1.91-2.58-1.2-3.89,.4,1.45,.56,2.52,1.2,3.89h0Z"/><path class="cf" d="M24.05,43.57c.29-1.47,.47-2.54,.61-4.04,.93,1.19,.61,3.16-.61,4.04h0Z"/><path class="cf" d="M27.99,46.81c-1.38-.72-1.64-2.76-.81-3.99,.25,1.48,.3,2.57,.81,3.99h0Z"/><path class="cf" d="M29.23,46.93c.44-1.44,.72-2.48,1-3.96,.81,1.28,.3,3.2-1,3.96h0Z"/><path class="cf" d="M25.59,61.46c-1.38-.72-1.64-2.76-.81-3.99,.25,1.48,.3,2.57,.81,3.99h0Z"/><path class="cf" d="M26.84,61.58c.44-1.44,.72-2.48,1-3.96,.81,1.28,.3,3.2-1,3.96h0Z"/><path class="cf" d="M26.19,69.53c-1.38-.72-1.64-2.76-.81-3.99,.25,1.48,.3,2.57,.81,3.99h0Z"/><path class="cf" d="M27.44,69.65c.44-1.44,.72-2.48,1-3.96,.81,1.28,.3,3.2-1,3.96h0Z"/><path class="cf" d="M20.42,63.05c-1.52-.36-2.28-2.26-1.78-3.66,.61,1.37,.94,2.41,1.78,3.66h0Z"/><path class="cf" d="M21.66,62.85c.07-1.5,.08-2.58-.02-4.08,1.1,1.04,1.09,3.03,.02,4.08h0Z"/><path class="cf" d="M31.89,62.84c-1.26-.92-1.22-2.97-.22-4.06,.03,1.5-.07,2.58,.22,4.06h0Z"/><path class="cf" d="M33.1,63.14c.64-1.36,1.07-2.35,1.57-3.77,.61,1.38-.17,3.21-1.57,3.77h0Z"/><path class="cf" d="M27.11,37.61c-1.48-.5-2.05-2.47-1.42-3.81,.48,1.42,.7,2.49,1.42,3.81h0Z"/><path class="cf" d="M28.35,37.54c.21-1.49,.32-2.56,.37-4.07,1,1.14,.8,3.12-.37,4.07h0Z"/><path class="cf" d="M22.62,53.16c-1.48-.5-2.05-2.47-1.42-3.81,.48,1.42,.7,2.49,1.42,3.81h0Z"/><path class="cf" d="M23.87,53.09c.21-1.49,.32-2.56,.37-4.07,1,1.14,.8,3.12-.37,4.07h0Z"/><path class="cf" d="M28.63,54.18c-1.27-.9-1.27-2.95-.28-4.06,.06,1.5-.03,2.58,.28,4.06h0Z"/><path class="cf" d="M29.85,54.46c.62-1.37,1.04-2.36,1.51-3.79,.64,1.37-.12,3.21-1.51,3.79h0Z"/></g><path class="cf" d="M38.65,68.09c-2.71,2.26-5.82,3.46-7.57,6.58-.39-3.88,4.16-6.44,7.57-6.58h0Z"/><path class="cf" d="M6.66,70.48c.62,4.43,.47,8.59,1.79,12.86-3.24-3.27-3.29-8.75-1.79-12.86h0Z"/></g><g class="bh"><g><circle class="bt" cx="19.04" cy="15.93" r="3.35"/><path class="bi" d="M18.84,12.58c1.6-.75,3.46,.72,3.85,2.31,.5,1.65-.52,3.57-2.15,4.03,.45-.65,.82-1.25,.99-1.87,.52-1.92-.66-4.06-2.7-4.47h0Z"/><path class="bs" d="M19.24,12.58c-2.01,1.07-3.13,2.99-1.83,5.03,.36,.6,.89,1.15,1.56,1.71-4.84-.11-4.78-7.32,.28-6.74h0Z"/></g></g><g class="bb"><g><circle class="bt" cx="31.64" cy="15.9" r="3.35"/><path class="bi" d="M31.84,19.25c-1.6,.75-3.46-.72-3.85-2.31-.5-1.65,.52-3.57,2.15-4.03-.45,.65-.82,1.25-.99,1.87-.52,1.92,.66,4.06,2.7,4.47h0Z"/><path class="bs" d="M31.45,19.25c2.01-1.07,3.13-2.99,1.83-5.03-.36-.6-.89-1.15-1.56-1.71,4.84,.11,4.78,7.32-.28,6.74h0Z"/></g></g></g><g class="bg"><g><path class="ba" d="M41.64,63.9s-4.78-3.29-1.79-9.87c-4.16-1.39-5.72-3.57-6.13-5.63l-3.74,3.53L35.95,5.6l9.84-1.18c2.86,2.83,3.74,8.36-.69,17.87-1.42,3.06-.98,6.63,1.03,9.34,2.82,3.8,5.32,10.22,.12,18.5-1.91,3.05-2.04,6.88-.43,10.09,3.46,6.89,5.12,17.72-.72,21.87l-3.46-18.18Z"/><path class="ba" d="M18.86,66.47l1.55-2.57-10.08-1.96c.91-1.94,1.85-5.45-.08-9.7,4.38,.12,6.27-1.28,6.94-3.03l9.8,4.22-1.2-44.25S15.58,5.91,5.16,2.61C1.19,5.07-.46,11.23,4.69,22.29c1.42,3.06,.98,6.63-1.03,9.34-2.82,3.8-5.32,10.22-.12,18.5,1.91,3.05,2.04,6.88,.43,10.09C0,68.14-1.15,81.27,8.57,83.46l10.29-16.99Z"/><path class="au" d="M28.06,81.23l12.53-5.82,1.05-11.51c-1.05-.75-4.04-4.93-1.79-9.87-6.13-2.24-6.13-5.63-6.13-5.63,0,0,3.29-.5,4.18-.5s-1.29-21.82-1.29-21.82H16.05l-2.96,11.95,4.12,10.87-1.43-1.3c.51,1.01-.9,5.08-5.53,4.63,1.64,7.03-1.94,16-1.94,16l15.3,12.6c.57-.24,1.15-.49,1.74-.76,.94,.43,1.85,.81,2.72,1.16"/><g id="p"><path class="bf" d="M45.1,82.08c-2.63,1.86-6.77,2.37-12.94,.57-1.28-.37-2.64-.84-4.1-1.42-.78-3.7-1.22-13.28,13.57-17.33,4.77,4.27,7.22,11.27,3.46,18.18Z"/><path class="bf" d="M23.61,80.83c-1.83,.76-3.52,1.37-5.08,1.82-4.21,1.22-7.51,1.38-10.06,.78-2.81-6.03-2.91-15.94,1.56-21.19,13.03,3.41,13.82,14.18,13.58,18.59Z"/><path class="bf" d="M40.91,16.82c.08-1.74-.29-3.19-.97-4.34-.97-1.68-2.59-2.73-4.34-3.16,.24-.3,2.95-3.5,8.01-2.48,3.26,5.79-2,8.99-2.7,9.98Z"/><path class="bf" d="M15.13,9.49c-1.64,.37-3.15,1.25-4.14,2.68-.77,1.09-1.23,2.51-1.22,4.25-.12-.96,.33-1.99-.42-2.74-2.84-2.84-.58-7.09-.09-7.93h0c.05-.1,.09-.15,.09-.15,5.38,.3,5.76,3.74,5.76,3.74l.02,.16Z"/><path class="bf" d="M41.68,28.84c-1.78-2.64-2.21-5.94-1.31-9,.32-1.09,.49-2.1,.54-3.02,.08-1.74-.29-3.19-.97-4.34-.97-1.68-2.59-2.73-4.34-3.16-4.78-1.19-10.65,2.21-7.71,10.04,.12,.32,.2,.62,.24,.91,.52,3.73-5.32,4.33-4.64-.01,.04-.28,.11-.58,.22-.89,2.37-7.5-3.71-10.95-8.57-9.86-1.64,.37-3.15,1.25-4.14,2.68-.77,1.09-1.23,2.51-1.22,4.25,0,1.03,.18,2.17,.55,3.42,.9,3.06,1.67,6.36-.11,9-3.71,5.5-7.21,14.81-.81,19.83,2.07,1.62,3.58,2.27,6.08,1.48,.48-.15,.96-.36,1.41-.64,1.87-1.15,3.58-4.44,2.61-9.31-.4-2.01-1.21-4.45-2.56-7.4-.13-.29-.27-.59-.42-.89-1.09-2.28,1.59-1.11,3.21-.81-.92-.88-1.8-2.02-2.53-3.5-.02-.04,.03-.08,.07-.06,2.22,1.66,8.07,1.41,8.07,1.41,0,0,7.22,.24,9.7-1.3,.09-.06,.21,.04,.16,.14-.76,1.68-1.79,2.9-2.9,3.8,.17,.02,.31,.01,.41-.01,1.46-.46,4.02-1.01,2.95,1.23-.1,.21-.2,.42-.3,.63-1.83,3.94-2.7,6.98-2.93,9.33-.27,2.7,.32,4.48,1.28,5.64,.74,.9,1.72,1.43,2.69,1.74,2.51,.79,5.21,.14,7.28-1.48,6.4-5.01,1.71-14.32-2-19.83Zm-22.92-10.08c-1.4,0-2.54-1.14-2.54-2.54s1.14-2.54,2.54-2.54,2.54,1.14,2.54,2.54-1.14,2.54-2.54,2.54Zm13.45,0c-1.4,0-2.54-1.14-2.54-2.54s1.14-2.54,2.54-2.54,2.54,1.14,2.54,2.54-1.14,2.54-2.54,2.54Z"/></g><path class="cd" d="M45.79,4.42c-.88,.71-1.62,1.6-2.19,2.42-5.06-1.03-7.77,2.18-8.01,2.48-4.78-1.19-10.48,2.15-7.71,10.04,1.94,5.53-6.13,5.83-4.19,0,2.49-7.47-3.71-10.95-8.57-9.86l-.02-.16s-.38-3.44-5.76-3.74c0,0-.03,.05-.09,.14-.37-1.47-1.55-2.86-4.67-2.89,3.06-2.2,7.84-1.96,12.18,.12,1.03,.49,2.22,.56,3.33,.27,2.12-.56,5.24-.75,5.24-.75,0,0,3.12,.19,5.24,.75,1.11,.29,2.28,.19,3.33-.27,3.55-1.53,8.83-1.56,11.87,1.44Z"/><path class="ba" d="M11.14,12.18c-1.24,1.93-1.92,3.78-2.39,5.98-.85-2.16,.24-5.02,2.39-5.98h0Z"/><path class="ba" d="M43.58,6.94c-2.9-.06-5.67,.98-7.94,2.75l-.12-.55c.77,.33,1.59,.64,2.21,1.23-.88-.32-2.04-.5-2.95-.73,2.11-2.42,5.68-3.94,8.81-2.7h0Z"/><path class="ba" d="M14.73,23.24c.57-.07,1.13-.13,1.7-.18l.07,.04c5.87,3.61,13.23,2.92,19.25,.03l1.25,.11-1.25,.11c-5.28,4.11-14.12,4.8-19.48,.03l.11,.04c-.55-.05-1.11-.11-1.66-.18h0Z"/><ellipse class="ba" cx="25.79" cy="21.59" rx="2.06" ry="1.49"/><path class="cd" d="M35.2,27.8c-.76,1.68-1.79,2.9-2.9,3.8-2.96,2.4-6.44,2.41-6.51,2.41,0,0-3.2-.17-6.05-2.9-.92-.88-1.8-2.02-2.53-3.5-.02-.04,.03-.08,.07-.06,2.22,1.66,15.29,1.65,17.77,.11,.09-.06,.21,.04,.16,.14Z"/><g id="q"><path class="bo" d="M7.25,28.02c2.37-1.27,6.14-.61,7.18,2.09-2.28-1.4-4.54-1.6-7.18-2.09h0Z"/><path class="bo" d="M9.26,5.74c2.52-.91,6.11,.78,5.87,3.75-1.09-2.43-3.36-3.23-5.87-3.75h0Z"/><path class="bo" d="M41.04,16.63c2.63-2.66,3.98-6.15,2.56-9.79,2.75,3.12,1.08,8.15-2.56,9.79h0Z"/><g><path class="bi" d="M35.1,34s-2.73,3.89-2.73,9.87"/><path class="bo" d="M35.1,34c-1.08,3.22-1.9,6.58-2.73,9.87-.83-3.42,.17-7.41,2.73-9.87h0Z"/></g><g><path class="bo" d="M22.8,43.57c-1.44-.58-1.91-2.58-1.2-3.89,.4,1.45,.56,2.52,1.2,3.89h0Z"/><path class="bo" d="M24.05,43.57c.29-1.47,.47-2.54,.61-4.04,.93,1.19,.61,3.16-.61,4.04h0Z"/><path class="bo" d="M27.99,46.81c-1.38-.72-1.64-2.76-.81-3.99,.25,1.48,.3,2.57,.81,3.99h0Z"/><path class="bo" d="M29.23,46.93c.44-1.44,.72-2.48,1-3.96,.81,1.28,.3,3.2-1,3.96h0Z"/><path class="bo" d="M25.59,61.46c-1.38-.72-1.64-2.76-.81-3.99,.25,1.48,.3,2.57,.81,3.99h0Z"/><path class="bo" d="M26.84,61.58c.44-1.44,.72-2.48,1-3.96,.81,1.28,.3,3.2-1,3.96h0Z"/><path class="bo" d="M26.19,69.53c-1.38-.72-1.64-2.76-.81-3.99,.25,1.48,.3,2.57,.81,3.99h0Z"/><path class="bo" d="M27.44,69.65c.44-1.44,.72-2.48,1-3.96,.81,1.28,.3,3.2-1,3.96h0Z"/><path class="bo" d="M20.42,63.05c-1.52-.36-2.28-2.26-1.78-3.66,.61,1.37,.94,2.41,1.78,3.66h0Z"/><path class="bo" d="M21.66,62.85c.07-1.5,.08-2.58-.02-4.08,1.1,1.04,1.09,3.03,.02,4.08h0Z"/><path class="bo" d="M31.89,62.84c-1.26-.92-1.22-2.97-.22-4.06,.03,1.5-.07,2.58,.22,4.06h0Z"/><path class="bo" d="M33.1,63.14c.64-1.36,1.07-2.35,1.57-3.77,.61,1.38-.17,3.21-1.57,3.77h0Z"/><path class="bo" d="M27.11,37.61c-1.48-.5-2.05-2.47-1.42-3.81,.48,1.42,.7,2.49,1.42,3.81h0Z"/><path class="bo" d="M28.35,37.54c.21-1.49,.32-2.56,.37-4.07,1,1.14,.8,3.12-.37,4.07h0Z"/><path class="bo" d="M22.62,53.16c-1.48-.5-2.05-2.47-1.42-3.81,.48,1.42,.7,2.49,1.42,3.81h0Z"/><path class="bo" d="M23.87,53.09c.21-1.49,.32-2.56,.37-4.07,1,1.14,.8,3.12-.37,4.07h0Z"/><path class="bo" d="M28.63,54.18c-1.27-.9-1.27-2.95-.28-4.06,.06,1.5-.03,2.58,.28,4.06h0Z"/><path class="bo" d="M29.85,54.46c.62-1.37,1.04-2.36,1.51-3.79,.64,1.37-.12,3.21-1.51,3.79h0Z"/></g><path class="bo" d="M38.65,68.09c-2.71,2.26-5.82,3.46-7.57,6.58-.39-3.88,4.16-6.44,7.57-6.58h0Z"/><path class="bo" d="M6.66,70.48c.62,4.43,.47,8.59,1.79,12.86-3.24-3.27-3.29-8.75-1.79-12.86h0Z"/></g><g class="cb"><g><circle class="cd" cx="19.04" cy="15.93" r="3.35"/><path class="bo" d="M18.84,12.58c1.6-.75,3.46,.72,3.85,2.31,.5,1.65-.52,3.57-2.15,4.03,.45-.65,.82-1.25,.99-1.87,.52-1.92-.66-4.06-2.7-4.47h0Z"/><path class="ba" d="M19.24,12.58c-2.01,1.07-3.13,2.99-1.83,5.03,.36,.6,.89,1.15,1.56,1.71-4.84-.11-4.78-7.32,.28-6.74h0Z"/></g></g><g class="c`"><g><circle class="cd" cx="31.64" cy="15.9" r="3.35"/><path class="bo" d="M31.84,19.25c-1.6,.75-3.46-.72-3.85-2.31-.5-1.65,.52-3.57,2.15-4.03-.45,.65-.82,1.25-.99,1.87-.52,1.92,.66,4.06,2.7,4.47h0Z"/><path class="ba" d="M31.45,19.25c2.01-1.07,3.13-2.99,1.83-5.03-.36-.6-.89-1.15-1.56-1.71,4.84,.11,4.78,7.32-.28,6.74h0Z"/></g></g></g></g><g class="bk"><g><path class="be" d="M41.64,63.9s-4.78-3.29-1.79-9.87c-4.16-1.39-5.72-3.57-6.13-5.63l-3.74,3.53L35.95,5.6l9.84-1.18c2.86,2.83,3.74,8.36-.69,17.87-1.42,3.06-.98,6.63,1.03,9.34,2.82,3.8,5.32,10.22,.12,18.5-1.91,3.05-2.04,6.88-.43,10.09,3.46,6.89,5.12,17.72-.72,21.87l-3.46-18.18Z"/><path class="be" d="M18.86,66.47l1.55-2.57-10.08-1.96c.91-1.94,1.85-5.45-.08-9.7,4.38,.12,6.27-1.28,6.94-3.03l9.8,4.22-1.2-44.25S15.58,5.91,5.16,2.61C1.19,5.07-.46,11.23,4.69,22.29c1.42,3.06,.98,6.63-1.03,9.34-2.82,3.8-5.32,10.22-.12,18.5,1.91,3.05,2.04,6.88,.43,10.09C0,68.14-1.15,81.27,8.57,83.46l10.29-16.99Z"/><path class="b`" d="M28.06,81.23l12.53-5.82,1.05-11.51c-1.05-.75-4.04-4.93-1.79-9.87-6.13-2.24-6.13-5.63-6.13-5.63,0,0,3.29-.5,4.18-.5s-1.29-21.82-1.29-21.82H16.05l-2.96,11.95,4.12,10.87-1.43-1.3c.51,1.01-.9,5.08-5.53,4.63,1.64,7.03-1.94,16-1.94,16l15.3,12.6c.57-.24,1.15-.49,1.74-.76,.94,.43,1.85,.81,2.72,1.16"/><g id="u"><path class="aw" d="M45.1,82.08c-2.63,1.86-6.77,2.37-12.94,.57-1.28-.37-2.64-.84-4.1-1.42-.78-3.7-1.22-13.28,13.57-17.33,4.77,4.27,7.22,11.27,3.46,18.18Z"/><path class="aw" d="M23.61,80.83c-1.83,.76-3.52,1.37-5.08,1.82-4.21,1.22-7.51,1.38-10.06,.78-2.81-6.03-2.91-15.94,1.56-21.19,13.03,3.41,13.82,14.18,13.58,18.59Z"/><path class="aw" d="M40.91,16.82c.08-1.74-.29-3.19-.97-4.34-.97-1.68-2.59-2.73-4.34-3.16,.24-.3,2.95-3.5,8.01-2.48,3.26,5.79-2,8.99-2.7,9.98Z"/><path class="aw" d="M15.13,9.49c-1.64,.37-3.15,1.25-4.14,2.68-.77,1.09-1.23,2.51-1.22,4.25-.12-.96,.33-1.99-.42-2.74-2.84-2.84-.58-7.09-.09-7.93h0c.05-.1,.09-.15,.09-.15,5.38,.3,5.76,3.74,5.76,3.74l.02,.16Z"/><path class="aw" d="M41.68,28.84c-1.78-2.64-2.21-5.94-1.31-9,.32-1.09,.49-2.1,.54-3.02,.08-1.74-.29-3.19-.97-4.34-.97-1.68-2.59-2.73-4.34-3.16-4.78-1.19-10.65,2.21-7.71,10.04,.12,.32,.2,.62,.24,.91,.52,3.73-5.32,4.33-4.64-.01,.04-.28,.11-.58,.22-.89,2.37-7.5-3.71-10.95-8.57-9.86-1.64,.37-3.15,1.25-4.14,2.68-.77,1.09-1.23,2.51-1.22,4.25,0,1.03,.18,2.17,.55,3.42,.9,3.06,1.67,6.36-.11,9-3.71,5.5-7.21,14.81-.81,19.83,2.07,1.62,3.58,2.27,6.08,1.48,.48-.15,.96-.36,1.41-.64,1.87-1.15,3.58-4.44,2.61-9.31-.4-2.01-1.21-4.45-2.56-7.4-.13-.29-.27-.59-.42-.89-1.09-2.28,1.59-1.11,3.21-.81-.92-.88-1.8-2.02-2.53-3.5-.02-.04,.03-.08,.07-.06,2.22,1.66,8.07,1.41,8.07,1.41,0,0,7.22,.24,9.7-1.3,.09-.06,.21,.04,.16,.14-.76,1.68-1.79,2.9-2.9,3.8,.17,.02,.31,.01,.41-.01,1.46-.46,4.02-1.01,2.95,1.23-.1,.21-.2,.42-.3,.63-1.83,3.94-2.7,6.98-2.93,9.33-.27,2.7,.32,4.48,1.28,5.64,.74,.9,1.72,1.43,2.69,1.74,2.51,.79,5.21,.14,7.28-1.48,6.4-5.01,1.71-14.32-2-19.83Zm-22.92-10.08c-1.4,0-2.54-1.14-2.54-2.54s1.14-2.54,2.54-2.54,2.54,1.14,2.54,2.54-1.14,2.54-2.54,2.54Zm13.45,0c-1.4,0-2.54-1.14-2.54-2.54s1.14-2.54,2.54-2.54,2.54,1.14,2.54,2.54-1.14,2.54-2.54,2.54Z"/></g><path class="bc" d="M45.79,4.42c-.88,.71-1.62,1.6-2.19,2.42-5.06-1.03-7.77,2.18-8.01,2.48-4.78-1.19-10.48,2.15-7.71,10.04,1.94,5.53-6.13,5.83-4.19,0,2.49-7.47-3.71-10.95-8.57-9.86l-.02-.16s-.38-3.44-5.76-3.74c0,0-.03,.05-.09,.14-.37-1.47-1.55-2.86-4.67-2.89,3.06-2.2,7.84-1.96,12.18,.12,1.03,.49,2.22,.56,3.33,.27,2.12-.56,5.24-.75,5.24-.75,0,0,3.12,.19,5.24,.75,1.11,.29,2.28,.19,3.33-.27,3.55-1.53,8.83-1.56,11.87,1.44Z"/><path class="be" d="M11.14,12.18c-1.24,1.93-1.92,3.78-2.39,5.98-.85-2.16,.24-5.02,2.39-5.98h0Z"/><path class="be" d="M43.58,6.94c-2.9-.06-5.67,.98-7.94,2.75l-.12-.55c.77,.33,1.59,.64,2.21,1.23-.88-.32-2.04-.5-2.95-.73,2.11-2.42,5.68-3.94,8.81-2.7h0Z"/><path class="be" d="M14.73,23.24c.57-.07,1.13-.13,1.7-.18l.07,.04c5.87,3.61,13.23,2.92,19.25,.03l1.25,.11-1.25,.11c-5.28,4.11-14.12,4.8-19.48,.03l.11,.04c-.55-.05-1.11-.11-1.66-.18h0Z"/><ellipse class="be" cx="25.79" cy="21.59" rx="2.06" ry="1.49"/><path class="bj" d="M35.2,27.8c-.76,1.68-1.79,2.9-2.9,3.8-2.96,2.4-6.44,2.41-6.51,2.41,0,0-3.2-.17-6.05-2.9-.92-.88-1.8-2.02-2.53-3.5-.02-.04,.03-.08,.07-.06,2.22,1.66,15.29,1.65,17.77,.11,.09-.06,.21,.04,.16,.14Z"/><g id="v"><path class="aq" d="M7.25,28.02c2.37-1.27,6.14-.61,7.18,2.09-2.28-1.4-4.54-1.6-7.18-2.09h0Z"/><path class="aq" d="M9.26,5.74c2.52-.91,6.11,.78,5.87,3.75-1.09-2.43-3.36-3.23-5.87-3.75h0Z"/><path class="aq" d="M41.04,16.63c2.63-2.66,3.98-6.15,2.56-9.79,2.75,3.12,1.08,8.15-2.56,9.79h0Z"/><g><path class="bi" d="M35.1,34s-2.73,3.89-2.73,9.87"/><path class="aq" d="M35.1,34c-1.08,3.22-1.9,6.58-2.73,9.87-.83-3.42,.17-7.41,2.73-9.87h0Z"/></g><g><path class="aq" d="M22.8,43.57c-1.44-.58-1.91-2.58-1.2-3.89,.4,1.45,.56,2.52,1.2,3.89h0Z"/><path class="aq" d="M24.05,43.57c.29-1.47,.47-2.54,.61-4.04,.93,1.19,.61,3.16-.61,4.04h0Z"/><path class="aq" d="M27.99,46.81c-1.38-.72-1.64-2.76-.81-3.99,.25,1.48,.3,2.57,.81,3.99h0Z"/><path class="aq" d="M29.23,46.93c.44-1.44,.72-2.48,1-3.96,.81,1.28,.3,3.2-1,3.96h0Z"/><path class="aq" d="M25.59,61.46c-1.38-.72-1.64-2.76-.81-3.99,.25,1.48,.3,2.57,.81,3.99h0Z"/><path class="aq" d="M26.84,61.58c.44-1.44,.72-2.48,1-3.96,.81,1.28,.3,3.2-1,3.96h0Z"/><path class="aq" d="M26.19,69.53c-1.38-.72-1.64-2.76-.81-3.99,.25,1.48,.3,2.57,.81,3.99h0Z"/><path class="aq" d="M27.44,69.65c.44-1.44,.72-2.48,1-3.96,.81,1.28,.3,3.2-1,3.96h0Z"/><path class="aq" d="M20.42,63.05c-1.52-.36-2.28-2.26-1.78-3.66,.61,1.37,.94,2.41,1.78,3.66h0Z"/><path class="aq" d="M21.66,62.85c.07-1.5,.08-2.58-.02-4.08,1.1,1.04,1.09,3.03,.02,4.08h0Z"/><path class="aq" d="M31.89,62.84c-1.26-.92-1.22-2.97-.22-4.06,.03,1.5-.07,2.58,.22,4.06h0Z"/><path class="aq" d="M33.1,63.14c.64-1.36,1.07-2.35,1.57-3.77,.61,1.38-.17,3.21-1.57,3.77h0Z"/><path class="aq" d="M27.11,37.61c-1.48-.5-2.05-2.47-1.42-3.81,.48,1.42,.7,2.49,1.42,3.81h0Z"/><path class="aq" d="M28.35,37.54c.21-1.49,.32-2.56,.37-4.07,1,1.14,.8,3.12-.37,4.07h0Z"/><path class="aq" d="M22.62,53.16c-1.48-.5-2.05-2.47-1.42-3.81,.48,1.42,.7,2.49,1.42,3.81h0Z"/><path class="aq" d="M23.87,53.09c.21-1.49,.32-2.56,.37-4.07,1,1.14,.8,3.12-.37,4.07h0Z"/><path class="aq" d="M28.63,54.18c-1.27-.9-1.27-2.95-.28-4.06,.06,1.5-.03,2.58,.28,4.06h0Z"/><path class="aq" d="M29.85,54.46c.62-1.37,1.04-2.36,1.51-3.79,.64,1.37-.12,3.21-1.51,3.79h0Z"/></g><path class="aq" d="M38.65,68.09c-2.71,2.26-5.82,3.46-7.57,6.58-.39-3.88,4.16-6.44,7.57-6.58h0Z"/><path class="aq" d="M6.66,70.48c.62,4.43,.47,8.59,1.79,12.86-3.24-3.27-3.29-8.75-1.79-12.86h0Z"/></g><g class="bm"><g><circle class="bj" cx="19.04" cy="15.93" r="3.35"/><path class="aq" d="M18.84,12.58c1.6-.75,3.46,.72,3.85,2.31,.5,1.65-.52,3.57-2.15,4.03,.45-.65,.82-1.25,.99-1.87,.52-1.92-.66-4.06-2.7-4.47h0Z"/><path class="be" d="M19.24,12.58c-2.01,1.07-3.13,2.99-1.83,5.03,.36,.6,.89,1.15,1.56,1.71-4.84-.11-4.78-7.32,.28-6.74h0Z"/></g></g><g class="ay"><g><circle class="bj" cx="31.64" cy="15.9" r="3.35"/><path class="aq" d="M31.84,19.25c-1.6,.75-3.46-.72-3.85-2.31-.5-1.65,.52-3.57,2.15-4.03-.45,.65-.82,1.25-.99,1.87-.52,1.92,.66,4.06,2.7,4.47h0Z"/><path class="be" d="M31.45,19.25c2.01-1.07,3.13-2.99,1.83-5.03-.36-.6-.89-1.15-1.56-1.71,4.84,.11,4.78,7.32-.28,6.74h0Z"/></g></g></g></g><rect class="bp" x="-23.84" y="55.31" width="49.07" height="40.63"/><g class="bv"><g><path class="at" d="M41.64,63.9s-4.78-3.29-1.79-9.87c-4.16-1.39-5.72-3.57-6.13-5.63l-3.74,3.53L35.95,5.6l9.84-1.18c2.86,2.83,3.74,8.36-.69,17.87-1.42,3.06-.98,6.63,1.03,9.34,2.82,3.8,5.32,10.22,.12,18.5-1.91,3.05-2.04,6.88-.43,10.09,3.46,6.89,5.12,17.72-.72,21.87l-3.46-18.18Z"/><path class="at" d="M18.86,66.47l1.55-2.57-10.08-1.96c.91-1.94,1.85-5.45-.08-9.7,4.38,.12,6.27-1.28,6.94-3.03l9.8,4.22-1.2-44.25S15.58,5.91,5.16,2.61C1.19,5.07-.46,11.23,4.69,22.29c1.42,3.06,.98,6.63-1.03,9.34-2.82,3.8-5.32,10.22-.12,18.5,1.91,3.05,2.04,6.88,.43,10.09C0,68.14-1.15,81.27,8.57,83.46l10.29-16.99Z"/><path class="bu" d="M28.06,81.23l12.53-5.82,1.05-11.51c-1.05-.75-4.04-4.93-1.79-9.87-6.13-2.24-6.13-5.63-6.13-5.63,0,0,3.29-.5,4.18-.5s-1.29-21.82-1.29-21.82H16.05l-2.96,11.95,4.12,10.87-1.43-1.3c.51,1.01-.9,5.08-5.53,4.63,1.64,7.03-1.94,16-1.94,16l15.3,12.6c.57-.24,1.15-.49,1.74-.76,.94,.43,1.85,.81,2.72,1.16"/><g id="a`"><path class="bq" d="M45.1,82.08c-2.63,1.86-6.77,2.37-12.94,.57-1.28-.37-2.64-.84-4.1-1.42-.78-3.7-1.22-13.28,13.57-17.33,4.77,4.27,7.22,11.27,3.46,18.18Z"/><path class="bq" d="M23.61,80.83c-1.83,.76-3.52,1.37-5.08,1.82-4.21,1.22-7.51,1.38-10.06,.78-2.81-6.03-2.91-15.94,1.56-21.19,13.03,3.41,13.82,14.18,13.58,18.59Z"/><path class="bq" d="M40.91,16.82c.08-1.74-.29-3.19-.97-4.34-.97-1.68-2.59-2.73-4.34-3.16,.24-.3,2.95-3.5,8.01-2.48,3.26,5.79-2,8.99-2.7,9.98Z"/><path class="bq" d="M15.13,9.49c-1.64,.37-3.15,1.25-4.14,2.68-.77,1.09-1.23,2.51-1.22,4.25-.12-.96,.33-1.99-.42-2.74-2.84-2.84-.58-7.09-.09-7.93h0c.05-.1,.09-.15,.09-.15,5.38,.3,5.76,3.74,5.76,3.74l.02,.16Z"/><path class="bq" d="M41.68,28.84c-1.78-2.64-2.21-5.94-1.31-9,.32-1.09,.49-2.1,.54-3.02,.08-1.74-.29-3.19-.97-4.34-.97-1.68-2.59-2.73-4.34-3.16-4.78-1.19-10.65,2.21-7.71,10.04,.12,.32,.2,.62,.24,.91,.52,3.73-5.32,4.33-4.64-.01,.04-.28,.11-.58,.22-.89,2.37-7.5-3.71-10.95-8.57-9.86-1.64,.37-3.15,1.25-4.14,2.68-.77,1.09-1.23,2.51-1.22,4.25,0,1.03,.18,2.17,.55,3.42,.9,3.06,1.67,6.36-.11,9-3.71,5.5-7.21,14.81-.81,19.83,2.07,1.62,3.58,2.27,6.08,1.48,.48-.15,.96-.36,1.41-.64,1.87-1.15,3.58-4.44,2.61-9.31-.4-2.01-1.21-4.45-2.56-7.4-.13-.29-.27-.59-.42-.89-1.09-2.28,1.59-1.11,3.21-.81-.92-.88-1.8-2.02-2.53-3.5-.02-.04,.03-.08,.07-.06,2.22,1.66,8.07,1.41,8.07,1.41,0,0,7.22,.24,9.7-1.3,.09-.06,.21,.04,.16,.14-.76,1.68-1.79,2.9-2.9,3.8,.17,.02,.31,.01,.41-.01,1.46-.46,4.02-1.01,2.95,1.23-.1,.21-.2,.42-.3,.63-1.83,3.94-2.7,6.98-2.93,9.33-.27,2.7,.32,4.48,1.28,5.64,.74,.9,1.72,1.43,2.69,1.74,2.51,.79,5.21,.14,7.28-1.48,6.4-5.01,1.71-14.32-2-19.83Zm-22.92-10.08c-1.4,0-2.54-1.14-2.54-2.54s1.14-2.54,2.54-2.54,2.54,1.14,2.54,2.54-1.14,2.54-2.54,2.54Zm13.45,0c-1.4,0-2.54-1.14-2.54-2.54s1.14-2.54,2.54-2.54,2.54,1.14,2.54,2.54-1.14,2.54-2.54,2.54Z"/></g><path class="bx" d="M45.79,4.42c-.88,.71-1.62,1.6-2.19,2.42-5.06-1.03-7.77,2.18-8.01,2.48-4.78-1.19-10.48,2.15-7.71,10.04,1.94,5.53-6.13,5.83-4.19,0,2.49-7.47-3.71-10.95-8.57-9.86l-.02-.16s-.38-3.44-5.76-3.74c0,0-.03,.05-.09,.14-.37-1.47-1.55-2.86-4.67-2.89,3.06-2.2,7.84-1.96,12.18,.12,1.03,.49,2.22,.56,3.33,.27,2.12-.56,5.24-.75,5.24-.75,0,0,3.12,.19,5.24,.75,1.11,.29,2.28,.19,3.33-.27,3.55-1.53,8.83-1.56,11.87,1.44Z"/><path class="at" d="M11.14,12.18c-1.24,1.93-1.92,3.78-2.39,5.98-.85-2.16,.24-5.02,2.39-5.98h0Z"/><path class="at" d="M43.58,6.94c-2.9-.06-5.67,.98-7.94,2.75l-.12-.55c.77,.33,1.59,.64,2.21,1.23-.88-.32-2.04-.5-2.95-.73,2.11-2.42,5.68-3.94,8.81-2.7h0Z"/><path class="at" d="M14.73,23.24c.57-.07,1.13-.13,1.7-.18l.07,.04c5.87,3.61,13.23,2.92,19.25,.03l1.25,.11-1.25,.11c-5.28,4.11-14.12,4.8-19.48,.03l.11,.04c-.55-.05-1.11-.11-1.66-.18h0Z"/><ellipse class="at" cx="25.79" cy="21.59" rx="2.06" ry="1.49"/><path class="bn" d="M35.2,27.8c-.76,1.68-1.79,2.9-2.9,3.8-2.96,2.4-6.44,2.41-6.51,2.41,0,0-3.2-.17-6.05-2.9-.92-.88-1.8-2.02-2.53-3.5-.02-.04,.03-.08,.07-.06,2.22,1.66,15.29,1.65,17.77,.11,.09-.06,.21,.04,.16,.14Z"/><g id="aa"><path class="ca" d="M7.25,28.02c2.37-1.27,6.14-.61,7.18,2.09-2.28-1.4-4.54-1.6-7.18-2.09h0Z"/><path class="ca" d="M9.26,5.74c2.52-.91,6.11,.78,5.87,3.75-1.09-2.43-3.36-3.23-5.87-3.75h0Z"/><path class="ca" d="M41.04,16.63c2.63-2.66,3.98-6.15,2.56-9.79,2.75,3.12,1.08,8.15-2.56,9.79h0Z"/><g><path class="bi" d="M35.1,34s-2.73,3.89-2.73,9.87"/><path class="ca" d="M35.1,34c-1.08,3.22-1.9,6.58-2.73,9.87-.83-3.42,.17-7.41,2.73-9.87h0Z"/></g><g><path class="ca" d="M22.8,43.57c-1.44-.58-1.91-2.58-1.2-3.89,.4,1.45,.56,2.52,1.2,3.89h0Z"/><path class="ca" d="M24.05,43.57c.29-1.47,.47-2.54,.61-4.04,.93,1.19,.61,3.16-.61,4.04h0Z"/><path class="ca" d="M27.99,46.81c-1.38-.72-1.64-2.76-.81-3.99,.25,1.48,.3,2.57,.81,3.99h0Z"/><path class="ca" d="M29.23,46.93c.44-1.44,.72-2.48,1-3.96,.81,1.28,.3,3.2-1,3.96h0Z"/><path class="ca" d="M25.59,61.46c-1.38-.72-1.64-2.76-.81-3.99,.25,1.48,.3,2.57,.81,3.99h0Z"/><path class="ca" d="M26.84,61.58c.44-1.44,.72-2.48,1-3.96,.81,1.28,.3,3.2-1,3.96h0Z"/><path class="ca" d="M26.19,69.53c-1.38-.72-1.64-2.76-.81-3.99,.25,1.48,.3,2.57,.81,3.99h0Z"/><path class="ca" d="M27.44,69.65c.44-1.44,.72-2.48,1-3.96,.81,1.28,.3,3.2-1,3.96h0Z"/><path class="ca" d="M20.42,63.05c-1.52-.36-2.28-2.26-1.78-3.66,.61,1.37,.94,2.41,1.78,3.66h0Z"/><path class="ca" d="M21.66,62.85c.07-1.5,.08-2.58-.02-4.08,1.1,1.04,1.09,3.03,.02,4.08h0Z"/><path class="ca" d="M31.89,62.84c-1.26-.92-1.22-2.97-.22-4.06,.03,1.5-.07,2.58,.22,4.06h0Z"/><path class="ca" d="M33.1,63.14c.64-1.36,1.07-2.35,1.57-3.77,.61,1.38-.17,3.21-1.57,3.77h0Z"/><path class="ca" d="M27.11,37.61c-1.48-.5-2.05-2.47-1.42-3.81,.48,1.42,.7,2.49,1.42,3.81h0Z"/><path class="ca" d="M28.35,37.54c.21-1.49,.32-2.56,.37-4.07,1,1.14,.8,3.12-.37,4.07h0Z"/><path class="ca" d="M22.62,53.16c-1.48-.5-2.05-2.47-1.42-3.81,.48,1.42,.7,2.49,1.42,3.81h0Z"/><path class="ca" d="M23.87,53.09c.21-1.49,.32-2.56,.37-4.07,1,1.14,.8,3.12-.37,4.07h0Z"/><path class="ca" d="M28.63,54.18c-1.27-.9-1.27-2.95-.28-4.06,.06,1.5-.03,2.58,.28,4.06h0Z"/><path class="ca" d="M29.85,54.46c.62-1.37,1.04-2.36,1.51-3.79,.64,1.37-.12,3.21-1.51,3.79h0Z"/></g><path class="ca" d="M38.65,68.09c-2.71,2.26-5.82,3.46-7.57,6.58-.39-3.88,4.16-6.44,7.57-6.58h0Z"/><path class="ca" d="M6.66,70.48c.62,4.43,.47,8.59,1.79,12.86-3.24-3.27-3.29-8.75-1.79-12.86h0Z"/></g><g class="bd"><g><circle class="bn" cx="19.04" cy="15.93" r="3.35"/><path class="ca" d="M18.84,12.58c1.6-.75,3.46,.72,3.85,2.31,.5,1.65-.52,3.57-2.15,4.03,.45-.65,.82-1.25,.99-1.87,.52-1.92-.66-4.06-2.7-4.47h0Z"/><path class="at" d="M19.24,12.58c-2.01,1.07-3.13,2.99-1.83,5.03,.36,.6,.89,1.15,1.56,1.71-4.84-.11-4.78-7.32,.28-6.74h0Z"/></g></g><g class="ai"><g><circle class="bn" cx="31.64" cy="15.9" r="3.35"/><path class="ca" d="M31.84,19.25c-1.6,.75-3.46-.72-3.85-2.31-.5-1.65,.52-3.57,2.15-4.03-.45,.65-.82,1.25-.99,1.87-.52,1.92,.66,4.06,2.7,4.47h0Z"/><path class="at" d="M31.45,19.25c2.01-1.07,3.13-2.99,1.83-5.03-.36-.6-.89-1.15-1.56-1.71,4.84,.11,4.78,7.32-.28,6.74h0Z"/></g></g></g></g><g class="ch"><g><path class="bw" d="M41.64,63.9s-4.78-3.29-1.79-9.87c-4.16-1.39-5.72-3.57-6.13-5.63l-3.74,3.53L35.95,5.6l9.84-1.18c2.86,2.83,3.74,8.36-.69,17.87-1.42,3.06-.98,6.63,1.03,9.34,2.82,3.8,5.32,10.22,.12,18.5-1.91,3.05-2.04,6.88-.43,10.09,3.46,6.89,5.12,17.72-.72,21.87l-3.46-18.18Z"/><path class="bw" d="M18.86,66.47l1.55-2.57-10.08-1.96c.91-1.94,1.85-5.45-.08-9.7,4.38,.12,6.27-1.28,6.94-3.03l9.8,4.22-1.2-44.25S15.58,5.91,5.16,2.61C1.19,5.07-.46,11.23,4.69,22.29c1.42,3.06,.98,6.63-1.03,9.34-2.82,3.8-5.32,10.22-.12,18.5,1.91,3.05,2.04,6.88,.43,10.09C0,68.14-1.15,81.27,8.57,83.46l10.29-16.99Z"/><path class="br" d="M28.06,81.23l12.53-5.82,1.05-11.51c-1.05-.75-4.04-4.93-1.79-9.87-6.13-2.24-6.13-5.63-6.13-5.63,0,0,3.29-.5,4.18-.5s-1.29-21.82-1.29-21.82H16.05l-2.96,11.95,4.12,10.87-1.43-1.3c.51,1.01-.9,5.08-5.53,4.63,1.64,7.03-1.94,16-1.94,16l15.3,12.6c.57-.24,1.15-.49,1.74-.76,.94,.43,1.85,.81,2.72,1.16"/><g id="ae"><path class="by" d="M45.1,82.08c-2.63,1.86-6.77,2.37-12.94,.57-1.28-.37-2.64-.84-4.1-1.42-.78-3.7-1.22-13.28,13.57-17.33,4.77,4.27,7.22,11.27,3.46,18.18Z"/><path class="by" d="M23.61,80.83c-1.83,.76-3.52,1.37-5.08,1.82-4.21,1.22-7.51,1.38-10.06,.78-2.81-6.03-2.91-15.94,1.56-21.19,13.03,3.41,13.82,14.18,13.58,18.59Z"/><path class="by" d="M40.91,16.82c.08-1.74-.29-3.19-.97-4.34-.97-1.68-2.59-2.73-4.34-3.16,.24-.3,2.95-3.5,8.01-2.48,3.26,5.79-2,8.99-2.7,9.98Z"/><path class="by" d="M15.13,9.49c-1.64,.37-3.15,1.25-4.14,2.68-.77,1.09-1.23,2.51-1.22,4.25-.12-.96,.33-1.99-.42-2.74-2.84-2.84-.58-7.09-.09-7.93h0c.05-.1,.09-.15,.09-.15,5.38,.3,5.76,3.74,5.76,3.74l.02,.16Z"/><path class="by" d="M41.68,28.84c-1.78-2.64-2.21-5.94-1.31-9,.32-1.09,.49-2.1,.54-3.02,.08-1.74-.29-3.19-.97-4.34-.97-1.68-2.59-2.73-4.34-3.16-4.78-1.19-10.65,2.21-7.71,10.04,.12,.32,.2,.62,.24,.91,.52,3.73-5.32,4.33-4.64-.01,.04-.28,.11-.58,.22-.89,2.37-7.5-3.71-10.95-8.57-9.86-1.64,.37-3.15,1.25-4.14,2.68-.77,1.09-1.23,2.51-1.22,4.25,0,1.03,.18,2.17,.55,3.42,.9,3.06,1.67,6.36-.11,9-3.71,5.5-7.21,14.81-.81,19.83,2.07,1.62,3.58,2.27,6.08,1.48,.48-.15,.96-.36,1.41-.64,1.87-1.15,3.58-4.44,2.61-9.31-.4-2.01-1.21-4.45-2.56-7.4-.13-.29-.27-.59-.42-.89-1.09-2.28,1.59-1.11,3.21-.81-.92-.88-1.8-2.02-2.53-3.5-.02-.04,.03-.08,.07-.06,2.22,1.66,8.07,1.41,8.07,1.41,0,0,7.22,.24,9.7-1.3,.09-.06,.21,.04,.16,.14-.76,1.68-1.79,2.9-2.9,3.8,.17,.02,.31,.01,.41-.01,1.46-.46,4.02-1.01,2.95,1.23-.1,.21-.2,.42-.3,.63-1.83,3.94-2.7,6.98-2.93,9.33-.27,2.7,.32,4.48,1.28,5.64,.74,.9,1.72,1.43,2.69,1.74,2.51,.79,5.21,.14,7.28-1.48,6.4-5.01,1.71-14.32-2-19.83Zm-22.92-10.08c-1.4,0-2.54-1.14-2.54-2.54s1.14-2.54,2.54-2.54,2.54,1.14,2.54,2.54-1.14,2.54-2.54,2.54Zm13.45,0c-1.4,0-2.54-1.14-2.54-2.54s1.14-2.54,2.54-2.54,2.54,1.14,2.54,2.54-1.14,2.54-2.54,2.54Z"/></g><path class="bl" d="M45.79,4.42c-.88,.71-1.62,1.6-2.19,2.42-5.06-1.03-7.77,2.18-8.01,2.48-4.78-1.19-10.48,2.15-7.71,10.04,1.94,5.53-6.13,5.83-4.19,0,2.49-7.47-3.71-10.95-8.57-9.86l-.02-.16s-.38-3.44-5.76-3.74c0,0-.03,.05-.09,.14-.37-1.47-1.55-2.86-4.67-2.89,3.06-2.2,7.84-1.96,12.18,.12,1.03,.49,2.22,.56,3.33,.27,2.12-.56,5.24-.75,5.24-.75,0,0,3.12,.19,5.24,.75,1.11,.29,2.28,.19,3.33-.27,3.55-1.53,8.83-1.56,11.87,1.44Z"/><path class="bw" d="M11.14,12.18c-1.24,1.93-1.92,3.78-2.39,5.98-.85-2.16,.24-5.02,2.39-5.98h0Z"/><path class="bw" d="M43.58,6.94c-2.9-.06-5.67,.98-7.94,2.75l-.12-.55c.77,.33,1.59,.64,2.21,1.23-.88-.32-2.04-.5-2.95-.73,2.11-2.42,5.68-3.94,8.81-2.7h0Z"/><path class="bw" d="M14.73,23.24c.57-.07,1.13-.13,1.7-.18l.07,.04c5.87,3.61,13.23,2.92,19.25,.03l1.25,.11-1.25,.11c-5.28,4.11-14.12,4.8-19.48,.03l.11,.04c-.55-.05-1.11-.11-1.66-.18h0Z"/><ellipse class="ar" cx="25.79" cy="21.59" rx="2.06" ry="1.49"/><path class="ar" d="M35.2,27.8c-.76,1.68-1.79,2.9-2.9,3.8-2.96,2.4-6.44,2.41-6.51,2.41,0,0-3.2-.17-6.05-2.9-.92-.88-1.8-2.02-2.53-3.5-.02-.04,.03-.08,.07-.06,2.22,1.66,15.29,1.65,17.77,.11,.09-.06,.21,.04,.16,.14Z"/><g id="af"><path class="cc" d="M7.25,28.02c2.37-1.27,6.14-.61,7.18,2.09-2.28-1.4-4.54-1.6-7.18-2.09h0Z"/><path class="cc" d="M9.26,5.74c2.52-.91,6.11,.78,5.87,3.75-1.09-2.43-3.36-3.23-5.87-3.75h0Z"/><path class="cc" d="M41.04,16.63c2.63-2.66,3.98-6.15,2.56-9.79,2.75,3.12,1.08,8.15-2.56,9.79h0Z"/><g><path class="bi" d="M35.1,34s-2.73,3.89-2.73,9.87"/><path class="cc" d="M35.1,34c-1.08,3.22-1.9,6.58-2.73,9.87-.83-3.42,.17-7.41,2.73-9.87h0Z"/></g><g><path class="cc" d="M22.8,43.57c-1.44-.58-1.91-2.58-1.2-3.89,.4,1.45,.56,2.52,1.2,3.89h0Z"/><path class="cc" d="M24.05,43.57c.29-1.47,.47-2.54,.61-4.04,.93,1.19,.61,3.16-.61,4.04h0Z"/><path class="cc" d="M27.99,46.81c-1.38-.72-1.64-2.76-.81-3.99,.25,1.48,.3,2.57,.81,3.99h0Z"/><path class="cc" d="M29.23,46.93c.44-1.44,.72-2.48,1-3.96,.81,1.28,.3,3.2-1,3.96h0Z"/><path class="cc" d="M25.59,61.46c-1.38-.72-1.64-2.76-.81-3.99,.25,1.48,.3,2.57,.81,3.99h0Z"/><path class="cc" d="M26.84,61.58c.44-1.44,.72-2.48,1-3.96,.81,1.28,.3,3.2-1,3.96h0Z"/><path class="cc" d="M26.19,69.53c-1.38-.72-1.64-2.76-.81-3.99,.25,1.48,.3,2.57,.81,3.99h0Z"/><path class="cc" d="M27.44,69.65c.44-1.44,.72-2.48,1-3.96,.81,1.28,.3,3.2-1,3.96h0Z"/><path class="cc" d="M20.42,63.05c-1.52-.36-2.28-2.26-1.78-3.66,.61,1.37,.94,2.41,1.78,3.66h0Z"/><path class="cc" d="M21.66,62.85c.07-1.5,.08-2.58-.02-4.08,1.1,1.04,1.09,3.03,.02,4.08h0Z"/><path class="cc" d="M31.89,62.84c-1.26-.92-1.22-2.97-.22-4.06,.03,1.5-.07,2.58,.22,4.06h0Z"/><path class="cc" d="M33.1,63.14c.64-1.36,1.07-2.35,1.57-3.77,.61,1.38-.17,3.21-1.57,3.77h0Z"/><path class="cc" d="M27.11,37.61c-1.48-.5-2.05-2.47-1.42-3.81,.48,1.42,.7,2.49,1.42,3.81h0Z"/><path class="cc" d="M28.35,37.54c.21-1.49,.32-2.56,.37-4.07,1,1.14,.8,3.12-.37,4.07h0Z"/><path class="cc" d="M22.62,53.16c-1.48-.5-2.05-2.47-1.42-3.81,.48,1.42,.7,2.49,1.42,3.81h0Z"/><path class="cc" d="M23.87,53.09c.21-1.49,.32-2.56,.37-4.07,1,1.14,.8,3.12-.37,4.07h0Z"/><path class="cc" d="M28.63,54.18c-1.27-.9-1.27-2.95-.28-4.06,.06,1.5-.03,2.58,.28,4.06h0Z"/><path class="cc" d="M29.85,54.46c.62-1.37,1.04-2.36,1.51-3.79,.64,1.37-.12,3.21-1.51,3.79h0Z"/></g><path class="cc" d="M38.65,68.09c-2.71,2.26-5.82,3.46-7.57,6.58-.39-3.88,4.16-6.44,7.57-6.58h0Z"/><path class="cc" d="M6.66,70.48c.62,4.43,.47,8.59,1.79,12.86-3.24-3.27-3.29-8.75-1.79-12.86h0Z"/></g><g class="ax"><g><circle class="bl" cx="19.04" cy="15.93" r="3.35"/><path class="cc" d="M18.84,12.58c1.6-.75,3.46,.72,3.85,2.31,.5,1.65-.52,3.57-2.15,4.03,.45-.65,.82-1.25,.99-1.87,.52-1.92-.66-4.06-2.7-4.47h0Z"/><path class="bw" d="M19.24,12.58c-2.01,1.07-3.13,2.99-1.83,5.03,.36,.6,.89,1.15,1.56,1.71-4.84-.11-4.78-7.32,.28-6.74h0Z"/><text class="an" transform="translate(-1.02 27.43)"><tspan x="0" y="0">ff</tspan><tspan class="cg" x="1.37" y="0">f</tspan><tspan class="am" x="2.03" y="0">c</tspan><tspan x="3.09" y="0">f8</tspan></text></g></g><g class="av"><g><circle class="bl" cx="31.64" cy="15.9" r="3.35"/><path class="cc" d="M31.84,19.25c-1.6,.75-3.46-.72-3.85-2.31-.5-1.65,.52-3.57,2.15-4.03-.45,.65-.82,1.25-.99,1.87-.52,1.92,.66,4.06,2.7,4.47h0Z"/><path class="bw" d="M31.45,19.25c2.01-1.07,3.13-2.99,1.83-5.03-.36-.6-.89-1.15-1.56-1.71,4.84,.11,4.78,7.32-.28,6.74h0Z"/></g></g></g></g></g></svg>