<?xml version="1.0" encoding="UTF-8"?><svg xmlns="http://www.w3.org/2000/svg" xmlns:xlink="http://www.w3.org/1999/xlink" viewBox="0 0 50 85"><defs><style>.an{clip-path:url(#al);}.ao{clip-path:url(#ac);}.ap{fill:#38a933;}.aq{fill:#36ad35;}.ar{fill:#79b823;}.as{font-family:MyriadPro-Regular, Myriad Pro;font-size:2.36px;stroke:#fffcf8;stroke-miterlimit:10;stroke-width:.19px;}.at{letter-spacing:-.01em;}.au{fill:#b2100b;}.av{clip-path:url(#h);}.aw{fill:#76b727;}.ax{fill:#fef6a3;}.ay{fill:#e5deb2;}.b`{fill:#117b23;}.ba{fill:#d45700;}.bb{fill:#a71009;}.bc{letter-spacing:0em;}.bd{clip-path:url(#ah);}.be{fill:#ffee02;}.bf{clip-path:url(#ag);}.bg{clip-path:url(#x);}.bh{fill:#fed404;}.bi{letter-spacing:0em;}.bj{fill:#801100;}.bk{clip-path:url(#n);}.bl{fill:#fdd501;}.bm{fill:#e9a47d;}.bn{clip-path:url(#ab);}.bo{fill:#f9bd05;}.bp{fill:#c00c0d;}.bq{clip-path:url(#o);}.br{fill:#d10a11;}.bs{clip-path:url(#m);}.bt{fill:#bfd87c;}.bu{fill:#fecd04;}.bv{clip-path:url(#t);}.bw{fill:#ece6c2;}.bx{clip-path:url(#w);}.by{clip-path:url(#ai);}.c`{fill:#e84c0f;}.ca{fill:#ff8a72;}.cb{fill:#e20514;}.cc{fill:none;}.cd{fill:#f28801;}.ce{fill:#ede7c3;}.cf{fill:#00842d;}.cg{fill:#149737;}.ch{fill:#e96908;}.ci{fill:#c7080f;}.cj{clip-path:url(#y);}.ck{fill:#ded5ae;}.cl{fill:#ec6804;}.cm{fill:#fefbda;}.cn{clip-path:url(#s);}.co{fill:#f8be75;}.cp{clip-path:url(#r);}.cq{fill:#fffcf8;}.cr{fill:#9e1006;}.cs{clip-path:url(#i);}.ct{fill:#c4d97e;}.cu{clip-path:url(#am);}.cv{clip-path:url(#ad);}</style><clipPath id="h"><rect class="cc" x="-70.5" y="150" width="501" height="128"/></clipPath><clipPath id="i"><circle class="cc" cx="148.07" cy="77.31" r="16.76"/></clipPath><clipPath id="m"><circle class="cc" cx="18.95" cy="15.86" r="3.3"/></clipPath><clipPath id="n"><circle class="cc" cx="31.53" cy="15.86" r="3.3"/></clipPath><clipPath id="o"><rect class="cc" x="25.13" y="-14.1" width="49.17" height="44.26"/></clipPath><clipPath id="r"><circle class="cc" cx="18.95" cy="15.86" r="3.3"/></clipPath><clipPath id="s"><circle class="cc" cx="31.53" cy="15.86" r="3.3"/></clipPath><clipPath id="t"><rect class="cc" x="-24.05" y="-14.1" width="49.17" height="44.26"/></clipPath><clipPath id="w"><circle class="cc" cx="18.95" cy="15.86" r="3.3"/></clipPath><clipPath id="x"><circle class="cc" cx="31.53" cy="15.86" r="3.3"/></clipPath><clipPath id="y"><rect class="cc" x="-24.05" y="55.33" width="49.17" height="40.72"/></clipPath><clipPath id="ab"><circle class="cc" cx="18.95" cy="15.86" r="3.3"/></clipPath><clipPath id="ac"><circle class="cc" cx="31.53" cy="15.86" r="3.3"/></clipPath><clipPath id="ad"><rect class="cc" x="25.13" y="55.33" width="49.17" height="40.72"/></clipPath><clipPath id="ag"><circle class="cc" cx="18.95" cy="15.86" r="3.3"/></clipPath><clipPath id="ah"><circle class="cc" cx="31.53" cy="15.86" r="3.3"/></clipPath><clipPath id="ai"><rect class="cc" x="-24.05" y="30.16" width="98.55" height="25.18"/></clipPath><clipPath id="al"><circle class="cc" cx="18.95" cy="15.86" r="3.3"/></clipPath><clipPath id="am"><circle class="cc" cx="31.53" cy="15.86" r="3.3"/></clipPath></defs><g id="a"/><g id="b"/><g id="c"/><g id="d"/><g id="e"/><g id="f"/><g id="g"><g/><g/><g class="av"><g class="cs"><g/></g></g></g><g id="j"><g><g><path class="cf" d="M41.57,63.94s-4.79-3.3-1.8-9.89c-4.17-1.39-5.73-3.58-6.14-5.64l-3.75,3.54L35.87,5.52l9.86-1.18c2.87,2.84,3.75,8.38-.69,17.91-1.42,3.06-.98,6.64,1.03,9.36,2.83,3.81,5.33,10.24,.12,18.54-1.91,3.05-2.04,6.89-.43,10.11,3.46,6.91,5.13,17.76-.73,21.91l-3.47-18.22Z"/><path class="cf" d="M18.74,66.52l1.56-2.57-10.11-1.96c.91-1.95,1.86-5.46-.08-9.73,4.39,.12,6.29-1.28,6.96-3.04l9.82,4.23-1.2-44.34S15.46,5.83,5.02,2.52c-3.98,2.47-5.63,8.64-.48,19.72,1.42,3.06,.98,6.64-1.03,9.36-2.83,3.81-5.33,10.24-.12,18.54,1.91,3.05,2.04,6.89,.43,10.11-3.98,7.94-5.13,21.1,4.61,23.29l10.31-17.03Z"/><path class="aq" d="M27.97,81.32l12.55-5.84,1.05-11.54c-1.05-.75-4.04-4.94-1.8-9.89-6.14-2.25-6.14-5.64-6.14-5.64,0,0,3.29-.5,4.19-.5s-1.29-21.86-1.29-21.86H15.93l-2.97,11.98,4.12,10.89-1.43-1.3c.52,1.01-.9,5.09-5.54,4.64,1.65,7.04-1.95,16.03-1.95,16.03l15.34,12.62c.57-.24,1.15-.49,1.74-.76,.94,.43,1.85,.81,2.73,1.16"/><g id="k"><path class="ar" d="M45.04,82.17c-2.63,1.86-6.78,2.38-12.97,.57-1.28-.37-2.65-.84-4.1-1.42-.78-3.71-1.22-13.31,13.6-17.37,4.78,4.28,7.24,11.3,3.47,18.22Z"/><path class="ar" d="M23.5,80.91c-1.83,.76-3.52,1.37-5.09,1.82-4.22,1.22-7.53,1.38-10.08,.78-2.82-6.05-2.92-15.98,1.57-21.24,13.06,3.42,13.85,14.21,13.61,18.63Z"/><path class="aw" d="M40.84,16.76c.08-1.74-.29-3.19-.97-4.35-.98-1.68-2.59-2.74-4.35-3.17,.24-.3,2.96-3.51,8.03-2.48,3.27,5.8-2,9.01-2.7,10Z"/><path class="aw" d="M15,9.42c-1.65,.37-3.15,1.26-4.15,2.68-.77,1.1-1.23,2.51-1.22,4.25-.12-.96,.34-2-.42-2.75-2.84-2.84-.58-7.1-.09-7.94h0c.05-.1,.09-.15,.09-.15,5.39,.3,5.77,3.75,5.77,3.75l.02,.16Z"/><path class="ar" d="M41.61,28.81c-1.78-2.65-2.22-5.96-1.31-9.02,.32-1.09,.49-2.1,.54-3.03,.08-1.74-.29-3.19-.97-4.35-.98-1.68-2.59-2.74-4.35-3.17-4.79-1.19-10.67,2.21-7.73,10.06,.12,.32,.2,.63,.24,.91,.52,3.74-5.34,4.34-4.65-.01,.04-.28,.11-.58,.22-.9,2.37-7.52-3.72-10.97-8.59-9.88-1.65,.37-3.15,1.26-4.15,2.68-.77,1.1-1.23,2.51-1.22,4.25,0,1.03,.18,2.17,.55,3.43,.9,3.06,1.67,6.37-.11,9.02-3.72,5.52-7.22,14.84-.81,19.87,2.07,1.62,3.59,2.28,6.1,1.49,.48-.15,.96-.36,1.41-.64,1.88-1.15,3.59-4.45,2.62-9.33-.4-2.02-1.21-4.46-2.56-7.41-.13-.29-.27-.59-.42-.9-1.09-2.28,1.6-1.11,3.22-.81-.92-.88-1.8-2.02-2.54-3.51-.02-.04,.03-.08,.07-.06,2.23,1.67,8.09,1.41,8.09,1.41,0,0,7.23,.24,9.72-1.3,.09-.06,.21,.04,.16,.14-.76,1.68-1.79,2.91-2.9,3.81,.17,.02,.31,.01,.41-.01,1.47-.46,4.03-1.02,2.95,1.23-.1,.21-.2,.42-.3,.63-1.83,3.95-2.71,7-2.93,9.35-.27,2.71,.32,4.49,1.29,5.65,.75,.9,1.72,1.44,2.69,1.74,2.51,.79,5.22,.14,7.3-1.49,6.41-5.02,1.71-14.35-2.01-19.87Zm-22.97-10.11c-1.41,0-2.55-1.14-2.55-2.55s1.14-2.55,2.55-2.55,2.55,1.14,2.55,2.55-1.14,2.55-2.55,2.55Zm13.48,0c-1.41,0-2.55-1.14-2.55-2.55s1.14-2.55,2.55-2.55,2.55,1.14,2.55,2.55-1.14,2.55-2.55,2.55Z"/></g><path class="ap" d="M45.73,4.34c-.88,.71-1.62,1.61-2.19,2.42-5.07-1.03-7.78,2.18-8.03,2.48-4.79-1.19-10.5,2.15-7.73,10.06,1.95,5.54-6.14,5.84-4.19,0,2.49-7.48-3.72-10.97-8.59-9.88l-.02-.16s-.38-3.45-5.77-3.75c0,0-.03,.05-.09,.14-.37-1.47-1.55-2.86-4.68-2.89,3.07-2.21,7.86-1.96,12.2,.12,1.04,.49,2.23,.56,3.34,.27,2.13-.56,5.26-.75,5.26-.75,0,0,3.13,.19,5.26,.75,1.11,.29,2.28,.19,3.34-.27,3.56-1.53,8.85-1.57,11.9,1.45Z"/><path class="cf" d="M11.01,12.11c-1.24,1.93-1.92,3.79-2.4,5.99-.85-2.17,.24-5.03,2.4-5.99h0Z"/><path class="cf" d="M43.52,6.87c-2.91-.06-5.68,.99-7.96,2.76l-.12-.56c.77,.33,1.59,.65,2.21,1.23-.88-.33-2.04-.5-2.96-.73,2.11-2.43,5.7-3.95,8.83-2.71h0Z"/><path class="b`" d="M14.6,23.2c.57-.07,1.14-.13,1.7-.18l.07,.04c5.88,3.62,13.26,2.92,19.29,.03l1.25,.11-1.25,.11c-5.29,4.12-14.15,4.81-19.52,.03l.11,.04c-.55-.05-1.11-.11-1.66-.18h0Z"/><ellipse class="b`" cx="25.69" cy="21.55" rx="2.06" ry="1.5"/><path class="cg" d="M35.12,27.76c-.76,1.68-1.79,2.91-2.9,3.81-2.97,2.4-6.45,2.41-6.53,2.41,0,0-3.2-.17-6.07-2.91-.92-.88-1.8-2.02-2.54-3.51-.02-.04,.03-.08,.07-.06,2.23,1.67,15.32,1.65,17.81,.11,.09-.06,.21,.04,.16,.14Z"/><g id="l"><path class="ct" d="M7.11,27.99c2.37-1.27,6.15-.61,7.19,2.1-2.28-1.4-4.55-1.6-7.19-2.1h0Z"/><path class="ct" d="M9.12,5.66c2.53-.91,6.13,.78,5.88,3.76-1.09-2.43-3.37-3.24-5.88-3.76h0Z"/><path class="ct" d="M40.97,16.58c2.64-2.67,3.99-6.16,2.57-9.82,2.76,3.13,1.08,8.17-2.57,9.82h0Z"/><g><path class="bt" d="M35.02,33.98s-2.74,3.89-2.74,9.89"/><path class="ct" d="M35.02,33.98c-.75,2.36-1.55,4.96-2.1,7.36-.21,.83-.38,1.66-.64,2.53-.47-1.74-.34-3.57,.11-5.29,.49-1.71,1.28-3.39,2.63-4.59h0Z"/></g><g><path class="ct" d="M22.69,43.57c-1.45-.59-1.91-2.59-1.2-3.89,.4,1.45,.56,2.53,1.2,3.89h0Z"/><path class="ct" d="M23.94,43.57c.3-1.48,.47-2.54,.61-4.04,.93,1.2,.61,3.16-.61,4.04h0Z"/><path class="ct" d="M27.89,46.81c-1.38-.73-1.65-2.76-.81-3.99,.25,1.48,.31,2.57,.81,3.99h0Z"/><path class="ct" d="M29.14,46.94c.44-1.44,.72-2.48,1.01-3.97,.81,1.28,.3,3.21-1.01,3.97h0Z"/><path class="ct" d="M25.49,61.49c-1.38-.73-1.65-2.76-.81-3.99,.25,1.48,.31,2.57,.81,3.99h0Z"/><path class="ct" d="M26.74,61.62c.44-1.44,.72-2.48,1.01-3.97,.81,1.28,.3,3.21-1.01,3.97h0Z"/><path class="ct" d="M26.09,69.58c-1.38-.73-1.65-2.76-.81-3.99,.25,1.48,.31,2.57,.81,3.99h0Z"/><path class="ct" d="M27.34,69.71c.44-1.44,.72-2.48,1.01-3.97,.81,1.28,.3,3.21-1.01,3.97h0Z"/><path class="ct" d="M20.31,63.09c-1.52-.36-2.28-2.26-1.78-3.67,.62,1.37,.94,2.41,1.78,3.67h0Z"/><path class="ct" d="M21.55,62.9c.07-1.5,.08-2.59-.02-4.09,1.11,1.04,1.09,3.03,.02,4.09h0Z"/><path class="ct" d="M31.8,62.88c-1.26-.92-1.23-2.97-.22-4.07,.03,1.51-.07,2.59,.22,4.07h0Z"/><path class="ct" d="M33.02,63.18c.64-1.36,1.08-2.35,1.57-3.78,.62,1.39-.17,3.22-1.57,3.78h0Z"/><path class="ct" d="M27.01,37.6c-1.48-.5-2.06-2.47-1.43-3.82,.48,1.43,.7,2.49,1.43,3.82h0Z"/><path class="ct" d="M28.26,37.53c.21-1.49,.32-2.57,.37-4.07,1,1.14,.8,3.12-.37,4.07h0Z"/><path class="ct" d="M22.51,53.18c-1.48-.5-2.06-2.47-1.43-3.82,.48,1.43,.7,2.49,1.43,3.82h0Z"/><path class="ct" d="M23.76,53.11c.21-1.49,.32-2.57,.37-4.07,1,1.14,.8,3.12-.37,4.07h0Z"/><path class="ct" d="M28.54,54.21c-1.28-.9-1.27-2.95-.28-4.07,.06,1.5-.03,2.59,.28,4.07h0Z"/><path class="ct" d="M29.76,54.49c.62-1.37,1.04-2.37,1.51-3.8,.64,1.38-.12,3.22-1.51,3.8h0Z"/></g><path class="ct" d="M38.57,68.14c-2.71,2.27-5.83,3.46-7.58,6.59-.4-3.89,4.17-6.45,7.58-6.59h0Z"/><path class="ct" d="M6.51,70.54c.62,4.44,.47,8.61,1.8,12.88-3.25-3.28-3.29-8.76-1.8-12.88h0Z"/></g><g class="bs"><g><circle class="cg" cx="18.92" cy="15.87" r="3.36"/><path class="bt" d="M18.73,12.51c1.6-.76,3.47,.72,3.86,2.32,.5,1.65-.53,3.58-2.15,4.04,.46-.65,.82-1.25,.99-1.88,.52-1.92-.66-4.07-2.7-4.48h0Z"/><path class="cf" d="M19.12,12.51c-2.02,1.07-3.14,3-1.84,5.04,.37,.6,.89,1.15,1.56,1.71-4.85-.11-4.79-7.34,.28-6.75h0Z"/></g></g><g class="bk"><g><circle class="cg" cx="31.55" cy="15.84" r="3.36"/><path class="bt" d="M31.75,19.2c-1.6,.76-3.47-.72-3.86-2.32-.5-1.65,.53-3.58,2.15-4.04-.46,.65-.82,1.25-.99,1.88-.52,1.92,.66,4.07,2.7,4.48h0Z"/><path class="cf" d="M31.36,19.2c2.02-1.07,3.14-3,1.84-5.04-.37-.6-.89-1.15-1.56-1.71,4.85,.11,4.79,7.34-.28,6.75h0Z"/></g></g></g><g class="bq"><g><path class="bj" d="M41.57,63.94s-4.79-3.3-1.8-9.89c-4.17-1.39-5.73-3.58-6.14-5.64l-3.75,3.54L35.87,5.52l9.86-1.18c2.87,2.84,3.75,8.38-.69,17.91-1.42,3.06-.98,6.64,1.03,9.36,2.83,3.81,5.33,10.24,.12,18.54-1.91,3.05-2.04,6.89-.43,10.11,3.46,6.91,5.13,17.76-.73,21.91l-3.47-18.22Z"/><path class="bj" d="M18.74,66.52l1.56-2.57-10.11-1.96c.91-1.95,1.86-5.46-.08-9.73,4.39,.12,6.29-1.28,6.96-3.04l9.82,4.23-1.2-44.34S15.46,5.83,5.02,2.52c-3.98,2.47-5.63,8.64-.48,19.72,1.42,3.06,.98,6.64-1.03,9.36-2.83,3.81-5.33,10.24-.12,18.54,1.91,3.05,2.04,6.89,.43,10.11-3.98,7.94-5.13,21.1,4.61,23.29l10.31-17.03Z"/><path class="bb" d="M27.97,81.32l12.55-5.84,1.05-11.54c-1.05-.75-4.04-4.94-1.8-9.89-6.14-2.25-6.14-5.64-6.14-5.64,0,0,3.29-.5,4.19-.5s-1.29-21.86-1.29-21.86H15.93l-2.97,11.98,4.12,10.89-1.43-1.3c.52,1.01-.9,5.09-5.54,4.64,1.65,7.04-1.95,16.03-1.95,16.03l15.34,12.62c.57-.24,1.15-.49,1.74-.76,.94,.43,1.85,.81,2.73,1.16"/><g id="p"><path class="bp" d="M45.04,82.17c-2.63,1.86-6.78,2.38-12.97,.57-1.28-.37-2.65-.84-4.1-1.42-.78-3.71-1.22-13.31,13.6-17.37,4.78,4.28,7.24,11.3,3.47,18.22Z"/><path class="bp" d="M23.5,80.91c-1.83,.76-3.52,1.37-5.09,1.82-4.22,1.22-7.53,1.38-10.08,.78-2.82-6.05-2.92-15.98,1.57-21.24,13.06,3.42,13.85,14.21,13.61,18.63Z"/><path class="bp" d="M40.84,16.76c.08-1.74-.29-3.19-.97-4.35-.98-1.68-2.59-2.74-4.35-3.17,.24-.3,2.96-3.51,8.03-2.48,3.27,5.8-2,9.01-2.7,10Z"/><path class="bp" d="M15,9.42c-1.65,.37-3.15,1.26-4.15,2.68-.77,1.1-1.23,2.51-1.22,4.25-.12-.96,.34-2-.42-2.75-2.84-2.84-.58-7.1-.09-7.94h0c.05-.1,.09-.15,.09-.15,5.39,.3,5.77,3.75,5.77,3.75l.02,.16Z"/><path class="bp" d="M41.61,28.81c-1.78-2.65-2.22-5.96-1.31-9.02,.32-1.09,.49-2.1,.54-3.03,.08-1.74-.29-3.19-.97-4.35-.98-1.68-2.59-2.74-4.35-3.17-4.79-1.19-10.67,2.21-7.73,10.06,.12,.32,.2,.63,.24,.91,.52,3.74-5.34,4.34-4.65-.01,.04-.28,.11-.58,.22-.9,2.37-7.52-3.72-10.97-8.59-9.88-1.65,.37-3.15,1.26-4.15,2.68-.77,1.1-1.23,2.51-1.22,4.25,0,1.03,.18,2.17,.55,3.43,.9,3.06,1.67,6.37-.11,9.02-3.72,5.52-7.22,14.84-.81,19.87,2.07,1.62,3.59,2.28,6.1,1.49,.48-.15,.96-.36,1.41-.64,1.88-1.15,3.59-4.45,2.62-9.33-.4-2.02-1.21-4.46-2.56-7.41-.13-.29-.27-.59-.42-.9-1.09-2.28,1.6-1.11,3.22-.81-.92-.88-1.8-2.02-2.54-3.51-.02-.04,.03-.08,.07-.06,2.23,1.67,8.09,1.41,8.09,1.41,0,0,7.23,.24,9.72-1.3,.09-.06,.21,.04,.16,.14-.76,1.68-1.79,2.91-2.9,3.81,.17,.02,.31,.01,.41-.01,1.47-.46,4.03-1.02,2.95,1.23-.1,.21-.2,.42-.3,.63-1.83,3.95-2.71,7-2.93,9.35-.27,2.71,.32,4.49,1.29,5.65,.75,.9,1.72,1.44,2.69,1.74,2.51,.79,5.22,.14,7.3-1.49,6.41-5.02,1.71-14.35-2.01-19.87Zm-22.97-10.11c-1.41,0-2.55-1.14-2.55-2.55s1.14-2.55,2.55-2.55,2.55,1.14,2.55,2.55-1.14,2.55-2.55,2.55Zm13.48,0c-1.41,0-2.55-1.14-2.55-2.55s1.14-2.55,2.55-2.55,2.55,1.14,2.55,2.55-1.14,2.55-2.55,2.55Z"/></g><path class="cr" d="M45.73,4.34c-.88,.71-1.62,1.61-2.19,2.42-5.07-1.03-7.78,2.18-8.03,2.48-4.79-1.19-10.5,2.15-7.73,10.06,1.95,5.54-6.14,5.84-4.19,0,2.49-7.48-3.72-10.97-8.59-9.88l-.02-.16s-.38-3.45-5.77-3.75c0,0-.03,.05-.09,.14-.37-1.47-1.55-2.86-4.68-2.89,3.07-2.21,7.86-1.96,12.2,.12,1.04,.49,2.23,.56,3.34,.27,2.13-.56,5.26-.75,5.26-.75,0,0,3.13,.19,5.26,.75,1.11,.29,2.28,.19,3.34-.27,3.56-1.53,8.85-1.57,11.9,1.45Z"/><path class="bj" d="M11.01,12.11c-1.24,1.93-1.92,3.79-2.4,5.99-.85-2.17,.24-5.03,2.4-5.99h0Z"/><path class="bj" d="M43.52,6.87c-2.91-.06-5.68,.99-7.96,2.76l-.12-.56c.77,.33,1.59,.65,2.21,1.23-.88-.33-2.04-.5-2.96-.73,2.11-2.43,5.7-3.95,8.83-2.71h0Z"/><path class="bj" d="M14.6,23.2c.57-.07,1.14-.13,1.7-.18l.07,.04c5.88,3.62,13.26,2.92,19.29,.03l1.25,.11-1.25,.11c-5.29,4.12-14.15,4.81-19.52,.03l.11,.04c-.55-.05-1.11-.11-1.66-.18h0Z"/><ellipse class="bj" cx="25.69" cy="21.55" rx="2.06" ry="1.5"/><path class="cr" d="M35.12,27.76c-.76,1.68-1.79,2.91-2.9,3.81-2.97,2.4-6.45,2.41-6.53,2.41,0,0-3.2-.17-6.07-2.91-.92-.88-1.8-2.02-2.54-3.51-.02-.04,.03-.08,.07-.06,2.23,1.67,15.32,1.65,17.81,.11,.09-.06,.21,.04,.16,.14Z"/><g id="q"><path class="ca" d="M7.11,27.99c2.37-1.27,6.15-.61,7.19,2.1-2.28-1.4-4.55-1.6-7.19-2.1h0Z"/><path class="ca" d="M9.12,5.66c2.53-.91,6.13,.78,5.88,3.76-1.09-2.43-3.37-3.24-5.88-3.76h0Z"/><path class="ca" d="M40.97,16.58c2.64-2.67,3.99-6.16,2.57-9.82,2.76,3.13,1.08,8.17-2.57,9.82h0Z"/><g><path class="bt" d="M35.02,33.98s-2.74,3.89-2.74,9.89"/><path class="ca" d="M35.02,33.98c-.75,2.36-1.55,4.96-2.1,7.36-.21,.83-.38,1.66-.64,2.53-.47-1.74-.34-3.57,.11-5.29,.49-1.71,1.28-3.39,2.63-4.59h0Z"/></g><g><path class="ca" d="M22.69,43.57c-1.45-.59-1.91-2.59-1.2-3.89,.4,1.45,.56,2.53,1.2,3.89h0Z"/><path class="ca" d="M23.94,43.57c.3-1.48,.47-2.54,.61-4.04,.93,1.2,.61,3.16-.61,4.04h0Z"/><path class="ca" d="M27.89,46.81c-1.38-.73-1.65-2.76-.81-3.99,.25,1.48,.31,2.57,.81,3.99h0Z"/><path class="ca" d="M29.14,46.94c.44-1.44,.72-2.48,1.01-3.97,.81,1.28,.3,3.21-1.01,3.97h0Z"/><path class="ca" d="M25.49,61.49c-1.38-.73-1.65-2.76-.81-3.99,.25,1.48,.31,2.57,.81,3.99h0Z"/><path class="ca" d="M26.74,61.62c.44-1.44,.72-2.48,1.01-3.97,.81,1.28,.3,3.21-1.01,3.97h0Z"/><path class="ca" d="M26.09,69.58c-1.38-.73-1.65-2.76-.81-3.99,.25,1.48,.31,2.57,.81,3.99h0Z"/><path class="ca" d="M27.34,69.71c.44-1.44,.72-2.48,1.01-3.97,.81,1.28,.3,3.21-1.01,3.97h0Z"/><path class="ca" d="M20.31,63.09c-1.52-.36-2.28-2.26-1.78-3.67,.62,1.37,.94,2.41,1.78,3.67h0Z"/><path class="ca" d="M21.55,62.9c.07-1.5,.08-2.59-.02-4.09,1.11,1.04,1.09,3.03,.02,4.09h0Z"/><path class="ca" d="M31.8,62.88c-1.26-.92-1.23-2.97-.22-4.07,.03,1.51-.07,2.59,.22,4.07h0Z"/><path class="ca" d="M33.02,63.18c.64-1.36,1.08-2.35,1.57-3.78,.62,1.39-.17,3.22-1.57,3.78h0Z"/><path class="ca" d="M27.01,37.6c-1.48-.5-2.06-2.47-1.43-3.82,.48,1.43,.7,2.49,1.43,3.82h0Z"/><path class="ca" d="M28.26,37.53c.21-1.49,.32-2.57,.37-4.07,1,1.14,.8,3.12-.37,4.07h0Z"/><path class="ca" d="M22.51,53.18c-1.48-.5-2.06-2.47-1.43-3.82,.48,1.43,.7,2.49,1.43,3.82h0Z"/><path class="ca" d="M23.76,53.11c.21-1.49,.32-2.57,.37-4.07,1,1.14,.8,3.12-.37,4.07h0Z"/><path class="ca" d="M28.54,54.21c-1.28-.9-1.27-2.95-.28-4.07,.06,1.5-.03,2.59,.28,4.07h0Z"/><path class="ca" d="M29.76,54.49c.62-1.37,1.04-2.37,1.51-3.8,.64,1.38-.12,3.22-1.51,3.8h0Z"/></g><path class="ca" d="M38.57,68.14c-2.71,2.27-5.83,3.46-7.58,6.59-.4-3.89,4.17-6.45,7.58-6.59h0Z"/><path class="ca" d="M6.51,70.54c.62,4.44,.47,8.61,1.8,12.88-3.25-3.28-3.29-8.76-1.8-12.88h0Z"/></g><g class="cp"><g><circle class="cr" cx="18.92" cy="15.87" r="3.36"/><path class="ca" d="M18.73,12.51c1.6-.76,3.47,.72,3.86,2.32,.5,1.65-.53,3.58-2.15,4.04,.46-.65,.82-1.25,.99-1.88,.52-1.92-.66-4.07-2.7-4.48h0Z"/><path class="bj" d="M19.12,12.51c-2.02,1.07-3.14,3-1.84,5.04,.37,.6,.89,1.15,1.56,1.71-4.85-.11-4.79-7.34,.28-6.75h0Z"/></g></g><g class="cn"><g><circle class="cr" cx="31.55" cy="15.84" r="3.36"/><path class="ca" d="M31.75,19.2c-1.6,.76-3.47-.72-3.86-2.32-.5-1.65,.53-3.58,2.15-4.04-.46,.65-.82,1.25-.99,1.88-.52,1.92,.66,4.07,2.7,4.48h0Z"/><path class="bj" d="M31.36,19.2c2.02-1.07,3.14-3,1.84-5.04-.37-.6-.89-1.15-1.56-1.71,4.85,.11,4.79,7.34-.28,6.75h0Z"/></g></g></g></g><g class="bv"><g><path class="bo" d="M41.57,63.94s-4.79-3.3-1.8-9.89c-4.17-1.39-5.73-3.58-6.14-5.64l-3.75,3.54L35.87,5.52l9.86-1.18c2.87,2.84,3.75,8.38-.69,17.91-1.42,3.06-.98,6.64,1.03,9.36,2.83,3.81,5.33,10.24,.12,18.54-1.91,3.05-2.04,6.89-.43,10.11,3.46,6.91,5.13,17.76-.73,21.91l-3.47-18.22Z"/><path class="bo" d="M18.74,66.52l1.56-2.57-10.11-1.96c.91-1.95,1.86-5.46-.08-9.73,4.39,.12,6.29-1.28,6.96-3.04l9.82,4.23-1.2-44.34S15.46,5.83,5.02,2.52c-3.98,2.47-5.63,8.64-.48,19.72,1.42,3.06,.98,6.64-1.03,9.36-2.83,3.81-5.33,10.24-.12,18.54,1.91,3.05,2.04,6.89,.43,10.11-3.98,7.94-5.13,21.1,4.61,23.29l10.31-17.03Z"/><path class="bh" d="M27.97,81.32l12.55-5.84,1.05-11.54c-1.05-.75-4.04-4.94-1.8-9.89-6.14-2.25-6.14-5.64-6.14-5.64,0,0,3.29-.5,4.19-.5s-1.29-21.86-1.29-21.86H15.93l-2.97,11.98,4.12,10.89-1.43-1.3c.52,1.01-.9,5.09-5.54,4.64,1.65,7.04-1.95,16.03-1.95,16.03l15.34,12.62c.57-.24,1.15-.49,1.74-.76,.94,.43,1.85,.81,2.73,1.16"/><g id="u"><path class="be" d="M45.04,82.17c-2.63,1.86-6.78,2.38-12.97,.57-1.28-.37-2.65-.84-4.1-1.42-.78-3.71-1.22-13.31,13.6-17.37,4.78,4.28,7.24,11.3,3.47,18.22Z"/><path class="be" d="M23.5,80.91c-1.83,.76-3.52,1.37-5.09,1.82-4.22,1.22-7.53,1.38-10.08,.78-2.82-6.05-2.92-15.98,1.57-21.24,13.06,3.42,13.85,14.21,13.61,18.63Z"/><path class="be" d="M40.84,16.76c.08-1.74-.29-3.19-.97-4.35-.98-1.68-2.59-2.74-4.35-3.17,.24-.3,2.96-3.51,8.03-2.48,3.27,5.8-2,9.01-2.7,10Z"/><path class="be" d="M15,9.42c-1.65,.37-3.15,1.26-4.15,2.68-.77,1.1-1.23,2.51-1.22,4.25-.12-.96,.34-2-.42-2.75-2.84-2.84-.58-7.1-.09-7.94h0c.05-.1,.09-.15,.09-.15,5.39,.3,5.77,3.75,5.77,3.75l.02,.16Z"/><path class="be" d="M41.61,28.81c-1.78-2.65-2.22-5.96-1.31-9.02,.32-1.09,.49-2.1,.54-3.03,.08-1.74-.29-3.19-.97-4.35-.98-1.68-2.59-2.74-4.35-3.17-4.79-1.19-10.67,2.21-7.73,10.06,.12,.32,.2,.63,.24,.91,.52,3.74-5.34,4.34-4.65-.01,.04-.28,.11-.58,.22-.9,2.37-7.52-3.72-10.97-8.59-9.88-1.65,.37-3.15,1.26-4.15,2.68-.77,1.1-1.23,2.51-1.22,4.25,0,1.03,.18,2.17,.55,3.43,.9,3.06,1.67,6.37-.11,9.02-3.72,5.52-7.22,14.84-.81,19.87,2.07,1.62,3.59,2.28,6.1,1.49,.48-.15,.96-.36,1.41-.64,1.88-1.15,3.59-4.45,2.62-9.33-.4-2.02-1.21-4.46-2.56-7.41-.13-.29-.27-.59-.42-.9-1.09-2.28,1.6-1.11,3.22-.81-.92-.88-1.8-2.02-2.54-3.51-.02-.04,.03-.08,.07-.06,2.23,1.67,8.09,1.41,8.09,1.41,0,0,7.23,.24,9.72-1.3,.09-.06,.21,.04,.16,.14-.76,1.68-1.79,2.91-2.9,3.81,.17,.02,.31,.01,.41-.01,1.47-.46,4.03-1.02,2.95,1.23-.1,.21-.2,.42-.3,.63-1.83,3.95-2.71,7-2.93,9.35-.27,2.71,.32,4.49,1.29,5.65,.75,.9,1.72,1.44,2.69,1.74,2.51,.79,5.22,.14,7.3-1.49,6.41-5.02,1.71-14.35-2.01-19.87Zm-22.97-10.11c-1.41,0-2.55-1.14-2.55-2.55s1.14-2.55,2.55-2.55,2.55,1.14,2.55,2.55-1.14,2.55-2.55,2.55Zm13.48,0c-1.41,0-2.55-1.14-2.55-2.55s1.14-2.55,2.55-2.55,2.55,1.14,2.55,2.55-1.14,2.55-2.55,2.55Z"/></g><path class="bl" d="M45.73,4.34c-.88,.71-1.62,1.61-2.19,2.42-5.07-1.03-7.78,2.18-8.03,2.48-4.79-1.19-10.5,2.15-7.73,10.06,1.95,5.54-6.14,5.84-4.19,0,2.49-7.48-3.72-10.97-8.59-9.88l-.02-.16s-.38-3.45-5.77-3.75c0,0-.03,.05-.09,.14-.37-1.47-1.55-2.86-4.68-2.89,3.07-2.21,7.86-1.96,12.2,.12,1.04,.49,2.23,.56,3.34,.27,2.13-.56,5.26-.75,5.26-.75,0,0,3.13,.19,5.26,.75,1.11,.29,2.28,.19,3.34-.27,3.56-1.53,8.85-1.57,11.9,1.45Z"/><path class="bo" d="M11.01,12.11c-1.24,1.93-1.92,3.79-2.4,5.99-.85-2.17,.24-5.03,2.4-5.99h0Z"/><path class="bo" d="M43.52,6.87c-2.91-.06-5.68,.99-7.96,2.76l-.12-.56c.77,.33,1.59,.65,2.21,1.23-.88-.33-2.04-.5-2.96-.73,2.11-2.43,5.7-3.95,8.83-2.71h0Z"/><path class="bo" d="M14.6,23.2c.57-.07,1.14-.13,1.7-.18l.07,.04c5.88,3.62,13.26,2.92,19.29,.03l1.25,.11-1.25,.11c-5.29,4.12-14.15,4.81-19.52,.03l.11,.04c-.55-.05-1.11-.11-1.66-.18h0Z"/><ellipse class="bo" cx="25.69" cy="21.55" rx="2.06" ry="1.5"/><path class="bu" d="M35.12,27.76c-.76,1.68-1.79,2.91-2.9,3.81-2.97,2.4-6.45,2.41-6.53,2.41,0,0-3.2-.17-6.07-2.91-.92-.88-1.8-2.02-2.54-3.51-.02-.04,.03-.08,.07-.06,2.23,1.67,15.32,1.65,17.81,.11,.09-.06,.21,.04,.16,.14Z"/><g id="v"><path class="ax" d="M7.11,27.99c2.37-1.27,6.15-.61,7.19,2.1-2.28-1.4-4.55-1.6-7.19-2.1h0Z"/><path class="ax" d="M9.12,5.66c2.53-.91,6.13,.78,5.88,3.76-1.09-2.43-3.37-3.24-5.88-3.76h0Z"/><path class="ax" d="M40.97,16.58c2.64-2.67,3.99-6.16,2.57-9.82,2.76,3.13,1.08,8.17-2.57,9.82h0Z"/><g><path class="bt" d="M35.02,33.98s-2.74,3.89-2.74,9.89"/><path class="ax" d="M35.02,33.98c-.75,2.36-1.55,4.96-2.1,7.36-.21,.83-.38,1.66-.64,2.53-.47-1.74-.34-3.57,.11-5.29,.49-1.71,1.28-3.39,2.63-4.59h0Z"/></g><g><path class="ax" d="M22.69,43.57c-1.45-.59-1.91-2.59-1.2-3.89,.4,1.45,.56,2.53,1.2,3.89h0Z"/><path class="ax" d="M23.94,43.57c.3-1.48,.47-2.54,.61-4.04,.93,1.2,.61,3.16-.61,4.04h0Z"/><path class="ax" d="M27.89,46.81c-1.38-.73-1.65-2.76-.81-3.99,.25,1.48,.31,2.57,.81,3.99h0Z"/><path class="ax" d="M29.14,46.94c.44-1.44,.72-2.48,1.01-3.97,.81,1.28,.3,3.21-1.01,3.97h0Z"/><path class="ax" d="M25.49,61.49c-1.38-.73-1.65-2.76-.81-3.99,.25,1.48,.31,2.57,.81,3.99h0Z"/><path class="ax" d="M26.74,61.62c.44-1.44,.72-2.48,1.01-3.97,.81,1.28,.3,3.21-1.01,3.97h0Z"/><path class="ax" d="M26.09,69.58c-1.38-.73-1.65-2.76-.81-3.99,.25,1.48,.31,2.57,.81,3.99h0Z"/><path class="ax" d="M27.34,69.71c.44-1.44,.72-2.48,1.01-3.97,.81,1.28,.3,3.21-1.01,3.97h0Z"/><path class="ax" d="M20.31,63.09c-1.52-.36-2.28-2.26-1.78-3.67,.62,1.37,.94,2.41,1.78,3.67h0Z"/><path class="ax" d="M21.55,62.9c.07-1.5,.08-2.59-.02-4.09,1.11,1.04,1.09,3.03,.02,4.09h0Z"/><path class="ax" d="M31.8,62.88c-1.26-.92-1.23-2.97-.22-4.07,.03,1.51-.07,2.59,.22,4.07h0Z"/><path class="ax" d="M33.02,63.18c.64-1.36,1.08-2.35,1.57-3.78,.62,1.39-.17,3.22-1.57,3.78h0Z"/><path class="ax" d="M27.01,37.6c-1.48-.5-2.06-2.47-1.43-3.82,.48,1.43,.7,2.49,1.43,3.82h0Z"/><path class="ax" d="M28.26,37.53c.21-1.49,.32-2.57,.37-4.07,1,1.14,.8,3.12-.37,4.07h0Z"/><path class="ax" d="M22.51,53.18c-1.48-.5-2.06-2.47-1.43-3.82,.48,1.43,.7,2.49,1.43,3.82h0Z"/><path class="ax" d="M23.76,53.11c.21-1.49,.32-2.57,.37-4.07,1,1.14,.8,3.12-.37,4.07h0Z"/><path class="ax" d="M28.54,54.21c-1.28-.9-1.27-2.95-.28-4.07,.06,1.5-.03,2.59,.28,4.07h0Z"/><path class="ax" d="M29.76,54.49c.62-1.37,1.04-2.37,1.51-3.8,.64,1.38-.12,3.22-1.51,3.8h0Z"/></g><path class="ax" d="M38.57,68.14c-2.71,2.27-5.83,3.46-7.58,6.59-.4-3.89,4.17-6.45,7.58-6.59h0Z"/><path class="ax" d="M6.51,70.54c.62,4.44,.47,8.61,1.8,12.88-3.25-3.28-3.29-8.76-1.8-12.88h0Z"/></g><g class="bx"><g><circle class="bu" cx="18.92" cy="15.87" r="3.36"/><path class="ax" d="M18.73,12.51c1.6-.76,3.47,.72,3.86,2.32,.5,1.65-.53,3.58-2.15,4.04,.46-.65,.82-1.25,.99-1.88,.52-1.92-.66-4.07-2.7-4.48h0Z"/><path class="bo" d="M19.12,12.51c-2.02,1.07-3.14,3-1.84,5.04,.37,.6,.89,1.15,1.56,1.71-4.85-.11-4.79-7.34,.28-6.75h0Z"/></g></g><g class="bg"><g><circle class="bu" cx="31.55" cy="15.84" r="3.36"/><path class="ax" d="M31.75,19.2c-1.6,.76-3.47-.72-3.86-2.32-.5-1.65,.53-3.58,2.15-4.04-.46,.65-.82,1.25-.99,1.88-.52,1.92,.66,4.07,2.7,4.48h0Z"/><path class="bo" d="M31.36,19.2c2.02-1.07,3.14-3,1.84-5.04-.37-.6-.89-1.15-1.56-1.71,4.85,.11,4.79,7.34-.28,6.75h0Z"/></g></g></g></g><g class="cj"><g><path class="au" d="M41.57,63.94s-4.79-3.3-1.8-9.89c-4.17-1.39-5.73-3.58-6.14-5.64l-3.75,3.54L35.87,5.52l9.86-1.18c2.87,2.84,3.75,8.38-.69,17.91-1.42,3.06-.98,6.64,1.03,9.36,2.83,3.81,5.33,10.24,.12,18.54-1.91,3.05-2.04,6.89-.43,10.11,3.46,6.91,5.13,17.76-.73,21.91l-3.47-18.22Z"/><path class="au" d="M18.74,66.52l1.56-2.57-10.11-1.96c.91-1.95,1.86-5.46-.08-9.73,4.39,.12,6.29-1.28,6.96-3.04l9.82,4.23-1.2-44.34S15.46,5.83,5.02,2.52c-3.98,2.47-5.63,8.64-.48,19.72,1.42,3.06,.98,6.64-1.03,9.36-2.83,3.81-5.33,10.24-.12,18.54,1.91,3.05,2.04,6.89,.43,10.11-3.98,7.94-5.13,21.1,4.61,23.29l10.31-17.03Z"/><path class="br" d="M27.97,81.32l12.55-5.84,1.05-11.54c-1.05-.75-4.04-4.94-1.8-9.89-6.14-2.25-6.14-5.64-6.14-5.64,0,0,3.29-.5,4.19-.5s-1.29-21.86-1.29-21.86H15.93l-2.97,11.98,4.12,10.89-1.43-1.3c.52,1.01-.9,5.09-5.54,4.64,1.65,7.04-1.95,16.03-1.95,16.03l15.34,12.62c.57-.24,1.15-.49,1.74-.76,.94,.43,1.85,.81,2.73,1.16"/><g id="a`"><path class="cb" d="M45.04,82.17c-2.63,1.86-6.78,2.38-12.97,.57-1.28-.37-2.65-.84-4.1-1.42-.78-3.71-1.22-13.31,13.6-17.37,4.78,4.28,7.24,11.3,3.47,18.22Z"/><path class="cb" d="M23.5,80.91c-1.83,.76-3.52,1.37-5.09,1.82-4.22,1.22-7.53,1.38-10.08,.78-2.82-6.05-2.92-15.98,1.57-21.24,13.06,3.42,13.85,14.21,13.61,18.63Z"/><path class="cb" d="M40.84,16.76c.08-1.74-.29-3.19-.97-4.35-.98-1.68-2.59-2.74-4.35-3.17,.24-.3,2.96-3.51,8.03-2.48,3.27,5.8-2,9.01-2.7,10Z"/><path class="cb" d="M15,9.42c-1.65,.37-3.15,1.26-4.15,2.68-.77,1.1-1.23,2.51-1.22,4.25-.12-.96,.34-2-.42-2.75-2.84-2.84-.58-7.1-.09-7.94h0c.05-.1,.09-.15,.09-.15,5.39,.3,5.77,3.75,5.77,3.75l.02,.16Z"/><path class="cb" d="M41.61,28.81c-1.78-2.65-2.22-5.96-1.31-9.02,.32-1.09,.49-2.1,.54-3.03,.08-1.74-.29-3.19-.97-4.35-.98-1.68-2.59-2.74-4.35-3.17-4.79-1.19-10.67,2.21-7.73,10.06,.12,.32,.2,.63,.24,.91,.52,3.74-5.34,4.34-4.65-.01,.04-.28,.11-.58,.22-.9,2.37-7.52-3.72-10.97-8.59-9.88-1.65,.37-3.15,1.26-4.15,2.68-.77,1.1-1.23,2.51-1.22,4.25,0,1.03,.18,2.17,.55,3.43,.9,3.06,1.67,6.37-.11,9.02-3.72,5.52-7.22,14.84-.81,19.87,2.07,1.62,3.59,2.28,6.1,1.49,.48-.15,.96-.36,1.41-.64,1.88-1.15,3.59-4.45,2.62-9.33-.4-2.02-1.21-4.46-2.56-7.41-.13-.29-.27-.59-.42-.9-1.09-2.28,1.6-1.11,3.22-.81-.92-.88-1.8-2.02-2.54-3.51-.02-.04,.03-.08,.07-.06,2.23,1.67,8.09,1.41,8.09,1.41,0,0,7.23,.24,9.72-1.3,.09-.06,.21,.04,.16,.14-.76,1.68-1.79,2.91-2.9,3.81,.17,.02,.31,.01,.41-.01,1.47-.46,4.03-1.02,2.95,1.23-.1,.21-.2,.42-.3,.63-1.83,3.95-2.71,7-2.93,9.35-.27,2.71,.32,4.49,1.29,5.65,.75,.9,1.72,1.44,2.69,1.74,2.51,.79,5.22,.14,7.3-1.49,6.41-5.02,1.71-14.35-2.01-19.87Zm-22.97-10.11c-1.41,0-2.55-1.14-2.55-2.55s1.14-2.55,2.55-2.55,2.55,1.14,2.55,2.55-1.14,2.55-2.55,2.55Zm13.48,0c-1.41,0-2.55-1.14-2.55-2.55s1.14-2.55,2.55-2.55,2.55,1.14,2.55,2.55-1.14,2.55-2.55,2.55Z"/></g><path class="ci" d="M45.73,4.34c-.88,.71-1.62,1.61-2.19,2.42-5.07-1.03-7.78,2.18-8.03,2.48-4.79-1.19-10.5,2.15-7.73,10.06,1.95,5.54-6.14,5.84-4.19,0,2.49-7.48-3.72-10.97-8.59-9.88l-.02-.16s-.38-3.45-5.77-3.75c0,0-.03,.05-.09,.14-.37-1.47-1.55-2.86-4.68-2.89,3.07-2.21,7.86-1.96,12.2,.12,1.04,.49,2.23,.56,3.34,.27,2.13-.56,5.26-.75,5.26-.75,0,0,3.13,.19,5.26,.75,1.11,.29,2.28,.19,3.34-.27,3.56-1.53,8.85-1.57,11.9,1.45Z"/><path class="au" d="M11.01,12.11c-1.24,1.93-1.92,3.79-2.4,5.99-.85-2.17,.24-5.03,2.4-5.99h0Z"/><path class="au" d="M43.52,6.87c-2.91-.06-5.68,.99-7.96,2.76l-.12-.56c.77,.33,1.59,.65,2.21,1.23-.88-.33-2.04-.5-2.96-.73,2.11-2.43,5.7-3.95,8.83-2.71h0Z"/><path class="au" d="M14.6,23.2c.57-.07,1.14-.13,1.7-.18l.07,.04c5.88,3.62,13.26,2.92,19.29,.03l1.25,.11-1.25,.11c-5.29,4.12-14.15,4.81-19.52,.03l.11,.04c-.55-.05-1.11-.11-1.66-.18h0Z"/><ellipse class="au" cx="25.69" cy="21.55" rx="2.06" ry="1.5"/><path class="ci" d="M35.12,27.76c-.76,1.68-1.79,2.91-2.9,3.81-2.97,2.4-6.45,2.41-6.53,2.41,0,0-3.2-.17-6.07-2.91-.92-.88-1.8-2.02-2.54-3.51-.02-.04,.03-.08,.07-.06,2.23,1.67,15.32,1.65,17.81,.11,.09-.06,.21,.04,.16,.14Z"/><g id="aa"><path class="bm" d="M7.11,27.99c2.37-1.27,6.15-.61,7.19,2.1-2.28-1.4-4.55-1.6-7.19-2.1h0Z"/><path class="bm" d="M9.12,5.66c2.53-.91,6.13,.78,5.88,3.76-1.09-2.43-3.37-3.24-5.88-3.76h0Z"/><path class="bm" d="M40.97,16.58c2.64-2.67,3.99-6.16,2.57-9.82,2.76,3.13,1.08,8.17-2.57,9.82h0Z"/><g><path class="bt" d="M35.02,33.98s-2.74,3.89-2.74,9.89"/><path class="bm" d="M35.02,33.98c-.75,2.36-1.55,4.96-2.1,7.36-.21,.83-.38,1.66-.64,2.53-.47-1.74-.34-3.57,.11-5.29,.49-1.71,1.28-3.39,2.63-4.59h0Z"/></g><g><path class="bm" d="M22.69,43.57c-1.45-.59-1.91-2.59-1.2-3.89,.4,1.45,.56,2.53,1.2,3.89h0Z"/><path class="bm" d="M23.94,43.57c.3-1.48,.47-2.54,.61-4.04,.93,1.2,.61,3.16-.61,4.04h0Z"/><path class="bm" d="M27.89,46.81c-1.38-.73-1.65-2.76-.81-3.99,.25,1.48,.31,2.57,.81,3.99h0Z"/><path class="bm" d="M29.14,46.94c.44-1.44,.72-2.48,1.01-3.97,.81,1.28,.3,3.21-1.01,3.97h0Z"/><path class="bm" d="M25.49,61.49c-1.38-.73-1.65-2.76-.81-3.99,.25,1.48,.31,2.57,.81,3.99h0Z"/><path class="bm" d="M26.74,61.62c.44-1.44,.72-2.48,1.01-3.97,.81,1.28,.3,3.21-1.01,3.97h0Z"/><path class="bm" d="M26.09,69.58c-1.38-.73-1.65-2.76-.81-3.99,.25,1.48,.31,2.57,.81,3.99h0Z"/><path class="bm" d="M27.34,69.71c.44-1.44,.72-2.48,1.01-3.97,.81,1.28,.3,3.21-1.01,3.97h0Z"/><path class="bm" d="M20.31,63.09c-1.52-.36-2.28-2.26-1.78-3.67,.62,1.37,.94,2.41,1.78,3.67h0Z"/><path class="bm" d="M21.55,62.9c.07-1.5,.08-2.59-.02-4.09,1.11,1.04,1.09,3.03,.02,4.09h0Z"/><path class="bm" d="M31.8,62.88c-1.26-.92-1.23-2.97-.22-4.07,.03,1.51-.07,2.59,.22,4.07h0Z"/><path class="bm" d="M33.02,63.18c.64-1.36,1.08-2.35,1.57-3.78,.62,1.39-.17,3.22-1.57,3.78h0Z"/><path class="bm" d="M27.01,37.6c-1.48-.5-2.06-2.47-1.43-3.82,.48,1.43,.7,2.49,1.43,3.82h0Z"/><path class="bm" d="M28.26,37.53c.21-1.49,.32-2.57,.37-4.07,1,1.14,.8,3.12-.37,4.07h0Z"/><path class="bm" d="M22.51,53.18c-1.48-.5-2.06-2.47-1.43-3.82,.48,1.43,.7,2.49,1.43,3.82h0Z"/><path class="bm" d="M23.76,53.11c.21-1.49,.32-2.57,.37-4.07,1,1.14,.8,3.12-.37,4.07h0Z"/><path class="bm" d="M28.54,54.21c-1.28-.9-1.27-2.95-.28-4.07,.06,1.5-.03,2.59,.28,4.07h0Z"/><path class="bm" d="M29.76,54.49c.62-1.37,1.04-2.37,1.51-3.8,.64,1.38-.12,3.22-1.51,3.8h0Z"/></g><path class="bm" d="M38.57,68.14c-2.71,2.27-5.83,3.46-7.58,6.59-.4-3.89,4.17-6.45,7.58-6.59h0Z"/><path class="bm" d="M6.51,70.54c.62,4.44,.47,8.61,1.8,12.88-3.25-3.28-3.29-8.76-1.8-12.88h0Z"/></g><g class="bn"><g><circle class="ci" cx="18.92" cy="15.87" r="3.36"/><path class="bm" d="M18.73,12.51c1.6-.76,3.47,.72,3.86,2.32,.5,1.65-.53,3.58-2.15,4.04,.46-.65,.82-1.25,.99-1.88,.52-1.92-.66-4.07-2.7-4.48h0Z"/><path class="au" d="M19.12,12.51c-2.02,1.07-3.14,3-1.84,5.04,.37,.6,.89,1.15,1.56,1.71-4.85-.11-4.79-7.34,.28-6.75h0Z"/></g></g><g class="ao"><g><circle class="ci" cx="31.55" cy="15.84" r="3.36"/><path class="bm" d="M31.75,19.2c-1.6,.76-3.47-.72-3.86-2.32-.5-1.65,.53-3.58,2.15-4.04-.46,.65-.82,1.25-.99,1.88-.52,1.92,.66,4.07,2.7,4.48h0Z"/><path class="au" d="M31.36,19.2c2.02-1.07,3.14-3,1.84-5.04-.37-.6-.89-1.15-1.56-1.71,4.85,.11,4.79,7.34-.28,6.75h0Z"/></g></g></g></g><g class="cv"><g><path class="ba" d="M41.57,63.94s-4.79-3.3-1.8-9.89c-4.17-1.39-5.73-3.58-6.14-5.64l-3.75,3.54L35.87,5.52l9.86-1.18c2.87,2.84,3.75,8.38-.69,17.91-1.42,3.06-.98,6.64,1.03,9.36,2.83,3.81,5.33,10.24,.12,18.54-1.91,3.05-2.04,6.89-.43,10.11,3.46,6.91,5.13,17.76-.73,21.91l-3.47-18.22Z"/><path class="ba" d="M18.74,66.52l1.56-2.57-10.11-1.96c.91-1.95,1.86-5.46-.08-9.73,4.39,.12,6.29-1.28,6.96-3.04l9.82,4.23-1.2-44.34S15.46,5.83,5.02,2.52c-3.98,2.47-5.63,8.64-.48,19.72,1.42,3.06,.98,6.64-1.03,9.36-2.83,3.81-5.33,10.24-.12,18.54,1.91,3.05,2.04,6.89,.43,10.11-3.98,7.94-5.13,21.1,4.61,23.29l10.31-17.03Z"/><path class="ch" d="M27.97,81.32l12.55-5.84,1.05-11.54c-1.05-.75-4.04-4.94-1.8-9.89-6.14-2.25-6.14-5.64-6.14-5.64,0,0,3.29-.5,4.19-.5s-1.29-21.86-1.29-21.86H15.93l-2.97,11.98,4.12,10.89-1.43-1.3c.52,1.01-.9,5.09-5.54,4.64,1.65,7.04-1.95,16.03-1.95,16.03l15.34,12.62c.57-.24,1.15-.49,1.74-.76,.94,.43,1.85,.81,2.73,1.16"/><g id="ae"><path class="cd" d="M45.04,82.17c-2.63,1.86-6.78,2.38-12.97,.57-1.28-.37-2.65-.84-4.1-1.42-.78-3.71-1.22-13.31,13.6-17.37,4.78,4.28,7.24,11.3,3.47,18.22Z"/><path class="cd" d="M23.5,80.91c-1.83,.76-3.52,1.37-5.09,1.82-4.22,1.22-7.53,1.38-10.08,.78-2.82-6.05-2.92-15.98,1.57-21.24,13.06,3.42,13.85,14.21,13.61,18.63Z"/><path class="cd" d="M40.84,16.76c.08-1.74-.29-3.19-.97-4.35-.98-1.68-2.59-2.74-4.35-3.17,.24-.3,2.96-3.51,8.03-2.48,3.27,5.8-2,9.01-2.7,10Z"/><path class="cd" d="M15,9.42c-1.65,.37-3.15,1.26-4.15,2.68-.77,1.1-1.23,2.51-1.22,4.25-.12-.96,.34-2-.42-2.75-2.84-2.84-.58-7.1-.09-7.94h0c.05-.1,.09-.15,.09-.15,5.39,.3,5.77,3.75,5.77,3.75l.02,.16Z"/><path class="cd" d="M41.61,28.81c-1.78-2.65-2.22-5.96-1.31-9.02,.32-1.09,.49-2.1,.54-3.03,.08-1.74-.29-3.19-.97-4.35-.98-1.68-2.59-2.74-4.35-3.17-4.79-1.19-10.67,2.21-7.73,10.06,.12,.32,.2,.63,.24,.91,.52,3.74-5.34,4.34-4.65-.01,.04-.28,.11-.58,.22-.9,2.37-7.52-3.72-10.97-8.59-9.88-1.65,.37-3.15,1.26-4.15,2.68-.77,1.1-1.23,2.51-1.22,4.25,0,1.03,.18,2.17,.55,3.43,.9,3.06,1.67,6.37-.11,9.02-3.72,5.52-7.22,14.84-.81,19.87,2.07,1.62,3.59,2.28,6.1,1.49,.48-.15,.96-.36,1.41-.64,1.88-1.15,3.59-4.45,2.62-9.33-.4-2.02-1.21-4.46-2.56-7.41-.13-.29-.27-.59-.42-.9-1.09-2.28,1.6-1.11,3.22-.81-.92-.88-1.8-2.02-2.54-3.51-.02-.04,.03-.08,.07-.06,2.23,1.67,8.09,1.41,8.09,1.41,0,0,7.23,.24,9.72-1.3,.09-.06,.21,.04,.16,.14-.76,1.68-1.79,2.91-2.9,3.81,.17,.02,.31,.01,.41-.01,1.47-.46,4.03-1.02,2.95,1.23-.1,.21-.2,.42-.3,.63-1.83,3.95-2.71,7-2.93,9.35-.27,2.71,.32,4.49,1.29,5.65,.75,.9,1.72,1.44,2.69,1.74,2.51,.79,5.22,.14,7.3-1.49,6.41-5.02,1.71-14.35-2.01-19.87Zm-22.97-10.11c-1.41,0-2.55-1.14-2.55-2.55s1.14-2.55,2.55-2.55,2.55,1.14,2.55,2.55-1.14,2.55-2.55,2.55Zm13.48,0c-1.41,0-2.55-1.14-2.55-2.55s1.14-2.55,2.55-2.55,2.55,1.14,2.55,2.55-1.14,2.55-2.55,2.55Z"/></g><path class="cl" d="M45.73,4.34c-.88,.71-1.62,1.61-2.19,2.42-5.07-1.03-7.78,2.18-8.03,2.48-4.79-1.19-10.5,2.15-7.73,10.06,1.95,5.54-6.14,5.84-4.19,0,2.49-7.48-3.72-10.97-8.59-9.88l-.02-.16s-.38-3.45-5.77-3.75c0,0-.03,.05-.09,.14-.37-1.47-1.55-2.86-4.68-2.89,3.07-2.21,7.86-1.96,12.2,.12,1.04,.49,2.23,.56,3.34,.27,2.13-.56,5.26-.75,5.26-.75,0,0,3.13,.19,5.26,.75,1.11,.29,2.28,.19,3.34-.27,3.56-1.53,8.85-1.57,11.9,1.45Z"/><path class="ba" d="M11.01,12.11c-1.24,1.93-1.92,3.79-2.4,5.99-.85-2.17,.24-5.03,2.4-5.99h0Z"/><path class="ba" d="M43.52,6.87c-2.91-.06-5.68,.99-7.96,2.76l-.12-.56c.77,.33,1.59,.65,2.21,1.23-.88-.33-2.04-.5-2.96-.73,2.11-2.43,5.7-3.95,8.83-2.71h0Z"/><path class="ba" d="M14.6,23.2c.57-.07,1.14-.13,1.7-.18l.07,.04c5.88,3.62,13.26,2.92,19.29,.03l1.25,.11-1.25,.11c-5.29,4.12-14.15,4.81-19.52,.03l.11,.04c-.55-.05-1.11-.11-1.66-.18h0Z"/><ellipse class="ba" cx="25.69" cy="21.55" rx="2.06" ry="1.5"/><path class="c`" d="M35.12,27.76c-.76,1.68-1.79,2.91-2.9,3.81-2.97,2.4-6.45,2.41-6.53,2.41,0,0-3.2-.17-6.07-2.91-.92-.88-1.8-2.02-2.54-3.51-.02-.04,.03-.08,.07-.06,2.23,1.67,15.32,1.65,17.81,.11,.09-.06,.21,.04,.16,.14Z"/><g id="af"><path class="co" d="M7.11,27.99c2.37-1.27,6.15-.61,7.19,2.1-2.28-1.4-4.55-1.6-7.19-2.1h0Z"/><path class="co" d="M9.12,5.66c2.53-.91,6.13,.78,5.88,3.76-1.09-2.43-3.37-3.24-5.88-3.76h0Z"/><path class="co" d="M40.97,16.58c2.64-2.67,3.99-6.16,2.57-9.82,2.76,3.13,1.08,8.17-2.57,9.82h0Z"/><g><path class="bt" d="M35.02,33.98s-2.74,3.89-2.74,9.89"/><path class="co" d="M35.02,33.98c-.75,2.36-1.55,4.96-2.1,7.36-.21,.83-.38,1.66-.64,2.53-.47-1.74-.34-3.57,.11-5.29,.49-1.71,1.28-3.39,2.63-4.59h0Z"/></g><g><path class="co" d="M22.69,43.57c-1.45-.59-1.91-2.59-1.2-3.89,.4,1.45,.56,2.53,1.2,3.89h0Z"/><path class="co" d="M23.94,43.57c.3-1.48,.47-2.54,.61-4.04,.93,1.2,.61,3.16-.61,4.04h0Z"/><path class="co" d="M27.89,46.81c-1.38-.73-1.65-2.76-.81-3.99,.25,1.48,.31,2.57,.81,3.99h0Z"/><path class="co" d="M29.14,46.94c.44-1.44,.72-2.48,1.01-3.97,.81,1.28,.3,3.21-1.01,3.97h0Z"/><path class="co" d="M25.49,61.49c-1.38-.73-1.65-2.76-.81-3.99,.25,1.48,.31,2.57,.81,3.99h0Z"/><path class="co" d="M26.74,61.62c.44-1.44,.72-2.48,1.01-3.97,.81,1.28,.3,3.21-1.01,3.97h0Z"/><path class="co" d="M26.09,69.58c-1.38-.73-1.65-2.76-.81-3.99,.25,1.48,.31,2.57,.81,3.99h0Z"/><path class="co" d="M27.34,69.71c.44-1.44,.72-2.48,1.01-3.97,.81,1.28,.3,3.21-1.01,3.97h0Z"/><path class="co" d="M20.31,63.09c-1.52-.36-2.28-2.26-1.78-3.67,.62,1.37,.94,2.41,1.78,3.67h0Z"/><path class="co" d="M21.55,62.9c.07-1.5,.08-2.59-.02-4.09,1.11,1.04,1.09,3.03,.02,4.09h0Z"/><path class="co" d="M31.8,62.88c-1.26-.92-1.23-2.97-.22-4.07,.03,1.51-.07,2.59,.22,4.07h0Z"/><path class="co" d="M33.02,63.18c.64-1.36,1.08-2.35,1.57-3.78,.62,1.39-.17,3.22-1.57,3.78h0Z"/><path class="co" d="M27.01,37.6c-1.48-.5-2.06-2.47-1.43-3.82,.48,1.43,.7,2.49,1.43,3.82h0Z"/><path class="co" d="M28.26,37.53c.21-1.49,.32-2.57,.37-4.07,1,1.14,.8,3.12-.37,4.07h0Z"/><path class="co" d="M22.51,53.18c-1.48-.5-2.06-2.47-1.43-3.82,.48,1.43,.7,2.49,1.43,3.82h0Z"/><path class="co" d="M23.76,53.11c.21-1.49,.32-2.57,.37-4.07,1,1.14,.8,3.12-.37,4.07h0Z"/><path class="co" d="M28.54,54.21c-1.28-.9-1.27-2.95-.28-4.07,.06,1.5-.03,2.59,.28,4.07h0Z"/><path class="co" d="M29.76,54.49c.62-1.37,1.04-2.37,1.51-3.8,.64,1.38-.12,3.22-1.51,3.8h0Z"/></g><path class="co" d="M38.57,68.14c-2.71,2.27-5.83,3.46-7.58,6.59-.4-3.89,4.17-6.45,7.58-6.59h0Z"/><path class="co" d="M6.51,70.54c.62,4.44,.47,8.61,1.8,12.88-3.25-3.28-3.29-8.76-1.8-12.88h0Z"/></g><g class="bf"><g><circle class="c`" cx="18.92" cy="15.87" r="3.36"/><path class="co" d="M18.73,12.51c1.6-.76,3.47,.72,3.86,2.32,.5,1.65-.53,3.58-2.15,4.04,.46-.65,.82-1.25,.99-1.88,.52-1.92-.66-4.07-2.7-4.48h0Z"/><path class="ba" d="M19.12,12.51c-2.02,1.07-3.14,3-1.84,5.04,.37,.6,.89,1.15,1.56,1.71-4.85-.11-4.79-7.34,.28-6.75h0Z"/></g></g><g class="bd"><g><circle class="c`" cx="31.55" cy="15.84" r="3.36"/><path class="co" d="M31.75,19.2c-1.6,.76-3.47-.72-3.86-2.32-.5-1.65,.53-3.58,2.15-4.04-.46,.65-.82,1.25-.99,1.88-.52,1.92,.66,4.07,2.7,4.48h0Z"/><path class="ba" d="M31.36,19.2c2.02-1.07,3.14-3,1.84-5.04-.37-.6-.89-1.15-1.56-1.71,4.85,.11,4.79,7.34-.28,6.75h0Z"/></g></g></g></g><g class="by"><g><path class="ck" d="M41.57,63.94s-4.79-3.3-1.8-9.89c-4.17-1.39-5.73-3.58-6.14-5.64l-3.75,3.54L35.87,5.52l9.86-1.18c2.87,2.84,3.75,8.38-.69,17.91-1.42,3.06-.98,6.64,1.03,9.36,2.83,3.81,5.33,10.24,.12,18.54-1.91,3.05-2.04,6.89-.43,10.11,3.46,6.91,5.13,17.76-.73,21.91l-3.47-18.22Z"/><path class="ck" d="M18.74,66.52l1.56-2.57-10.11-1.96c.91-1.95,1.86-5.46-.08-9.73,4.39,.12,6.29-1.28,6.96-3.04l9.82,4.23-1.2-44.34S15.46,5.83,5.02,2.52c-3.98,2.47-5.63,8.64-.48,19.72,1.42,3.06,.98,6.64-1.03,9.36-2.83,3.81-5.33,10.24-.12,18.54,1.91,3.05,2.04,6.89,.43,10.11-3.98,7.94-5.13,21.1,4.61,23.29l10.31-17.03Z"/><path class="ce" d="M27.97,81.32l12.55-5.84,1.05-11.54c-1.05-.75-4.04-4.94-1.8-9.89-6.14-2.25-6.14-5.64-6.14-5.64,0,0,3.29-.5,4.19-.5s-1.29-21.86-1.29-21.86H15.93l-2.97,11.98,4.12,10.89-1.43-1.3c.52,1.01-.9,5.09-5.54,4.64,1.65,7.04-1.95,16.03-1.95,16.03l15.34,12.62c.57-.24,1.15-.49,1.74-.76,.94,.43,1.85,.81,2.73,1.16"/><g id="aj"><path class="cm" d="M45.04,82.17c-2.63,1.86-6.78,2.38-12.97,.57-1.28-.37-2.65-.84-4.1-1.42-.78-3.71-1.22-13.31,13.6-17.37,4.78,4.28,7.24,11.3,3.47,18.22Z"/><path class="cm" d="M23.5,80.91c-1.83,.76-3.52,1.37-5.09,1.82-4.22,1.22-7.53,1.38-10.08,.78-2.82-6.05-2.92-15.98,1.57-21.24,13.06,3.42,13.85,14.21,13.61,18.63Z"/><path class="cm" d="M40.84,16.76c.08-1.74-.29-3.19-.97-4.35-.98-1.68-2.59-2.74-4.35-3.17,.24-.3,2.96-3.51,8.03-2.48,3.27,5.8-2,9.01-2.7,10Z"/><path class="cm" d="M15,9.42c-1.65,.37-3.15,1.26-4.15,2.68-.77,1.1-1.23,2.51-1.22,4.25-.12-.96,.34-2-.42-2.75-2.84-2.84-.58-7.1-.09-7.94h0c.05-.1,.09-.15,.09-.15,5.39,.3,5.77,3.75,5.77,3.75l.02,.16Z"/><path class="cm" d="M41.61,28.81c-1.78-2.65-2.22-5.96-1.31-9.02,.32-1.09,.49-2.1,.54-3.03,.08-1.74-.29-3.19-.97-4.35-.98-1.68-2.59-2.74-4.35-3.17-4.79-1.19-10.67,2.21-7.73,10.06,.12,.32,.2,.63,.24,.91,.52,3.74-5.34,4.34-4.65-.01,.04-.28,.11-.58,.22-.9,2.37-7.52-3.72-10.97-8.59-9.88-1.65,.37-3.15,1.26-4.15,2.68-.77,1.1-1.23,2.51-1.22,4.25,0,1.03,.18,2.17,.55,3.43,.9,3.06,1.67,6.37-.11,9.02-3.72,5.52-7.22,14.84-.81,19.87,2.07,1.62,3.59,2.28,6.1,1.49,.48-.15,.96-.36,1.41-.64,1.88-1.15,3.59-4.45,2.62-9.33-.4-2.02-1.21-4.46-2.56-7.41-.13-.29-.27-.59-.42-.9-1.09-2.28,1.6-1.11,3.22-.81-.92-.88-1.8-2.02-2.54-3.51-.02-.04,.03-.08,.07-.06,2.23,1.67,8.09,1.41,8.09,1.41,0,0,7.23,.24,9.72-1.3,.09-.06,.21,.04,.16,.14-.76,1.68-1.79,2.91-2.9,3.81,.17,.02,.31,.01,.41-.01,1.47-.46,4.03-1.02,2.95,1.23-.1,.21-.2,.42-.3,.63-1.83,3.95-2.71,7-2.93,9.35-.27,2.71,.32,4.49,1.29,5.65,.75,.9,1.72,1.44,2.69,1.74,2.51,.79,5.22,.14,7.3-1.49,6.41-5.02,1.71-14.35-2.01-19.87Zm-22.97-10.11c-1.41,0-2.55-1.14-2.55-2.55s1.14-2.55,2.55-2.55,2.55,1.14,2.55,2.55-1.14,2.55-2.55,2.55Zm13.48,0c-1.41,0-2.55-1.14-2.55-2.55s1.14-2.55,2.55-2.55,2.55,1.14,2.55,2.55-1.14,2.55-2.55,2.55Z"/></g><path class="bw" d="M45.73,4.34c-.88,.71-1.62,1.61-2.19,2.42-5.07-1.03-7.78,2.18-8.03,2.48-4.79-1.19-10.5,2.15-7.73,10.06,1.95,5.54-6.14,5.84-4.19,0,2.49-7.48-3.72-10.97-8.59-9.88l-.02-.16s-.38-3.45-5.77-3.75c0,0-.03,.05-.09,.14-.37-1.47-1.55-2.86-4.68-2.89,3.07-2.21,7.86-1.96,12.2,.12,1.04,.49,2.23,.56,3.34,.27,2.13-.56,5.26-.75,5.26-.75,0,0,3.13,.19,5.26,.75,1.11,.29,2.28,.19,3.34-.27,3.56-1.53,8.85-1.57,11.9,1.45Z"/><path class="ck" d="M11.01,12.11c-1.24,1.93-1.92,3.79-2.4,5.99-.85-2.17,.24-5.03,2.4-5.99h0Z"/><path class="ck" d="M43.52,6.87c-2.91-.06-5.68,.99-7.96,2.76l-.12-.56c.77,.33,1.59,.65,2.21,1.23-.88-.33-2.04-.5-2.96-.73,2.11-2.43,5.7-3.95,8.83-2.71h0Z"/><path class="ck" d="M14.6,23.2c.57-.07,1.14-.13,1.7-.18l.07,.04c5.88,3.62,13.26,2.92,19.29,.03l1.25,.11-1.25,.11c-5.29,4.12-14.15,4.81-19.52,.03l.11,.04c-.55-.05-1.11-.11-1.66-.18h0Z"/><ellipse class="ay" cx="25.69" cy="21.55" rx="2.06" ry="1.5"/><path class="ay" d="M35.12,27.76c-.76,1.68-1.79,2.91-2.9,3.81-2.97,2.4-6.45,2.41-6.53,2.41,0,0-3.2-.17-6.07-2.91-.92-.88-1.8-2.02-2.54-3.51-.02-.04,.03-.08,.07-.06,2.23,1.67,15.32,1.65,17.81,.11,.09-.06,.21,.04,.16,.14Z"/><g id="ak"><path class="cq" d="M7.11,27.99c2.37-1.27,6.15-.61,7.19,2.1-2.28-1.4-4.55-1.6-7.19-2.1h0Z"/><path class="cq" d="M9.12,5.66c2.53-.91,6.13,.78,5.88,3.76-1.09-2.43-3.37-3.24-5.88-3.76h0Z"/><path class="cq" d="M40.97,16.58c2.64-2.67,3.99-6.16,2.57-9.82,2.76,3.13,1.08,8.17-2.57,9.82h0Z"/><g><path class="bt" d="M35.02,33.98s-2.74,3.89-2.74,9.89"/><path class="cq" d="M35.02,33.98c-.75,2.36-1.55,4.96-2.1,7.36-.21,.83-.38,1.66-.64,2.53-.47-1.74-.34-3.57,.11-5.29,.49-1.71,1.28-3.39,2.63-4.59h0Z"/></g><g><path class="cq" d="M22.69,43.57c-1.45-.59-1.91-2.59-1.2-3.89,.4,1.45,.56,2.53,1.2,3.89h0Z"/><path class="cq" d="M23.94,43.57c.3-1.48,.47-2.54,.61-4.04,.93,1.2,.61,3.16-.61,4.04h0Z"/><path class="cq" d="M27.89,46.81c-1.38-.73-1.65-2.76-.81-3.99,.25,1.48,.31,2.57,.81,3.99h0Z"/><path class="cq" d="M29.14,46.94c.44-1.44,.72-2.48,1.01-3.97,.81,1.28,.3,3.21-1.01,3.97h0Z"/><path class="cq" d="M25.49,61.49c-1.38-.73-1.65-2.76-.81-3.99,.25,1.48,.31,2.57,.81,3.99h0Z"/><path class="cq" d="M26.74,61.62c.44-1.44,.72-2.48,1.01-3.97,.81,1.28,.3,3.21-1.01,3.97h0Z"/><path class="cq" d="M26.09,69.58c-1.38-.73-1.65-2.76-.81-3.99,.25,1.48,.31,2.57,.81,3.99h0Z"/><path class="cq" d="M27.34,69.71c.44-1.44,.72-2.48,1.01-3.97,.81,1.28,.3,3.21-1.01,3.97h0Z"/><path class="cq" d="M20.31,63.09c-1.52-.36-2.28-2.26-1.78-3.67,.62,1.37,.94,2.41,1.78,3.67h0Z"/><path class="cq" d="M21.55,62.9c.07-1.5,.08-2.59-.02-4.09,1.11,1.04,1.09,3.03,.02,4.09h0Z"/><path class="cq" d="M31.8,62.88c-1.26-.92-1.23-2.97-.22-4.07,.03,1.51-.07,2.59,.22,4.07h0Z"/><path class="cq" d="M33.02,63.18c.64-1.36,1.08-2.35,1.57-3.78,.62,1.39-.17,3.22-1.57,3.78h0Z"/><path class="cq" d="M27.01,37.6c-1.48-.5-2.06-2.47-1.43-3.82,.48,1.43,.7,2.49,1.43,3.82h0Z"/><path class="cq" d="M28.26,37.53c.21-1.49,.32-2.57,.37-4.07,1,1.14,.8,3.12-.37,4.07h0Z"/><path class="cq" d="M22.51,53.18c-1.48-.5-2.06-2.47-1.43-3.82,.48,1.43,.7,2.49,1.43,3.82h0Z"/><path class="cq" d="M23.76,53.11c.21-1.49,.32-2.57,.37-4.07,1,1.14,.8,3.12-.37,4.07h0Z"/><path class="cq" d="M28.54,54.21c-1.28-.9-1.27-2.95-.28-4.07,.06,1.5-.03,2.59,.28,4.07h0Z"/><path class="cq" d="M29.76,54.49c.62-1.37,1.04-2.37,1.51-3.8,.64,1.38-.12,3.22-1.51,3.8h0Z"/></g><path class="cq" d="M38.57,68.14c-2.71,2.27-5.83,3.46-7.58,6.59-.4-3.89,4.17-6.45,7.58-6.59h0Z"/><path class="cq" d="M6.51,70.54c.62,4.44,.47,8.61,1.8,12.88-3.25-3.28-3.29-8.76-1.8-12.88h0Z"/></g><g class="an"><g><circle class="bw" cx="18.92" cy="15.87" r="3.36"/><path class="cq" d="M18.73,12.51c1.6-.76,3.47,.72,3.86,2.32,.5,1.65-.53,3.58-2.15,4.04,.46-.65,.82-1.25,.99-1.88,.52-1.92-.66-4.07-2.7-4.48h0Z"/><path class="ck" d="M19.12,12.51c-2.02,1.07-3.14,3-1.84,5.04,.37,.6,.89,1.15,1.56,1.71-4.85-.11-4.79-7.34,.28-6.75h0Z"/><text class="as" transform="translate(-1.18 27.4)"><tspan x="0" y="0">ff</tspan><tspan class="at" x="1.38" y="0">f</tspan><tspan class="bi" x="2.03" y="0">c</tspan><tspan class="bc" x="3.1" y="0">f8</tspan></text></g></g><g class="cu"><g><circle class="bw" cx="31.55" cy="15.84" r="3.36"/><path class="cq" d="M31.75,19.2c-1.6,.76-3.47-.72-3.86-2.32-.5-1.65,.53-3.58,2.15-4.04-.46,.65-.82,1.25-.99,1.88-.52,1.92,.66,4.07,2.7,4.48h0Z"/><path class="ck" d="M31.36,19.2c2.02-1.07,3.14-3,1.84-5.04-.37-.6-.89-1.15-1.56-1.71,4.85,.11,4.79,7.34-.28,6.75h0Z"/></g></g></g></g></g></g></svg>