<?xml version="1.0" encoding="UTF-8"?><svg xmlns="http://www.w3.org/2000/svg" xmlns:xlink="http://www.w3.org/1999/xlink" viewBox="0 0 50 85"><defs><style>.aa{font-family:MyriadPro-Regular, Myriad Pro;font-size:2.38px;stroke:#fffcf8;stroke-miterlimit:10;stroke-width:.2px;}.ab{fill:#38a933;}.ac{fill:#36ad35;}.ad{clip-path:url(#l);}.ae{fill:#79b823;}.af{fill:#b2100b;}.ag{fill:#76b727;}.ah{fill:#fef6a3;}.ai{fill:#e5deb2;}.aj{fill:#117b23;}.ak{fill:#d45700;}.al{letter-spacing:-.01em;}.am{fill:#ffee02;}.an{fill:#fed404;}.ao{letter-spacing:0em;}.ap{clip-path:url(#a`);}.aq{fill:#fdd501;}.ar{fill:#e9a47d;}.as{fill:#f9bd05;}.at{clip-path:url(#u);}.au{clip-path:url(#o);}.av{fill:#d10a11;}.aw{fill:#bfd87c;}.ax{fill:#fecd04;}.ay{clip-path:url(#t);}.b`{fill:#ece6c2;}.ba{clip-path:url(#e);}.bb{fill:#e84c0f;}.bc{clip-path:url(#v);}.bd{fill:#e20514;}.be{fill:none;}.bf{fill:#f28801;}.bg{clip-path:url(#p);}.bh{fill:#ede7c3;}.bi{fill:#00842d;}.bj{fill:#149737;}.bk{clip-path:url(#f);}.bl{fill:#e96908;}.bm{clip-path:url(#j);}.bn{fill:#c7080f;}.bo{clip-path:url(#q);}.bp{clip-path:url(#y);}.bq{fill:#ded5ae;}.br{fill:#ec6804;}.bs{fill:#fefbda;}.bt{fill:#f8be75;}.bu{fill:#fffcf8;}.bv{clip-path:url(#k);}.bw{fill:#c4d97e;}.bx{clip-path:url(#g);}</style><clipPath id="e"><circle class="be" cx="19.24" cy="16.19" r="3.32"/></clipPath><clipPath id="f"><circle class="be" cx="31.92" cy="16.19" r="3.32"/></clipPath><clipPath id="g"><rect class="be" x="-24.09" y="-14" width="49.55" height="44.6"/></clipPath><clipPath id="j"><circle class="be" cx="19.24" cy="16.19" r="3.32"/></clipPath><clipPath id="k"><circle class="be" cx="31.92" cy="16.19" r="3.32"/></clipPath><clipPath id="l"><rect class="be" x="-24.09" y="55.97" width="49.55" height="41.03"/></clipPath><clipPath id="o"><circle class="be" cx="19.24" cy="16.19" r="3.32"/></clipPath><clipPath id="p"><circle class="be" cx="31.92" cy="16.19" r="3.32"/></clipPath><clipPath id="q"><rect class="be" x="25.47" y="55.97" width="49.55" height="41.03"/></clipPath><clipPath id="t"><circle class="be" cx="19.24" cy="16.19" r="3.32"/></clipPath><clipPath id="u"><circle class="be" cx="31.92" cy="16.19" r="3.32"/></clipPath><clipPath id="v"><rect class="be" x="-24.09" y="30.6" width="99.31" height="25.37"/></clipPath><clipPath id="y"><circle class="be" cx="19.24" cy="16.19" r="3.32"/></clipPath><clipPath id="a`"><circle class="be" cx="31.92" cy="16.19" r="3.32"/></clipPath></defs><g id="a"/><g id="b"><g><path class="bi" d="M42.03,64.65s-4.83-3.32-1.81-9.96c-4.2-1.4-5.78-3.6-6.19-5.68l-3.78,3.57L36.29,5.77l9.94-1.19c2.89,2.86,3.77,8.44-.69,18.05-1.43,3.09-.99,6.69,1.04,9.43,2.85,3.84,5.37,10.32,.12,18.68-1.93,3.08-2.06,6.94-.43,10.19,3.49,6.96,5.17,17.9-.73,22.08l-3.5-18.36Z"/><path class="bi" d="M19.03,67.24l1.57-2.59-10.18-1.97c.92-1.96,1.87-5.5-.08-9.8,4.42,.12,6.33-1.29,7.01-3.06l9.9,4.27-1.21-44.68S15.72,6.09,5.2,2.75C1.19,5.24-.48,11.46,4.72,22.63c1.43,3.09,.99,6.69-1.04,9.43-2.85,3.84-5.37,10.32-.12,18.68,1.93,3.08,2.06,6.94,.43,10.19C-.02,68.93-1.18,82.19,8.64,84.4l10.39-17.16Z"/><path class="ac" d="M28.33,82.15l12.65-5.88,1.06-11.62c-1.06-.75-4.08-4.98-1.81-9.96-6.19-2.26-6.19-5.68-6.19-5.68,0,0,3.32-.51,4.22-.51s-1.3-22.03-1.3-22.03H16.19l-2.99,12.07,4.16,10.97-1.44-1.31c.52,1.02-.91,5.13-5.59,4.68,1.66,7.1-1.96,16.15-1.96,16.15l15.46,12.72c.57-.24,1.16-.49,1.75-.76,.95,.43,1.87,.82,2.75,1.17"/><g id="c"><path class="ae" d="M45.53,83.01c-2.65,1.88-6.83,2.39-13.07,.58-1.29-.37-2.67-.85-4.14-1.43-.79-3.74-1.23-13.41,13.71-17.51,4.82,4.31,7.29,11.38,3.5,18.36Z"/><path class="ae" d="M23.82,81.75c-1.84,.77-3.55,1.38-5.13,1.84-4.25,1.23-7.59,1.39-10.16,.79-2.84-6.09-2.94-16.1,1.58-21.4,13.16,3.44,13.96,14.32,13.71,18.77Z"/><path class="ag" d="M41.3,17.1c.08-1.76-.3-3.22-.98-4.38-.98-1.69-2.61-2.76-4.39-3.19,.24-.3,2.98-3.54,8.09-2.5,3.3,5.85-2.02,9.08-2.72,10.08Z"/><path class="ag" d="M15.26,9.71c-1.66,.37-3.18,1.27-4.18,2.7-.78,1.11-1.24,2.53-1.23,4.29-.12-.97,.34-2.01-.42-2.77-2.87-2.87-.58-7.16-.09-8h0c.05-.1,.09-.15,.09-.15,5.43,.3,5.82,3.78,5.82,3.78l.02,.16Z"/><path class="ae" d="M42.08,29.24c-1.8-2.67-2.23-6-1.32-9.09,.33-1.1,.5-2.12,.54-3.05,.08-1.76-.3-3.22-.98-4.38-.98-1.69-2.61-2.76-4.39-3.19-4.83-1.2-10.75,2.23-7.79,10.14,.12,.33,.2,.63,.24,.92,.53,3.76-5.38,4.37-4.69-.02,.05-.28,.11-.58,.22-.9,2.39-7.58-3.74-11.06-8.66-9.95-1.66,.37-3.18,1.27-4.18,2.7-.78,1.11-1.24,2.53-1.23,4.29,0,1.04,.18,2.19,.55,3.46,.91,3.09,1.68,6.42-.11,9.09-3.75,5.56-7.28,14.96-.82,20.02,2.09,1.64,3.61,2.29,6.14,1.5,.48-.15,.97-.36,1.43-.64,1.89-1.16,3.61-4.48,2.64-9.4-.41-2.03-1.22-4.49-2.58-7.47-.13-.3-.27-.6-.42-.9-1.1-2.3,1.61-1.12,3.25-.82-.93-.89-1.82-2.04-2.56-3.54-.02-.04,.03-.08,.07-.06,2.24,1.68,8.15,1.43,8.15,1.43,0,0,7.29,.24,9.79-1.31,.09-.06,.21,.04,.16,.14-.77,1.69-1.81,2.93-2.93,3.83,.17,.02,.31,.02,.41-.02,1.48-.47,4.06-1.02,2.98,1.24-.1,.21-.2,.43-.3,.64-1.84,3.98-2.73,7.05-2.96,9.42-.27,2.73,.32,4.52,1.3,5.7,.75,.91,1.73,1.45,2.71,1.76,2.53,.8,5.26,.14,7.35-1.5,6.46-5.06,1.73-14.46-2.02-20.02Zm-23.14-10.18c-1.42,0-2.57-1.15-2.57-2.57s1.15-2.57,2.57-2.57,2.57,1.15,2.57,2.57-1.15,2.57-2.57,2.57Zm13.59,0c-1.42,0-2.57-1.15-2.57-2.57s1.15-2.57,2.57-2.57,2.57,1.15,2.57,2.57-1.15,2.57-2.57,2.57Z"/></g><path class="ab" d="M46.23,4.58c-.89,.72-1.63,1.62-2.21,2.44-5.11-1.04-7.84,2.2-8.09,2.5-4.83-1.2-10.58,2.17-7.79,10.14,1.96,5.59-6.19,5.89-4.23,0,2.51-7.54-3.74-11.06-8.66-9.95l-.02-.16s-.38-3.48-5.82-3.78c0,0-.03,.05-.09,.14-.37-1.48-1.56-2.88-4.72-2.91,3.09-2.23,7.92-1.97,12.3,.12,1.04,.5,2.24,.56,3.36,.27,2.14-.56,5.3-.75,5.3-.75,0,0,3.15,.19,5.3,.75,1.12,.29,2.3,.19,3.36-.27,3.58-1.55,8.92-1.58,11.99,1.46Z"/><path class="bi" d="M11.24,12.42c-1.25,1.95-1.94,3.82-2.42,6.04-.86-2.19,.25-5.07,2.42-6.04h0Z"/><path class="bi" d="M44,7.13c-2.93-.06-5.73,.99-8.02,2.78l-.12-.56c.78,.33,1.61,.65,2.23,1.24-.89-.33-2.06-.51-2.98-.74,2.13-2.45,5.74-3.98,8.89-2.73h0Z"/><path class="aj" d="M14.86,23.59c.57-.07,1.15-.13,1.72-.19l.07,.05c5.93,3.65,13.36,2.95,19.44,.03l1.26,.11-1.26,.11c-5.33,4.15-14.26,4.84-19.67,.03l.12,.04c-.56-.05-1.12-.11-1.68-.18h0Z"/><ellipse class="aj" cx="26.03" cy="21.93" rx="2.08" ry="1.51"/><path class="bj" d="M35.53,28.19c-.77,1.69-1.81,2.93-2.93,3.83-2.99,2.42-6.5,2.43-6.58,2.43,0,0-3.23-.17-6.11-2.93-.93-.89-1.82-2.04-2.56-3.54-.02-.04,.03-.08,.07-.06,2.24,1.68,15.44,1.67,17.94,.11,.09-.06,.21,.04,.16,.14Z"/><g id="d"><path class="bw" d="M7.31,28.42c2.39-1.28,6.2-.61,7.25,2.11-2.3-1.41-4.59-1.61-7.25-2.11h0Z"/><path class="bw" d="M9.34,5.92c2.55-.92,6.17,.79,5.92,3.79-1.1-2.45-3.39-3.27-5.92-3.79h0Z"/><path class="bw" d="M41.43,16.91c2.66-2.69,4.02-6.21,2.59-9.89,2.78,3.15,1.09,8.23-2.59,9.89h0Z"/><g><path class="aw" d="M35.43,34.46s-2.76,3.92-2.76,9.96"/><path class="bw" d="M35.43,34.46c-1.1,3.25-1.91,6.64-2.76,9.96-.84-3.45,.18-7.48,2.76-9.96h0Z"/></g><g><path class="bw" d="M23.01,44.12c-1.46-.59-1.93-2.61-1.21-3.92,.4,1.46,.56,2.55,1.21,3.92h0Z"/><path class="bw" d="M24.27,44.12c.3-1.49,.48-2.56,.62-4.08,.94,1.21,.62,3.19-.62,4.08h0Z"/><path class="bw" d="M28.25,47.39c-1.39-.73-1.66-2.78-.82-4.02,.26,1.5,.31,2.59,.82,4.02h0Z"/><path class="bw" d="M29.5,47.51c.44-1.45,.73-2.5,1.01-4,.82,1.29,.3,3.23-1.01,4h0Z"/><path class="bw" d="M25.83,62.18c-1.39-.73-1.66-2.78-.82-4.02,.26,1.5,.31,2.59,.82,4.02h0Z"/><path class="bw" d="M27.09,62.3c.44-1.45,.73-2.5,1.01-4,.82,1.29,.3,3.23-1.01,4h0Z"/><path class="bw" d="M26.44,70.33c-1.39-.73-1.66-2.78-.82-4.02,.26,1.5,.31,2.59,.82,4.02h0Z"/><path class="bw" d="M27.69,70.46c.44-1.45,.73-2.5,1.01-4,.82,1.29,.3,3.23-1.01,4h0Z"/><path class="bw" d="M20.61,63.79c-1.53-.36-2.3-2.28-1.8-3.69,.62,1.38,.94,2.43,1.8,3.69h0Z"/><path class="bw" d="M21.86,63.59c.07-1.52,.08-2.61-.02-4.12,1.11,1.05,1.1,3.06,.02,4.12h0Z"/><path class="bw" d="M32.19,63.57c-1.27-.93-1.24-3-.22-4.1,.03,1.52-.07,2.61,.22,4.1h0Z"/><path class="bw" d="M33.42,63.88c.65-1.37,1.09-2.37,1.59-3.8,.62,1.4-.17,3.24-1.59,3.8h0Z"/><path class="bw" d="M27.36,38.1c-1.49-.5-2.07-2.49-1.44-3.85,.49,1.44,.71,2.51,1.44,3.85h0Z"/><path class="bw" d="M28.62,38.03c.21-1.5,.33-2.59,.38-4.11,1.01,1.15,.81,3.15-.38,4.11h0Z"/><path class="bw" d="M22.83,53.8c-1.49-.5-2.07-2.49-1.44-3.85,.49,1.44,.71,2.51,1.44,3.85h0Z"/><path class="bw" d="M24.09,53.73c.21-1.5,.33-2.59,.38-4.11,1.01,1.15,.81,3.15-.38,4.11h0Z"/><path class="bw" d="M28.9,54.83c-1.29-.91-1.28-2.98-.29-4.1,.06,1.52-.03,2.61,.29,4.1h0Z"/><path class="bw" d="M30.13,55.12c.63-1.38,1.05-2.39,1.52-3.83,.64,1.39-.12,3.25-1.52,3.83h0Z"/></g><path class="bw" d="M39.01,68.87c-2.73,2.28-5.88,3.49-7.64,6.65-.4-3.92,4.2-6.5,7.64-6.65h0Z"/><path class="bw" d="M6.71,71.29c.62,4.47,.48,8.68,1.81,12.98-3.27-3.3-3.32-8.83-1.81-12.98h0Z"/></g><g class="ba"><g><circle class="bj" cx="19.21" cy="16.2" r="3.39"/><path class="aw" d="M19.01,12.82c1.62-.76,3.5,.72,3.89,2.34,.51,1.67-.53,3.6-2.17,4.07,.46-.65,.82-1.26,1-1.89,.52-1.94-.66-4.1-2.72-4.52h0Z"/><path class="bi" d="M19.41,12.82c-2.03,1.08-3.16,3.02-1.85,5.08,.37,.61,.9,1.16,1.57,1.73-4.88-.12-4.83-7.39,.28-6.81h0Z"/></g></g><g class="bk"><g><circle class="bj" cx="31.94" cy="16.18" r="3.39"/><path class="aw" d="M32.14,19.56c-1.62,.76-3.5-.72-3.89-2.34-.51-1.67,.53-3.6,2.17-4.07-.46,.65-.82,1.26-1,1.89-.52,1.94,.66,4.1,2.72,4.52h0Z"/><path class="bi" d="M31.74,19.56c2.03-1.08,3.16-3.02,1.85-5.08-.37-.61-.9-1.16-1.57-1.73,4.88,.12,4.83,7.39-.28,6.81h0Z"/></g></g></g><g class="bx"><g><path class="as" d="M42.03,64.65s-4.83-3.32-1.81-9.96c-4.2-1.4-5.78-3.6-6.19-5.68l-3.78,3.57L36.29,5.77l9.94-1.19c2.89,2.86,3.77,8.44-.69,18.05-1.43,3.09-.99,6.69,1.04,9.43,2.85,3.84,5.37,10.32,.12,18.68-1.93,3.08-2.06,6.94-.43,10.19,3.49,6.96,5.17,17.9-.73,22.08l-3.5-18.36Z"/><path class="as" d="M19.03,67.24l1.57-2.59-10.18-1.97c.92-1.96,1.87-5.5-.08-9.8,4.42,.12,6.33-1.29,7.01-3.06l9.9,4.27-1.21-44.68S15.72,6.09,5.2,2.75C1.19,5.24-.48,11.46,4.72,22.63c1.43,3.09,.99,6.69-1.04,9.43-2.85,3.84-5.37,10.32-.12,18.68,1.93,3.08,2.06,6.94,.43,10.19C-.02,68.93-1.18,82.19,8.64,84.4l10.39-17.16Z"/><path class="an" d="M28.33,82.15l12.65-5.88,1.06-11.62c-1.06-.75-4.08-4.98-1.81-9.96-6.19-2.26-6.19-5.68-6.19-5.68,0,0,3.32-.51,4.22-.51s-1.3-22.03-1.3-22.03H16.19l-2.99,12.07,4.16,10.97-1.44-1.31c.52,1.02-.91,5.13-5.59,4.68,1.66,7.1-1.96,16.15-1.96,16.15l15.46,12.72c.57-.24,1.16-.49,1.75-.76,.95,.43,1.87,.82,2.75,1.17"/><g id="h"><path class="am" d="M45.53,83.01c-2.65,1.88-6.83,2.39-13.07,.58-1.29-.37-2.67-.85-4.14-1.43-.79-3.74-1.23-13.41,13.71-17.51,4.82,4.31,7.29,11.38,3.5,18.36Z"/><path class="am" d="M23.82,81.75c-1.84,.77-3.55,1.38-5.13,1.84-4.25,1.23-7.59,1.39-10.16,.79-2.84-6.09-2.94-16.1,1.58-21.4,13.16,3.44,13.96,14.32,13.71,18.77Z"/><path class="am" d="M41.3,17.1c.08-1.76-.3-3.22-.98-4.38-.98-1.69-2.61-2.76-4.39-3.19,.24-.3,2.98-3.54,8.09-2.5,3.3,5.85-2.02,9.08-2.72,10.08Z"/><path class="am" d="M15.26,9.71c-1.66,.37-3.18,1.27-4.18,2.7-.78,1.11-1.24,2.53-1.23,4.29-.12-.97,.34-2.01-.42-2.77-2.87-2.87-.58-7.16-.09-8h0c.05-.1,.09-.15,.09-.15,5.43,.3,5.82,3.78,5.82,3.78l.02,.16Z"/><path class="am" d="M42.08,29.24c-1.8-2.67-2.23-6-1.32-9.09,.33-1.1,.5-2.12,.54-3.05,.08-1.76-.3-3.22-.98-4.38-.98-1.69-2.61-2.76-4.39-3.19-4.83-1.2-10.75,2.23-7.79,10.14,.12,.33,.2,.63,.24,.92,.53,3.76-5.38,4.37-4.69-.02,.05-.28,.11-.58,.22-.9,2.39-7.58-3.74-11.06-8.66-9.95-1.66,.37-3.18,1.27-4.18,2.7-.78,1.11-1.24,2.53-1.23,4.29,0,1.04,.18,2.19,.55,3.46,.91,3.09,1.68,6.42-.11,9.09-3.75,5.56-7.28,14.96-.82,20.02,2.09,1.64,3.61,2.29,6.14,1.5,.48-.15,.97-.36,1.43-.64,1.89-1.16,3.61-4.48,2.64-9.4-.41-2.03-1.22-4.49-2.58-7.47-.13-.3-.27-.6-.42-.9-1.1-2.3,1.61-1.12,3.25-.82-.93-.89-1.82-2.04-2.56-3.54-.02-.04,.03-.08,.07-.06,2.24,1.68,8.15,1.43,8.15,1.43,0,0,7.29,.24,9.79-1.31,.09-.06,.21,.04,.16,.14-.77,1.69-1.81,2.93-2.93,3.83,.17,.02,.31,.02,.41-.02,1.48-.47,4.06-1.02,2.98,1.24-.1,.21-.2,.43-.3,.64-1.84,3.98-2.73,7.05-2.96,9.42-.27,2.73,.32,4.52,1.3,5.7,.75,.91,1.73,1.45,2.71,1.76,2.53,.8,5.26,.14,7.35-1.5,6.46-5.06,1.73-14.46-2.02-20.02Zm-23.14-10.18c-1.42,0-2.57-1.15-2.57-2.57s1.15-2.57,2.57-2.57,2.57,1.15,2.57,2.57-1.15,2.57-2.57,2.57Zm13.59,0c-1.42,0-2.57-1.15-2.57-2.57s1.15-2.57,2.57-2.57,2.57,1.15,2.57,2.57-1.15,2.57-2.57,2.57Z"/></g><path class="aq" d="M46.23,4.58c-.89,.72-1.63,1.62-2.21,2.44-5.11-1.04-7.84,2.2-8.09,2.5-4.83-1.2-10.58,2.17-7.79,10.14,1.96,5.59-6.19,5.89-4.23,0,2.51-7.54-3.74-11.06-8.66-9.95l-.02-.16s-.38-3.48-5.82-3.78c0,0-.03,.05-.09,.14-.37-1.48-1.56-2.88-4.72-2.91,3.09-2.23,7.92-1.97,12.3,.12,1.04,.5,2.24,.56,3.36,.27,2.14-.56,5.3-.75,5.3-.75,0,0,3.15,.19,5.3,.75,1.12,.29,2.3,.19,3.36-.27,3.58-1.55,8.92-1.58,11.99,1.46Z"/><path class="as" d="M11.24,12.42c-1.25,1.95-1.94,3.82-2.42,6.04-.86-2.19,.25-5.07,2.42-6.04h0Z"/><path class="as" d="M44,7.13c-2.93-.06-5.73,.99-8.02,2.78l-.12-.56c.78,.33,1.61,.65,2.23,1.24-.89-.33-2.06-.51-2.98-.74,2.13-2.45,5.74-3.98,8.89-2.73h0Z"/><path class="as" d="M14.86,23.59c.57-.07,1.15-.13,1.72-.19l.07,.05c5.93,3.65,13.36,2.95,19.44,.03l1.26,.11-1.26,.11c-5.33,4.15-14.26,4.84-19.67,.03l.12,.04c-.56-.05-1.12-.11-1.68-.18h0Z"/><ellipse class="as" cx="26.03" cy="21.93" rx="2.08" ry="1.51"/><path class="ax" d="M35.53,28.19c-.77,1.69-1.81,2.93-2.93,3.83-2.99,2.42-6.5,2.43-6.58,2.43,0,0-3.23-.17-6.11-2.93-.93-.89-1.82-2.04-2.56-3.54-.02-.04,.03-.08,.07-.06,2.24,1.68,15.44,1.67,17.94,.11,.09-.06,.21,.04,.16,.14Z"/><g id="i"><path class="ah" d="M7.31,28.42c2.39-1.28,6.2-.61,7.25,2.11-2.3-1.41-4.59-1.61-7.25-2.11h0Z"/><path class="ah" d="M9.34,5.92c2.55-.92,6.17,.79,5.92,3.79-1.1-2.45-3.39-3.27-5.92-3.79h0Z"/><path class="ah" d="M41.43,16.91c2.66-2.69,4.02-6.21,2.59-9.89,2.78,3.15,1.09,8.23-2.59,9.89h0Z"/><g><path class="aw" d="M35.43,34.46s-2.76,3.92-2.76,9.96"/><path class="ah" d="M35.43,34.46c-1.1,3.25-1.91,6.64-2.76,9.96-.84-3.45,.18-7.48,2.76-9.96h0Z"/></g><g><path class="ah" d="M23.01,44.12c-1.46-.59-1.93-2.61-1.21-3.92,.4,1.46,.56,2.55,1.21,3.92h0Z"/><path class="ah" d="M24.27,44.12c.3-1.49,.48-2.56,.62-4.08,.94,1.21,.62,3.19-.62,4.08h0Z"/><path class="ah" d="M28.25,47.39c-1.39-.73-1.66-2.78-.82-4.02,.26,1.5,.31,2.59,.82,4.02h0Z"/><path class="ah" d="M29.5,47.51c.44-1.45,.73-2.5,1.01-4,.82,1.29,.3,3.23-1.01,4h0Z"/><path class="ah" d="M25.83,62.18c-1.39-.73-1.66-2.78-.82-4.02,.26,1.5,.31,2.59,.82,4.02h0Z"/><path class="ah" d="M27.09,62.3c.44-1.45,.73-2.5,1.01-4,.82,1.29,.3,3.23-1.01,4h0Z"/><path class="ah" d="M26.44,70.33c-1.39-.73-1.66-2.78-.82-4.02,.26,1.5,.31,2.59,.82,4.02h0Z"/><path class="ah" d="M27.69,70.46c.44-1.45,.73-2.5,1.01-4,.82,1.29,.3,3.23-1.01,4h0Z"/><path class="ah" d="M20.61,63.79c-1.53-.36-2.3-2.28-1.8-3.69,.62,1.38,.94,2.43,1.8,3.69h0Z"/><path class="ah" d="M21.86,63.59c.07-1.52,.08-2.61-.02-4.12,1.11,1.05,1.1,3.06,.02,4.12h0Z"/><path class="ah" d="M32.19,63.57c-1.27-.93-1.24-3-.22-4.1,.03,1.52-.07,2.61,.22,4.1h0Z"/><path class="ah" d="M33.42,63.88c.65-1.37,1.09-2.37,1.59-3.8,.62,1.4-.17,3.24-1.59,3.8h0Z"/><path class="ah" d="M27.36,38.1c-1.49-.5-2.07-2.49-1.44-3.85,.49,1.44,.71,2.51,1.44,3.85h0Z"/><path class="ah" d="M28.62,38.03c.21-1.5,.33-2.59,.38-4.11,1.01,1.15,.81,3.15-.38,4.11h0Z"/><path class="ah" d="M22.83,53.8c-1.49-.5-2.07-2.49-1.44-3.85,.49,1.44,.71,2.51,1.44,3.85h0Z"/><path class="ah" d="M24.09,53.73c.21-1.5,.33-2.59,.38-4.11,1.01,1.15,.81,3.15-.38,4.11h0Z"/><path class="ah" d="M28.9,54.83c-1.29-.91-1.28-2.98-.29-4.1,.06,1.52-.03,2.61,.29,4.1h0Z"/><path class="ah" d="M30.13,55.12c.63-1.38,1.05-2.39,1.52-3.83,.64,1.39-.12,3.25-1.52,3.83h0Z"/></g><path class="ah" d="M39.01,68.87c-2.73,2.28-5.88,3.49-7.64,6.65-.4-3.92,4.2-6.5,7.64-6.65h0Z"/><path class="ah" d="M6.71,71.29c.62,4.47,.48,8.68,1.81,12.98-3.27-3.3-3.32-8.83-1.81-12.98h0Z"/></g><g class="bm"><g><circle class="ax" cx="19.21" cy="16.2" r="3.39"/><path class="ah" d="M19.01,12.82c1.62-.76,3.5,.72,3.89,2.34,.51,1.67-.53,3.6-2.17,4.07,.46-.65,.82-1.26,1-1.89,.52-1.94-.66-4.1-2.72-4.52h0Z"/><path class="as" d="M19.41,12.82c-2.03,1.08-3.16,3.02-1.85,5.08,.37,.61,.9,1.16,1.57,1.73-4.88-.12-4.83-7.39,.28-6.81h0Z"/></g></g><g class="bv"><g><circle class="ax" cx="31.94" cy="16.18" r="3.39"/><path class="ah" d="M32.14,19.56c-1.62,.76-3.5-.72-3.89-2.34-.51-1.67,.53-3.6,2.17-4.07-.46,.65-.82,1.26-1,1.89-.52,1.94,.66,4.1,2.72,4.52h0Z"/><path class="as" d="M31.74,19.56c2.03-1.08,3.16-3.02,1.85-5.08-.37-.61-.9-1.16-1.57-1.73,4.88,.12,4.83,7.39-.28,6.81h0Z"/></g></g></g></g><g class="ad"><g><path class="af" d="M42.03,64.65s-4.83-3.32-1.81-9.96c-4.2-1.4-5.78-3.6-6.19-5.68l-3.78,3.57L36.29,5.77l9.94-1.19c2.89,2.86,3.77,8.44-.69,18.05-1.43,3.09-.99,6.69,1.04,9.43,2.85,3.84,5.37,10.32,.12,18.68-1.93,3.08-2.06,6.94-.43,10.19,3.49,6.96,5.17,17.9-.73,22.08l-3.5-18.36Z"/><path class="af" d="M19.03,67.24l1.57-2.59-10.18-1.97c.92-1.96,1.87-5.5-.08-9.8,4.42,.12,6.33-1.29,7.01-3.06l9.9,4.27-1.21-44.68S15.72,6.09,5.2,2.75C1.19,5.24-.48,11.46,4.72,22.63c1.43,3.09,.99,6.69-1.04,9.43-2.85,3.84-5.37,10.32-.12,18.68,1.93,3.08,2.06,6.94,.43,10.19C-.02,68.93-1.18,82.19,8.64,84.4l10.39-17.16Z"/><path class="av" d="M28.33,82.15l12.65-5.88,1.06-11.62c-1.06-.75-4.08-4.98-1.81-9.96-6.19-2.26-6.19-5.68-6.19-5.68,0,0,3.32-.51,4.22-.51s-1.3-22.03-1.3-22.03H16.19l-2.99,12.07,4.16,10.97-1.44-1.31c.52,1.02-.91,5.13-5.59,4.68,1.66,7.1-1.96,16.15-1.96,16.15l15.46,12.72c.57-.24,1.16-.49,1.75-.76,.95,.43,1.87,.82,2.75,1.17"/><g id="m"><path class="bd" d="M45.53,83.01c-2.65,1.88-6.83,2.39-13.07,.58-1.29-.37-2.67-.85-4.14-1.43-.79-3.74-1.23-13.41,13.71-17.51,4.82,4.31,7.29,11.38,3.5,18.36Z"/><path class="bd" d="M23.82,81.75c-1.84,.77-3.55,1.38-5.13,1.84-4.25,1.23-7.59,1.39-10.16,.79-2.84-6.09-2.94-16.1,1.58-21.4,13.16,3.44,13.96,14.32,13.71,18.77Z"/><path class="bd" d="M41.3,17.1c.08-1.76-.3-3.22-.98-4.38-.98-1.69-2.61-2.76-4.39-3.19,.24-.3,2.98-3.54,8.09-2.5,3.3,5.85-2.02,9.08-2.72,10.08Z"/><path class="bd" d="M15.26,9.71c-1.66,.37-3.18,1.27-4.18,2.7-.78,1.11-1.24,2.53-1.23,4.29-.12-.97,.34-2.01-.42-2.77-2.87-2.87-.58-7.16-.09-8h0c.05-.1,.09-.15,.09-.15,5.43,.3,5.82,3.78,5.82,3.78l.02,.16Z"/><path class="bd" d="M42.08,29.24c-1.8-2.67-2.23-6-1.32-9.09,.33-1.1,.5-2.12,.54-3.05,.08-1.76-.3-3.22-.98-4.38-.98-1.69-2.61-2.76-4.39-3.19-4.83-1.2-10.75,2.23-7.79,10.14,.12,.33,.2,.63,.24,.92,.53,3.76-5.38,4.37-4.69-.02,.05-.28,.11-.58,.22-.9,2.39-7.58-3.74-11.06-8.66-9.95-1.66,.37-3.18,1.27-4.18,2.7-.78,1.11-1.24,2.53-1.23,4.29,0,1.04,.18,2.19,.55,3.46,.91,3.09,1.68,6.42-.11,9.09-3.75,5.56-7.28,14.96-.82,20.02,2.09,1.64,3.61,2.29,6.14,1.5,.48-.15,.97-.36,1.43-.64,1.89-1.16,3.61-4.48,2.64-9.4-.41-2.03-1.22-4.49-2.58-7.47-.13-.3-.27-.6-.42-.9-1.1-2.3,1.61-1.12,3.25-.82-.93-.89-1.82-2.04-2.56-3.54-.02-.04,.03-.08,.07-.06,2.24,1.68,8.15,1.43,8.15,1.43,0,0,7.29,.24,9.79-1.31,.09-.06,.21,.04,.16,.14-.77,1.69-1.81,2.93-2.93,3.83,.17,.02,.31,.02,.41-.02,1.48-.47,4.06-1.02,2.98,1.24-.1,.21-.2,.43-.3,.64-1.84,3.98-2.73,7.05-2.96,9.42-.27,2.73,.32,4.52,1.3,5.7,.75,.91,1.73,1.45,2.71,1.76,2.53,.8,5.26,.14,7.35-1.5,6.46-5.06,1.73-14.46-2.02-20.02Zm-23.14-10.18c-1.42,0-2.57-1.15-2.57-2.57s1.15-2.57,2.57-2.57,2.57,1.15,2.57,2.57-1.15,2.57-2.57,2.57Zm13.59,0c-1.42,0-2.57-1.15-2.57-2.57s1.15-2.57,2.57-2.57,2.57,1.15,2.57,2.57-1.15,2.57-2.57,2.57Z"/></g><path class="bn" d="M46.23,4.58c-.89,.72-1.63,1.62-2.21,2.44-5.11-1.04-7.84,2.2-8.09,2.5-4.83-1.2-10.58,2.17-7.79,10.14,1.96,5.59-6.19,5.89-4.23,0,2.51-7.54-3.74-11.06-8.66-9.95l-.02-.16s-.38-3.48-5.82-3.78c0,0-.03,.05-.09,.14-.37-1.48-1.56-2.88-4.72-2.91,3.09-2.23,7.92-1.97,12.3,.12,1.04,.5,2.24,.56,3.36,.27,2.14-.56,5.3-.75,5.3-.75,0,0,3.15,.19,5.3,.75,1.12,.29,2.3,.19,3.36-.27,3.58-1.55,8.92-1.58,11.99,1.46Z"/><path class="af" d="M11.24,12.42c-1.25,1.95-1.94,3.82-2.42,6.04-.86-2.19,.25-5.07,2.42-6.04h0Z"/><path class="af" d="M44,7.13c-2.93-.06-5.73,.99-8.02,2.78l-.12-.56c.78,.33,1.61,.65,2.23,1.24-.89-.33-2.06-.51-2.98-.74,2.13-2.45,5.74-3.98,8.89-2.73h0Z"/><path class="af" d="M14.86,23.59c.57-.07,1.15-.13,1.72-.19l.07,.05c5.93,3.65,13.36,2.95,19.44,.03l1.26,.11-1.26,.11c-5.33,4.15-14.26,4.84-19.67,.03l.12,.04c-.56-.05-1.12-.11-1.68-.18h0Z"/><ellipse class="af" cx="26.03" cy="21.93" rx="2.08" ry="1.51"/><path class="bn" d="M35.53,28.19c-.77,1.69-1.81,2.93-2.93,3.83-2.99,2.42-6.5,2.43-6.58,2.43,0,0-3.23-.17-6.11-2.93-.93-.89-1.82-2.04-2.56-3.54-.02-.04,.03-.08,.07-.06,2.24,1.68,15.44,1.67,17.94,.11,.09-.06,.21,.04,.16,.14Z"/><g id="n"><path class="ar" d="M7.31,28.42c2.39-1.28,6.2-.61,7.25,2.11-2.3-1.41-4.59-1.61-7.25-2.11h0Z"/><path class="ar" d="M9.34,5.92c2.55-.92,6.17,.79,5.92,3.79-1.1-2.45-3.39-3.27-5.92-3.79h0Z"/><path class="ar" d="M41.43,16.91c2.66-2.69,4.02-6.21,2.59-9.89,2.78,3.15,1.09,8.23-2.59,9.89h0Z"/><g><path class="aw" d="M35.43,34.46s-2.76,3.92-2.76,9.96"/><path class="ar" d="M35.43,34.46c-1.1,3.25-1.91,6.64-2.76,9.96-.84-3.45,.18-7.48,2.76-9.96h0Z"/></g><g><path class="ar" d="M23.01,44.12c-1.46-.59-1.93-2.61-1.21-3.92,.4,1.46,.56,2.55,1.21,3.92h0Z"/><path class="ar" d="M24.27,44.12c.3-1.49,.48-2.56,.62-4.08,.94,1.21,.62,3.19-.62,4.08h0Z"/><path class="ar" d="M28.25,47.39c-1.39-.73-1.66-2.78-.82-4.02,.26,1.5,.31,2.59,.82,4.02h0Z"/><path class="ar" d="M29.5,47.51c.44-1.45,.73-2.5,1.01-4,.82,1.29,.3,3.23-1.01,4h0Z"/><path class="ar" d="M25.83,62.18c-1.39-.73-1.66-2.78-.82-4.02,.26,1.5,.31,2.59,.82,4.02h0Z"/><path class="ar" d="M27.09,62.3c.44-1.45,.73-2.5,1.01-4,.82,1.29,.3,3.23-1.01,4h0Z"/><path class="ar" d="M26.44,70.33c-1.39-.73-1.66-2.78-.82-4.02,.26,1.5,.31,2.59,.82,4.02h0Z"/><path class="ar" d="M27.69,70.46c.44-1.45,.73-2.5,1.01-4,.82,1.29,.3,3.23-1.01,4h0Z"/><path class="ar" d="M20.61,63.79c-1.53-.36-2.3-2.28-1.8-3.69,.62,1.38,.94,2.43,1.8,3.69h0Z"/><path class="ar" d="M21.86,63.59c.07-1.52,.08-2.61-.02-4.12,1.11,1.05,1.1,3.06,.02,4.12h0Z"/><path class="ar" d="M32.19,63.57c-1.27-.93-1.24-3-.22-4.1,.03,1.52-.07,2.61,.22,4.1h0Z"/><path class="ar" d="M33.42,63.88c.65-1.37,1.09-2.37,1.59-3.8,.62,1.4-.17,3.24-1.59,3.8h0Z"/><path class="ar" d="M27.36,38.1c-1.49-.5-2.07-2.49-1.44-3.85,.49,1.44,.71,2.51,1.44,3.85h0Z"/><path class="ar" d="M28.62,38.03c.21-1.5,.33-2.59,.38-4.11,1.01,1.15,.81,3.15-.38,4.11h0Z"/><path class="ar" d="M22.83,53.8c-1.49-.5-2.07-2.49-1.44-3.85,.49,1.44,.71,2.51,1.44,3.85h0Z"/><path class="ar" d="M24.09,53.73c.21-1.5,.33-2.59,.38-4.11,1.01,1.15,.81,3.15-.38,4.11h0Z"/><path class="ar" d="M28.9,54.83c-1.29-.91-1.28-2.98-.29-4.1,.06,1.52-.03,2.61,.29,4.1h0Z"/><path class="ar" d="M30.13,55.12c.63-1.38,1.05-2.39,1.52-3.83,.64,1.39-.12,3.25-1.52,3.83h0Z"/></g><path class="ar" d="M39.01,68.87c-2.73,2.28-5.88,3.49-7.64,6.65-.4-3.92,4.2-6.5,7.64-6.65h0Z"/><path class="ar" d="M6.71,71.29c.62,4.47,.48,8.68,1.81,12.98-3.27-3.3-3.32-8.83-1.81-12.98h0Z"/></g><g class="au"><g><circle class="bn" cx="19.21" cy="16.2" r="3.39"/><path class="ar" d="M19.01,12.82c1.62-.76,3.5,.72,3.89,2.34,.51,1.67-.53,3.6-2.17,4.07,.46-.65,.82-1.26,1-1.89,.52-1.94-.66-4.1-2.72-4.52h0Z"/><path class="af" d="M19.41,12.82c-2.03,1.08-3.16,3.02-1.85,5.08,.37,.61,.9,1.16,1.57,1.73-4.88-.12-4.83-7.39,.28-6.81h0Z"/></g></g><g class="bg"><g><circle class="bn" cx="31.94" cy="16.18" r="3.39"/><path class="ar" d="M32.14,19.56c-1.62,.76-3.5-.72-3.89-2.34-.51-1.67,.53-3.6,2.17-4.07-.46,.65-.82,1.26-1,1.89-.52,1.94,.66,4.1,2.72,4.52h0Z"/><path class="af" d="M31.74,19.56c2.03-1.08,3.16-3.02,1.85-5.08-.37-.61-.9-1.16-1.57-1.73,4.88,.12,4.83,7.39-.28,6.81h0Z"/></g></g></g></g><g class="bo"><g><path class="ak" d="M42.03,64.65s-4.83-3.32-1.81-9.96c-4.2-1.4-5.78-3.6-6.19-5.68l-3.78,3.57L36.29,5.77l9.94-1.19c2.89,2.86,3.77,8.44-.69,18.05-1.43,3.09-.99,6.69,1.04,9.43,2.85,3.84,5.37,10.32,.12,18.68-1.93,3.08-2.06,6.94-.43,10.19,3.49,6.96,5.17,17.9-.73,22.08l-3.5-18.36Z"/><path class="ak" d="M19.03,67.24l1.57-2.59-10.18-1.97c.92-1.96,1.87-5.5-.08-9.8,4.42,.12,6.33-1.29,7.01-3.06l9.9,4.27-1.21-44.68S15.72,6.09,5.2,2.75C1.19,5.24-.48,11.46,4.72,22.63c1.43,3.09,.99,6.69-1.04,9.43-2.85,3.84-5.37,10.32-.12,18.68,1.93,3.08,2.06,6.94,.43,10.19C-.02,68.93-1.18,82.19,8.64,84.4l10.39-17.16Z"/><path class="bl" d="M28.33,82.15l12.65-5.88,1.06-11.62c-1.06-.75-4.08-4.98-1.81-9.96-6.19-2.26-6.19-5.68-6.19-5.68,0,0,3.32-.51,4.22-.51s-1.3-22.03-1.3-22.03H16.19l-2.99,12.07,4.16,10.97-1.44-1.31c.52,1.02-.91,5.13-5.59,4.68,1.66,7.1-1.96,16.15-1.96,16.15l15.46,12.72c.57-.24,1.16-.49,1.75-.76,.95,.43,1.87,.82,2.75,1.17"/><g id="r"><path class="bf" d="M45.53,83.01c-2.65,1.88-6.83,2.39-13.07,.58-1.29-.37-2.67-.85-4.14-1.43-.79-3.74-1.23-13.41,13.71-17.51,4.82,4.31,7.29,11.38,3.5,18.36Z"/><path class="bf" d="M23.82,81.75c-1.84,.77-3.55,1.38-5.13,1.84-4.25,1.23-7.59,1.39-10.16,.79-2.84-6.09-2.94-16.1,1.58-21.4,13.16,3.44,13.96,14.32,13.71,18.77Z"/><path class="bf" d="M41.3,17.1c.08-1.76-.3-3.22-.98-4.38-.98-1.69-2.61-2.76-4.39-3.19,.24-.3,2.98-3.54,8.09-2.5,3.3,5.85-2.02,9.08-2.72,10.08Z"/><path class="bf" d="M15.26,9.71c-1.66,.37-3.18,1.27-4.18,2.7-.78,1.11-1.24,2.53-1.23,4.29-.12-.97,.34-2.01-.42-2.77-2.87-2.87-.58-7.16-.09-8h0c.05-.1,.09-.15,.09-.15,5.43,.3,5.82,3.78,5.82,3.78l.02,.16Z"/><path class="bf" d="M42.08,29.24c-1.8-2.67-2.23-6-1.32-9.09,.33-1.1,.5-2.12,.54-3.05,.08-1.76-.3-3.22-.98-4.38-.98-1.69-2.61-2.76-4.39-3.19-4.83-1.2-10.75,2.23-7.79,10.14,.12,.33,.2,.63,.24,.92,.53,3.76-5.38,4.37-4.69-.02,.05-.28,.11-.58,.22-.9,2.39-7.58-3.74-11.06-8.66-9.95-1.66,.37-3.18,1.27-4.18,2.7-.78,1.11-1.24,2.53-1.23,4.29,0,1.04,.18,2.19,.55,3.46,.91,3.09,1.68,6.42-.11,9.09-3.75,5.56-7.28,14.96-.82,20.02,2.09,1.64,3.61,2.29,6.14,1.5,.48-.15,.97-.36,1.43-.64,1.89-1.16,3.61-4.48,2.64-9.4-.41-2.03-1.22-4.49-2.58-7.47-.13-.3-.27-.6-.42-.9-1.1-2.3,1.61-1.12,3.25-.82-.93-.89-1.82-2.04-2.56-3.54-.02-.04,.03-.08,.07-.06,2.24,1.68,8.15,1.43,8.15,1.43,0,0,7.29,.24,9.79-1.31,.09-.06,.21,.04,.16,.14-.77,1.69-1.81,2.93-2.93,3.83,.17,.02,.31,.02,.41-.02,1.48-.47,4.06-1.02,2.98,1.24-.1,.21-.2,.43-.3,.64-1.84,3.98-2.73,7.05-2.96,9.42-.27,2.73,.32,4.52,1.3,5.7,.75,.91,1.73,1.45,2.71,1.76,2.53,.8,5.26,.14,7.35-1.5,6.46-5.06,1.73-14.46-2.02-20.02Zm-23.14-10.18c-1.42,0-2.57-1.15-2.57-2.57s1.15-2.57,2.57-2.57,2.57,1.15,2.57,2.57-1.15,2.57-2.57,2.57Zm13.59,0c-1.42,0-2.57-1.15-2.57-2.57s1.15-2.57,2.57-2.57,2.57,1.15,2.57,2.57-1.15,2.57-2.57,2.57Z"/></g><path class="br" d="M46.23,4.58c-.89,.72-1.63,1.62-2.21,2.44-5.11-1.04-7.84,2.2-8.09,2.5-4.83-1.2-10.58,2.17-7.79,10.14,1.96,5.59-6.19,5.89-4.23,0,2.51-7.54-3.74-11.06-8.66-9.95l-.02-.16s-.38-3.48-5.82-3.78c0,0-.03,.05-.09,.14-.37-1.48-1.56-2.88-4.72-2.91,3.09-2.23,7.92-1.97,12.3,.12,1.04,.5,2.24,.56,3.36,.27,2.14-.56,5.3-.75,5.3-.75,0,0,3.15,.19,5.3,.75,1.12,.29,2.3,.19,3.36-.27,3.58-1.55,8.92-1.58,11.99,1.46Z"/><path class="ak" d="M11.24,12.42c-1.25,1.95-1.94,3.82-2.42,6.04-.86-2.19,.25-5.07,2.42-6.04h0Z"/><path class="ak" d="M44,7.13c-2.93-.06-5.73,.99-8.02,2.78l-.12-.56c.78,.33,1.61,.65,2.23,1.24-.89-.33-2.06-.51-2.98-.74,2.13-2.45,5.74-3.98,8.89-2.73h0Z"/><path class="ak" d="M14.86,23.59c.57-.07,1.15-.13,1.72-.19l.07,.05c5.93,3.65,13.36,2.95,19.44,.03l1.26,.11-1.26,.11c-5.33,4.15-14.26,4.84-19.67,.03l.12,.04c-.56-.05-1.12-.11-1.68-.18h0Z"/><ellipse class="ak" cx="26.03" cy="21.93" rx="2.08" ry="1.51"/><path class="bb" d="M35.53,28.19c-.77,1.69-1.81,2.93-2.93,3.83-2.99,2.42-6.5,2.43-6.58,2.43,0,0-3.23-.17-6.11-2.93-.93-.89-1.82-2.04-2.56-3.54-.02-.04,.03-.08,.07-.06,2.24,1.68,15.44,1.67,17.94,.11,.09-.06,.21,.04,.16,.14Z"/><g id="s"><path class="bt" d="M7.31,28.42c2.39-1.28,6.2-.61,7.25,2.11-2.3-1.41-4.59-1.61-7.25-2.11h0Z"/><path class="bt" d="M9.34,5.92c2.55-.92,6.17,.79,5.92,3.79-1.1-2.45-3.39-3.27-5.92-3.79h0Z"/><path class="bt" d="M41.43,16.91c2.66-2.69,4.02-6.21,2.59-9.89,2.78,3.15,1.09,8.23-2.59,9.89h0Z"/><g><path class="aw" d="M35.43,34.46s-2.76,3.92-2.76,9.96"/><path class="bt" d="M35.43,34.46c-1.1,3.25-1.91,6.64-2.76,9.96-.84-3.45,.18-7.48,2.76-9.96h0Z"/></g><g><path class="bt" d="M23.01,44.12c-1.46-.59-1.93-2.61-1.21-3.92,.4,1.46,.56,2.55,1.21,3.92h0Z"/><path class="bt" d="M24.27,44.12c.3-1.49,.48-2.56,.62-4.08,.94,1.21,.62,3.19-.62,4.08h0Z"/><path class="bt" d="M28.25,47.39c-1.39-.73-1.66-2.78-.82-4.02,.26,1.5,.31,2.59,.82,4.02h0Z"/><path class="bt" d="M29.5,47.51c.44-1.45,.73-2.5,1.01-4,.82,1.29,.3,3.23-1.01,4h0Z"/><path class="bt" d="M25.83,62.18c-1.39-.73-1.66-2.78-.82-4.02,.26,1.5,.31,2.59,.82,4.02h0Z"/><path class="bt" d="M27.09,62.3c.44-1.45,.73-2.5,1.01-4,.82,1.29,.3,3.23-1.01,4h0Z"/><path class="bt" d="M26.44,70.33c-1.39-.73-1.66-2.78-.82-4.02,.26,1.5,.31,2.59,.82,4.02h0Z"/><path class="bt" d="M27.69,70.46c.44-1.45,.73-2.5,1.01-4,.82,1.29,.3,3.23-1.01,4h0Z"/><path class="bt" d="M20.61,63.79c-1.53-.36-2.3-2.28-1.8-3.69,.62,1.38,.94,2.43,1.8,3.69h0Z"/><path class="bt" d="M21.86,63.59c.07-1.52,.08-2.61-.02-4.12,1.11,1.05,1.1,3.06,.02,4.12h0Z"/><path class="bt" d="M32.19,63.57c-1.27-.93-1.24-3-.22-4.1,.03,1.52-.07,2.61,.22,4.1h0Z"/><path class="bt" d="M33.42,63.88c.65-1.37,1.09-2.37,1.59-3.8,.62,1.4-.17,3.24-1.59,3.8h0Z"/><path class="bt" d="M27.36,38.1c-1.49-.5-2.07-2.49-1.44-3.85,.49,1.44,.71,2.51,1.44,3.85h0Z"/><path class="bt" d="M28.62,38.03c.21-1.5,.33-2.59,.38-4.11,1.01,1.15,.81,3.15-.38,4.11h0Z"/><path class="bt" d="M22.83,53.8c-1.49-.5-2.07-2.49-1.44-3.85,.49,1.44,.71,2.51,1.44,3.85h0Z"/><path class="bt" d="M24.09,53.73c.21-1.5,.33-2.59,.38-4.11,1.01,1.15,.81,3.15-.38,4.11h0Z"/><path class="bt" d="M28.9,54.83c-1.29-.91-1.28-2.98-.29-4.1,.06,1.52-.03,2.61,.29,4.1h0Z"/><path class="bt" d="M30.13,55.12c.63-1.38,1.05-2.39,1.52-3.83,.64,1.39-.12,3.25-1.52,3.83h0Z"/></g><path class="bt" d="M39.01,68.87c-2.73,2.28-5.88,3.49-7.64,6.65-.4-3.92,4.2-6.5,7.64-6.65h0Z"/><path class="bt" d="M6.71,71.29c.62,4.47,.48,8.68,1.81,12.98-3.27-3.3-3.32-8.83-1.81-12.98h0Z"/></g><g class="ay"><g><circle class="bb" cx="19.21" cy="16.2" r="3.39"/><path class="bt" d="M19.01,12.82c1.62-.76,3.5,.72,3.89,2.34,.51,1.67-.53,3.6-2.17,4.07,.46-.65,.82-1.26,1-1.89,.52-1.94-.66-4.1-2.72-4.52h0Z"/><path class="ak" d="M19.41,12.82c-2.03,1.08-3.16,3.02-1.85,5.08,.37,.61,.9,1.16,1.57,1.73-4.88-.12-4.83-7.39,.28-6.81h0Z"/></g></g><g class="at"><g><circle class="bb" cx="31.94" cy="16.18" r="3.39"/><path class="bt" d="M32.14,19.56c-1.62,.76-3.5-.72-3.89-2.34-.51-1.67,.53-3.6,2.17-4.07-.46,.65-.82,1.26-1,1.89-.52,1.94,.66,4.1,2.72,4.52h0Z"/><path class="ak" d="M31.74,19.56c2.03-1.08,3.16-3.02,1.85-5.08-.37-.61-.9-1.16-1.57-1.73,4.88,.12,4.83,7.39-.28,6.81h0Z"/></g></g></g></g><g class="bc"><g><path class="bq" d="M42.03,64.65s-4.83-3.32-1.81-9.96c-4.2-1.4-5.78-3.6-6.19-5.68l-3.78,3.57L36.29,5.77l9.94-1.19c2.89,2.86,3.77,8.44-.69,18.05-1.43,3.09-.99,6.69,1.04,9.43,2.85,3.84,5.37,10.32,.12,18.68-1.93,3.08-2.06,6.94-.43,10.19,3.49,6.96,5.17,17.9-.73,22.08l-3.5-18.36Z"/><path class="bq" d="M19.03,67.24l1.57-2.59-10.18-1.97c.92-1.96,1.87-5.5-.08-9.8,4.42,.12,6.33-1.29,7.01-3.06l9.9,4.27-1.21-44.68S15.72,6.09,5.2,2.75C1.19,5.24-.48,11.46,4.72,22.63c1.43,3.09,.99,6.69-1.04,9.43-2.85,3.84-5.37,10.32-.12,18.68,1.93,3.08,2.06,6.94,.43,10.19C-.02,68.93-1.18,82.19,8.64,84.4l10.39-17.16Z"/><path class="bh" d="M28.33,82.15l12.65-5.88,1.06-11.62c-1.06-.75-4.08-4.98-1.81-9.96-6.19-2.26-6.19-5.68-6.19-5.68,0,0,3.32-.51,4.22-.51s-1.3-22.03-1.3-22.03H16.19l-2.99,12.07,4.16,10.97-1.44-1.31c.52,1.02-.91,5.13-5.59,4.68,1.66,7.1-1.96,16.15-1.96,16.15l15.46,12.72c.57-.24,1.16-.49,1.75-.76,.95,.43,1.87,.82,2.75,1.17"/><g id="w"><path class="bs" d="M45.53,83.01c-2.65,1.88-6.83,2.39-13.07,.58-1.29-.37-2.67-.85-4.14-1.43-.79-3.74-1.23-13.41,13.71-17.51,4.82,4.31,7.29,11.38,3.5,18.36Z"/><path class="bs" d="M23.82,81.75c-1.84,.77-3.55,1.38-5.13,1.84-4.25,1.23-7.59,1.39-10.16,.79-2.84-6.09-2.94-16.1,1.58-21.4,13.16,3.44,13.96,14.32,13.71,18.77Z"/><path class="bs" d="M41.3,17.1c.08-1.76-.3-3.22-.98-4.38-.98-1.69-2.61-2.76-4.39-3.19,.24-.3,2.98-3.54,8.09-2.5,3.3,5.85-2.02,9.08-2.72,10.08Z"/><path class="bs" d="M15.26,9.71c-1.66,.37-3.18,1.27-4.18,2.7-.78,1.11-1.24,2.53-1.23,4.29-.12-.97,.34-2.01-.42-2.77-2.87-2.87-.58-7.16-.09-8h0c.05-.1,.09-.15,.09-.15,5.43,.3,5.82,3.78,5.82,3.78l.02,.16Z"/><path class="bs" d="M42.08,29.24c-1.8-2.67-2.23-6-1.32-9.09,.33-1.1,.5-2.12,.54-3.05,.08-1.76-.3-3.22-.98-4.38-.98-1.69-2.61-2.76-4.39-3.19-4.83-1.2-10.75,2.23-7.79,10.14,.12,.33,.2,.63,.24,.92,.53,3.76-5.38,4.37-4.69-.02,.05-.28,.11-.58,.22-.9,2.39-7.58-3.74-11.06-8.66-9.95-1.66,.37-3.18,1.27-4.18,2.7-.78,1.11-1.24,2.53-1.23,4.29,0,1.04,.18,2.19,.55,3.46,.91,3.09,1.68,6.42-.11,9.09-3.75,5.56-7.28,14.96-.82,20.02,2.09,1.64,3.61,2.29,6.14,1.5,.48-.15,.97-.36,1.43-.64,1.89-1.16,3.61-4.48,2.64-9.4-.41-2.03-1.22-4.49-2.58-7.47-.13-.3-.27-.6-.42-.9-1.1-2.3,1.61-1.12,3.25-.82-.93-.89-1.82-2.04-2.56-3.54-.02-.04,.03-.08,.07-.06,2.24,1.68,8.15,1.43,8.15,1.43,0,0,7.29,.24,9.79-1.31,.09-.06,.21,.04,.16,.14-.77,1.69-1.81,2.93-2.93,3.83,.17,.02,.31,.02,.41-.02,1.48-.47,4.06-1.02,2.98,1.24-.1,.21-.2,.43-.3,.64-1.84,3.98-2.73,7.05-2.96,9.42-.27,2.73,.32,4.52,1.3,5.7,.75,.91,1.73,1.45,2.71,1.76,2.53,.8,5.26,.14,7.35-1.5,6.46-5.06,1.73-14.46-2.02-20.02Zm-23.14-10.18c-1.42,0-2.57-1.15-2.57-2.57s1.15-2.57,2.57-2.57,2.57,1.15,2.57,2.57-1.15,2.57-2.57,2.57Zm13.59,0c-1.42,0-2.57-1.15-2.57-2.57s1.15-2.57,2.57-2.57,2.57,1.15,2.57,2.57-1.15,2.57-2.57,2.57Z"/></g><path class="b`" d="M46.23,4.58c-.89,.72-1.63,1.62-2.21,2.44-5.11-1.04-7.84,2.2-8.09,2.5-4.83-1.2-10.58,2.17-7.79,10.14,1.96,5.59-6.19,5.89-4.23,0,2.51-7.54-3.74-11.06-8.66-9.95l-.02-.16s-.38-3.48-5.82-3.78c0,0-.03,.05-.09,.14-.37-1.48-1.56-2.88-4.72-2.91,3.09-2.23,7.92-1.97,12.3,.12,1.04,.5,2.24,.56,3.36,.27,2.14-.56,5.3-.75,5.3-.75,0,0,3.15,.19,5.3,.75,1.12,.29,2.3,.19,3.36-.27,3.58-1.55,8.92-1.58,11.99,1.46Z"/><path class="bq" d="M11.24,12.42c-1.25,1.95-1.94,3.82-2.42,6.04-.86-2.19,.25-5.07,2.42-6.04h0Z"/><path class="bq" d="M44,7.13c-2.93-.06-5.73,.99-8.02,2.78l-.12-.56c.78,.33,1.61,.65,2.23,1.24-.89-.33-2.06-.51-2.98-.74,2.13-2.45,5.74-3.98,8.89-2.73h0Z"/><path class="bq" d="M14.86,23.59c.57-.07,1.15-.13,1.72-.19l.07,.05c5.93,3.65,13.36,2.95,19.44,.03l1.26,.11-1.26,.11c-5.33,4.15-14.26,4.84-19.67,.03l.12,.04c-.56-.05-1.12-.11-1.68-.18h0Z"/><ellipse class="ai" cx="26.03" cy="21.93" rx="2.08" ry="1.51"/><path class="ai" d="M35.53,28.19c-.77,1.69-1.81,2.93-2.93,3.83-2.99,2.42-6.5,2.43-6.58,2.43,0,0-3.23-.17-6.11-2.93-.93-.89-1.82-2.04-2.56-3.54-.02-.04,.03-.08,.07-.06,2.24,1.68,15.44,1.67,17.94,.11,.09-.06,.21,.04,.16,.14Z"/><g id="x"><path class="bu" d="M7.31,28.42c2.39-1.28,6.2-.61,7.25,2.11-2.3-1.41-4.59-1.61-7.25-2.11h0Z"/><path class="bu" d="M9.34,5.92c2.55-.92,6.17,.79,5.92,3.79-1.1-2.45-3.39-3.27-5.92-3.79h0Z"/><path class="bu" d="M41.43,16.91c2.66-2.69,4.02-6.21,2.59-9.89,2.78,3.15,1.09,8.23-2.59,9.89h0Z"/><g><path class="aw" d="M35.43,34.46s-2.76,3.92-2.76,9.96"/><path class="bu" d="M35.43,34.46c-1.1,3.25-1.91,6.64-2.76,9.96-.84-3.45,.18-7.48,2.76-9.96h0Z"/></g><g><path class="bu" d="M23.01,44.12c-1.46-.59-1.93-2.61-1.21-3.92,.4,1.46,.56,2.55,1.21,3.92h0Z"/><path class="bu" d="M24.27,44.12c.3-1.49,.48-2.56,.62-4.08,.94,1.21,.62,3.19-.62,4.08h0Z"/><path class="bu" d="M28.25,47.39c-1.39-.73-1.66-2.78-.82-4.02,.26,1.5,.31,2.59,.82,4.02h0Z"/><path class="bu" d="M29.5,47.51c.44-1.45,.73-2.5,1.01-4,.82,1.29,.3,3.23-1.01,4h0Z"/><path class="bu" d="M25.83,62.18c-1.39-.73-1.66-2.78-.82-4.02,.26,1.5,.31,2.59,.82,4.02h0Z"/><path class="bu" d="M27.09,62.3c.44-1.45,.73-2.5,1.01-4,.82,1.29,.3,3.23-1.01,4h0Z"/><path class="bu" d="M26.44,70.33c-1.39-.73-1.66-2.78-.82-4.02,.26,1.5,.31,2.59,.82,4.02h0Z"/><path class="bu" d="M27.69,70.46c.44-1.45,.73-2.5,1.01-4,.82,1.29,.3,3.23-1.01,4h0Z"/><path class="bu" d="M20.61,63.79c-1.53-.36-2.3-2.28-1.8-3.69,.62,1.38,.94,2.43,1.8,3.69h0Z"/><path class="bu" d="M21.86,63.59c.07-1.52,.08-2.61-.02-4.12,1.11,1.05,1.1,3.06,.02,4.12h0Z"/><path class="bu" d="M32.19,63.57c-1.27-.93-1.24-3-.22-4.1,.03,1.52-.07,2.61,.22,4.1h0Z"/><path class="bu" d="M33.42,63.88c.65-1.37,1.09-2.37,1.59-3.8,.62,1.4-.17,3.24-1.59,3.8h0Z"/><path class="bu" d="M27.36,38.1c-1.49-.5-2.07-2.49-1.44-3.85,.49,1.44,.71,2.51,1.44,3.85h0Z"/><path class="bu" d="M28.62,38.03c.21-1.5,.33-2.59,.38-4.11,1.01,1.15,.81,3.15-.38,4.11h0Z"/><path class="bu" d="M22.83,53.8c-1.49-.5-2.07-2.49-1.44-3.85,.49,1.44,.71,2.51,1.44,3.85h0Z"/><path class="bu" d="M24.09,53.73c.21-1.5,.33-2.59,.38-4.11,1.01,1.15,.81,3.15-.38,4.11h0Z"/><path class="bu" d="M28.9,54.83c-1.29-.91-1.28-2.98-.29-4.1,.06,1.52-.03,2.61,.29,4.1h0Z"/><path class="bu" d="M30.13,55.12c.63-1.38,1.05-2.39,1.52-3.83,.64,1.39-.12,3.25-1.52,3.83h0Z"/></g><path class="bu" d="M39.01,68.87c-2.73,2.28-5.88,3.49-7.64,6.65-.4-3.92,4.2-6.5,7.64-6.65h0Z"/><path class="bu" d="M6.71,71.29c.62,4.47,.48,8.68,1.81,12.98-3.27-3.3-3.32-8.83-1.81-12.98h0Z"/></g><g class="bp"><g><circle class="b`" cx="19.21" cy="16.2" r="3.39"/><path class="bu" d="M19.01,12.82c1.62-.76,3.5,.72,3.89,2.34,.51,1.67-.53,3.6-2.17,4.07,.46-.65,.82-1.26,1-1.89,.52-1.94-.66-4.1-2.72-4.52h0Z"/><path class="bq" d="M19.41,12.82c-2.03,1.08-3.16,3.02-1.85,5.08,.37,.61,.9,1.16,1.57,1.73-4.88-.12-4.83-7.39,.28-6.81h0Z"/><text class="aa" transform="translate(-1.04 27.82)"><tspan x="0" y="0">ff</tspan><tspan class="al" x="1.39" y="0">f</tspan><tspan class="ao" x="2.05" y="0">c</tspan><tspan x="3.12" y="0">f8</tspan></text></g></g><g class="ap"><g><circle class="b`" cx="31.94" cy="16.18" r="3.39"/><path class="bu" d="M32.14,19.56c-1.62,.76-3.5-.72-3.89-2.34-.51-1.67,.53-3.6,2.17-4.07-.46,.65-.82,1.26-1,1.89-.52,1.94,.66,4.1,2.72,4.52h0Z"/><path class="bq" d="M31.74,19.56c2.03-1.08,3.16-3.02,1.85-5.08-.37-.61-.9-1.16-1.57-1.73,4.88,.12,4.83,7.39-.28,6.81h0Z"/></g></g></g></g></g></svg>