<?xml version="1.0" encoding="utf-8"?>
<!-- Generator: Adobe Illustrator 26.2.1, SVG Export Plug-In . SVG Version: 6.00 Build 0)  -->
<svg version="1.1" id="a" xmlns="http://www.w3.org/2000/svg" xmlns:xlink="http://www.w3.org/1999/xlink" x="0px" y="0px"
	 viewBox="0 0 50 85" style="enable-background:new 0 0 50 85;" xml:space="preserve">
<style type="text/css">
	.st0{fill:#00842D;}
	.st1{fill:#36AD35;}
	.st2{fill:#79B823;}
	.st3{fill:#76B727;}
	.st4{fill:#38A933;}
	.st5{fill:#117B23;}
	.st6{fill:#149737;}
	.st7{fill:#C4D97E;}
	.st8{fill:#BFD87C;}
	.st9{clip-path:url(#SVGID_00000145772807036761772060000004828561687131754927_);}
	.st10{clip-path:url(#SVGID_00000045608230373416975200000013276351001092402833_);}
	.st11{clip-path:url(#SVGID_00000181045864744238240150000012173630495913990299_);}
	.st12{fill:#801100;}
	.st13{fill:#A71009;}
	.st14{fill:#C00C0D;}
	.st15{fill:#9E1006;}
	.st16{fill:#FF8A72;}
	.st17{clip-path:url(#SVGID_00000027590690091418343250000017394775135582841735_);}
	.st18{clip-path:url(#SVGID_00000117676881275529067680000004431935701773217189_);}
	.st19{clip-path:url(#SVGID_00000027566957878731546930000014930816731974153893_);}
	.st20{fill:#B2100B;}
	.st21{fill:#D10A11;}
	.st22{fill:#E20514;}
	.st23{fill:#C7080F;}
	.st24{fill:#E9A47D;}
	.st25{clip-path:url(#SVGID_00000182519456127266864750000014855923711465663141_);}
	.st26{clip-path:url(#SVGID_00000027585704143289527860000001138176026331174296_);}
	.st27{clip-path:url(#SVGID_00000096753558998005511760000017681845572723790753_);}
	.st28{fill:#D45700;}
	.st29{fill:#E96908;}
	.st30{fill:#F28801;}
	.st31{fill:#EC6804;}
	.st32{fill:#F8BE75;}
	.st33{clip-path:url(#SVGID_00000072979021189250282530000005635651223753074588_);}
	.st34{clip-path:url(#SVGID_00000021091428711814622990000017812693512769046937_);}
	.st35{clip-path:url(#SVGID_00000017493498855613030890000003279021242982551730_);}
	.st36{fill:#DED5AE;}
	.st37{fill:#EDE7C3;}
	.st38{fill:#FEFBDA;}
	.st39{fill:#ECE6C2;}
	.st40{fill:#E5DEB2;}
	.st41{fill:#FFFCF8;}
	.st42{clip-path:url(#SVGID_00000039108287394392405880000005339400003384802206_);}
	.st43{font-family:'MyriadArabic-Regular';}
	.st44{font-size:2.36px;}
	.st45{fill:none;stroke:#FFFCF8;stroke-width:0.2;stroke-miterlimit:10;}
	.st46{clip-path:url(#SVGID_00000039855118393779821370000012655510386979597988_);}
</style>
<g>
	<path class="st0" d="M41.9,64c0,0-4.8-3.3-1.8-9.9c-4.2-1.4-5.7-3.6-6.1-5.6L30.3,52l6-46.4l9.8-1.2c2.9,2.8,3.7,8.4-0.7,17.9
		c-1.4,3.1-1,6.6,1,9.3c2.8,3.8,5.3,10.2,0.1,18.5c-1.9,3-2,6.9-0.4,10.1c3.5,6.9,5.1,17.7-0.7,21.9L41.9,64L41.9,64z"/>
	<path class="st0" d="M19.2,66.5l1.5-2.6l-10.1-2c0.9-1.9,1.9-5.5-0.1-9.7c4.4,0.1,6.3-1.3,6.9-3l9.8,4.2L26.1,9.2
		c0,0-10.2-3.3-20.6-6.6c-4,2.5-5.6,8.6-0.5,19.7c1.4,3.1,1,6.6-1,9.3c-2.8,3.8-5.3,10.2-0.1,18.5c1.9,3,2,6.9,0.4,10.1
		c-4,7.9-5.1,21.1,4.6,23.2L19.2,66.5L19.2,66.5z"/>
	<path class="st1" d="M28.4,81.3l12.5-5.8l1-11.5c-1-0.8-4-4.9-1.8-9.9C34,51.8,34,48.4,34,48.4s3.3-0.5,4.2-0.5s-1.3-21.8-1.3-21.8
		H16.4l-3,12l4.1,10.9l-1.4-1.3c0.5,1-0.9,5.1-5.5,4.6c1.6,7-1.9,16-1.9,16l15.3,12.6c0.6-0.2,1.1-0.5,1.7-0.8
		C26.6,80.6,27.5,80.9,28.4,81.3"/>
	<g id="b">
		<path class="st2" d="M45.4,82.1c-2.6,1.9-6.8,2.4-12.9,0.6c-1.3-0.4-2.6-0.8-4.1-1.4C27.6,77.6,27.2,68,42,64
			C46.7,68.2,49.2,75.2,45.4,82.1z"/>
		<path class="st2" d="M23.9,80.9c-1.8,0.8-3.5,1.4-5.1,1.8c-4.2,1.2-7.5,1.4-10.1,0.8c-2.8-6-2.9-15.9,1.6-21.2
			C23.4,65.7,24.2,76.5,23.9,80.9L23.9,80.9z"/>
		<path class="st3" d="M41.2,16.9c0.1-1.7-0.3-3.2-1-4.3c-1-1.7-2.6-2.7-4.3-3.2c0.2-0.3,3-3.5,8-2.5C47.2,12.7,41.9,15.9,41.2,16.9
			L41.2,16.9z"/>
		<path class="st3" d="M15.4,9.5c-1.6,0.4-3.1,1.2-4.1,2.7c-0.8,1.1-1.2,2.5-1.2,4.2c-0.1-1,0.3-2-0.4-2.8c-2.8-2.8-0.6-7.1-0.1-7.9
			l0,0c0.1-0.1,0.1-0.2,0.1-0.2c5.4,0.3,5.8,3.7,5.8,3.7S15.4,9.5,15.4,9.5z"/>
		<path class="st2" d="M42,28.9c-1.8-2.6-2.2-5.9-1.3-9c0.3-1.1,0.5-2.1,0.5-3c0.1-1.7-0.3-3.2-1-4.3c-1-1.7-2.6-2.7-4.3-3.2
			c-4.8-1.2-10.6,2.2-7.7,10c0.1,0.3,0.2,0.6,0.2,0.9c0.5,3.7-5.3,4.3-4.6,0c0-0.3,0.1-0.6,0.2-0.9c2.4-7.5-3.7-10.9-8.6-9.9
			c-1.6,0.4-3.1,1.2-4.1,2.7c-0.8,1.1-1.2,2.5-1.2,4.3c0,1,0.2,2.2,0.6,3.4c0.9,3.1,1.7,6.4-0.1,9c-3.7,5.5-7.2,14.8-0.8,19.8
			c2.1,1.6,3.6,2.3,6.1,1.5c0.5-0.2,1-0.4,1.4-0.6c1.9-1.2,3.6-4.4,2.6-9.3c-0.4-2-1.2-4.5-2.6-7.4c-0.1-0.3-0.3-0.6-0.4-0.9
			c-1.1-2.3,1.6-1.1,3.2-0.8c-0.9-0.9-1.8-2-2.5-3.5c0,0,0-0.1,0.1-0.1c2.2,1.7,8.1,1.4,8.1,1.4s7.2,0.2,9.7-1.3
			c0.1-0.1,0.2,0,0.2,0.1c-0.8,1.7-1.8,2.9-2.9,3.8c0.2,0,0.3,0,0.4,0c1.5-0.5,4-1,3,1.2c-0.1,0.2-0.2,0.4-0.3,0.6
			c-1.8,3.9-2.7,7-2.9,9.3c-0.3,2.7,0.3,4.5,1.3,5.6c0.7,0.9,1.7,1.4,2.7,1.7c2.5,0.8,5.2,0.1,7.3-1.5C50.4,43.7,45.7,34.4,42,28.9
			L42,28.9z M19.1,18.8c-1.4,0-2.5-1.1-2.5-2.5s1.1-2.5,2.5-2.5s2.5,1.1,2.5,2.5S20.5,18.8,19.1,18.8z M32.5,18.8
			c-1.4,0-2.5-1.1-2.5-2.5s1.1-2.5,2.5-2.5s2.5,1.1,2.5,2.5S33.9,18.8,32.5,18.8z"/>
	</g>
	<path class="st4" d="M46.1,4.4c-0.9,0.7-1.6,1.6-2.2,2.4c-5.1-1-7.8,2.2-8,2.5c-4.8-1.2-10.5,2.1-7.7,10c1.9,5.5-6.1,5.8-4.2,0
		c2.5-7.5-3.7-10.9-8.6-9.9l0-0.2c0,0-0.4-3.4-5.8-3.7c0,0,0,0.1-0.1,0.1C9.2,4.3,8,2.9,4.9,2.9C8,0.7,12.7,0.9,17.1,3
		c1,0.5,2.2,0.6,3.3,0.3c2.1-0.6,5.2-0.8,5.2-0.8s3.1,0.2,5.2,0.8C32,3.6,33.2,3.5,34.2,3C37.8,1.5,43.1,1.4,46.1,4.4L46.1,4.4z"/>
	<path class="st0" d="M11.4,12.2c-1.2,1.9-1.9,3.8-2.4,6C8.2,16,9.3,13.2,11.4,12.2C11.4,12.2,11.4,12.2,11.4,12.2z"/>
	<path class="st0" d="M43.9,7C41,6.9,38.2,8,36,9.7l-0.1-0.6c0.8,0.3,1.6,0.6,2.2,1.2c-0.9-0.3-2-0.5-3-0.7
		C37.2,7.3,40.8,5.7,43.9,7L43.9,7L43.9,7z"/>
	<path class="st5" d="M15,23.3c0.6-0.1,1.1-0.1,1.7-0.2l0.1,0c5.9,3.6,13.2,2.9,19.3,0l1.2,0.1l-1.2,0.1c-5.3,4.1-14.1,4.8-19.5,0
		l0.1,0C16.1,23.4,15.6,23.4,15,23.3L15,23.3L15,23.3z"/>
	<ellipse class="st5" cx="26.1" cy="21.6" rx="2.1" ry="1.5"/>
	<path class="st6" d="M35.5,27.8c-0.8,1.7-1.8,2.9-2.9,3.8c-3,2.4-6.4,2.4-6.5,2.4c0,0-3.2-0.2-6.1-2.9c-0.9-0.9-1.8-2-2.5-3.5
		c0,0,0-0.1,0.1-0.1c2.2,1.7,15.3,1.6,17.8,0.1C35.4,27.6,35.6,27.7,35.5,27.8z"/>
	<g id="c">
		<path class="st7" d="M7.6,28.1c2.4-1.3,6.1-0.6,7.2,2.1C12.4,28.8,10.2,28.5,7.6,28.1C7.5,28.1,7.5,28.1,7.6,28.1z"/>
		<path class="st7" d="M9.6,5.8c2.5-0.9,6.1,0.8,5.9,3.8C14.3,7.1,12.1,6.3,9.6,5.8C9.6,5.8,9.6,5.8,9.6,5.8z"/>
		<path class="st7" d="M41.3,16.7c2.6-2.7,4-6.1,2.6-9.8C46.7,10,45,15,41.3,16.7L41.3,16.7z"/>
		<g>
			<path class="st8" d="M35.4,34c0,0-2.7,3.9-2.7,9.9"/>
			<path class="st7" d="M35.4,34c-1.1,3.2-1.9,6.6-2.7,9.9C31.8,40.5,32.8,36.5,35.4,34L35.4,34z"/>
		</g>
		<g>
			<path class="st7" d="M23.1,43.6c-1.5-0.6-1.9-2.6-1.2-3.9C22.3,41.2,22.5,42.2,23.1,43.6L23.1,43.6z"/>
			<path class="st7" d="M24.4,43.6c0.3-1.5,0.5-2.5,0.6-4C25.9,40.8,25.6,42.7,24.4,43.6L24.4,43.6z"/>
			<path class="st7" d="M28.3,46.8c-1.4-0.7-1.6-2.8-0.8-4C27.7,44.3,27.8,45.4,28.3,46.8L28.3,46.8z"/>
			<path class="st7" d="M29.5,47c0.4-1.4,0.7-2.5,1-4C31.3,44.3,30.8,46.2,29.5,47L29.5,47z"/>
			<path class="st7" d="M25.9,61.5c-1.4-0.7-1.6-2.8-0.8-4C25.3,59,25.4,60.1,25.9,61.5L25.9,61.5z"/>
			<path class="st7" d="M27.1,61.6c0.4-1.4,0.7-2.5,1-4C28.9,59,28.4,60.9,27.1,61.6L27.1,61.6z"/>
			<path class="st7" d="M26.5,69.6c-1.4-0.7-1.6-2.8-0.8-4C25.9,67.1,26,68.2,26.5,69.6L26.5,69.6z"/>
			<path class="st7" d="M27.7,69.7c0.4-1.4,0.7-2.5,1-4C29.5,67,29,68.9,27.7,69.7L27.7,69.7z"/>
			<path class="st7" d="M20.7,63.1c-1.5-0.4-2.3-2.3-1.8-3.7C19.6,60.8,19.9,61.8,20.7,63.1L20.7,63.1z"/>
			<path class="st7" d="M22,62.9c0.1-1.5,0.1-2.6,0-4.1C23,59.9,23,61.9,22,62.9C22,62.9,22,62.9,22,62.9z"/>
			<path class="st7" d="M32.2,62.9c-1.3-0.9-1.2-3-0.2-4.1C32,60.3,31.9,61.4,32.2,62.9L32.2,62.9z"/>
			<path class="st7" d="M33.4,63.2c0.6-1.4,1.1-2.3,1.6-3.8C35.6,60.8,34.8,62.6,33.4,63.2L33.4,63.2z"/>
			<path class="st7" d="M27.4,37.7c-1.5-0.5-2.1-2.5-1.4-3.8C26.5,35.3,26.7,36.3,27.4,37.7L27.4,37.7z"/>
			<path class="st7" d="M28.7,37.6c0.2-1.5,0.3-2.6,0.4-4.1C30,34.7,29.8,36.6,28.7,37.6L28.7,37.6z"/>
			<path class="st7" d="M22.9,53.2c-1.5-0.5-2.1-2.5-1.4-3.8C22,50.8,22.2,51.9,22.9,53.2L22.9,53.2z"/>
			<path class="st7" d="M24.2,53.1c0.2-1.5,0.3-2.6,0.4-4.1C25.5,50.2,25.3,52.2,24.2,53.1L24.2,53.1z"/>
			<path class="st7" d="M28.9,54.2c-1.3-0.9-1.3-3-0.3-4.1C28.7,51.7,28.6,52.8,28.9,54.2L28.9,54.2z"/>
			<path class="st7" d="M30.2,54.5c0.6-1.4,1-2.4,1.5-3.8C32.3,52.1,31.5,53.9,30.2,54.5L30.2,54.5z"/>
		</g>
		<path class="st7" d="M39,68.1c-2.7,2.3-5.8,3.5-7.6,6.6C31,70.8,35.5,68.3,39,68.1L39,68.1z"/>
		<path class="st7" d="M6.9,70.5c0.6,4.4,0.5,8.6,1.8,12.9C5.5,80.1,5.4,74.6,6.9,70.5L6.9,70.5z"/>
	</g>
	<g>
		<defs>
			<circle id="SVGID_1_" cx="19.4" cy="15.9" r="3.3"/>
		</defs>
		<clipPath id="SVGID_00000174595478649284478160000004005590426592268937_">
			<use xlink:href="#SVGID_1_"  style="overflow:visible;"/>
		</clipPath>
		<g style="clip-path:url(#SVGID_00000174595478649284478160000004005590426592268937_);">
			<g>
				<circle class="st6" cx="19.3" cy="16" r="3.3"/>
				<path class="st8" d="M19.1,12.6c1.6-0.8,3.5,0.7,3.9,2.3c0.5,1.7-0.5,3.6-2.1,4c0.5-0.6,0.8-1.2,1-1.9
					C22.4,15.2,21.2,13,19.1,12.6L19.1,12.6L19.1,12.6z"/>
				<path class="st0" d="M19.5,12.6c-2,1.1-3.1,3-1.8,5c0.4,0.6,0.9,1.1,1.6,1.7C14.4,19.2,14.5,12,19.5,12.6L19.5,12.6L19.5,12.6z"
					/>
			</g>
		</g>
	</g>
	<g>
		<defs>
			<circle id="SVGID_00000106126501849392049270000000816268249841171874_" cx="31.9" cy="15.9" r="3.3"/>
		</defs>
		<clipPath id="SVGID_00000039106470599122298490000001720074538652886945_">
			<use xlink:href="#SVGID_00000106126501849392049270000000816268249841171874_"  style="overflow:visible;"/>
		</clipPath>
		<g style="clip-path:url(#SVGID_00000039106470599122298490000001720074538652886945_);">
			<g>
				<circle class="st6" cx="32" cy="15.9" r="3.3"/>
				<path class="st8" d="M32.2,19.3c-1.6,0.8-3.5-0.7-3.9-2.3c-0.5-1.6,0.5-3.6,2.1-4c-0.5,0.6-0.8,1.2-1,1.9
					C28.9,16.7,30.1,18.9,32.2,19.3L32.2,19.3L32.2,19.3z"/>
				<path class="st0" d="M31.8,19.3c2-1.1,3.1-3,1.8-5c-0.4-0.6-0.9-1.1-1.6-1.7C36.9,12.7,36.8,19.9,31.8,19.3L31.8,19.3L31.8,19.3
					z"/>
			</g>
		</g>
	</g>
</g>
<g>
	<defs>
		<rect id="SVGID_00000023985635845576026970000009770067294546753189_" x="25.5" y="-14" width="49.1" height="44.2"/>
	</defs>
	<clipPath id="SVGID_00000023263806674604569360000003448150967763068081_">
		<use xlink:href="#SVGID_00000023985635845576026970000009770067294546753189_"  style="overflow:visible;"/>
	</clipPath>
	<g style="clip-path:url(#SVGID_00000023263806674604569360000003448150967763068081_);">
		<g>
			<path class="st12" d="M41.9,64c0,0-4.8-3.3-1.8-9.9c-4.2-1.4-5.7-3.6-6.1-5.6L30.3,52l6-46.4l9.8-1.2c2.9,2.8,3.7,8.4-0.7,17.9
				c-1.4,3.1-1,6.6,1,9.3c2.8,3.8,5.3,10.2,0.1,18.5c-1.9,3-2,6.9-0.4,10.1c3.5,6.9,5.1,17.7-0.7,21.9L41.9,64L41.9,64z"/>
			<path class="st12" d="M19.2,66.5l1.5-2.6l-10.1-2c0.9-1.9,1.9-5.5-0.1-9.7c4.4,0.1,6.3-1.3,6.9-3l9.8,4.2L26.1,9.2
				c0,0-10.2-3.3-20.6-6.6c-4,2.5-5.6,8.6-0.5,19.7c1.4,3.1,1,6.6-1,9.3c-2.8,3.8-5.3,10.2-0.1,18.5c1.9,3,2,6.9,0.4,10.1
				c-4,7.9-5.1,21.1,4.6,23.2L19.2,66.5L19.2,66.5z"/>
			<path class="st13" d="M28.4,81.3l12.5-5.8l1-11.5c-1-0.8-4-4.9-1.8-9.9C34,51.8,34,48.4,34,48.4s3.3-0.5,4.2-0.5
				s-1.3-21.8-1.3-21.8H16.4l-3,12l4.1,10.9l-1.4-1.3c0.5,1-0.9,5.1-5.5,4.6c1.6,7-1.9,16-1.9,16l15.3,12.6c0.6-0.2,1.1-0.5,1.7-0.8
				C26.6,80.6,27.5,80.9,28.4,81.3"/>
			<g id="g">
				<path class="st14" d="M45.4,82.1c-2.6,1.9-6.8,2.4-12.9,0.6c-1.3-0.4-2.6-0.8-4.1-1.4C27.6,77.6,27.2,68,42,64
					C46.7,68.2,49.2,75.2,45.4,82.1z"/>
				<path class="st14" d="M23.9,80.9c-1.8,0.8-3.5,1.4-5.1,1.8c-4.2,1.2-7.5,1.4-10.1,0.8c-2.8-6-2.9-15.9,1.6-21.2
					C23.4,65.7,24.2,76.5,23.9,80.9L23.9,80.9z"/>
				<path class="st14" d="M41.2,16.9c0.1-1.7-0.3-3.2-1-4.3c-1-1.7-2.6-2.7-4.3-3.2c0.2-0.3,3-3.5,8-2.5
					C47.2,12.7,41.9,15.9,41.2,16.9L41.2,16.9z"/>
				<path class="st14" d="M15.4,9.5c-1.6,0.4-3.1,1.2-4.1,2.7c-0.8,1.1-1.2,2.5-1.2,4.2c-0.1-1,0.3-2-0.4-2.8
					c-2.8-2.8-0.6-7.1-0.1-7.9l0,0c0.1-0.1,0.1-0.2,0.1-0.2c5.4,0.3,5.8,3.7,5.8,3.7S15.4,9.5,15.4,9.5z"/>
				<path class="st14" d="M42,28.9c-1.8-2.6-2.2-5.9-1.3-9c0.3-1.1,0.5-2.1,0.5-3c0.1-1.7-0.3-3.2-1-4.3c-1-1.7-2.6-2.7-4.3-3.2
					c-4.8-1.2-10.6,2.2-7.7,10c0.1,0.3,0.2,0.6,0.2,0.9c0.5,3.7-5.3,4.3-4.6,0c0-0.3,0.1-0.6,0.2-0.9c2.4-7.5-3.7-10.9-8.6-9.9
					c-1.6,0.4-3.1,1.2-4.1,2.7c-0.8,1.1-1.2,2.5-1.2,4.3c0,1,0.2,2.2,0.6,3.4c0.9,3.1,1.7,6.4-0.1,9c-3.7,5.5-7.2,14.8-0.8,19.8
					c2.1,1.6,3.6,2.3,6.1,1.5c0.5-0.2,1-0.4,1.4-0.6c1.9-1.2,3.6-4.4,2.6-9.3c-0.4-2-1.2-4.5-2.6-7.4c-0.1-0.3-0.3-0.6-0.4-0.9
					c-1.1-2.3,1.6-1.1,3.2-0.8c-0.9-0.9-1.8-2-2.5-3.5c0,0,0-0.1,0.1-0.1c2.2,1.7,8.1,1.4,8.1,1.4s7.2,0.2,9.7-1.3
					c0.1-0.1,0.2,0,0.2,0.1c-0.8,1.7-1.8,2.9-2.9,3.8c0.2,0,0.3,0,0.4,0c1.5-0.5,4-1,3,1.2c-0.1,0.2-0.2,0.4-0.3,0.6
					c-1.8,3.9-2.7,7-2.9,9.3c-0.3,2.7,0.3,4.5,1.3,5.6c0.7,0.9,1.7,1.4,2.7,1.7c2.5,0.8,5.2,0.1,7.3-1.5
					C50.4,43.7,45.7,34.4,42,28.9L42,28.9z M19.1,18.8c-1.4,0-2.5-1.1-2.5-2.5s1.1-2.5,2.5-2.5s2.5,1.1,2.5,2.5S20.5,18.8,19.1,18.8
					z M32.5,18.8c-1.4,0-2.5-1.1-2.5-2.5s1.1-2.5,2.5-2.5s2.5,1.1,2.5,2.5S33.9,18.8,32.5,18.8z"/>
			</g>
			<path class="st15" d="M46.1,4.4c-0.9,0.7-1.6,1.6-2.2,2.4c-5.1-1-7.8,2.2-8,2.5c-4.8-1.2-10.5,2.1-7.7,10c1.9,5.5-6.1,5.8-4.2,0
				c2.5-7.5-3.7-10.9-8.6-9.9l0-0.2c0,0-0.4-3.4-5.8-3.7c0,0,0,0.1-0.1,0.1C9.2,4.3,8,2.9,4.9,2.9C8,0.7,12.7,0.9,17.1,3
				c1,0.5,2.2,0.6,3.3,0.3c2.1-0.6,5.2-0.8,5.2-0.8s3.1,0.2,5.2,0.8C32,3.6,33.2,3.5,34.2,3C37.8,1.5,43.1,1.4,46.1,4.4L46.1,4.4z"
				/>
			<path class="st12" d="M11.4,12.2c-1.2,1.9-1.9,3.8-2.4,6C8.2,16,9.3,13.2,11.4,12.2C11.4,12.2,11.4,12.2,11.4,12.2z"/>
			<path class="st12" d="M43.9,7C41,6.9,38.2,8,36,9.7l-0.1-0.6c0.8,0.3,1.6,0.6,2.2,1.2c-0.9-0.3-2-0.5-3-0.7
				C37.2,7.3,40.8,5.7,43.9,7L43.9,7L43.9,7z"/>
			<path class="st12" d="M15,23.3c0.6-0.1,1.1-0.1,1.7-0.2l0.1,0c5.9,3.6,13.2,2.9,19.3,0l1.2,0.1l-1.2,0.1
				c-5.3,4.1-14.1,4.8-19.5,0l0.1,0C16.1,23.4,15.6,23.4,15,23.3L15,23.3L15,23.3z"/>
			<ellipse class="st12" cx="26.1" cy="21.6" rx="2.1" ry="1.5"/>
			<path class="st15" d="M35.5,27.8c-0.8,1.7-1.8,2.9-2.9,3.8c-3,2.4-6.4,2.4-6.5,2.4c0,0-3.2-0.2-6.1-2.9c-0.9-0.9-1.8-2-2.5-3.5
				c0,0,0-0.1,0.1-0.1c2.2,1.7,15.3,1.6,17.8,0.1C35.4,27.6,35.6,27.7,35.5,27.8z"/>
			<g id="h">
				<path class="st16" d="M7.6,28.1c2.4-1.3,6.1-0.6,7.2,2.1C12.4,28.8,10.2,28.5,7.6,28.1C7.5,28.1,7.5,28.1,7.6,28.1z"/>
				<path class="st16" d="M9.6,5.8c2.5-0.9,6.1,0.8,5.9,3.8C14.3,7.1,12.1,6.3,9.6,5.8C9.6,5.8,9.6,5.8,9.6,5.8z"/>
				<path class="st16" d="M41.3,16.7c2.6-2.7,4-6.1,2.6-9.8C46.7,10,45,15,41.3,16.7L41.3,16.7z"/>
				<g>
					<path class="st8" d="M35.4,34c0,0-2.7,3.9-2.7,9.9"/>
					<path class="st16" d="M35.4,34c-1.1,3.2-1.9,6.6-2.7,9.9C31.8,40.5,32.8,36.5,35.4,34L35.4,34z"/>
				</g>
				<g>
					<path class="st16" d="M23.1,43.6c-1.5-0.6-1.9-2.6-1.2-3.9C22.3,41.2,22.5,42.2,23.1,43.6L23.1,43.6z"/>
					<path class="st16" d="M24.4,43.6c0.3-1.5,0.5-2.5,0.6-4C25.9,40.8,25.6,42.7,24.4,43.6L24.4,43.6z"/>
					<path class="st16" d="M28.3,46.8c-1.4-0.7-1.6-2.8-0.8-4C27.7,44.3,27.8,45.4,28.3,46.8L28.3,46.8z"/>
					<path class="st16" d="M29.5,47c0.4-1.4,0.7-2.5,1-4C31.3,44.3,30.8,46.2,29.5,47L29.5,47z"/>
					<path class="st16" d="M25.9,61.5c-1.4-0.7-1.6-2.8-0.8-4C25.3,59,25.4,60.1,25.9,61.5L25.9,61.5z"/>
					<path class="st16" d="M27.1,61.6c0.4-1.4,0.7-2.5,1-4C28.9,59,28.4,60.9,27.1,61.6L27.1,61.6z"/>
					<path class="st16" d="M26.5,69.6c-1.4-0.7-1.6-2.8-0.8-4C25.9,67.1,26,68.2,26.5,69.6L26.5,69.6z"/>
					<path class="st16" d="M27.7,69.7c0.4-1.4,0.7-2.5,1-4C29.5,67,29,68.9,27.7,69.7L27.7,69.7z"/>
					<path class="st16" d="M20.7,63.1c-1.5-0.4-2.3-2.3-1.8-3.7C19.6,60.8,19.9,61.8,20.7,63.1L20.7,63.1z"/>
					<path class="st16" d="M22,62.9c0.1-1.5,0.1-2.6,0-4.1C23,59.9,23,61.9,22,62.9C22,62.9,22,62.9,22,62.9z"/>
					<path class="st16" d="M32.2,62.9c-1.3-0.9-1.2-3-0.2-4.1C32,60.3,31.9,61.4,32.2,62.9L32.2,62.9z"/>
					<path class="st16" d="M33.4,63.2c0.6-1.4,1.1-2.3,1.6-3.8C35.6,60.8,34.8,62.6,33.4,63.2L33.4,63.2z"/>
					<path class="st16" d="M27.4,37.7c-1.5-0.5-2.1-2.5-1.4-3.8C26.5,35.3,26.7,36.3,27.4,37.7L27.4,37.7z"/>
					<path class="st16" d="M28.7,37.6c0.2-1.5,0.3-2.6,0.4-4.1C30,34.7,29.8,36.6,28.7,37.6L28.7,37.6z"/>
					<path class="st16" d="M22.9,53.2c-1.5-0.5-2.1-2.5-1.4-3.8C22,50.8,22.2,51.9,22.9,53.2L22.9,53.2z"/>
					<path class="st16" d="M24.2,53.1c0.2-1.5,0.3-2.6,0.4-4.1C25.5,50.2,25.3,52.2,24.2,53.1L24.2,53.1z"/>
					<path class="st16" d="M28.9,54.2c-1.3-0.9-1.3-3-0.3-4.1C28.7,51.7,28.6,52.8,28.9,54.2L28.9,54.2z"/>
					<path class="st16" d="M30.2,54.5c0.6-1.4,1-2.4,1.5-3.8C32.3,52.1,31.5,53.9,30.2,54.5L30.2,54.5z"/>
				</g>
				<path class="st16" d="M39,68.1c-2.7,2.3-5.8,3.5-7.6,6.6C31,70.8,35.5,68.3,39,68.1L39,68.1z"/>
				<path class="st16" d="M6.9,70.5c0.6,4.4,0.5,8.6,1.8,12.9C5.5,80.1,5.4,74.6,6.9,70.5L6.9,70.5z"/>
			</g>
			<g>
				<defs>
					<circle id="SVGID_00000156563031387535540860000005912559660287056023_" cx="19.4" cy="15.9" r="3.3"/>
				</defs>
				<clipPath id="SVGID_00000131343823448483463000000013977304725701196200_">
					<use xlink:href="#SVGID_00000156563031387535540860000005912559660287056023_"  style="overflow:visible;"/>
				</clipPath>
				<g style="clip-path:url(#SVGID_00000131343823448483463000000013977304725701196200_);">
					<g>
						<circle class="st15" cx="19.3" cy="16" r="3.3"/>
						<path class="st16" d="M19.1,12.6c1.6-0.8,3.5,0.7,3.9,2.3c0.5,1.7-0.5,3.6-2.1,4c0.5-0.6,0.8-1.2,1-1.9
							C22.4,15.2,21.2,13,19.1,12.6L19.1,12.6L19.1,12.6z"/>
						<path class="st12" d="M19.5,12.6c-2,1.1-3.1,3-1.8,5c0.4,0.6,0.9,1.1,1.6,1.7C14.4,19.2,14.5,12,19.5,12.6L19.5,12.6
							L19.5,12.6z"/>
					</g>
				</g>
			</g>
			<g>
				<defs>
					<circle id="SVGID_00000116952132599115437380000004104509575956109727_" cx="31.9" cy="15.9" r="3.3"/>
				</defs>
				<clipPath id="SVGID_00000060743989776238632670000013931189539901177528_">
					<use xlink:href="#SVGID_00000116952132599115437380000004104509575956109727_"  style="overflow:visible;"/>
				</clipPath>
				<g style="clip-path:url(#SVGID_00000060743989776238632670000013931189539901177528_);">
					<g>
						<circle class="st15" cx="32" cy="15.9" r="3.3"/>
						<path class="st16" d="M32.2,19.3c-1.6,0.8-3.5-0.7-3.9-2.3c-0.5-1.6,0.5-3.6,2.1-4c-0.5,0.6-0.8,1.2-1,1.9
							C28.9,16.7,30.1,18.9,32.2,19.3L32.2,19.3L32.2,19.3z"/>
						<path class="st12" d="M31.8,19.3c2-1.1,3.1-3,1.8-5c-0.4-0.6-0.9-1.1-1.6-1.7C36.9,12.7,36.8,19.9,31.8,19.3L31.8,19.3
							L31.8,19.3z"/>
					</g>
				</g>
			</g>
		</g>
	</g>
</g>
<g>
	<defs>
		<rect id="SVGID_00000165937696788621103370000016944801958234008750_" x="-23.5" y="55.4" width="49.1" height="40.6"/>
	</defs>
	<clipPath id="SVGID_00000052788472073318883320000006720453429593051528_">
		<use xlink:href="#SVGID_00000165937696788621103370000016944801958234008750_"  style="overflow:visible;"/>
	</clipPath>
	<g style="clip-path:url(#SVGID_00000052788472073318883320000006720453429593051528_);">
		<g>
			<path class="st20" d="M41.9,64c0,0-4.8-3.3-1.8-9.9c-4.2-1.4-5.7-3.6-6.1-5.6L30.3,52l6-46.4l9.8-1.2c2.9,2.8,3.7,8.4-0.7,17.9
				c-1.4,3.1-1,6.6,1,9.3c2.8,3.8,5.3,10.2,0.1,18.5c-1.9,3-2,6.9-0.4,10.1c3.5,6.9,5.1,17.7-0.7,21.9L41.9,64L41.9,64z"/>
			<path class="st20" d="M19.2,66.5l1.5-2.6l-10.1-2c0.9-1.9,1.9-5.5-0.1-9.7c4.4,0.1,6.3-1.3,6.9-3l9.8,4.2L26.1,9.2
				c0,0-10.2-3.3-20.6-6.6c-4,2.5-5.6,8.6-0.5,19.7c1.4,3.1,1,6.6-1,9.3c-2.8,3.8-5.3,10.2-0.1,18.5c1.9,3,2,6.9,0.4,10.1
				c-4,7.9-5.1,21.1,4.6,23.2L19.2,66.5L19.2,66.5z"/>
			<path class="st21" d="M28.4,81.3l12.5-5.8l1-11.5c-1-0.8-4-4.9-1.8-9.9C34,51.8,34,48.4,34,48.4s3.3-0.5,4.2-0.5
				s-1.3-21.8-1.3-21.8H16.4l-3,12l4.1,10.9l-1.4-1.3c0.5,1-0.9,5.1-5.5,4.6c1.6,7-1.9,16-1.9,16l15.3,12.6c0.6-0.2,1.1-0.5,1.7-0.8
				C26.6,80.6,27.5,80.9,28.4,81.3"/>
			<g id="l">
				<path class="st22" d="M45.4,82.1c-2.6,1.9-6.8,2.4-12.9,0.6c-1.3-0.4-2.6-0.8-4.1-1.4C27.6,77.6,27.2,68,42,64
					C46.7,68.2,49.2,75.2,45.4,82.1z"/>
				<path class="st22" d="M23.9,80.9c-1.8,0.8-3.5,1.4-5.1,1.8c-4.2,1.2-7.5,1.4-10.1,0.8c-2.8-6-2.9-15.9,1.6-21.2
					C23.4,65.7,24.2,76.5,23.9,80.9L23.9,80.9z"/>
				<path class="st22" d="M41.2,16.9c0.1-1.7-0.3-3.2-1-4.3c-1-1.7-2.6-2.7-4.3-3.2c0.2-0.3,3-3.5,8-2.5
					C47.2,12.7,41.9,15.9,41.2,16.9L41.2,16.9z"/>
				<path class="st22" d="M15.4,9.5c-1.6,0.4-3.1,1.2-4.1,2.7c-0.8,1.1-1.2,2.5-1.2,4.2c-0.1-1,0.3-2-0.4-2.8
					c-2.8-2.8-0.6-7.1-0.1-7.9l0,0c0.1-0.1,0.1-0.2,0.1-0.2c5.4,0.3,5.8,3.7,5.8,3.7S15.4,9.5,15.4,9.5z"/>
				<path class="st22" d="M42,28.9c-1.8-2.6-2.2-5.9-1.3-9c0.3-1.1,0.5-2.1,0.5-3c0.1-1.7-0.3-3.2-1-4.3c-1-1.7-2.6-2.7-4.3-3.2
					c-4.8-1.2-10.6,2.2-7.7,10c0.1,0.3,0.2,0.6,0.2,0.9c0.5,3.7-5.3,4.3-4.6,0c0-0.3,0.1-0.6,0.2-0.9c2.4-7.5-3.7-10.9-8.6-9.9
					c-1.6,0.4-3.1,1.2-4.1,2.7c-0.8,1.1-1.2,2.5-1.2,4.3c0,1,0.2,2.2,0.6,3.4c0.9,3.1,1.7,6.4-0.1,9c-3.7,5.5-7.2,14.8-0.8,19.8
					c2.1,1.6,3.6,2.3,6.1,1.5c0.5-0.2,1-0.4,1.4-0.6c1.9-1.2,3.6-4.4,2.6-9.3c-0.4-2-1.2-4.5-2.6-7.4c-0.1-0.3-0.3-0.6-0.4-0.9
					c-1.1-2.3,1.6-1.1,3.2-0.8c-0.9-0.9-1.8-2-2.5-3.5c0,0,0-0.1,0.1-0.1c2.2,1.7,8.1,1.4,8.1,1.4s7.2,0.2,9.7-1.3
					c0.1-0.1,0.2,0,0.2,0.1c-0.8,1.7-1.8,2.9-2.9,3.8c0.2,0,0.3,0,0.4,0c1.5-0.5,4-1,3,1.2c-0.1,0.2-0.2,0.4-0.3,0.6
					c-1.8,3.9-2.7,7-2.9,9.3c-0.3,2.7,0.3,4.5,1.3,5.6c0.7,0.9,1.7,1.4,2.7,1.7c2.5,0.8,5.2,0.1,7.3-1.5
					C50.4,43.7,45.7,34.4,42,28.9L42,28.9z M19.1,18.8c-1.4,0-2.5-1.1-2.5-2.5s1.1-2.5,2.5-2.5s2.5,1.1,2.5,2.5S20.5,18.8,19.1,18.8
					z M32.5,18.8c-1.4,0-2.5-1.1-2.5-2.5s1.1-2.5,2.5-2.5s2.5,1.1,2.5,2.5S33.9,18.8,32.5,18.8z"/>
			</g>
			<path class="st23" d="M46.1,4.4c-0.9,0.7-1.6,1.6-2.2,2.4c-5.1-1-7.8,2.2-8,2.5c-4.8-1.2-10.5,2.1-7.7,10c1.9,5.5-6.1,5.8-4.2,0
				c2.5-7.5-3.7-10.9-8.6-9.9l0-0.2c0,0-0.4-3.4-5.8-3.7c0,0,0,0.1-0.1,0.1C9.2,4.3,8,2.9,4.9,2.9C8,0.7,12.7,0.9,17.1,3
				c1,0.5,2.2,0.6,3.3,0.3c2.1-0.6,5.2-0.8,5.2-0.8s3.1,0.2,5.2,0.8C32,3.6,33.2,3.5,34.2,3C37.8,1.5,43.1,1.4,46.1,4.4L46.1,4.4z"
				/>
			<path class="st20" d="M11.4,12.2c-1.2,1.9-1.9,3.8-2.4,6C8.2,16,9.3,13.2,11.4,12.2C11.4,12.2,11.4,12.2,11.4,12.2z"/>
			<path class="st20" d="M43.9,7C41,6.9,38.2,8,36,9.7l-0.1-0.6c0.8,0.3,1.6,0.6,2.2,1.2c-0.9-0.3-2-0.5-3-0.7
				C37.2,7.3,40.8,5.7,43.9,7L43.9,7L43.9,7z"/>
			<path class="st20" d="M15,23.3c0.6-0.1,1.1-0.1,1.7-0.2l0.1,0c5.9,3.6,13.2,2.9,19.3,0l1.2,0.1l-1.2,0.1
				c-5.3,4.1-14.1,4.8-19.5,0l0.1,0C16.1,23.4,15.6,23.4,15,23.3L15,23.3L15,23.3z"/>
			<ellipse class="st20" cx="26.1" cy="21.6" rx="2.1" ry="1.5"/>
			<path class="st23" d="M35.5,27.8c-0.8,1.7-1.8,2.9-2.9,3.8c-3,2.4-6.4,2.4-6.5,2.4c0,0-3.2-0.2-6.1-2.9c-0.9-0.9-1.8-2-2.5-3.5
				c0,0,0-0.1,0.1-0.1c2.2,1.7,15.3,1.6,17.8,0.1C35.4,27.6,35.6,27.7,35.5,27.8z"/>
			<g id="m">
				<path class="st24" d="M7.6,28.1c2.4-1.3,6.1-0.6,7.2,2.1C12.4,28.8,10.2,28.5,7.6,28.1C7.5,28.1,7.5,28.1,7.6,28.1z"/>
				<path class="st24" d="M9.6,5.8c2.5-0.9,6.1,0.8,5.9,3.8C14.3,7.1,12.1,6.3,9.6,5.8C9.6,5.8,9.6,5.8,9.6,5.8z"/>
				<path class="st24" d="M41.3,16.7c2.6-2.7,4-6.1,2.6-9.8C46.7,10,45,15,41.3,16.7L41.3,16.7z"/>
				<g>
					<path class="st8" d="M35.4,34c0,0-2.7,3.9-2.7,9.9"/>
					<path class="st24" d="M35.4,34c-1.1,3.2-1.9,6.6-2.7,9.9C31.8,40.5,32.8,36.5,35.4,34L35.4,34z"/>
				</g>
				<g>
					<path class="st24" d="M23.1,43.6c-1.5-0.6-1.9-2.6-1.2-3.9C22.3,41.2,22.5,42.2,23.1,43.6L23.1,43.6z"/>
					<path class="st24" d="M24.4,43.6c0.3-1.5,0.5-2.5,0.6-4C25.9,40.8,25.6,42.7,24.4,43.6L24.4,43.6z"/>
					<path class="st24" d="M28.3,46.8c-1.4-0.7-1.6-2.8-0.8-4C27.7,44.3,27.8,45.4,28.3,46.8L28.3,46.8z"/>
					<path class="st24" d="M29.5,47c0.4-1.4,0.7-2.5,1-4C31.3,44.3,30.8,46.2,29.5,47L29.5,47z"/>
					<path class="st24" d="M25.9,61.5c-1.4-0.7-1.6-2.8-0.8-4C25.3,59,25.4,60.1,25.9,61.5L25.9,61.5z"/>
					<path class="st24" d="M27.1,61.6c0.4-1.4,0.7-2.5,1-4C28.9,59,28.4,60.9,27.1,61.6L27.1,61.6z"/>
					<path class="st24" d="M26.5,69.6c-1.4-0.7-1.6-2.8-0.8-4C25.9,67.1,26,68.2,26.5,69.6L26.5,69.6z"/>
					<path class="st24" d="M27.7,69.7c0.4-1.4,0.7-2.5,1-4C29.5,67,29,68.9,27.7,69.7L27.7,69.7z"/>
					<path class="st24" d="M20.7,63.1c-1.5-0.4-2.3-2.3-1.8-3.7C19.6,60.8,19.9,61.8,20.7,63.1L20.7,63.1z"/>
					<path class="st24" d="M22,62.9c0.1-1.5,0.1-2.6,0-4.1C23,59.9,23,61.9,22,62.9C22,62.9,22,62.9,22,62.9z"/>
					<path class="st24" d="M32.2,62.9c-1.3-0.9-1.2-3-0.2-4.1C32,60.3,31.9,61.4,32.2,62.9L32.2,62.9z"/>
					<path class="st24" d="M33.4,63.2c0.6-1.4,1.1-2.3,1.6-3.8C35.6,60.8,34.8,62.6,33.4,63.2L33.4,63.2z"/>
					<path class="st24" d="M27.4,37.7c-1.5-0.5-2.1-2.5-1.4-3.8C26.5,35.3,26.7,36.3,27.4,37.7L27.4,37.7z"/>
					<path class="st24" d="M28.7,37.6c0.2-1.5,0.3-2.6,0.4-4.1C30,34.7,29.8,36.6,28.7,37.6L28.7,37.6z"/>
					<path class="st24" d="M22.9,53.2c-1.5-0.5-2.1-2.5-1.4-3.8C22,50.8,22.2,51.9,22.9,53.2L22.9,53.2z"/>
					<path class="st24" d="M24.2,53.1c0.2-1.5,0.3-2.6,0.4-4.1C25.5,50.2,25.3,52.2,24.2,53.1L24.2,53.1z"/>
					<path class="st24" d="M28.9,54.2c-1.3-0.9-1.3-3-0.3-4.1C28.7,51.7,28.6,52.8,28.9,54.2L28.9,54.2z"/>
					<path class="st24" d="M30.2,54.5c0.6-1.4,1-2.4,1.5-3.8C32.3,52.1,31.5,53.9,30.2,54.5L30.2,54.5z"/>
				</g>
				<path class="st24" d="M39,68.1c-2.7,2.3-5.8,3.5-7.6,6.6C31,70.8,35.5,68.3,39,68.1L39,68.1z"/>
				<path class="st24" d="M6.9,70.5c0.6,4.4,0.5,8.6,1.8,12.9C5.5,80.1,5.4,74.6,6.9,70.5L6.9,70.5z"/>
			</g>
			<g>
				<defs>
					<circle id="SVGID_00000170961277244090569810000016095899054230428065_" cx="19.4" cy="15.9" r="3.3"/>
				</defs>
				<clipPath id="SVGID_00000002369894737904555340000017200047602702877840_">
					<use xlink:href="#SVGID_00000170961277244090569810000016095899054230428065_"  style="overflow:visible;"/>
				</clipPath>
				<g style="clip-path:url(#SVGID_00000002369894737904555340000017200047602702877840_);">
					<g>
						<circle class="st23" cx="19.3" cy="16" r="3.3"/>
						<path class="st24" d="M19.1,12.6c1.6-0.8,3.5,0.7,3.9,2.3c0.5,1.7-0.5,3.6-2.1,4c0.5-0.6,0.8-1.2,1-1.9
							C22.4,15.2,21.2,13,19.1,12.6L19.1,12.6L19.1,12.6z"/>
						<path class="st20" d="M19.5,12.6c-2,1.1-3.1,3-1.8,5c0.4,0.6,0.9,1.1,1.6,1.7C14.4,19.2,14.5,12,19.5,12.6L19.5,12.6
							L19.5,12.6z"/>
					</g>
				</g>
			</g>
			<g>
				<defs>
					<circle id="SVGID_00000168816387803988487460000004207469511689780407_" cx="31.9" cy="15.9" r="3.3"/>
				</defs>
				<clipPath id="SVGID_00000038410098551408047010000016595220052069248143_">
					<use xlink:href="#SVGID_00000168816387803988487460000004207469511689780407_"  style="overflow:visible;"/>
				</clipPath>
				<g style="clip-path:url(#SVGID_00000038410098551408047010000016595220052069248143_);">
					<g>
						<circle class="st23" cx="32" cy="15.9" r="3.3"/>
						<path class="st24" d="M32.2,19.3c-1.6,0.8-3.5-0.7-3.9-2.3c-0.5-1.6,0.5-3.6,2.1-4c-0.5,0.6-0.8,1.2-1,1.9
							C28.9,16.7,30.1,18.9,32.2,19.3L32.2,19.3L32.2,19.3z"/>
						<path class="st20" d="M31.8,19.3c2-1.1,3.1-3,1.8-5c-0.4-0.6-0.9-1.1-1.6-1.7C36.9,12.7,36.8,19.9,31.8,19.3L31.8,19.3
							L31.8,19.3z"/>
					</g>
				</g>
			</g>
		</g>
	</g>
</g>
<g>
	<defs>
		<rect id="SVGID_00000167375235629644109160000004726240740600638906_" x="25.5" y="55.4" width="49.1" height="40.6"/>
	</defs>
	<clipPath id="SVGID_00000089538949803248604290000015261765942433404552_">
		<use xlink:href="#SVGID_00000167375235629644109160000004726240740600638906_"  style="overflow:visible;"/>
	</clipPath>
	<g style="clip-path:url(#SVGID_00000089538949803248604290000015261765942433404552_);">
		<g>
			<path class="st28" d="M41.9,64c0,0-4.8-3.3-1.8-9.9c-4.2-1.4-5.7-3.6-6.1-5.6L30.3,52l6-46.4l9.8-1.2c2.9,2.8,3.7,8.4-0.7,17.9
				c-1.4,3.1-1,6.6,1,9.3c2.8,3.8,5.3,10.2,0.1,18.5c-1.9,3-2,6.9-0.4,10.1c3.5,6.9,5.1,17.7-0.7,21.9L41.9,64L41.9,64z"/>
			<path class="st28" d="M19.2,66.5l1.5-2.6l-10.1-2c0.9-1.9,1.9-5.5-0.1-9.7c4.4,0.1,6.3-1.3,6.9-3l9.8,4.2L26.1,9.2
				c0,0-10.2-3.3-20.6-6.6c-4,2.5-5.6,8.6-0.5,19.7c1.4,3.1,1,6.6-1,9.3c-2.8,3.8-5.3,10.2-0.1,18.5c1.9,3,2,6.9,0.4,10.1
				c-4,7.9-5.1,21.1,4.6,23.2L19.2,66.5L19.2,66.5z"/>
			<path class="st29" d="M28.4,81.3l12.5-5.8l1-11.5c-1-0.8-4-4.9-1.8-9.9C34,51.8,34,48.4,34,48.4s3.3-0.5,4.2-0.5
				s-1.3-21.8-1.3-21.8H16.4l-3,12l4.1,10.9l-1.4-1.3c0.5,1-0.9,5.1-5.5,4.6c1.6,7-1.9,16-1.9,16l15.3,12.6c0.6-0.2,1.1-0.5,1.7-0.8
				C26.6,80.6,27.5,80.9,28.4,81.3"/>
			<g id="q">
				<path class="st30" d="M45.4,82.1c-2.6,1.9-6.8,2.4-12.9,0.6c-1.3-0.4-2.6-0.8-4.1-1.4C27.6,77.6,27.2,68,42,64
					C46.7,68.2,49.2,75.2,45.4,82.1z"/>
				<path class="st30" d="M23.9,80.9c-1.8,0.8-3.5,1.4-5.1,1.8c-4.2,1.2-7.5,1.4-10.1,0.8c-2.8-6-2.9-15.9,1.6-21.2
					C23.4,65.7,24.2,76.5,23.9,80.9L23.9,80.9z"/>
				<path class="st30" d="M41.2,16.9c0.1-1.7-0.3-3.2-1-4.3c-1-1.7-2.6-2.7-4.3-3.2c0.2-0.3,3-3.5,8-2.5
					C47.2,12.7,41.9,15.9,41.2,16.9L41.2,16.9z"/>
				<path class="st30" d="M15.4,9.5c-1.6,0.4-3.1,1.2-4.1,2.7c-0.8,1.1-1.2,2.5-1.2,4.2c-0.1-1,0.3-2-0.4-2.8
					c-2.8-2.8-0.6-7.1-0.1-7.9l0,0c0.1-0.1,0.1-0.2,0.1-0.2c5.4,0.3,5.8,3.7,5.8,3.7S15.4,9.5,15.4,9.5z"/>
				<path class="st30" d="M42,28.9c-1.8-2.6-2.2-5.9-1.3-9c0.3-1.1,0.5-2.1,0.5-3c0.1-1.7-0.3-3.2-1-4.3c-1-1.7-2.6-2.7-4.3-3.2
					c-4.8-1.2-10.6,2.2-7.7,10c0.1,0.3,0.2,0.6,0.2,0.9c0.5,3.7-5.3,4.3-4.6,0c0-0.3,0.1-0.6,0.2-0.9c2.4-7.5-3.7-10.9-8.6-9.9
					c-1.6,0.4-3.1,1.2-4.1,2.7c-0.8,1.1-1.2,2.5-1.2,4.3c0,1,0.2,2.2,0.6,3.4c0.9,3.1,1.7,6.4-0.1,9c-3.7,5.5-7.2,14.8-0.8,19.8
					c2.1,1.6,3.6,2.3,6.1,1.5c0.5-0.2,1-0.4,1.4-0.6c1.9-1.2,3.6-4.4,2.6-9.3c-0.4-2-1.2-4.5-2.6-7.4c-0.1-0.3-0.3-0.6-0.4-0.9
					c-1.1-2.3,1.6-1.1,3.2-0.8c-0.9-0.9-1.8-2-2.5-3.5c0,0,0-0.1,0.1-0.1c2.2,1.7,8.1,1.4,8.1,1.4s7.2,0.2,9.7-1.3
					c0.1-0.1,0.2,0,0.2,0.1c-0.8,1.7-1.8,2.9-2.9,3.8c0.2,0,0.3,0,0.4,0c1.5-0.5,4-1,3,1.2c-0.1,0.2-0.2,0.4-0.3,0.6
					c-1.8,3.9-2.7,7-2.9,9.3c-0.3,2.7,0.3,4.5,1.3,5.6c0.7,0.9,1.7,1.4,2.7,1.7c2.5,0.8,5.2,0.1,7.3-1.5
					C50.4,43.7,45.7,34.4,42,28.9L42,28.9z M19.1,18.8c-1.4,0-2.5-1.1-2.5-2.5s1.1-2.5,2.5-2.5s2.5,1.1,2.5,2.5S20.5,18.8,19.1,18.8
					z M32.5,18.8c-1.4,0-2.5-1.1-2.5-2.5s1.1-2.5,2.5-2.5s2.5,1.1,2.5,2.5S33.9,18.8,32.5,18.8z"/>
			</g>
			<path class="st31" d="M46.1,4.4c-0.9,0.7-1.6,1.6-2.2,2.4c-5.1-1-7.8,2.2-8,2.5c-4.8-1.2-10.5,2.1-7.7,10c1.9,5.5-6.1,5.8-4.2,0
				c2.5-7.5-3.7-10.9-8.6-9.9l0-0.2c0,0-0.4-3.4-5.8-3.7c0,0,0,0.1-0.1,0.1C9.2,4.3,8,2.9,4.9,2.9C8,0.7,12.7,0.9,17.1,3
				c1,0.5,2.2,0.6,3.3,0.3c2.1-0.6,5.2-0.8,5.2-0.8s3.1,0.2,5.2,0.8C32,3.6,33.2,3.5,34.2,3C37.8,1.5,43.1,1.4,46.1,4.4L46.1,4.4z"
				/>
			<path class="st28" d="M11.4,12.2c-1.2,1.9-1.9,3.8-2.4,6C8.2,16,9.3,13.2,11.4,12.2C11.4,12.2,11.4,12.2,11.4,12.2z"/>
			<path class="st28" d="M43.9,7C41,6.9,38.2,8,36,9.7l-0.1-0.6c0.8,0.3,1.6,0.6,2.2,1.2c-0.9-0.3-2-0.5-3-0.7
				C37.2,7.3,40.8,5.7,43.9,7L43.9,7L43.9,7z"/>
			<path class="st28" d="M15,23.3c0.6-0.1,1.1-0.1,1.7-0.2l0.1,0c5.9,3.6,13.2,2.9,19.3,0l1.2,0.1l-1.2,0.1
				c-5.3,4.1-14.1,4.8-19.5,0l0.1,0C16.1,23.4,15.6,23.4,15,23.3L15,23.3L15,23.3z"/>
			<ellipse class="st28" cx="26.1" cy="21.6" rx="2.1" ry="1.5"/>
			<path d="M35.5,27.8c-0.8,1.7-1.8,2.9-2.9,3.8c-3,2.4-6.4,2.4-6.5,2.4c0,0-3.2-0.2-6.1-2.9c-0.9-0.9-1.8-2-2.5-3.5
				c0,0,0-0.1,0.1-0.1c2.2,1.7,15.3,1.6,17.8,0.1C35.4,27.6,35.6,27.7,35.5,27.8z"/>
			<g id="r">
				<path class="st32" d="M7.6,28.1c2.4-1.3,6.1-0.6,7.2,2.1C12.4,28.8,10.2,28.5,7.6,28.1C7.5,28.1,7.5,28.1,7.6,28.1z"/>
				<path class="st32" d="M9.6,5.8c2.5-0.9,6.1,0.8,5.9,3.8C14.3,7.1,12.1,6.3,9.6,5.8C9.6,5.8,9.6,5.8,9.6,5.8z"/>
				<path class="st32" d="M41.3,16.7c2.6-2.7,4-6.1,2.6-9.8C46.7,10,45,15,41.3,16.7L41.3,16.7z"/>
				<g>
					<path class="st8" d="M35.4,34c0,0-2.7,3.9-2.7,9.9"/>
					<path class="st32" d="M35.4,34c-1.1,3.2-1.9,6.6-2.7,9.9C31.8,40.5,32.8,36.5,35.4,34L35.4,34z"/>
				</g>
				<g>
					<path class="st32" d="M23.1,43.6c-1.5-0.6-1.9-2.6-1.2-3.9C22.3,41.2,22.5,42.2,23.1,43.6L23.1,43.6z"/>
					<path class="st32" d="M24.4,43.6c0.3-1.5,0.5-2.5,0.6-4C25.9,40.8,25.6,42.7,24.4,43.6L24.4,43.6z"/>
					<path class="st32" d="M28.3,46.8c-1.4-0.7-1.6-2.8-0.8-4C27.7,44.3,27.8,45.4,28.3,46.8L28.3,46.8z"/>
					<path class="st32" d="M29.5,47c0.4-1.4,0.7-2.5,1-4C31.3,44.3,30.8,46.2,29.5,47L29.5,47z"/>
					<path class="st32" d="M25.9,61.5c-1.4-0.7-1.6-2.8-0.8-4C25.3,59,25.4,60.1,25.9,61.5L25.9,61.5z"/>
					<path class="st32" d="M27.1,61.6c0.4-1.4,0.7-2.5,1-4C28.9,59,28.4,60.9,27.1,61.6L27.1,61.6z"/>
					<path class="st32" d="M26.5,69.6c-1.4-0.7-1.6-2.8-0.8-4C25.9,67.1,26,68.2,26.5,69.6L26.5,69.6z"/>
					<path class="st32" d="M27.7,69.7c0.4-1.4,0.7-2.5,1-4C29.5,67,29,68.9,27.7,69.7L27.7,69.7z"/>
					<path class="st32" d="M20.7,63.1c-1.5-0.4-2.3-2.3-1.8-3.7C19.6,60.8,19.9,61.8,20.7,63.1L20.7,63.1z"/>
					<path class="st32" d="M22,62.9c0.1-1.5,0.1-2.6,0-4.1C23,59.9,23,61.9,22,62.9C22,62.9,22,62.9,22,62.9z"/>
					<path class="st32" d="M32.2,62.9c-1.3-0.9-1.2-3-0.2-4.1C32,60.3,31.9,61.4,32.2,62.9L32.2,62.9z"/>
					<path class="st32" d="M33.4,63.2c0.6-1.4,1.1-2.3,1.6-3.8C35.6,60.8,34.8,62.6,33.4,63.2L33.4,63.2z"/>
					<path class="st32" d="M27.4,37.7c-1.5-0.5-2.1-2.5-1.4-3.8C26.5,35.3,26.7,36.3,27.4,37.7L27.4,37.7z"/>
					<path class="st32" d="M28.7,37.6c0.2-1.5,0.3-2.6,0.4-4.1C30,34.7,29.8,36.6,28.7,37.6L28.7,37.6z"/>
					<path class="st32" d="M22.9,53.2c-1.5-0.5-2.1-2.5-1.4-3.8C22,50.8,22.2,51.9,22.9,53.2L22.9,53.2z"/>
					<path class="st32" d="M24.2,53.1c0.2-1.5,0.3-2.6,0.4-4.1C25.5,50.2,25.3,52.2,24.2,53.1L24.2,53.1z"/>
					<path class="st32" d="M28.9,54.2c-1.3-0.9-1.3-3-0.3-4.1C28.7,51.7,28.6,52.8,28.9,54.2L28.9,54.2z"/>
					<path class="st32" d="M30.2,54.5c0.6-1.4,1-2.4,1.5-3.8C32.3,52.1,31.5,53.9,30.2,54.5L30.2,54.5z"/>
				</g>
				<path class="st32" d="M39,68.1c-2.7,2.3-5.8,3.5-7.6,6.6C31,70.8,35.5,68.3,39,68.1L39,68.1z"/>
				<path class="st32" d="M6.9,70.5c0.6,4.4,0.5,8.6,1.8,12.9C5.5,80.1,5.4,74.6,6.9,70.5L6.9,70.5z"/>
			</g>
			<g>
				<defs>
					<circle id="SVGID_00000119084823514570706370000005401789578585598399_" cx="19.4" cy="15.9" r="3.3"/>
				</defs>
				<clipPath id="SVGID_00000149351683557745250690000008204611851375621799_">
					<use xlink:href="#SVGID_00000119084823514570706370000005401789578585598399_"  style="overflow:visible;"/>
				</clipPath>
				<g style="clip-path:url(#SVGID_00000149351683557745250690000008204611851375621799_);">
					<g>
						<circle cx="19.3" cy="16" r="3.3"/>
						<path class="st32" d="M19.1,12.6c1.6-0.8,3.5,0.7,3.9,2.3c0.5,1.7-0.5,3.6-2.1,4c0.5-0.6,0.8-1.2,1-1.9
							C22.4,15.2,21.2,13,19.1,12.6L19.1,12.6L19.1,12.6z"/>
						<path class="st28" d="M19.5,12.6c-2,1.1-3.1,3-1.8,5c0.4,0.6,0.9,1.1,1.6,1.7C14.4,19.2,14.5,12,19.5,12.6L19.5,12.6
							L19.5,12.6z"/>
					</g>
				</g>
			</g>
			<g>
				<defs>
					<circle id="SVGID_00000026882179279900250820000004410035012315109018_" cx="31.9" cy="15.9" r="3.3"/>
				</defs>
				<clipPath id="SVGID_00000076603515730191743480000005746291736421859750_">
					<use xlink:href="#SVGID_00000026882179279900250820000004410035012315109018_"  style="overflow:visible;"/>
				</clipPath>
				<g style="clip-path:url(#SVGID_00000076603515730191743480000005746291736421859750_);">
					<g>
						<circle cx="32" cy="15.9" r="3.3"/>
						<path class="st32" d="M32.2,19.3c-1.6,0.8-3.5-0.7-3.9-2.3c-0.5-1.6,0.5-3.6,2.1-4c-0.5,0.6-0.8,1.2-1,1.9
							C28.9,16.7,30.1,18.9,32.2,19.3L32.2,19.3L32.2,19.3z"/>
						<path class="st28" d="M31.8,19.3c2-1.1,3.1-3,1.8-5c-0.4-0.6-0.9-1.1-1.6-1.7C36.9,12.7,36.8,19.9,31.8,19.3L31.8,19.3
							L31.8,19.3z"/>
					</g>
				</g>
			</g>
		</g>
	</g>
</g>
<g>
	<defs>
		<rect id="SVGID_00000015350531064067611450000014502083449594501810_" x="-23.5" y="30.2" width="98.4" height="25.1"/>
	</defs>
	<clipPath id="SVGID_00000043446531099205400200000007784406486423633282_">
		<use xlink:href="#SVGID_00000015350531064067611450000014502083449594501810_"  style="overflow:visible;"/>
	</clipPath>
	<g style="clip-path:url(#SVGID_00000043446531099205400200000007784406486423633282_);">
		<g>
			<path class="st36" d="M41.9,64c0,0-4.8-3.3-1.8-9.9c-4.2-1.4-5.7-3.6-6.1-5.6L30.3,52l6-46.4l9.8-1.2c2.9,2.8,3.7,8.4-0.7,17.9
				c-1.4,3.1-1,6.6,1,9.3c2.8,3.8,5.3,10.2,0.1,18.5c-1.9,3-2,6.9-0.4,10.1c3.5,6.9,5.1,17.7-0.7,21.9L41.9,64L41.9,64z"/>
			<path class="st36" d="M19.2,66.5l1.5-2.6l-10.1-2c0.9-1.9,1.9-5.5-0.1-9.7c4.4,0.1,6.3-1.3,6.9-3l9.8,4.2L26.1,9.2
				c0,0-10.2-3.3-20.6-6.6c-4,2.5-5.6,8.6-0.5,19.7c1.4,3.1,1,6.6-1,9.3c-2.8,3.8-5.3,10.2-0.1,18.5c1.9,3,2,6.9,0.4,10.1
				c-4,7.9-5.1,21.1,4.6,23.2L19.2,66.5L19.2,66.5z"/>
			<path class="st37" d="M28.4,81.3l12.5-5.8l1-11.5c-1-0.8-4-4.9-1.8-9.9C34,51.8,34,48.4,34,48.4s3.3-0.5,4.2-0.5
				s-1.3-21.8-1.3-21.8H16.4l-3,12l4.1,10.9l-1.4-1.3c0.5,1-0.9,5.1-5.5,4.6c1.6,7-1.9,16-1.9,16l15.3,12.6c0.6-0.2,1.1-0.5,1.7-0.8
				C26.6,80.6,27.5,80.9,28.4,81.3"/>
			<g id="v">
				<path class="st38" d="M45.4,82.1c-2.6,1.9-6.8,2.4-12.9,0.6c-1.3-0.4-2.6-0.8-4.1-1.4C27.6,77.6,27.2,68,42,64
					C46.7,68.2,49.2,75.2,45.4,82.1z"/>
				<path class="st38" d="M23.9,80.9c-1.8,0.8-3.5,1.4-5.1,1.8c-4.2,1.2-7.5,1.4-10.1,0.8c-2.8-6-2.9-15.9,1.6-21.2
					C23.4,65.7,24.2,76.5,23.9,80.9L23.9,80.9z"/>
				<path class="st38" d="M41.2,16.9c0.1-1.7-0.3-3.2-1-4.3c-1-1.7-2.6-2.7-4.3-3.2c0.2-0.3,3-3.5,8-2.5
					C47.2,12.7,41.9,15.9,41.2,16.9L41.2,16.9z"/>
				<path class="st38" d="M15.4,9.5c-1.6,0.4-3.1,1.2-4.1,2.7c-0.8,1.1-1.2,2.5-1.2,4.2c-0.1-1,0.3-2-0.4-2.8
					c-2.8-2.8-0.6-7.1-0.1-7.9l0,0c0.1-0.1,0.1-0.2,0.1-0.2c5.4,0.3,5.8,3.7,5.8,3.7S15.4,9.5,15.4,9.5z"/>
				<path class="st38" d="M42,28.9c-1.8-2.6-2.2-5.9-1.3-9c0.3-1.1,0.5-2.1,0.5-3c0.1-1.7-0.3-3.2-1-4.3c-1-1.7-2.6-2.7-4.3-3.2
					c-4.8-1.2-10.6,2.2-7.7,10c0.1,0.3,0.2,0.6,0.2,0.9c0.5,3.7-5.3,4.3-4.6,0c0-0.3,0.1-0.6,0.2-0.9c2.4-7.5-3.7-10.9-8.6-9.9
					c-1.6,0.4-3.1,1.2-4.1,2.7c-0.8,1.1-1.2,2.5-1.2,4.3c0,1,0.2,2.2,0.6,3.4c0.9,3.1,1.7,6.4-0.1,9c-3.7,5.5-7.2,14.8-0.8,19.8
					c2.1,1.6,3.6,2.3,6.1,1.5c0.5-0.2,1-0.4,1.4-0.6c1.9-1.2,3.6-4.4,2.6-9.3c-0.4-2-1.2-4.5-2.6-7.4c-0.1-0.3-0.3-0.6-0.4-0.9
					c-1.1-2.3,1.6-1.1,3.2-0.8c-0.9-0.9-1.8-2-2.5-3.5c0,0,0-0.1,0.1-0.1c2.2,1.7,8.1,1.4,8.1,1.4s7.2,0.2,9.7-1.3
					c0.1-0.1,0.2,0,0.2,0.1c-0.8,1.7-1.8,2.9-2.9,3.8c0.2,0,0.3,0,0.4,0c1.5-0.5,4-1,3,1.2c-0.1,0.2-0.2,0.4-0.3,0.6
					c-1.8,3.9-2.7,7-2.9,9.3c-0.3,2.7,0.3,4.5,1.3,5.6c0.7,0.9,1.7,1.4,2.7,1.7c2.5,0.8,5.2,0.1,7.3-1.5
					C50.4,43.7,45.7,34.4,42,28.9L42,28.9z M19.1,18.8c-1.4,0-2.5-1.1-2.5-2.5s1.1-2.5,2.5-2.5s2.5,1.1,2.5,2.5S20.5,18.8,19.1,18.8
					z M32.5,18.8c-1.4,0-2.5-1.1-2.5-2.5s1.1-2.5,2.5-2.5s2.5,1.1,2.5,2.5S33.9,18.8,32.5,18.8z"/>
			</g>
			<path class="st39" d="M46.1,4.4c-0.9,0.7-1.6,1.6-2.2,2.4c-5.1-1-7.8,2.2-8,2.5c-4.8-1.2-10.5,2.1-7.7,10c1.9,5.5-6.1,5.8-4.2,0
				c2.5-7.5-3.7-10.9-8.6-9.9l0-0.2c0,0-0.4-3.4-5.8-3.7c0,0,0,0.1-0.1,0.1C9.2,4.3,8,2.9,4.9,2.9C8,0.7,12.7,0.9,17.1,3
				c1,0.5,2.2,0.6,3.3,0.3c2.1-0.6,5.2-0.8,5.2-0.8s3.1,0.2,5.2,0.8C32,3.6,33.2,3.5,34.2,3C37.8,1.5,43.1,1.4,46.1,4.4L46.1,4.4z"
				/>
			<path class="st36" d="M11.4,12.2c-1.2,1.9-1.9,3.8-2.4,6C8.2,16,9.3,13.2,11.4,12.2C11.4,12.2,11.4,12.2,11.4,12.2z"/>
			<path class="st36" d="M43.9,7C41,6.9,38.2,8,36,9.7l-0.1-0.6c0.8,0.3,1.6,0.6,2.2,1.2c-0.9-0.3-2-0.5-3-0.7
				C37.2,7.3,40.8,5.7,43.9,7L43.9,7L43.9,7z"/>
			<path class="st36" d="M15,23.3c0.6-0.1,1.1-0.1,1.7-0.2l0.1,0c5.9,3.6,13.2,2.9,19.3,0l1.2,0.1l-1.2,0.1
				c-5.3,4.1-14.1,4.8-19.5,0l0.1,0C16.1,23.4,15.6,23.4,15,23.3L15,23.3L15,23.3z"/>
			<ellipse class="st40" cx="26.1" cy="21.6" rx="2.1" ry="1.5"/>
			<path class="st40" d="M35.5,27.8c-0.8,1.7-1.8,2.9-2.9,3.8c-3,2.4-6.4,2.4-6.5,2.4c0,0-3.2-0.2-6.1-2.9c-0.9-0.9-1.8-2-2.5-3.5
				c0,0,0-0.1,0.1-0.1c2.2,1.7,15.3,1.6,17.8,0.1C35.4,27.6,35.6,27.7,35.5,27.8z"/>
			<g id="w">
				<path class="st41" d="M7.6,28.1c2.4-1.3,6.1-0.6,7.2,2.1C12.4,28.8,10.2,28.5,7.6,28.1C7.5,28.1,7.5,28.1,7.6,28.1z"/>
				<path class="st41" d="M9.6,5.8c2.5-0.9,6.1,0.8,5.9,3.8C14.3,7.1,12.1,6.3,9.6,5.8C9.6,5.8,9.6,5.8,9.6,5.8z"/>
				<path class="st41" d="M41.3,16.7c2.6-2.7,4-6.1,2.6-9.8C46.7,10,45,15,41.3,16.7L41.3,16.7z"/>
				<g>
					<path class="st8" d="M35.4,34c0,0-2.7,3.9-2.7,9.9"/>
					<path class="st41" d="M35.4,34c-1.1,3.2-1.9,6.6-2.7,9.9C31.8,40.5,32.8,36.5,35.4,34L35.4,34z"/>
				</g>
				<g>
					<path class="st41" d="M23.1,43.6c-1.5-0.6-1.9-2.6-1.2-3.9C22.3,41.2,22.5,42.2,23.1,43.6L23.1,43.6z"/>
					<path class="st41" d="M24.4,43.6c0.3-1.5,0.5-2.5,0.6-4C25.9,40.8,25.6,42.7,24.4,43.6L24.4,43.6z"/>
					<path class="st41" d="M28.3,46.8c-1.4-0.7-1.6-2.8-0.8-4C27.7,44.3,27.8,45.4,28.3,46.8L28.3,46.8z"/>
					<path class="st41" d="M29.5,47c0.4-1.4,0.7-2.5,1-4C31.3,44.3,30.8,46.2,29.5,47L29.5,47z"/>
					<path class="st41" d="M25.9,61.5c-1.4-0.7-1.6-2.8-0.8-4C25.3,59,25.4,60.1,25.9,61.5L25.9,61.5z"/>
					<path class="st41" d="M27.1,61.6c0.4-1.4,0.7-2.5,1-4C28.9,59,28.4,60.9,27.1,61.6L27.1,61.6z"/>
					<path class="st41" d="M26.5,69.6c-1.4-0.7-1.6-2.8-0.8-4C25.9,67.1,26,68.2,26.5,69.6L26.5,69.6z"/>
					<path class="st41" d="M27.7,69.7c0.4-1.4,0.7-2.5,1-4C29.5,67,29,68.9,27.7,69.7L27.7,69.7z"/>
					<path class="st41" d="M20.7,63.1c-1.5-0.4-2.3-2.3-1.8-3.7C19.6,60.8,19.9,61.8,20.7,63.1L20.7,63.1z"/>
					<path class="st41" d="M22,62.9c0.1-1.5,0.1-2.6,0-4.1C23,59.9,23,61.9,22,62.9C22,62.9,22,62.9,22,62.9z"/>
					<path class="st41" d="M32.2,62.9c-1.3-0.9-1.2-3-0.2-4.1C32,60.3,31.9,61.4,32.2,62.9L32.2,62.9z"/>
					<path class="st41" d="M33.4,63.2c0.6-1.4,1.1-2.3,1.6-3.8C35.6,60.8,34.8,62.6,33.4,63.2L33.4,63.2z"/>
					<path class="st41" d="M27.4,37.7c-1.5-0.5-2.1-2.5-1.4-3.8C26.5,35.3,26.7,36.3,27.4,37.7L27.4,37.7z"/>
					<path class="st41" d="M28.7,37.6c0.2-1.5,0.3-2.6,0.4-4.1C30,34.7,29.8,36.6,28.7,37.6L28.7,37.6z"/>
					<path class="st41" d="M22.9,53.2c-1.5-0.5-2.1-2.5-1.4-3.8C22,50.8,22.2,51.9,22.9,53.2L22.9,53.2z"/>
					<path class="st41" d="M24.2,53.1c0.2-1.5,0.3-2.6,0.4-4.1C25.5,50.2,25.3,52.2,24.2,53.1L24.2,53.1z"/>
					<path class="st41" d="M28.9,54.2c-1.3-0.9-1.3-3-0.3-4.1C28.7,51.7,28.6,52.8,28.9,54.2L28.9,54.2z"/>
					<path class="st41" d="M30.2,54.5c0.6-1.4,1-2.4,1.5-3.8C32.3,52.1,31.5,53.9,30.2,54.5L30.2,54.5z"/>
				</g>
				<path class="st41" d="M39,68.1c-2.7,2.3-5.8,3.5-7.6,6.6C31,70.8,35.5,68.3,39,68.1L39,68.1z"/>
				<path class="st41" d="M6.9,70.5c0.6,4.4,0.5,8.6,1.8,12.9C5.5,80.1,5.4,74.6,6.9,70.5L6.9,70.5z"/>
			</g>
			<g>
				<defs>
					<circle id="SVGID_00000014627017669205596290000007405275287340943520_" cx="19.4" cy="15.9" r="3.3"/>
				</defs>
				<clipPath id="SVGID_00000041976107091497820510000009445505689182228113_">
					<use xlink:href="#SVGID_00000014627017669205596290000007405275287340943520_"  style="overflow:visible;"/>
				</clipPath>
				<g style="clip-path:url(#SVGID_00000041976107091497820510000009445505689182228113_);">
					<g>
						<circle class="st39" cx="19.3" cy="16" r="3.3"/>
						<path class="st41" d="M19.1,12.6c1.6-0.8,3.5,0.7,3.9,2.3c0.5,1.7-0.5,3.6-2.1,4c0.5-0.6,0.8-1.2,1-1.9
							C22.4,15.2,21.2,13,19.1,12.6L19.1,12.6L19.1,12.6z"/>
						<path class="st36" d="M19.5,12.6c-2,1.1-3.1,3-1.8,5c0.4,0.6,0.9,1.1,1.6,1.7C14.4,19.2,14.5,12,19.5,12.6L19.5,12.6
							L19.5,12.6z"/>
						<text transform="matrix(1 0 0 1 -0.73 27.48)" class="st43 st44">ff</text>
						<text transform="matrix(1 0 0 1 -0.73 27.48)" class="st45 st43 st44">ff</text>
						<text transform="matrix(1 0 0 1 0.64 27.48)" class="st43 st44">f</text>
						<text transform="matrix(1 0 0 1 0.64 27.48)" class="st45 st43 st44">f</text>
						<text transform="matrix(1 0 0 1 1.3 27.48)" class="st43 st44">c</text>
						<text transform="matrix(1 0 0 1 1.3 27.48)" class="st45 st43 st44">c</text>
						<text transform="matrix(1 0 0 1 2.36 27.48)" class="st43 st44">f8</text>
						<text transform="matrix(1 0 0 1 2.36 27.48)" class="st45 st43 st44">f8</text>
					</g>
				</g>
			</g>
			<g>
				<defs>
					<circle id="SVGID_00000061444206012523608190000016207003296873668741_" cx="31.9" cy="15.9" r="3.3"/>
				</defs>
				<clipPath id="SVGID_00000003804947870180767080000009931546808170122638_">
					<use xlink:href="#SVGID_00000061444206012523608190000016207003296873668741_"  style="overflow:visible;"/>
				</clipPath>
				<g style="clip-path:url(#SVGID_00000003804947870180767080000009931546808170122638_);">
					<g>
						<circle class="st39" cx="32" cy="15.9" r="3.3"/>
						<path class="st41" d="M32.2,19.3c-1.6,0.8-3.5-0.7-3.9-2.3c-0.5-1.6,0.5-3.6,2.1-4c-0.5,0.6-0.8,1.2-1,1.9
							C28.9,16.7,30.1,18.9,32.2,19.3L32.2,19.3L32.2,19.3z"/>
						<path class="st36" d="M31.8,19.3c2-1.1,3.1-3,1.8-5c-0.4-0.6-0.9-1.1-1.6-1.7C36.9,12.7,36.8,19.9,31.8,19.3L31.8,19.3
							L31.8,19.3z"/>
					</g>
				</g>
			</g>
		</g>
	</g>
</g>
</svg>
