<?xml version="1.0" encoding="UTF-8"?><svg id="a" xmlns="http://www.w3.org/2000/svg" xmlns:xlink="http://www.w3.org/1999/xlink" viewBox="0 0 50 85"><defs><style>.a`{fill:#38a933;}.aa{fill:#36ad35;}.ab{fill:#79b823;}.ac{fill:#b2100b;}.ad{fill:#76b727;}.ae{fill:#fef6a3;}.af{fill:#e5deb2;}.ag{fill:#117b23;}.ah{fill:#a71009;}.ai{fill:#ffee02;}.aj{clip-path:url(#x);}.ak{fill:#fed404;}.al{fill:#801100;}.am{clip-path:url(#n);}.an{fill:#fdd501;}.ao{font-family:MyriadPro-Regular, Myriad Pro;font-size:2.39px;stroke:#fffcf8;stroke-miterlimit:10;stroke-width:.2px;}.ap{fill:#e9a47d;}.aq{fill:#f9bd05;}.ar{clip-path:url(#u);}.as{fill:#c00c0d;}.at{clip-path:url(#o);}.au{fill:#d10a11;}.av{fill:#bfd87c;}.aw{fill:#fecd04;}.ax{clip-path:url(#t);}.ay{fill:#ece6c2;}.b`{clip-path:url(#e);}.ba{letter-spacing:0em;}.bb{clip-path:url(#d);}.bc{fill:#ff8a72;}.bd{fill:#e20514;}.be{fill:none;}.bf{clip-path:url(#p);}.bg{fill:#ede7c3;}.bh{fill:#00842d;}.bi{fill:#149737;}.bj{clip-path:url(#f);}.bk{clip-path:url(#j);}.bl{fill:#c7080f;}.bm{clip-path:url(#y);}.bn{fill:#ded5ae;}.bo{fill:#fefbda;}.bp{clip-path:url(#s);}.bq{letter-spacing:-.01em;}.br{fill:#fffcf8;}.bs{fill:#9e1006;}.bt{clip-path:url(#i);}.bu{clip-path:url(#k);}.bv{fill:#c4d97e;}</style><clipPath id="d"><circle class="be" cx="19.13" cy="15.8" r="3.34"/></clipPath><clipPath id="e"><circle class="be" cx="31.87" cy="15.8" r="3.34"/></clipPath><clipPath id="f"><rect class="be" x="25.39" y="-14.53" width="49.79" height="44.81"/></clipPath><clipPath id="i"><circle class="be" cx="19.13" cy="15.8" r="3.34"/></clipPath><clipPath id="j"><circle class="be" cx="31.87" cy="15.8" r="3.34"/></clipPath><clipPath id="k"><rect class="be" x="-24.4" y="-14.53" width="49.79" height="44.81"/></clipPath><clipPath id="n"><circle class="be" cx="19.13" cy="15.8" r="3.34"/></clipPath><clipPath id="o"><circle class="be" cx="31.87" cy="15.8" r="3.34"/></clipPath><clipPath id="p"><rect class="be" x="-24.4" y="55.77" width="49.79" height="41.23"/></clipPath><clipPath id="s"><circle class="be" cx="19.13" cy="15.8" r="3.34"/></clipPath><clipPath id="t"><circle class="be" cx="31.87" cy="15.8" r="3.34"/></clipPath><clipPath id="u"><rect class="be" x="-24.4" y="30.28" width="99.78" height="25.49"/></clipPath><clipPath id="x"><circle class="be" cx="19.13" cy="15.8" r="3.34"/></clipPath><clipPath id="y"><circle class="be" cx="31.87" cy="15.8" r="3.34"/></clipPath></defs><g><path class="bh" d="M42.03,64.49s-4.85-3.34-1.82-10.01c-4.22-1.41-5.8-3.62-6.22-5.71l-3.8,3.59L36.26,5.34l9.99-1.2c2.9,2.87,3.79,8.48-.7,18.13-1.44,3.1-.99,6.73,1.05,9.47,2.86,3.86,5.4,10.37,.12,18.77-1.94,3.09-2.07,6.98-.44,10.24,3.51,7,5.2,17.98-.73,22.19l-3.51-18.45Z"/><path class="bh" d="M18.92,67.1l1.58-2.6-10.23-1.98c.92-1.97,1.88-5.53-.08-9.85,4.44,.12,6.36-1.3,7.04-3.07l9.94,4.29-1.21-44.9S15.59,5.65,5.02,2.3C.99,4.8-.68,11.05,4.54,22.27c1.44,3.1,.99,6.73-1.05,9.47-2.86,3.86-5.4,10.37-.12,18.77,1.94,3.09,2.07,6.98,.44,10.24-4.03,8.04-5.19,21.36,4.67,23.58l10.44-17.24Z"/><path class="aa" d="M28.26,82.08l12.71-5.91,1.06-11.68c-1.06-.76-4.1-5.01-1.82-10.01-6.22-2.28-6.22-5.71-6.22-5.71,0,0,3.33-.51,4.24-.51s-1.31-22.14-1.31-22.14H16.07l-3.01,12.13,4.18,11.02-1.45-1.32c.52,1.02-.91,5.16-5.61,4.7,1.67,7.13-1.97,16.23-1.97,16.23l15.53,12.78c.57-.24,1.16-.49,1.76-.77,.96,.43,1.87,.83,2.76,1.18"/><g id="b"><path class="ab" d="M45.54,82.94c-2.66,1.89-6.87,2.41-13.13,.58-1.3-.38-2.68-.86-4.16-1.44-.79-3.76-1.23-13.48,13.77-17.59,4.84,4.33,7.33,11.44,3.51,18.45Z"/><path class="ab" d="M23.74,81.67c-1.85,.77-3.57,1.39-5.16,1.85-4.27,1.24-7.62,1.4-10.21,.79-2.85-6.12-2.95-16.18,1.59-21.5,13.22,3.46,14.03,14.39,13.78,18.86Z"/><path class="ad" d="M41.29,16.72c.08-1.77-.3-3.23-.98-4.4-.99-1.7-2.62-2.77-4.41-3.21,.25-.3,2.99-3.56,8.13-2.51,3.31,5.87-2.03,9.12-2.74,10.13Z"/><path class="ad" d="M15.13,9.29c-1.67,.37-3.19,1.27-4.2,2.72-.78,1.11-1.25,2.55-1.24,4.31-.12-.97,.34-2.02-.42-2.78-2.88-2.88-.59-7.19-.09-8.04h0c.05-.1,.09-.15,.09-.15,5.46,.3,5.85,3.8,5.85,3.8l.02,.16Z"/><path class="ab" d="M42.08,28.92c-1.81-2.68-2.24-6.03-1.33-9.13,.33-1.11,.5-2.13,.54-3.07,.08-1.77-.3-3.23-.98-4.4-.99-1.7-2.62-2.77-4.41-3.21-4.85-1.21-10.8,2.24-7.82,10.18,.12,.33,.2,.63,.24,.92,.53,3.78-5.4,4.39-4.71-.02,.05-.28,.12-.59,.22-.91,2.4-7.61-3.76-11.11-8.7-10-1.67,.37-3.19,1.27-4.2,2.72-.78,1.11-1.25,2.55-1.24,4.31,0,1.04,.18,2.2,.56,3.47,.92,3.1,1.69,6.45-.12,9.13-3.77,5.58-7.31,15.03-.82,20.12,2.1,1.64,3.63,2.31,6.17,1.5,.49-.15,.97-.36,1.43-.65,1.9-1.17,3.63-4.5,2.65-9.45-.41-2.04-1.23-4.51-2.6-7.51-.13-.3-.28-.6-.42-.91-1.1-2.31,1.62-1.12,3.26-.82-.93-.89-1.83-2.05-2.57-3.55-.02-.04,.03-.08,.07-.06,2.25,1.69,8.19,1.43,8.19,1.43,0,0,7.32,.24,9.84-1.32,.09-.06,.21,.04,.16,.14-.77,1.7-1.82,2.95-2.94,3.85,.17,.02,.31,.02,.41-.02,1.49-.47,4.08-1.03,2.99,1.25-.1,.22-.2,.43-.3,.64-1.85,4-2.74,7.08-2.97,9.47-.27,2.74,.32,4.54,1.3,5.72,.76,.92,1.74,1.45,2.73,1.77,2.54,.8,5.29,.14,7.39-1.5,6.49-5.09,1.74-14.53-2.03-20.12Zm-23.25-10.23c-1.42,0-2.58-1.16-2.58-2.58s1.16-2.58,2.58-2.58,2.58,1.16,2.58,2.58-1.16,2.58-2.58,2.58Zm13.65,0c-1.42,0-2.58-1.16-2.58-2.58s1.16-2.58,2.58-2.58,2.58,1.16,2.58,2.58-1.16,2.58-2.58,2.58Z"/></g><path class="a`" d="M46.25,4.14c-.89,.72-1.64,1.63-2.22,2.45-5.13-1.04-7.88,2.21-8.13,2.51-4.85-1.21-10.64,2.18-7.82,10.18,1.97,5.61-6.22,5.92-4.25,0,2.52-7.57-3.76-11.11-8.7-10l-.02-.16s-.39-3.49-5.85-3.8c0,0-.03,.05-.09,.15-.38-1.49-1.57-2.9-4.74-2.93,3.11-2.24,7.96-1.98,12.36,.12,1.05,.5,2.25,.56,3.38,.27,2.15-.56,5.32-.76,5.32-.76,0,0,3.17,.19,5.32,.76,1.13,.29,2.31,.19,3.38-.27,3.6-1.55,8.96-1.59,12.05,1.47Z"/><path class="bh" d="M11.09,12.01c-1.26,1.96-1.94,3.84-2.43,6.07-.86-2.2,.25-5.09,2.43-6.07h0Z"/><path class="bh" d="M44,6.7c-2.94-.06-5.75,1-8.06,2.79l-.13-.56c.78,.33,1.61,.65,2.24,1.25-.89-.33-2.07-.51-3-.74,2.14-2.46,5.77-4,8.94-2.74h0Z"/><path class="ag" d="M14.73,23.23c.58-.07,1.15-.13,1.73-.19l.07,.05c5.96,3.66,13.42,2.96,19.54,.03l1.26,.11-1.26,.11c-5.35,4.17-14.33,4.87-19.77,.03l.12,.04c-.56-.05-1.12-.11-1.68-.18h0Z"/><ellipse class="ag" cx="25.95" cy="21.57" rx="2.09" ry="1.52"/><path class="bi" d="M35.5,27.86c-.77,1.7-1.82,2.95-2.94,3.85-3.01,2.43-6.53,2.45-6.61,2.45,0,0-3.24-.17-6.14-2.94-.93-.89-1.83-2.05-2.57-3.55-.02-.04,.03-.08,.07-.06,2.25,1.69,15.51,1.67,18.03,.12,.09-.06,.21,.04,.16,.14Z"/><g id="c"><path class="bv" d="M7.14,28.09c2.4-1.29,6.23-.62,7.28,2.12-2.31-1.42-4.61-1.62-7.28-2.12h0Z"/><path class="bv" d="M9.18,5.48c2.56-.92,6.2,.79,5.95,3.81-1.1-2.47-3.41-3.28-5.95-3.81h0Z"/><path class="bv" d="M41.43,16.53c2.67-2.7,4.04-6.24,2.6-9.94,2.79,3.17,1.1,8.27-2.6,9.94h0Z"/><g><path class="av" d="M35.4,34.16s-2.77,3.94-2.77,10.01"/><path class="bv" d="M35.4,34.16c-1.1,3.27-1.92,6.67-2.77,10.01-.84-3.47,.18-7.52,2.77-10.01h0Z"/></g><g><path class="bv" d="M22.92,43.86c-1.47-.59-1.93-2.62-1.21-3.94,.4,1.47,.56,2.56,1.21,3.94h0Z"/><path class="bv" d="M24.19,43.86c.3-1.49,.48-2.57,.62-4.1,.95,1.21,.62,3.2-.62,4.1h0Z"/><path class="bv" d="M28.18,47.15c-1.4-.73-1.67-2.8-.82-4.04,.26,1.5,.31,2.6,.82,4.04h0Z"/><path class="bv" d="M29.44,47.27c.44-1.46,.73-2.51,1.02-4.01,.82,1.3,.3,3.25-1.02,4.01h0Z"/><path class="bv" d="M25.75,62.01c-1.4-.73-1.67-2.8-.82-4.04,.26,1.5,.31,2.6,.82,4.04h0Z"/><path class="bv" d="M27.02,62.14c.44-1.46,.73-2.51,1.02-4.01,.82,1.3,.3,3.25-1.02,4.01h0Z"/><path class="bv" d="M26.36,70.2c-1.4-.73-1.67-2.8-.82-4.04,.26,1.5,.31,2.6,.82,4.04h0Z"/><path class="bv" d="M27.62,70.33c.44-1.46,.73-2.51,1.02-4.01,.82,1.3,.3,3.25-1.02,4.01h0Z"/><path class="bv" d="M20.51,63.63c-1.54-.36-2.31-2.29-1.8-3.71,.62,1.39,.95,2.44,1.8,3.71h0Z"/><path class="bv" d="M21.76,63.43c.07-1.52,.08-2.62-.02-4.14,1.12,1.05,1.11,3.07,.02,4.14h0Z"/><path class="bv" d="M32.14,63.41c-1.28-.93-1.24-3.01-.22-4.12,.03,1.52-.07,2.62,.22,4.12h0Z"/><path class="bv" d="M33.37,63.72c.65-1.38,1.09-2.38,1.59-3.82,.62,1.4-.17,3.26-1.59,3.82h0Z"/><path class="bv" d="M27.29,37.82c-1.5-.51-2.08-2.5-1.44-3.87,.49,1.44,.71,2.52,1.44,3.87h0Z"/><path class="bv" d="M28.55,37.74c.21-1.51,.33-2.6,.38-4.12,1.02,1.15,.81,3.16-.38,4.12h0Z"/><path class="bv" d="M22.74,53.59c-1.5-.51-2.08-2.5-1.44-3.87,.49,1.44,.71,2.52,1.44,3.87h0Z"/><path class="bv" d="M24,53.52c.21-1.51,.33-2.6,.38-4.12,1.02,1.15,.81,3.16-.38,4.12h0Z"/><path class="bv" d="M28.84,54.63c-1.29-.91-1.29-2.99-.29-4.12,.06,1.52-.03,2.62,.29,4.12h0Z"/><path class="bv" d="M30.07,54.92c.63-1.39,1.05-2.4,1.53-3.85,.65,1.39-.12,3.26-1.53,3.85h0Z"/></g><path class="bv" d="M39,68.74c-2.75,2.3-5.91,3.51-7.68,6.68-.4-3.94,4.22-6.53,7.68-6.68h0Z"/><path class="bv" d="M6.54,71.17c.63,4.49,.48,8.72,1.82,13.04-3.29-3.32-3.34-8.87-1.82-13.04h0Z"/></g><g class="bb"><g><circle class="bi" cx="19.1" cy="15.82" r="3.4"/><path class="av" d="M18.9,12.42c1.62-.77,3.51,.73,3.91,2.35,.51,1.67-.53,3.62-2.18,4.09,.46-.66,.83-1.27,1.01-1.9,.52-1.95-.67-4.12-2.74-4.54h0Z"/><path class="bh" d="M19.3,12.42c-2.04,1.08-3.18,3.04-1.86,5.1,.37,.61,.9,1.17,1.58,1.73-4.91-.12-4.85-7.43,.28-6.84h0Z"/></g></g><g class="b`"><g><circle class="bi" cx="31.89" cy="15.79" r="3.4"/><path class="av" d="M32.09,19.19c-1.62,.77-3.51-.73-3.91-2.35-.51-1.67,.53-3.62,2.18-4.09-.46,.66-.83,1.27-1.01,1.9-.52,1.95,.67,4.12,2.74,4.54h0Z"/><path class="bh" d="M31.69,19.19c2.04-1.08,3.18-3.04,1.86-5.1-.37-.61-.9-1.17-1.58-1.73,4.91,.12,4.85,7.43-.28,6.84h0Z"/></g></g></g><g class="bj"><g><path class="al" d="M42.03,64.49s-4.85-3.34-1.82-10.01c-4.22-1.41-5.8-3.62-6.22-5.71l-3.8,3.59L36.26,5.34l9.99-1.2c2.9,2.87,3.79,8.48-.7,18.13-1.44,3.1-.99,6.73,1.05,9.47,2.86,3.86,5.4,10.37,.12,18.77-1.94,3.09-2.07,6.98-.44,10.24,3.51,7,5.2,17.98-.73,22.19l-3.51-18.45Z"/><path class="al" d="M18.92,67.1l1.58-2.6-10.23-1.98c.92-1.97,1.88-5.53-.08-9.85,4.44,.12,6.36-1.3,7.04-3.07l9.94,4.29-1.21-44.9S15.59,5.65,5.02,2.3C.99,4.8-.68,11.05,4.54,22.27c1.44,3.1,.99,6.73-1.05,9.47-2.86,3.86-5.4,10.37-.12,18.77,1.94,3.09,2.07,6.98,.44,10.24-4.03,8.04-5.19,21.36,4.67,23.58l10.44-17.24Z"/><path class="ah" d="M28.26,82.08l12.71-5.91,1.06-11.68c-1.06-.76-4.1-5.01-1.82-10.01-6.22-2.28-6.22-5.71-6.22-5.71,0,0,3.33-.51,4.24-.51s-1.31-22.14-1.31-22.14H16.07l-3.01,12.13,4.18,11.02-1.45-1.32c.52,1.02-.91,5.16-5.61,4.7,1.67,7.13-1.97,16.23-1.97,16.23l15.53,12.78c.57-.24,1.16-.49,1.76-.77,.96,.43,1.87,.83,2.76,1.18"/><g id="g"><path class="as" d="M45.54,82.94c-2.66,1.89-6.87,2.41-13.13,.58-1.3-.38-2.68-.86-4.16-1.44-.79-3.76-1.23-13.48,13.77-17.59,4.84,4.33,7.33,11.44,3.51,18.45Z"/><path class="as" d="M23.74,81.67c-1.85,.77-3.57,1.39-5.16,1.85-4.27,1.24-7.62,1.4-10.21,.79-2.85-6.12-2.95-16.18,1.59-21.5,13.22,3.46,14.03,14.39,13.78,18.86Z"/><path class="as" d="M41.29,16.72c.08-1.77-.3-3.23-.98-4.4-.99-1.7-2.62-2.77-4.41-3.21,.25-.3,2.99-3.56,8.13-2.51,3.31,5.87-2.03,9.12-2.74,10.13Z"/><path class="as" d="M15.13,9.29c-1.67,.37-3.19,1.27-4.2,2.72-.78,1.11-1.25,2.55-1.24,4.31-.12-.97,.34-2.02-.42-2.78-2.88-2.88-.59-7.19-.09-8.04h0c.05-.1,.09-.15,.09-.15,5.46,.3,5.85,3.8,5.85,3.8l.02,.16Z"/><path class="as" d="M42.08,28.92c-1.81-2.68-2.24-6.03-1.33-9.13,.33-1.11,.5-2.13,.54-3.07,.08-1.77-.3-3.23-.98-4.4-.99-1.7-2.62-2.77-4.41-3.21-4.85-1.21-10.8,2.24-7.82,10.18,.12,.33,.2,.63,.24,.92,.53,3.78-5.4,4.39-4.71-.02,.05-.28,.12-.59,.22-.91,2.4-7.61-3.76-11.11-8.7-10-1.67,.37-3.19,1.27-4.2,2.72-.78,1.11-1.25,2.55-1.24,4.31,0,1.04,.18,2.2,.56,3.47,.92,3.1,1.69,6.45-.12,9.13-3.77,5.58-7.31,15.03-.82,20.12,2.1,1.64,3.63,2.31,6.17,1.5,.49-.15,.97-.36,1.43-.65,1.9-1.17,3.63-4.5,2.65-9.45-.41-2.04-1.23-4.51-2.6-7.51-.13-.3-.28-.6-.42-.91-1.1-2.31,1.62-1.12,3.26-.82-.93-.89-1.83-2.05-2.57-3.55-.02-.04,.03-.08,.07-.06,2.25,1.69,8.19,1.43,8.19,1.43,0,0,7.32,.24,9.84-1.32,.09-.06,.21,.04,.16,.14-.77,1.7-1.82,2.95-2.94,3.85,.17,.02,.31,.02,.41-.02,1.49-.47,4.08-1.03,2.99,1.25-.1,.22-.2,.43-.3,.64-1.85,4-2.74,7.08-2.97,9.47-.27,2.74,.32,4.54,1.3,5.72,.76,.92,1.74,1.45,2.73,1.77,2.54,.8,5.29,.14,7.39-1.5,6.49-5.09,1.74-14.53-2.03-20.12Zm-23.25-10.23c-1.42,0-2.58-1.16-2.58-2.58s1.16-2.58,2.58-2.58,2.58,1.16,2.58,2.58-1.16,2.58-2.58,2.58Zm13.65,0c-1.42,0-2.58-1.16-2.58-2.58s1.16-2.58,2.58-2.58,2.58,1.16,2.58,2.58-1.16,2.58-2.58,2.58Z"/></g><path class="bs" d="M46.25,4.14c-.89,.72-1.64,1.63-2.22,2.45-5.13-1.04-7.88,2.21-8.13,2.51-4.85-1.21-10.64,2.18-7.82,10.18,1.97,5.61-6.22,5.92-4.25,0,2.52-7.57-3.76-11.11-8.7-10l-.02-.16s-.39-3.49-5.85-3.8c0,0-.03,.05-.09,.15-.38-1.49-1.57-2.9-4.74-2.93,3.11-2.24,7.96-1.98,12.36,.12,1.05,.5,2.25,.56,3.38,.27,2.15-.56,5.32-.76,5.32-.76,0,0,3.17,.19,5.32,.76,1.13,.29,2.31,.19,3.38-.27,3.6-1.55,8.96-1.59,12.05,1.47Z"/><path class="al" d="M11.09,12.01c-1.26,1.96-1.94,3.84-2.43,6.07-.86-2.2,.25-5.09,2.43-6.07h0Z"/><path class="al" d="M44,6.7c-2.94-.06-5.75,1-8.06,2.79l-.13-.56c.78,.33,1.61,.65,2.24,1.25-.89-.33-2.07-.51-3-.74,2.14-2.46,5.77-4,8.94-2.74h0Z"/><path class="al" d="M14.73,23.23c.58-.07,1.15-.13,1.73-.19l.07,.05c5.96,3.66,13.42,2.96,19.54,.03l1.26,.11-1.26,.11c-5.35,4.17-14.33,4.87-19.77,.03l.12,.04c-.56-.05-1.12-.11-1.68-.18h0Z"/><ellipse class="al" cx="25.95" cy="21.57" rx="2.09" ry="1.52"/><path class="bs" d="M35.5,27.86c-.77,1.7-1.82,2.95-2.94,3.85-3.01,2.43-6.53,2.45-6.61,2.45,0,0-3.24-.17-6.14-2.94-.93-.89-1.83-2.05-2.57-3.55-.02-.04,.03-.08,.07-.06,2.25,1.69,15.51,1.67,18.03,.12,.09-.06,.21,.04,.16,.14Z"/><g id="h"><path class="bc" d="M7.14,28.09c2.4-1.29,6.23-.62,7.28,2.12-2.31-1.42-4.61-1.62-7.28-2.12h0Z"/><path class="bc" d="M9.18,5.48c2.56-.92,6.2,.79,5.95,3.81-1.1-2.47-3.41-3.28-5.95-3.81h0Z"/><path class="bc" d="M41.43,16.53c2.67-2.7,4.04-6.24,2.6-9.94,2.79,3.17,1.1,8.27-2.6,9.94h0Z"/><g><path class="av" d="M35.4,34.16s-2.77,3.94-2.77,10.01"/><path class="bc" d="M35.4,34.16c-1.1,3.27-1.92,6.67-2.77,10.01-.84-3.47,.18-7.52,2.77-10.01h0Z"/></g><g><path class="bc" d="M22.92,43.86c-1.47-.59-1.93-2.62-1.21-3.94,.4,1.47,.56,2.56,1.21,3.94h0Z"/><path class="bc" d="M24.19,43.86c.3-1.49,.48-2.57,.62-4.1,.95,1.21,.62,3.2-.62,4.1h0Z"/><path class="bc" d="M28.18,47.15c-1.4-.73-1.67-2.8-.82-4.04,.26,1.5,.31,2.6,.82,4.04h0Z"/><path class="bc" d="M29.44,47.27c.44-1.46,.73-2.51,1.02-4.01,.82,1.3,.3,3.25-1.02,4.01h0Z"/><path class="bc" d="M25.75,62.01c-1.4-.73-1.67-2.8-.82-4.04,.26,1.5,.31,2.6,.82,4.04h0Z"/><path class="bc" d="M27.02,62.14c.44-1.46,.73-2.51,1.02-4.01,.82,1.3,.3,3.25-1.02,4.01h0Z"/><path class="bc" d="M26.36,70.2c-1.4-.73-1.67-2.8-.82-4.04,.26,1.5,.31,2.6,.82,4.04h0Z"/><path class="bc" d="M27.62,70.33c.44-1.46,.73-2.51,1.02-4.01,.82,1.3,.3,3.25-1.02,4.01h0Z"/><path class="bc" d="M20.51,63.63c-1.54-.36-2.31-2.29-1.8-3.71,.62,1.39,.95,2.44,1.8,3.71h0Z"/><path class="bc" d="M21.76,63.43c.07-1.52,.08-2.62-.02-4.14,1.12,1.05,1.11,3.07,.02,4.14h0Z"/><path class="bc" d="M32.14,63.41c-1.28-.93-1.24-3.01-.22-4.12,.03,1.52-.07,2.62,.22,4.12h0Z"/><path class="bc" d="M33.37,63.72c.65-1.38,1.09-2.38,1.59-3.82,.62,1.4-.17,3.26-1.59,3.82h0Z"/><path class="bc" d="M27.29,37.82c-1.5-.51-2.08-2.5-1.44-3.87,.49,1.44,.71,2.52,1.44,3.87h0Z"/><path class="bc" d="M28.55,37.74c.21-1.51,.33-2.6,.38-4.12,1.02,1.15,.81,3.16-.38,4.12h0Z"/><path class="bc" d="M22.74,53.59c-1.5-.51-2.08-2.5-1.44-3.87,.49,1.44,.71,2.52,1.44,3.87h0Z"/><path class="bc" d="M24,53.52c.21-1.51,.33-2.6,.38-4.12,1.02,1.15,.81,3.16-.38,4.12h0Z"/><path class="bc" d="M28.84,54.63c-1.29-.91-1.29-2.99-.29-4.12,.06,1.52-.03,2.62,.29,4.12h0Z"/><path class="bc" d="M30.07,54.92c.63-1.39,1.05-2.4,1.53-3.85,.65,1.39-.12,3.26-1.53,3.85h0Z"/></g><path class="bc" d="M39,68.74c-2.75,2.3-5.91,3.51-7.68,6.68-.4-3.94,4.22-6.53,7.68-6.68h0Z"/><path class="bc" d="M6.54,71.17c.63,4.49,.48,8.72,1.82,13.04-3.29-3.32-3.34-8.87-1.82-13.04h0Z"/></g><g class="bt"><g><circle class="bs" cx="19.1" cy="15.82" r="3.4"/><path class="bc" d="M18.9,12.42c1.62-.77,3.51,.73,3.91,2.35,.51,1.67-.53,3.62-2.18,4.09,.46-.66,.83-1.27,1.01-1.9,.52-1.95-.67-4.12-2.74-4.54h0Z"/><path class="al" d="M19.3,12.42c-2.04,1.08-3.18,3.04-1.86,5.1,.37,.61,.9,1.17,1.58,1.73-4.91-.12-4.85-7.43,.28-6.84h0Z"/></g></g><g class="bk"><g><circle class="bs" cx="31.89" cy="15.79" r="3.4"/><path class="bc" d="M32.09,19.19c-1.62,.77-3.51-.73-3.91-2.35-.51-1.67,.53-3.62,2.18-4.09-.46,.66-.83,1.27-1.01,1.9-.52,1.95,.67,4.12,2.74,4.54h0Z"/><path class="al" d="M31.69,19.19c2.04-1.08,3.18-3.04,1.86-5.1-.37-.61-.9-1.17-1.58-1.73,4.91,.12,4.85,7.43-.28,6.84h0Z"/></g></g></g></g><g class="bu"><g><path class="aq" d="M42.03,64.49s-4.85-3.34-1.82-10.01c-4.22-1.41-5.8-3.62-6.22-5.71l-3.8,3.59L36.26,5.34l9.99-1.2c2.9,2.87,3.79,8.48-.7,18.13-1.44,3.1-.99,6.73,1.05,9.47,2.86,3.86,5.4,10.37,.12,18.77-1.94,3.09-2.07,6.98-.44,10.24,3.51,7,5.2,17.98-.73,22.19l-3.51-18.45Z"/><path class="aq" d="M18.92,67.1l1.58-2.6-10.23-1.98c.92-1.97,1.88-5.53-.08-9.85,4.44,.12,6.36-1.3,7.04-3.07l9.94,4.29-1.21-44.9S15.59,5.65,5.02,2.3C.99,4.8-.68,11.05,4.54,22.27c1.44,3.1,.99,6.73-1.05,9.47-2.86,3.86-5.4,10.37-.12,18.77,1.94,3.09,2.07,6.98,.44,10.24-4.03,8.04-5.19,21.36,4.67,23.58l10.44-17.24Z"/><path class="ak" d="M28.26,82.08l12.71-5.91,1.06-11.68c-1.06-.76-4.1-5.01-1.82-10.01-6.22-2.28-6.22-5.71-6.22-5.71,0,0,3.33-.51,4.24-.51s-1.31-22.14-1.31-22.14H16.07l-3.01,12.13,4.18,11.02-1.45-1.32c.52,1.02-.91,5.16-5.61,4.7,1.67,7.13-1.97,16.23-1.97,16.23l15.53,12.78c.57-.24,1.16-.49,1.76-.77,.96,.43,1.87,.83,2.76,1.18"/><g id="l"><path class="ai" d="M45.54,82.94c-2.66,1.89-6.87,2.41-13.13,.58-1.3-.38-2.68-.86-4.16-1.44-.79-3.76-1.23-13.48,13.77-17.59,4.84,4.33,7.33,11.44,3.51,18.45Z"/><path class="ai" d="M23.74,81.67c-1.85,.77-3.57,1.39-5.16,1.85-4.27,1.24-7.62,1.4-10.21,.79-2.85-6.12-2.95-16.18,1.59-21.5,13.22,3.46,14.03,14.39,13.78,18.86Z"/><path class="ai" d="M41.29,16.72c.08-1.77-.3-3.23-.98-4.4-.99-1.7-2.62-2.77-4.41-3.21,.25-.3,2.99-3.56,8.13-2.51,3.31,5.87-2.03,9.12-2.74,10.13Z"/><path class="ai" d="M15.13,9.29c-1.67,.37-3.19,1.27-4.2,2.72-.78,1.11-1.25,2.55-1.24,4.31-.12-.97,.34-2.02-.42-2.78-2.88-2.88-.59-7.19-.09-8.04h0c.05-.1,.09-.15,.09-.15,5.46,.3,5.85,3.8,5.85,3.8l.02,.16Z"/><path class="ai" d="M42.08,28.92c-1.81-2.68-2.24-6.03-1.33-9.13,.33-1.11,.5-2.13,.54-3.07,.08-1.77-.3-3.23-.98-4.4-.99-1.7-2.62-2.77-4.41-3.21-4.85-1.21-10.8,2.24-7.82,10.18,.12,.33,.2,.63,.24,.92,.53,3.78-5.4,4.39-4.71-.02,.05-.28,.12-.59,.22-.91,2.4-7.61-3.76-11.11-8.7-10-1.67,.37-3.19,1.27-4.2,2.72-.78,1.11-1.25,2.55-1.24,4.31,0,1.04,.18,2.2,.56,3.47,.92,3.1,1.69,6.45-.12,9.13-3.77,5.58-7.31,15.03-.82,20.12,2.1,1.64,3.63,2.31,6.17,1.5,.49-.15,.97-.36,1.43-.65,1.9-1.17,3.63-4.5,2.65-9.45-.41-2.04-1.23-4.51-2.6-7.51-.13-.3-.28-.6-.42-.91-1.1-2.31,1.62-1.12,3.26-.82-.93-.89-1.83-2.05-2.57-3.55-.02-.04,.03-.08,.07-.06,2.25,1.69,8.19,1.43,8.19,1.43,0,0,7.32,.24,9.84-1.32,.09-.06,.21,.04,.16,.14-.77,1.7-1.82,2.95-2.94,3.85,.17,.02,.31,.02,.41-.02,1.49-.47,4.08-1.03,2.99,1.25-.1,.22-.2,.43-.3,.64-1.85,4-2.74,7.08-2.97,9.47-.27,2.74,.32,4.54,1.3,5.72,.76,.92,1.74,1.45,2.73,1.77,2.54,.8,5.29,.14,7.39-1.5,6.49-5.09,1.74-14.53-2.03-20.12Zm-23.25-10.23c-1.42,0-2.58-1.16-2.58-2.58s1.16-2.58,2.58-2.58,2.58,1.16,2.58,2.58-1.16,2.58-2.58,2.58Zm13.65,0c-1.42,0-2.58-1.16-2.58-2.58s1.16-2.58,2.58-2.58,2.58,1.16,2.58,2.58-1.16,2.58-2.58,2.58Z"/></g><path class="an" d="M46.25,4.14c-.89,.72-1.64,1.63-2.22,2.45-5.13-1.04-7.88,2.21-8.13,2.51-4.85-1.21-10.64,2.18-7.82,10.18,1.97,5.61-6.22,5.92-4.25,0,2.52-7.57-3.76-11.11-8.7-10l-.02-.16s-.39-3.49-5.85-3.8c0,0-.03,.05-.09,.15-.38-1.49-1.57-2.9-4.74-2.93,3.11-2.24,7.96-1.98,12.36,.12,1.05,.5,2.25,.56,3.38,.27,2.15-.56,5.32-.76,5.32-.76,0,0,3.17,.19,5.32,.76,1.13,.29,2.31,.19,3.38-.27,3.6-1.55,8.96-1.59,12.05,1.47Z"/><path class="aq" d="M11.09,12.01c-1.26,1.96-1.94,3.84-2.43,6.07-.86-2.2,.25-5.09,2.43-6.07h0Z"/><path class="aq" d="M44,6.7c-2.94-.06-5.75,1-8.06,2.79l-.13-.56c.78,.33,1.61,.65,2.24,1.25-.89-.33-2.07-.51-3-.74,2.14-2.46,5.77-4,8.94-2.74h0Z"/><path class="aq" d="M14.73,23.23c.58-.07,1.15-.13,1.73-.19l.07,.05c5.96,3.66,13.42,2.96,19.54,.03l1.26,.11-1.26,.11c-5.35,4.17-14.33,4.87-19.77,.03l.12,.04c-.56-.05-1.12-.11-1.68-.18h0Z"/><ellipse class="aq" cx="25.95" cy="21.57" rx="2.09" ry="1.52"/><path class="aw" d="M35.5,27.86c-.77,1.7-1.82,2.95-2.94,3.85-3.01,2.43-6.53,2.45-6.61,2.45,0,0-3.24-.17-6.14-2.94-.93-.89-1.83-2.05-2.57-3.55-.02-.04,.03-.08,.07-.06,2.25,1.69,15.51,1.67,18.03,.12,.09-.06,.21,.04,.16,.14Z"/><g id="m"><path class="ae" d="M7.14,28.09c2.4-1.29,6.23-.62,7.28,2.12-2.31-1.42-4.61-1.62-7.28-2.12h0Z"/><path class="ae" d="M9.18,5.48c2.56-.92,6.2,.79,5.95,3.81-1.1-2.47-3.41-3.28-5.95-3.81h0Z"/><path class="ae" d="M41.43,16.53c2.67-2.7,4.04-6.24,2.6-9.94,2.79,3.17,1.1,8.27-2.6,9.94h0Z"/><g><path class="av" d="M35.4,34.16s-2.77,3.94-2.77,10.01"/><path class="ae" d="M35.4,34.16c-1.1,3.27-1.92,6.67-2.77,10.01-.84-3.47,.18-7.52,2.77-10.01h0Z"/></g><g><path class="ae" d="M22.92,43.86c-1.47-.59-1.93-2.62-1.21-3.94,.4,1.47,.56,2.56,1.21,3.94h0Z"/><path class="ae" d="M24.19,43.86c.3-1.49,.48-2.57,.62-4.1,.95,1.21,.62,3.2-.62,4.1h0Z"/><path class="ae" d="M28.18,47.15c-1.4-.73-1.67-2.8-.82-4.04,.26,1.5,.31,2.6,.82,4.04h0Z"/><path class="ae" d="M29.44,47.27c.44-1.46,.73-2.51,1.02-4.01,.82,1.3,.3,3.25-1.02,4.01h0Z"/><path class="ae" d="M25.75,62.01c-1.4-.73-1.67-2.8-.82-4.04,.26,1.5,.31,2.6,.82,4.04h0Z"/><path class="ae" d="M27.02,62.14c.44-1.46,.73-2.51,1.02-4.01,.82,1.3,.3,3.25-1.02,4.01h0Z"/><path class="ae" d="M26.36,70.2c-1.4-.73-1.67-2.8-.82-4.04,.26,1.5,.31,2.6,.82,4.04h0Z"/><path class="ae" d="M27.62,70.33c.44-1.46,.73-2.51,1.02-4.01,.82,1.3,.3,3.25-1.02,4.01h0Z"/><path class="ae" d="M20.51,63.63c-1.54-.36-2.31-2.29-1.8-3.71,.62,1.39,.95,2.44,1.8,3.71h0Z"/><path class="ae" d="M21.76,63.43c.07-1.52,.08-2.62-.02-4.14,1.12,1.05,1.11,3.07,.02,4.14h0Z"/><path class="ae" d="M32.14,63.41c-1.28-.93-1.24-3.01-.22-4.12,.03,1.52-.07,2.62,.22,4.12h0Z"/><path class="ae" d="M33.37,63.72c.65-1.38,1.09-2.38,1.59-3.82,.62,1.4-.17,3.26-1.59,3.82h0Z"/><path class="ae" d="M27.29,37.82c-1.5-.51-2.08-2.5-1.44-3.87,.49,1.44,.71,2.52,1.44,3.87h0Z"/><path class="ae" d="M28.55,37.74c.21-1.51,.33-2.6,.38-4.12,1.02,1.15,.81,3.16-.38,4.12h0Z"/><path class="ae" d="M22.74,53.59c-1.5-.51-2.08-2.5-1.44-3.87,.49,1.44,.71,2.52,1.44,3.87h0Z"/><path class="ae" d="M24,53.52c.21-1.51,.33-2.6,.38-4.12,1.02,1.15,.81,3.16-.38,4.12h0Z"/><path class="ae" d="M28.84,54.63c-1.29-.91-1.29-2.99-.29-4.12,.06,1.52-.03,2.62,.29,4.12h0Z"/><path class="ae" d="M30.07,54.92c.63-1.39,1.05-2.4,1.53-3.85,.65,1.39-.12,3.26-1.53,3.85h0Z"/></g><path class="ae" d="M39,68.74c-2.75,2.3-5.91,3.51-7.68,6.68-.4-3.94,4.22-6.53,7.68-6.68h0Z"/><path class="ae" d="M6.54,71.17c.63,4.49,.48,8.72,1.82,13.04-3.29-3.32-3.34-8.87-1.82-13.04h0Z"/></g><g class="am"><g><circle class="aw" cx="19.1" cy="15.82" r="3.4"/><path class="ae" d="M18.9,12.42c1.62-.77,3.51,.73,3.91,2.35,.51,1.67-.53,3.62-2.18,4.09,.46-.66,.83-1.27,1.01-1.9,.52-1.95-.67-4.12-2.74-4.54h0Z"/><path class="aq" d="M19.3,12.42c-2.04,1.08-3.18,3.04-1.86,5.1,.37,.61,.9,1.17,1.58,1.73-4.91-.12-4.85-7.43,.28-6.84h0Z"/></g></g><g class="at"><g><circle class="aw" cx="31.89" cy="15.79" r="3.4"/><path class="ae" d="M32.09,19.19c-1.62,.77-3.51-.73-3.91-2.35-.51-1.67,.53-3.62,2.18-4.09-.46,.66-.83,1.27-1.01,1.9-.52,1.95,.67,4.12,2.74,4.54h0Z"/><path class="aq" d="M31.69,19.19c2.04-1.08,3.18-3.04,1.86-5.1-.37-.61-.9-1.17-1.58-1.73,4.91,.12,4.85,7.43-.28,6.84h0Z"/></g></g></g></g><g class="bf"><g><path class="ac" d="M42.03,64.49s-4.85-3.34-1.82-10.01c-4.22-1.41-5.8-3.62-6.22-5.71l-3.8,3.59L36.26,5.34l9.99-1.2c2.9,2.87,3.79,8.48-.7,18.13-1.44,3.1-.99,6.73,1.05,9.47,2.86,3.86,5.4,10.37,.12,18.77-1.94,3.09-2.07,6.98-.44,10.24,3.51,7,5.2,17.98-.73,22.19l-3.51-18.45Z"/><path class="ac" d="M18.92,67.1l1.58-2.6-10.23-1.98c.92-1.97,1.88-5.53-.08-9.85,4.44,.12,6.36-1.3,7.04-3.07l9.94,4.29-1.21-44.9S15.59,5.65,5.02,2.3C.99,4.8-.68,11.05,4.54,22.27c1.44,3.1,.99,6.73-1.05,9.47-2.86,3.86-5.4,10.37-.12,18.77,1.94,3.09,2.07,6.98,.44,10.24-4.03,8.04-5.19,21.36,4.67,23.58l10.44-17.24Z"/><path class="au" d="M28.26,82.08l12.71-5.91,1.06-11.68c-1.06-.76-4.1-5.01-1.82-10.01-6.22-2.28-6.22-5.71-6.22-5.71,0,0,3.33-.51,4.24-.51s-1.31-22.14-1.31-22.14H16.07l-3.01,12.13,4.18,11.02-1.45-1.32c.52,1.02-.91,5.16-5.61,4.7,1.67,7.13-1.97,16.23-1.97,16.23l15.53,12.78c.57-.24,1.16-.49,1.76-.77,.96,.43,1.87,.83,2.76,1.18"/><g id="q"><path class="bd" d="M45.54,82.94c-2.66,1.89-6.87,2.41-13.13,.58-1.3-.38-2.68-.86-4.16-1.44-.79-3.76-1.23-13.48,13.77-17.59,4.84,4.33,7.33,11.44,3.51,18.45Z"/><path class="bd" d="M23.74,81.67c-1.85,.77-3.57,1.39-5.16,1.85-4.27,1.24-7.62,1.4-10.21,.79-2.85-6.12-2.95-16.18,1.59-21.5,13.22,3.46,14.03,14.39,13.78,18.86Z"/><path class="bd" d="M41.29,16.72c.08-1.77-.3-3.23-.98-4.4-.99-1.7-2.62-2.77-4.41-3.21,.25-.3,2.99-3.56,8.13-2.51,3.31,5.87-2.03,9.12-2.74,10.13Z"/><path class="bd" d="M15.13,9.29c-1.67,.37-3.19,1.27-4.2,2.72-.78,1.11-1.25,2.55-1.24,4.31-.12-.97,.34-2.02-.42-2.78-2.88-2.88-.59-7.19-.09-8.04h0c.05-.1,.09-.15,.09-.15,5.46,.3,5.85,3.8,5.85,3.8l.02,.16Z"/><path class="bd" d="M42.08,28.92c-1.81-2.68-2.24-6.03-1.33-9.13,.33-1.11,.5-2.13,.54-3.07,.08-1.77-.3-3.23-.98-4.4-.99-1.7-2.62-2.77-4.41-3.21-4.85-1.21-10.8,2.24-7.82,10.18,.12,.33,.2,.63,.24,.92,.53,3.78-5.4,4.39-4.71-.02,.05-.28,.12-.59,.22-.91,2.4-7.61-3.76-11.11-8.7-10-1.67,.37-3.19,1.27-4.2,2.72-.78,1.11-1.25,2.55-1.24,4.31,0,1.04,.18,2.2,.56,3.47,.92,3.1,1.69,6.45-.12,9.13-3.77,5.58-7.31,15.03-.82,20.12,2.1,1.64,3.63,2.31,6.17,1.5,.49-.15,.97-.36,1.43-.65,1.9-1.17,3.63-4.5,2.65-9.45-.41-2.04-1.23-4.51-2.6-7.51-.13-.3-.28-.6-.42-.91-1.1-2.31,1.62-1.12,3.26-.82-.93-.89-1.83-2.05-2.57-3.55-.02-.04,.03-.08,.07-.06,2.25,1.69,8.19,1.43,8.19,1.43,0,0,7.32,.24,9.84-1.32,.09-.06,.21,.04,.16,.14-.77,1.7-1.82,2.95-2.94,3.85,.17,.02,.31,.02,.41-.02,1.49-.47,4.08-1.03,2.99,1.25-.1,.22-.2,.43-.3,.64-1.85,4-2.74,7.08-2.97,9.47-.27,2.74,.32,4.54,1.3,5.72,.76,.92,1.74,1.45,2.73,1.77,2.54,.8,5.29,.14,7.39-1.5,6.49-5.09,1.74-14.53-2.03-20.12Zm-23.25-10.23c-1.42,0-2.58-1.16-2.58-2.58s1.16-2.58,2.58-2.58,2.58,1.16,2.58,2.58-1.16,2.58-2.58,2.58Zm13.65,0c-1.42,0-2.58-1.16-2.58-2.58s1.16-2.58,2.58-2.58,2.58,1.16,2.58,2.58-1.16,2.58-2.58,2.58Z"/></g><path class="bl" d="M46.25,4.14c-.89,.72-1.64,1.63-2.22,2.45-5.13-1.04-7.88,2.21-8.13,2.51-4.85-1.21-10.64,2.18-7.82,10.18,1.97,5.61-6.22,5.92-4.25,0,2.52-7.57-3.76-11.11-8.7-10l-.02-.16s-.39-3.49-5.85-3.8c0,0-.03,.05-.09,.15-.38-1.49-1.57-2.9-4.74-2.93,3.11-2.24,7.96-1.98,12.36,.12,1.05,.5,2.25,.56,3.38,.27,2.15-.56,5.32-.76,5.32-.76,0,0,3.17,.19,5.32,.76,1.13,.29,2.31,.19,3.38-.27,3.6-1.55,8.96-1.59,12.05,1.47Z"/><path class="ac" d="M11.09,12.01c-1.26,1.96-1.94,3.84-2.43,6.07-.86-2.2,.25-5.09,2.43-6.07h0Z"/><path class="ac" d="M44,6.7c-2.94-.06-5.75,1-8.06,2.79l-.13-.56c.78,.33,1.61,.65,2.24,1.25-.89-.33-2.07-.51-3-.74,2.14-2.46,5.77-4,8.94-2.74h0Z"/><path class="ac" d="M14.73,23.23c.58-.07,1.15-.13,1.73-.19l.07,.05c5.96,3.66,13.42,2.96,19.54,.03l1.26,.11-1.26,.11c-5.35,4.17-14.33,4.87-19.77,.03l.12,.04c-.56-.05-1.12-.11-1.68-.18h0Z"/><ellipse class="ac" cx="25.95" cy="21.57" rx="2.09" ry="1.52"/><path class="bl" d="M35.5,27.86c-.77,1.7-1.82,2.95-2.94,3.85-3.01,2.43-6.53,2.45-6.61,2.45,0,0-3.24-.17-6.14-2.94-.93-.89-1.83-2.05-2.57-3.55-.02-.04,.03-.08,.07-.06,2.25,1.69,15.51,1.67,18.03,.12,.09-.06,.21,.04,.16,.14Z"/><g id="r"><path class="ap" d="M7.14,28.09c2.4-1.29,6.23-.62,7.28,2.12-2.31-1.42-4.61-1.62-7.28-2.12h0Z"/><path class="ap" d="M9.18,5.48c2.56-.92,6.2,.79,5.95,3.81-1.1-2.47-3.41-3.28-5.95-3.81h0Z"/><path class="ap" d="M41.43,16.53c2.67-2.7,4.04-6.24,2.6-9.94,2.79,3.17,1.1,8.27-2.6,9.94h0Z"/><g><path class="av" d="M35.4,34.16s-2.77,3.94-2.77,10.01"/><path class="ap" d="M35.4,34.16c-1.1,3.27-1.92,6.67-2.77,10.01-.84-3.47,.18-7.52,2.77-10.01h0Z"/></g><g><path class="ap" d="M22.92,43.86c-1.47-.59-1.93-2.62-1.21-3.94,.4,1.47,.56,2.56,1.21,3.94h0Z"/><path class="ap" d="M24.19,43.86c.3-1.49,.48-2.57,.62-4.1,.95,1.21,.62,3.2-.62,4.1h0Z"/><path class="ap" d="M28.18,47.15c-1.4-.73-1.67-2.8-.82-4.04,.26,1.5,.31,2.6,.82,4.04h0Z"/><path class="ap" d="M29.44,47.27c.44-1.46,.73-2.51,1.02-4.01,.82,1.3,.3,3.25-1.02,4.01h0Z"/><path class="ap" d="M25.75,62.01c-1.4-.73-1.67-2.8-.82-4.04,.26,1.5,.31,2.6,.82,4.04h0Z"/><path class="ap" d="M27.02,62.14c.44-1.46,.73-2.51,1.02-4.01,.82,1.3,.3,3.25-1.02,4.01h0Z"/><path class="ap" d="M26.36,70.2c-1.4-.73-1.67-2.8-.82-4.04,.26,1.5,.31,2.6,.82,4.04h0Z"/><path class="ap" d="M27.62,70.33c.44-1.46,.73-2.51,1.02-4.01,.82,1.3,.3,3.25-1.02,4.01h0Z"/><path class="ap" d="M20.51,63.63c-1.54-.36-2.31-2.29-1.8-3.71,.62,1.39,.95,2.44,1.8,3.71h0Z"/><path class="ap" d="M21.76,63.43c.07-1.52,.08-2.62-.02-4.14,1.12,1.05,1.11,3.07,.02,4.14h0Z"/><path class="ap" d="M32.14,63.41c-1.28-.93-1.24-3.01-.22-4.12,.03,1.52-.07,2.62,.22,4.12h0Z"/><path class="ap" d="M33.37,63.72c.65-1.38,1.09-2.38,1.59-3.82,.62,1.4-.17,3.26-1.59,3.82h0Z"/><path class="ap" d="M27.29,37.82c-1.5-.51-2.08-2.5-1.44-3.87,.49,1.44,.71,2.52,1.44,3.87h0Z"/><path class="ap" d="M28.55,37.74c.21-1.51,.33-2.6,.38-4.12,1.02,1.15,.81,3.16-.38,4.12h0Z"/><path class="ap" d="M22.74,53.59c-1.5-.51-2.08-2.5-1.44-3.87,.49,1.44,.71,2.52,1.44,3.87h0Z"/><path class="ap" d="M24,53.52c.21-1.51,.33-2.6,.38-4.12,1.02,1.15,.81,3.16-.38,4.12h0Z"/><path class="ap" d="M28.84,54.63c-1.29-.91-1.29-2.99-.29-4.12,.06,1.52-.03,2.62,.29,4.12h0Z"/><path class="ap" d="M30.07,54.92c.63-1.39,1.05-2.4,1.53-3.85,.65,1.39-.12,3.26-1.53,3.85h0Z"/></g><path class="ap" d="M39,68.74c-2.75,2.3-5.91,3.51-7.68,6.68-.4-3.94,4.22-6.53,7.68-6.68h0Z"/><path class="ap" d="M6.54,71.17c.63,4.49,.48,8.72,1.82,13.04-3.29-3.32-3.34-8.87-1.82-13.04h0Z"/></g><g class="bp"><g><circle class="bl" cx="19.1" cy="15.82" r="3.4"/><path class="ap" d="M18.9,12.42c1.62-.77,3.51,.73,3.91,2.35,.51,1.67-.53,3.62-2.18,4.09,.46-.66,.83-1.27,1.01-1.9,.52-1.95-.67-4.12-2.74-4.54h0Z"/><path class="ac" d="M19.3,12.42c-2.04,1.08-3.18,3.04-1.86,5.1,.37,.61,.9,1.17,1.58,1.73-4.91-.12-4.85-7.43,.28-6.84h0Z"/></g></g><g class="ax"><g><circle class="bl" cx="31.89" cy="15.79" r="3.4"/><path class="ap" d="M32.09,19.19c-1.62,.77-3.51-.73-3.91-2.35-.51-1.67,.53-3.62,2.18-4.09-.46,.66-.83,1.27-1.01,1.9-.52,1.95,.67,4.12,2.74,4.54h0Z"/><path class="ac" d="M31.69,19.19c2.04-1.08,3.18-3.04,1.86-5.1-.37-.61-.9-1.17-1.58-1.73,4.91,.12,4.85,7.43-.28,6.84h0Z"/></g></g></g></g><rect class="be" x="25.39" y="55.77" width="49.79" height="41.23"/><g class="ar"><g><path class="bn" d="M42.03,64.49s-4.85-3.34-1.82-10.01c-4.22-1.41-5.8-3.62-6.22-5.71l-3.8,3.59L36.26,5.34l9.99-1.2c2.9,2.87,3.79,8.48-.7,18.13-1.44,3.1-.99,6.73,1.05,9.47,2.86,3.86,5.4,10.37,.12,18.77-1.94,3.09-2.07,6.98-.44,10.24,3.51,7,5.2,17.98-.73,22.19l-3.51-18.45Z"/><path class="bn" d="M18.92,67.1l1.58-2.6-10.23-1.98c.92-1.97,1.88-5.53-.08-9.85,4.44,.12,6.36-1.3,7.04-3.07l9.94,4.29-1.21-44.9S15.59,5.65,5.02,2.3C.99,4.8-.68,11.05,4.54,22.27c1.44,3.1,.99,6.73-1.05,9.47-2.86,3.86-5.4,10.37-.12,18.77,1.94,3.09,2.07,6.98,.44,10.24-4.03,8.04-5.19,21.36,4.67,23.58l10.44-17.24Z"/><path class="bg" d="M28.26,82.08l12.71-5.91,1.06-11.68c-1.06-.76-4.1-5.01-1.82-10.01-6.22-2.28-6.22-5.71-6.22-5.71,0,0,3.33-.51,4.24-.51s-1.31-22.14-1.31-22.14H16.07l-3.01,12.13,4.18,11.02-1.45-1.32c.52,1.02-.91,5.16-5.61,4.7,1.67,7.13-1.97,16.23-1.97,16.23l15.53,12.78c.57-.24,1.16-.49,1.76-.77,.96,.43,1.87,.83,2.76,1.18"/><g id="v"><path class="bo" d="M45.54,82.94c-2.66,1.89-6.87,2.41-13.13,.58-1.3-.38-2.68-.86-4.16-1.44-.79-3.76-1.23-13.48,13.77-17.59,4.84,4.33,7.33,11.44,3.51,18.45Z"/><path class="bo" d="M23.74,81.67c-1.85,.77-3.57,1.39-5.16,1.85-4.27,1.24-7.62,1.4-10.21,.79-2.85-6.12-2.95-16.18,1.59-21.5,13.22,3.46,14.03,14.39,13.78,18.86Z"/><path class="bo" d="M41.29,16.72c.08-1.77-.3-3.23-.98-4.4-.99-1.7-2.62-2.77-4.41-3.21,.25-.3,2.99-3.56,8.13-2.51,3.31,5.87-2.03,9.12-2.74,10.13Z"/><path class="bo" d="M15.13,9.29c-1.67,.37-3.19,1.27-4.2,2.72-.78,1.11-1.25,2.55-1.24,4.31-.12-.97,.34-2.02-.42-2.78-2.88-2.88-.59-7.19-.09-8.04h0c.05-.1,.09-.15,.09-.15,5.46,.3,5.85,3.8,5.85,3.8l.02,.16Z"/><path class="bo" d="M42.08,28.92c-1.81-2.68-2.24-6.03-1.33-9.13,.33-1.11,.5-2.13,.54-3.07,.08-1.77-.3-3.23-.98-4.4-.99-1.7-2.62-2.77-4.41-3.21-4.85-1.21-10.8,2.24-7.82,10.18,.12,.33,.2,.63,.24,.92,.53,3.78-5.4,4.39-4.71-.02,.05-.28,.12-.59,.22-.91,2.4-7.61-3.76-11.11-8.7-10-1.67,.37-3.19,1.27-4.2,2.72-.78,1.11-1.25,2.55-1.24,4.31,0,1.04,.18,2.2,.56,3.47,.92,3.1,1.69,6.45-.12,9.13-3.77,5.58-7.31,15.03-.82,20.12,2.1,1.64,3.63,2.31,6.17,1.5,.49-.15,.97-.36,1.43-.65,1.9-1.17,3.63-4.5,2.65-9.45-.41-2.04-1.23-4.51-2.6-7.51-.13-.3-.28-.6-.42-.91-1.1-2.31,1.62-1.12,3.26-.82-.93-.89-1.83-2.05-2.57-3.55-.02-.04,.03-.08,.07-.06,2.25,1.69,8.19,1.43,8.19,1.43,0,0,7.32,.24,9.84-1.32,.09-.06,.21,.04,.16,.14-.77,1.7-1.82,2.95-2.94,3.85,.17,.02,.31,.02,.41-.02,1.49-.47,4.08-1.03,2.99,1.25-.1,.22-.2,.43-.3,.64-1.85,4-2.74,7.08-2.97,9.47-.27,2.74,.32,4.54,1.3,5.72,.76,.92,1.74,1.45,2.73,1.77,2.54,.8,5.29,.14,7.39-1.5,6.49-5.09,1.74-14.53-2.03-20.12Zm-23.25-10.23c-1.42,0-2.58-1.16-2.58-2.58s1.16-2.58,2.58-2.58,2.58,1.16,2.58,2.58-1.16,2.58-2.58,2.58Zm13.65,0c-1.42,0-2.58-1.16-2.58-2.58s1.16-2.58,2.58-2.58,2.58,1.16,2.58,2.58-1.16,2.58-2.58,2.58Z"/></g><path class="ay" d="M46.25,4.14c-.89,.72-1.64,1.63-2.22,2.45-5.13-1.04-7.88,2.21-8.13,2.51-4.85-1.21-10.64,2.18-7.82,10.18,1.97,5.61-6.22,5.92-4.25,0,2.52-7.57-3.76-11.11-8.7-10l-.02-.16s-.39-3.49-5.85-3.8c0,0-.03,.05-.09,.15-.38-1.49-1.57-2.9-4.74-2.93,3.11-2.24,7.96-1.98,12.36,.12,1.05,.5,2.25,.56,3.38,.27,2.15-.56,5.32-.76,5.32-.76,0,0,3.17,.19,5.32,.76,1.13,.29,2.31,.19,3.38-.27,3.6-1.55,8.96-1.59,12.05,1.47Z"/><path class="bn" d="M11.09,12.01c-1.26,1.96-1.94,3.84-2.43,6.07-.86-2.2,.25-5.09,2.43-6.07h0Z"/><path class="bn" d="M44,6.7c-2.94-.06-5.75,1-8.06,2.79l-.13-.56c.78,.33,1.61,.65,2.24,1.25-.89-.33-2.07-.51-3-.74,2.14-2.46,5.77-4,8.94-2.74h0Z"/><path class="bn" d="M14.73,23.23c.58-.07,1.15-.13,1.73-.19l.07,.05c5.96,3.66,13.42,2.96,19.54,.03l1.26,.11-1.26,.11c-5.35,4.17-14.33,4.87-19.77,.03l.12,.04c-.56-.05-1.12-.11-1.68-.18h0Z"/><ellipse class="af" cx="25.95" cy="21.57" rx="2.09" ry="1.52"/><path class="af" d="M35.5,27.86c-.77,1.7-1.82,2.95-2.94,3.85-3.01,2.43-6.53,2.45-6.61,2.45,0,0-3.24-.17-6.14-2.94-.93-.89-1.83-2.05-2.57-3.55-.02-.04,.03-.08,.07-.06,2.25,1.69,15.51,1.67,18.03,.12,.09-.06,.21,.04,.16,.14Z"/><g id="w"><path class="br" d="M7.14,28.09c2.4-1.29,6.23-.62,7.28,2.12-2.31-1.42-4.61-1.62-7.28-2.12h0Z"/><path class="br" d="M9.18,5.48c2.56-.92,6.2,.79,5.95,3.81-1.1-2.47-3.41-3.28-5.95-3.81h0Z"/><path class="br" d="M41.43,16.53c2.67-2.7,4.04-6.24,2.6-9.94,2.79,3.17,1.1,8.27-2.6,9.94h0Z"/><g><path class="av" d="M35.4,34.16s-2.77,3.94-2.77,10.01"/><path class="br" d="M35.4,34.16c-1.1,3.27-1.92,6.67-2.77,10.01-.84-3.47,.18-7.52,2.77-10.01h0Z"/></g><g><path class="br" d="M22.92,43.86c-1.47-.59-1.93-2.62-1.21-3.94,.4,1.47,.56,2.56,1.21,3.94h0Z"/><path class="br" d="M24.19,43.86c.3-1.49,.48-2.57,.62-4.1,.95,1.21,.62,3.2-.62,4.1h0Z"/><path class="br" d="M28.18,47.15c-1.4-.73-1.67-2.8-.82-4.04,.26,1.5,.31,2.6,.82,4.04h0Z"/><path class="br" d="M29.44,47.27c.44-1.46,.73-2.51,1.02-4.01,.82,1.3,.3,3.25-1.02,4.01h0Z"/><path class="br" d="M25.75,62.01c-1.4-.73-1.67-2.8-.82-4.04,.26,1.5,.31,2.6,.82,4.04h0Z"/><path class="br" d="M27.02,62.14c.44-1.46,.73-2.51,1.02-4.01,.82,1.3,.3,3.25-1.02,4.01h0Z"/><path class="br" d="M26.36,70.2c-1.4-.73-1.67-2.8-.82-4.04,.26,1.5,.31,2.6,.82,4.04h0Z"/><path class="br" d="M27.62,70.33c.44-1.46,.73-2.51,1.02-4.01,.82,1.3,.3,3.25-1.02,4.01h0Z"/><path class="br" d="M20.51,63.63c-1.54-.36-2.31-2.29-1.8-3.71,.62,1.39,.95,2.44,1.8,3.71h0Z"/><path class="br" d="M21.76,63.43c.07-1.52,.08-2.62-.02-4.14,1.12,1.05,1.11,3.07,.02,4.14h0Z"/><path class="br" d="M32.14,63.41c-1.28-.93-1.24-3.01-.22-4.12,.03,1.52-.07,2.62,.22,4.12h0Z"/><path class="br" d="M33.37,63.72c.65-1.38,1.09-2.38,1.59-3.82,.62,1.4-.17,3.26-1.59,3.82h0Z"/><path class="br" d="M27.29,37.82c-1.5-.51-2.08-2.5-1.44-3.87,.49,1.44,.71,2.52,1.44,3.87h0Z"/><path class="br" d="M28.55,37.74c.21-1.51,.33-2.6,.38-4.12,1.02,1.15,.81,3.16-.38,4.12h0Z"/><path class="br" d="M22.74,53.59c-1.5-.51-2.08-2.5-1.44-3.87,.49,1.44,.71,2.52,1.44,3.87h0Z"/><path class="br" d="M24,53.52c.21-1.51,.33-2.6,.38-4.12,1.02,1.15,.81,3.16-.38,4.12h0Z"/><path class="br" d="M28.84,54.63c-1.29-.91-1.29-2.99-.29-4.12,.06,1.52-.03,2.62,.29,4.12h0Z"/><path class="br" d="M30.07,54.92c.63-1.39,1.05-2.4,1.53-3.85,.65,1.39-.12,3.26-1.53,3.85h0Z"/></g><path class="br" d="M39,68.74c-2.75,2.3-5.91,3.51-7.68,6.68-.4-3.94,4.22-6.53,7.68-6.68h0Z"/><path class="br" d="M6.54,71.17c.63,4.49,.48,8.72,1.82,13.04-3.29-3.32-3.34-8.87-1.82-13.04h0Z"/></g><g class="aj"><g><circle class="ay" cx="19.1" cy="15.82" r="3.4"/><path class="br" d="M18.9,12.42c1.62-.77,3.51,.73,3.91,2.35,.51,1.67-.53,3.62-2.18,4.09,.46-.66,.83-1.27,1.01-1.9,.52-1.95-.67-4.12-2.74-4.54h0Z"/><path class="bn" d="M19.3,12.42c-2.04,1.08-3.18,3.04-1.86,5.1,.37,.61,.9,1.17,1.58,1.73-4.91-.12-4.85-7.43,.28-6.84h0Z"/><text class="ao" transform="translate(-1.25 27.49)"><tspan x="0" y="0">ff</tspan><tspan class="bq" x="1.39" y="0">f</tspan><tspan class="ba" x="2.06" y="0">c</tspan><tspan x="3.14" y="0">f8</tspan></text></g></g><g class="bm"><g><circle class="ay" cx="31.89" cy="15.79" r="3.4"/><path class="br" d="M32.09,19.19c-1.62,.77-3.51-.73-3.91-2.35-.51-1.67,.53-3.62,2.18-4.09-.46,.66-.83,1.27-1.01,1.9-.52,1.95,.67,4.12,2.74,4.54h0Z"/><path class="bn" d="M31.69,19.19c2.04-1.08,3.18-3.04,1.86-5.1-.37-.61-.9-1.17-1.58-1.73,4.91,.12,4.85,7.43-.28,6.84h0Z"/></g></g></g></g></svg>