<?xml version="1.0" encoding="UTF-8"?><svg id="a" xmlns="http://www.w3.org/2000/svg" xmlns:xlink="http://www.w3.org/1999/xlink" viewBox="0 0 50 85"><defs><style>.a`{fill:#38a933;}.aa{fill:#36ad35;}.ab{fill:#79b823;}.ac{fill:#b2100b;}.ad{fill:#76b727;}.ae{fill:#fef6a3;}.af{fill:#117b23;}.ag{fill:#d45700;}.ah{fill:#a71009;}.ai{fill:#ffee02;}.aj{clip-path:url(#x);}.ak{fill:#fed404;}.al{fill:#801100;}.am{clip-path:url(#n);}.an{fill:#fdd501;}.ao{fill:#e9a47d;}.ap{fill:#f9bd05;}.aq{clip-path:url(#u);}.ar{fill:#c00c0d;}.as{clip-path:url(#o);}.at{fill:#d10a11;}.au{fill:#bfd87c;}.av{fill:#fecd04;}.aw{clip-path:url(#t);}.ax{clip-path:url(#e);}.ay{clip-path:url(#d);}.b`{fill:#e84c0f;}.ba{fill:#ff8a72;}.bb{fill:#e20514;}.bc{fill:none;}.bd{fill:#f28801;}.be{clip-path:url(#p);}.bf{fill:#00842d;}.bg{fill:#149737;}.bh{clip-path:url(#f);}.bi{fill:#e96908;}.bj{clip-path:url(#j);}.bk{fill:#c7080f;}.bl{clip-path:url(#y);}.bm{fill:#ec6804;}.bn{clip-path:url(#s);}.bo{fill:#f8be75;}.bp{fill:#9e1006;}.bq{clip-path:url(#i);}.br{clip-path:url(#k);}.bs{fill:#c4d97e;}</style><clipPath id="d"><circle class="bc" cx="18.7" cy="16.6" r="3.3"/></clipPath><clipPath id="e"><circle class="bc" cx="31.32" cy="16.6" r="3.3"/></clipPath><clipPath id="f"><rect class="bc" x="24.9" y="-13.43" width="49.3" height="44.37"/></clipPath><clipPath id="i"><circle class="bc" cx="18.7" cy="16.6" r="3.3"/></clipPath><clipPath id="j"><circle class="bc" cx="31.32" cy="16.6" r="3.3"/></clipPath><clipPath id="k"><rect class="bc" x="-24.4" y="-13.43" width="49.3" height="44.37"/></clipPath><clipPath id="n"><circle class="bc" cx="18.7" cy="16.6" r="3.3"/></clipPath><clipPath id="o"><circle class="bc" cx="31.32" cy="16.6" r="3.3"/></clipPath><clipPath id="p"><rect class="bc" x="-24.4" y="56.18" width="49.3" height="40.82"/></clipPath><clipPath id="s"><circle class="bc" cx="18.7" cy="16.6" r="3.3"/></clipPath><clipPath id="t"><circle class="bc" cx="31.32" cy="16.6" r="3.3"/></clipPath><clipPath id="u"><rect class="bc" x="24.9" y="56.18" width="49.3" height="40.82"/></clipPath><clipPath id="x"><circle class="bc" cx="18.7" cy="16.6" r="3.3"/></clipPath><clipPath id="y"><circle class="bc" cx="31.32" cy="16.6" r="3.3"/></clipPath></defs><g><path class="bf" d="M41.38,64.81s-4.81-3.3-1.8-9.91c-4.18-1.39-5.75-3.59-6.15-5.65l-3.76,3.55L35.66,6.24l9.89-1.19c2.87,2.84,3.75,8.4-.69,17.95-1.43,3.07-.98,6.66,1.04,9.38,2.84,3.82,5.34,10.26,.12,18.59-1.92,3.06-2.05,6.91-.43,10.14,3.47,6.93,5.15,17.81-.73,21.97l-3.48-18.27Z"/><path class="bf" d="M18.49,67.39l1.56-2.58-10.13-1.96c.91-1.95,1.86-5.47-.08-9.75,4.4,.12,6.3-1.28,6.97-3.04l9.85,4.24-1.2-44.46S15.2,6.56,4.73,3.24C.74,5.71-.92,11.89,4.26,23.01c1.43,3.07,.98,6.66-1.04,9.38-2.84,3.82-5.34,10.26-.12,18.59,1.92,3.06,2.05,6.91,.43,10.14-3.99,7.96-5.14,21.15,4.62,23.35l10.34-17.07Z"/><path class="aa" d="M27.74,82.23l12.59-5.85,1.05-11.56c-1.05-.75-4.06-4.96-1.8-9.91-6.16-2.25-6.15-5.65-6.15-5.65,0,0,3.3-.5,4.2-.5s-1.3-21.92-1.3-21.92H15.67l-2.98,12.01,4.14,10.92-1.43-1.3c.52,1.01-.9,5.11-5.56,4.66,1.65,7.06-1.95,16.07-1.95,16.07l15.38,12.65c.57-.24,1.15-.49,1.75-.76,.95,.43,1.86,.82,2.73,1.17"/><g id="b"><path class="ab" d="M44.86,83.08c-2.64,1.87-6.8,2.38-13,.57-1.28-.37-2.65-.85-4.12-1.43-.78-3.72-1.22-13.34,13.64-17.42,4.79,4.29,7.25,11.32,3.48,18.27Z"/><path class="ab" d="M23.26,81.82c-1.84,.77-3.53,1.37-5.11,1.83-4.23,1.23-7.55,1.39-10.11,.79-2.83-6.06-2.93-16.02,1.57-21.29,13.09,3.43,13.89,14.25,13.64,18.67Z"/><path class="ad" d="M40.65,17.51c.08-1.75-.29-3.2-.97-4.36-.98-1.69-2.6-2.74-4.36-3.18,.24-.3,2.96-3.52,8.05-2.49,3.28,5.82-2.01,9.03-2.71,10.03Z"/><path class="ad" d="M14.74,10.15c-1.65,.37-3.16,1.26-4.16,2.69-.77,1.1-1.24,2.52-1.23,4.27-.12-.96,.34-2-.42-2.76-2.85-2.85-.58-7.12-.09-7.96h0c.05-.1,.09-.15,.09-.15,5.41,.3,5.79,3.76,5.79,3.76l.02,.16Z"/><path class="ab" d="M41.42,29.59c-1.79-2.65-2.22-5.97-1.32-9.04,.32-1.1,.5-2.11,.54-3.04,.08-1.75-.29-3.2-.97-4.36-.98-1.69-2.6-2.74-4.36-3.18-4.81-1.2-10.7,2.22-7.75,10.08,.12,.32,.2,.63,.24,.91,.52,3.75-5.35,4.35-4.66-.02,.05-.28,.11-.58,.22-.9,2.38-7.54-3.72-11-8.61-9.9-1.65,.37-3.16,1.26-4.16,2.69-.77,1.1-1.24,2.52-1.23,4.27,0,1.03,.18,2.18,.55,3.44,.91,3.07,1.67,6.39-.11,9.04-3.73,5.53-7.24,14.88-.81,19.92,2.08,1.63,3.6,2.28,6.11,1.49,.48-.15,.96-.36,1.42-.64,1.88-1.16,3.6-4.46,2.62-9.35-.41-2.02-1.21-4.47-2.57-7.43-.13-.29-.27-.59-.42-.9-1.09-2.29,1.6-1.11,3.23-.81-.92-.88-1.81-2.03-2.54-3.52-.02-.04,.03-.08,.07-.06,2.23,1.67,8.11,1.42,8.11,1.42,0,0,7.25,.24,9.74-1.3,.09-.06,.21,.04,.16,.14-.76,1.69-1.8,2.92-2.91,3.81,.17,.02,.31,.02,.41-.02,1.47-.47,4.04-1.02,2.96,1.23-.1,.21-.2,.42-.3,.63-1.84,3.96-2.71,7.01-2.94,9.37-.27,2.72,.32,4.5,1.29,5.67,.75,.91,1.72,1.44,2.7,1.75,2.52,.79,5.24,.14,7.31-1.49,6.43-5.04,1.72-14.39-2.01-19.92Zm-23.02-10.13c-1.41,0-2.55-1.14-2.55-2.55s1.14-2.55,2.55-2.55,2.55,1.14,2.55,2.55-1.14,2.55-2.55,2.55Zm13.52,0c-1.41,0-2.55-1.14-2.55-2.55s1.14-2.55,2.55-2.55,2.55,1.14,2.55,2.55-1.14,2.55-2.55,2.55Z"/></g><path class="a`" d="M45.55,5.05c-.88,.71-1.63,1.61-2.2,2.43-5.08-1.03-7.8,2.19-8.05,2.49-4.81-1.2-10.53,2.16-7.75,10.08,1.95,5.56-6.16,5.86-4.21,0,2.5-7.5-3.72-11-8.61-9.9l-.02-.16s-.38-3.46-5.79-3.76c0,0-.03,.05-.09,.14-.37-1.47-1.56-2.87-4.69-2.9,3.08-2.21,7.88-1.96,12.23,.12,1.04,.5,2.23,.56,3.35,.27,2.13-.56,5.27-.75,5.27-.75,0,0,3.14,.19,5.27,.75,1.11,.29,2.29,.19,3.35-.27,3.57-1.54,8.87-1.57,11.93,1.45Z"/><path class="bf" d="M10.74,12.85c-1.25,1.94-1.93,3.8-2.4,6.01-.85-2.17,.24-5.04,2.4-6.01h0Z"/><path class="bf" d="M43.33,7.59c-2.91-.06-5.7,.99-7.98,2.77l-.12-.56c.77,.33,1.6,.65,2.22,1.24-.89-.33-2.05-.5-2.97-.73,2.12-2.43,5.71-3.96,8.85-2.71h0Z"/><path class="af" d="M14.35,23.96c.57-.07,1.14-.13,1.71-.19l.07,.05c5.9,3.63,13.29,2.93,19.34,.03l1.25,.11-1.25,.11c-5.3,4.13-14.19,4.82-19.57,.03l.11,.04c-.56-.05-1.11-.11-1.67-.18h0Z"/><ellipse class="af" cx="25.46" cy="22.31" rx="2.07" ry="1.5"/><path class="bg" d="M34.91,28.54c-.76,1.69-1.8,2.92-2.91,3.81-2.98,2.41-6.47,2.42-6.54,2.42,0,0-3.21-.17-6.08-2.91-.92-.88-1.81-2.03-2.54-3.52-.02-.04,.03-.08,.07-.06,2.23,1.67,15.36,1.66,17.85,.11,.09-.06,.21,.04,.16,.14Z"/><g id="c"><path class="bs" d="M6.84,28.77c2.38-1.28,6.17-.61,7.21,2.1-2.29-1.4-4.56-1.6-7.21-2.1h0Z"/><path class="bs" d="M8.85,6.39c2.54-.91,6.14,.79,5.89,3.77-1.09-2.44-3.38-3.25-5.89-3.77h0Z"/><path class="bs" d="M40.78,17.32c2.65-2.67,4-6.17,2.58-9.84,2.76,3.14,1.09,8.19-2.58,9.84h0Z"/><g><path class="au" d="M34.81,34.78s-2.75,3.9-2.75,9.91"/><path class="bs" d="M34.81,34.78c-1.09,3.24-1.9,6.61-2.75,9.91-.83-3.44,.17-7.45,2.75-9.91h0Z"/></g><g><path class="bs" d="M22.46,44.39c-1.45-.59-1.92-2.59-1.2-3.9,.4,1.46,.56,2.53,1.2,3.9h0Z"/><path class="bs" d="M23.71,44.39c.3-1.48,.48-2.55,.61-4.06,.94,1.2,.62,3.17-.61,4.06h0Z"/><path class="bs" d="M27.66,47.64c-1.39-.73-1.65-2.77-.81-4,.25,1.49,.31,2.58,.81,4h0Z"/><path class="bs" d="M28.91,47.76c.44-1.44,.72-2.49,1.01-3.98,.81,1.29,.3,3.22-1.01,3.98h0Z"/><path class="bs" d="M25.26,62.36c-1.39-.73-1.65-2.77-.81-4,.25,1.49,.31,2.58,.81,4h0Z"/><path class="bs" d="M26.51,62.48c.44-1.44,.72-2.49,1.01-3.98,.81,1.29,.3,3.22-1.01,3.98h0Z"/><path class="bs" d="M25.86,70.47c-1.39-.73-1.65-2.77-.81-4,.25,1.49,.31,2.58,.81,4h0Z"/><path class="bs" d="M27.11,70.59c.44-1.44,.72-2.49,1.01-3.98,.81,1.29,.3,3.22-1.01,3.98h0Z"/><path class="bs" d="M20.07,63.96c-1.52-.36-2.29-2.27-1.79-3.67,.62,1.38,.94,2.42,1.79,3.67h0Z"/><path class="bs" d="M21.31,63.76c.07-1.51,.08-2.59-.02-4.1,1.11,1.04,1.09,3.04,.02,4.1h0Z"/><path class="bs" d="M31.59,63.75c-1.27-.92-1.23-2.98-.22-4.08,.03,1.51-.07,2.59,.22,4.08h0Z"/><path class="bs" d="M32.81,64.05c.65-1.36,1.08-2.36,1.58-3.79,.62,1.39-.17,3.23-1.58,3.79h0Z"/><path class="bs" d="M26.78,38.4c-1.48-.5-2.06-2.48-1.43-3.83,.48,1.43,.71,2.5,1.43,3.83h0Z"/><path class="bs" d="M28.03,38.33c.21-1.49,.32-2.57,.37-4.08,1.01,1.14,.8,3.13-.37,4.08h0Z"/><path class="bs" d="M22.27,54.02c-1.48-.5-2.06-2.48-1.43-3.83,.48,1.43,.71,2.5,1.43,3.83h0Z"/><path class="bs" d="M23.53,53.95c.21-1.49,.32-2.57,.37-4.08,1.01,1.14,.8,3.13-.37,4.08h0Z"/><path class="bs" d="M28.31,55.05c-1.28-.9-1.28-2.96-.29-4.08,.06,1.51-.03,2.6,.29,4.08h0Z"/><path class="bs" d="M29.54,55.33c.62-1.37,1.04-2.38,1.52-3.81,.64,1.38-.12,3.23-1.52,3.81h0Z"/></g><path class="bs" d="M38.37,69.02c-2.72,2.27-5.85,3.47-7.6,6.61-.4-3.9,4.18-6.47,7.6-6.61h0Z"/><path class="bs" d="M6.24,71.42c.62,4.45,.48,8.63,1.8,12.92-3.25-3.29-3.3-8.79-1.8-12.92h0Z"/></g><g class="ay"><g><circle class="bg" cx="18.68" cy="16.62" r="3.37"/><path class="au" d="M18.48,13.25c1.61-.76,3.48,.72,3.87,2.33,.51,1.66-.53,3.59-2.16,4.05,.46-.65,.82-1.25,1-1.88,.52-1.93-.66-4.08-2.71-4.49h0Z"/><path class="bf" d="M18.87,13.25c-2.02,1.07-3.14,3.01-1.84,5.05,.37,.6,.89,1.15,1.56,1.72-4.86-.11-4.8-7.36,.28-6.77h0Z"/></g></g><g class="ax"><g><circle class="bg" cx="31.34" cy="16.59" r="3.37"/><path class="au" d="M31.54,19.96c-1.61,.76-3.48-.72-3.87-2.33-.51-1.66,.53-3.59,2.16-4.05-.46,.65-.82,1.25-1,1.88-.52,1.93,.66,4.08,2.71,4.49h0Z"/><path class="bf" d="M31.14,19.96c2.02-1.07,3.14-3.01,1.84-5.05-.37-.6-.89-1.15-1.56-1.72,4.86,.11,4.8,7.36-.28,6.77h0Z"/></g></g></g><g class="bh"><g><path class="al" d="M41.38,64.81s-4.81-3.3-1.8-9.91c-4.18-1.39-5.75-3.59-6.15-5.65l-3.76,3.55L35.66,6.24l9.89-1.19c2.87,2.84,3.75,8.4-.69,17.95-1.43,3.07-.98,6.66,1.04,9.38,2.84,3.82,5.34,10.26,.12,18.59-1.92,3.06-2.05,6.91-.43,10.14,3.47,6.93,5.15,17.81-.73,21.97l-3.48-18.27Z"/><path class="al" d="M18.49,67.39l1.56-2.58-10.13-1.96c.91-1.95,1.86-5.47-.08-9.75,4.4,.12,6.3-1.28,6.97-3.04l9.85,4.24-1.2-44.46S15.2,6.56,4.73,3.24C.74,5.71-.92,11.89,4.26,23.01c1.43,3.07,.98,6.66-1.04,9.38-2.84,3.82-5.34,10.26-.12,18.59,1.92,3.06,2.05,6.91,.43,10.14-3.99,7.96-5.14,21.15,4.62,23.35l10.34-17.07Z"/><path class="ah" d="M27.74,82.23l12.59-5.85,1.05-11.56c-1.05-.75-4.06-4.96-1.8-9.91-6.16-2.25-6.15-5.65-6.15-5.65,0,0,3.3-.5,4.2-.5s-1.3-21.92-1.3-21.92H15.67l-2.98,12.01,4.14,10.92-1.43-1.3c.52,1.01-.9,5.11-5.56,4.66,1.65,7.06-1.95,16.07-1.95,16.07l15.38,12.65c.57-.24,1.15-.49,1.75-.76,.95,.43,1.86,.82,2.73,1.17"/><g id="g"><path class="ar" d="M44.86,83.08c-2.64,1.87-6.8,2.38-13,.57-1.28-.37-2.65-.85-4.12-1.43-.78-3.72-1.22-13.34,13.64-17.42,4.79,4.29,7.25,11.32,3.48,18.27Z"/><path class="ar" d="M23.26,81.82c-1.84,.77-3.53,1.37-5.11,1.83-4.23,1.23-7.55,1.39-10.11,.79-2.83-6.06-2.93-16.02,1.57-21.29,13.09,3.43,13.89,14.25,13.64,18.67Z"/><path class="ar" d="M40.65,17.51c.08-1.75-.29-3.2-.97-4.36-.98-1.69-2.6-2.74-4.36-3.18,.24-.3,2.96-3.52,8.05-2.49,3.28,5.82-2.01,9.03-2.71,10.03Z"/><path class="ar" d="M14.74,10.15c-1.65,.37-3.16,1.26-4.16,2.69-.77,1.1-1.24,2.52-1.23,4.27-.12-.96,.34-2-.42-2.76-2.85-2.85-.58-7.12-.09-7.96h0c.05-.1,.09-.15,.09-.15,5.41,.3,5.79,3.76,5.79,3.76l.02,.16Z"/><path class="ar" d="M41.42,29.59c-1.79-2.65-2.22-5.97-1.32-9.04,.32-1.1,.5-2.11,.54-3.04,.08-1.75-.29-3.2-.97-4.36-.98-1.69-2.6-2.74-4.36-3.18-4.81-1.2-10.7,2.22-7.75,10.08,.12,.32,.2,.63,.24,.91,.52,3.75-5.35,4.35-4.66-.02,.05-.28,.11-.58,.22-.9,2.38-7.54-3.72-11-8.61-9.9-1.65,.37-3.16,1.26-4.16,2.69-.77,1.1-1.24,2.52-1.23,4.27,0,1.03,.18,2.18,.55,3.44,.91,3.07,1.67,6.39-.11,9.04-3.73,5.53-7.24,14.88-.81,19.92,2.08,1.63,3.6,2.28,6.11,1.49,.48-.15,.96-.36,1.42-.64,1.88-1.16,3.6-4.46,2.62-9.35-.41-2.02-1.21-4.47-2.57-7.43-.13-.29-.27-.59-.42-.9-1.09-2.29,1.6-1.11,3.23-.81-.92-.88-1.81-2.03-2.54-3.52-.02-.04,.03-.08,.07-.06,2.23,1.67,8.11,1.42,8.11,1.42,0,0,7.25,.24,9.74-1.3,.09-.06,.21,.04,.16,.14-.76,1.69-1.8,2.92-2.91,3.81,.17,.02,.31,.02,.41-.02,1.47-.47,4.04-1.02,2.96,1.23-.1,.21-.2,.42-.3,.63-1.84,3.96-2.71,7.01-2.94,9.37-.27,2.72,.32,4.5,1.29,5.67,.75,.91,1.72,1.44,2.7,1.75,2.52,.79,5.24,.14,7.31-1.49,6.43-5.04,1.72-14.39-2.01-19.92Zm-23.02-10.13c-1.41,0-2.55-1.14-2.55-2.55s1.14-2.55,2.55-2.55,2.55,1.14,2.55,2.55-1.14,2.55-2.55,2.55Zm13.52,0c-1.41,0-2.55-1.14-2.55-2.55s1.14-2.55,2.55-2.55,2.55,1.14,2.55,2.55-1.14,2.55-2.55,2.55Z"/></g><path class="bp" d="M45.55,5.05c-.88,.71-1.63,1.61-2.2,2.43-5.08-1.03-7.8,2.19-8.05,2.49-4.81-1.2-10.53,2.16-7.75,10.08,1.95,5.56-6.16,5.86-4.21,0,2.5-7.5-3.72-11-8.61-9.9l-.02-.16s-.38-3.46-5.79-3.76c0,0-.03,.05-.09,.14-.37-1.47-1.56-2.87-4.69-2.9,3.08-2.21,7.88-1.96,12.23,.12,1.04,.5,2.23,.56,3.35,.27,2.13-.56,5.27-.75,5.27-.75,0,0,3.14,.19,5.27,.75,1.11,.29,2.29,.19,3.35-.27,3.57-1.54,8.87-1.57,11.93,1.45Z"/><path class="al" d="M10.74,12.85c-1.25,1.94-1.93,3.8-2.4,6.01-.85-2.17,.24-5.04,2.4-6.01h0Z"/><path class="al" d="M43.33,7.59c-2.91-.06-5.7,.99-7.98,2.77l-.12-.56c.77,.33,1.6,.65,2.22,1.24-.89-.33-2.05-.5-2.97-.73,2.12-2.43,5.71-3.96,8.85-2.71h0Z"/><path class="al" d="M14.35,23.96c.57-.07,1.14-.13,1.71-.19l.07,.05c5.9,3.63,13.29,2.93,19.34,.03l1.25,.11-1.25,.11c-5.3,4.13-14.19,4.82-19.57,.03l.11,.04c-.56-.05-1.11-.11-1.67-.18h0Z"/><ellipse class="al" cx="25.46" cy="22.31" rx="2.07" ry="1.5"/><path class="bp" d="M34.91,28.54c-.76,1.69-1.8,2.92-2.91,3.81-2.98,2.41-6.47,2.42-6.54,2.42,0,0-3.21-.17-6.08-2.91-.92-.88-1.81-2.03-2.54-3.52-.02-.04,.03-.08,.07-.06,2.23,1.67,15.36,1.66,17.85,.11,.09-.06,.21,.04,.16,.14Z"/><g id="h"><path class="ba" d="M6.84,28.77c2.38-1.28,6.17-.61,7.21,2.1-2.29-1.4-4.56-1.6-7.21-2.1h0Z"/><path class="ba" d="M8.85,6.39c2.54-.91,6.14,.79,5.89,3.77-1.09-2.44-3.38-3.25-5.89-3.77h0Z"/><path class="ba" d="M40.78,17.32c2.65-2.67,4-6.17,2.58-9.84,2.76,3.14,1.09,8.19-2.58,9.84h0Z"/><g><path class="au" d="M34.81,34.78s-2.75,3.9-2.75,9.91"/><path class="ba" d="M34.81,34.78c-1.09,3.24-1.9,6.61-2.75,9.91-.83-3.44,.17-7.45,2.75-9.91h0Z"/></g><g><path class="ba" d="M22.46,44.39c-1.45-.59-1.92-2.59-1.2-3.9,.4,1.46,.56,2.53,1.2,3.9h0Z"/><path class="ba" d="M23.71,44.39c.3-1.48,.48-2.55,.61-4.06,.94,1.2,.62,3.17-.61,4.06h0Z"/><path class="ba" d="M27.66,47.64c-1.39-.73-1.65-2.77-.81-4,.25,1.49,.31,2.58,.81,4h0Z"/><path class="ba" d="M28.91,47.76c.44-1.44,.72-2.49,1.01-3.98,.81,1.29,.3,3.22-1.01,3.98h0Z"/><path class="ba" d="M25.26,62.36c-1.39-.73-1.65-2.77-.81-4,.25,1.49,.31,2.58,.81,4h0Z"/><path class="ba" d="M26.51,62.48c.44-1.44,.72-2.49,1.01-3.98,.81,1.29,.3,3.22-1.01,3.98h0Z"/><path class="ba" d="M25.86,70.47c-1.39-.73-1.65-2.77-.81-4,.25,1.49,.31,2.58,.81,4h0Z"/><path class="ba" d="M27.11,70.59c.44-1.44,.72-2.49,1.01-3.98,.81,1.29,.3,3.22-1.01,3.98h0Z"/><path class="ba" d="M20.07,63.96c-1.52-.36-2.29-2.27-1.79-3.67,.62,1.38,.94,2.42,1.79,3.67h0Z"/><path class="ba" d="M21.31,63.76c.07-1.51,.08-2.59-.02-4.1,1.11,1.04,1.09,3.04,.02,4.1h0Z"/><path class="ba" d="M31.59,63.75c-1.27-.92-1.23-2.98-.22-4.08,.03,1.51-.07,2.59,.22,4.08h0Z"/><path class="ba" d="M32.81,64.05c.65-1.36,1.08-2.36,1.58-3.79,.62,1.39-.17,3.23-1.58,3.79h0Z"/><path class="ba" d="M26.78,38.4c-1.48-.5-2.06-2.48-1.43-3.83,.48,1.43,.71,2.5,1.43,3.83h0Z"/><path class="ba" d="M28.03,38.33c.21-1.49,.32-2.57,.37-4.08,1.01,1.14,.8,3.13-.37,4.08h0Z"/><path class="ba" d="M22.27,54.02c-1.48-.5-2.06-2.48-1.43-3.83,.48,1.43,.71,2.5,1.43,3.83h0Z"/><path class="ba" d="M23.53,53.95c.21-1.49,.32-2.57,.37-4.08,1.01,1.14,.8,3.13-.37,4.08h0Z"/><path class="ba" d="M28.31,55.05c-1.28-.9-1.28-2.96-.29-4.08,.06,1.51-.03,2.6,.29,4.08h0Z"/><path class="ba" d="M29.54,55.33c.62-1.37,1.04-2.38,1.52-3.81,.64,1.38-.12,3.23-1.52,3.81h0Z"/></g><path class="ba" d="M38.37,69.02c-2.72,2.27-5.85,3.47-7.6,6.61-.4-3.9,4.18-6.47,7.6-6.61h0Z"/><path class="ba" d="M6.24,71.42c.62,4.45,.48,8.63,1.8,12.92-3.25-3.29-3.3-8.79-1.8-12.92h0Z"/></g><g class="bq"><g><circle class="bp" cx="18.68" cy="16.62" r="3.37"/><path class="ba" d="M18.48,13.25c1.61-.76,3.48,.72,3.87,2.33,.51,1.66-.53,3.59-2.16,4.05,.46-.65,.82-1.25,1-1.88,.52-1.93-.66-4.08-2.71-4.49h0Z"/><path class="al" d="M18.87,13.25c-2.02,1.07-3.14,3.01-1.84,5.05,.37,.6,.89,1.15,1.56,1.72-4.86-.11-4.8-7.36,.28-6.77h0Z"/></g></g><g class="bj"><g><circle class="bp" cx="31.34" cy="16.59" r="3.37"/><path class="ba" d="M31.54,19.96c-1.61,.76-3.48-.72-3.87-2.33-.51-1.66,.53-3.59,2.16-4.05-.46,.65-.82,1.25-1,1.88-.52,1.93,.66,4.08,2.71,4.49h0Z"/><path class="al" d="M31.14,19.96c2.02-1.07,3.14-3.01,1.84-5.05-.37-.6-.89-1.15-1.56-1.72,4.86,.11,4.8,7.36-.28,6.77h0Z"/></g></g></g></g><g class="br"><g><path class="ap" d="M41.38,64.81s-4.81-3.3-1.8-9.91c-4.18-1.39-5.75-3.59-6.15-5.65l-3.76,3.55L35.66,6.24l9.89-1.19c2.87,2.84,3.75,8.4-.69,17.95-1.43,3.07-.98,6.66,1.04,9.38,2.84,3.82,5.34,10.26,.12,18.59-1.92,3.06-2.05,6.91-.43,10.14,3.47,6.93,5.15,17.81-.73,21.97l-3.48-18.27Z"/><path class="ap" d="M18.49,67.39l1.56-2.58-10.13-1.96c.91-1.95,1.86-5.47-.08-9.75,4.4,.12,6.3-1.28,6.97-3.04l9.85,4.24-1.2-44.46S15.2,6.56,4.73,3.24C.74,5.71-.92,11.89,4.26,23.01c1.43,3.07,.98,6.66-1.04,9.38-2.84,3.82-5.34,10.26-.12,18.59,1.92,3.06,2.05,6.91,.43,10.14-3.99,7.96-5.14,21.15,4.62,23.35l10.34-17.07Z"/><path class="ak" d="M27.74,82.23l12.59-5.85,1.05-11.56c-1.05-.75-4.06-4.96-1.8-9.91-6.16-2.25-6.15-5.65-6.15-5.65,0,0,3.3-.5,4.2-.5s-1.3-21.92-1.3-21.92H15.67l-2.98,12.01,4.14,10.92-1.43-1.3c.52,1.01-.9,5.11-5.56,4.66,1.65,7.06-1.95,16.07-1.95,16.07l15.38,12.65c.57-.24,1.15-.49,1.75-.76,.95,.43,1.86,.82,2.73,1.17"/><g id="l"><path class="ai" d="M44.86,83.08c-2.64,1.87-6.8,2.38-13,.57-1.28-.37-2.65-.85-4.12-1.43-.78-3.72-1.22-13.34,13.64-17.42,4.79,4.29,7.25,11.32,3.48,18.27Z"/><path class="ai" d="M23.26,81.82c-1.84,.77-3.53,1.37-5.11,1.83-4.23,1.23-7.55,1.39-10.11,.79-2.83-6.06-2.93-16.02,1.57-21.29,13.09,3.43,13.89,14.25,13.64,18.67Z"/><path class="ai" d="M40.65,17.51c.08-1.75-.29-3.2-.97-4.36-.98-1.69-2.6-2.74-4.36-3.18,.24-.3,2.96-3.52,8.05-2.49,3.28,5.82-2.01,9.03-2.71,10.03Z"/><path class="ai" d="M14.74,10.15c-1.65,.37-3.16,1.26-4.16,2.69-.77,1.1-1.24,2.52-1.23,4.27-.12-.96,.34-2-.42-2.76-2.85-2.85-.58-7.12-.09-7.96h0c.05-.1,.09-.15,.09-.15,5.41,.3,5.79,3.76,5.79,3.76l.02,.16Z"/><path class="ai" d="M41.42,29.59c-1.79-2.65-2.22-5.97-1.32-9.04,.32-1.1,.5-2.11,.54-3.04,.08-1.75-.29-3.2-.97-4.36-.98-1.69-2.6-2.74-4.36-3.18-4.81-1.2-10.7,2.22-7.75,10.08,.12,.32,.2,.63,.24,.91,.52,3.75-5.35,4.35-4.66-.02,.05-.28,.11-.58,.22-.9,2.38-7.54-3.72-11-8.61-9.9-1.65,.37-3.16,1.26-4.16,2.69-.77,1.1-1.24,2.52-1.23,4.27,0,1.03,.18,2.18,.55,3.44,.91,3.07,1.67,6.39-.11,9.04-3.73,5.53-7.24,14.88-.81,19.92,2.08,1.63,3.6,2.28,6.11,1.49,.48-.15,.96-.36,1.42-.64,1.88-1.16,3.6-4.46,2.62-9.35-.41-2.02-1.21-4.47-2.57-7.43-.13-.29-.27-.59-.42-.9-1.09-2.29,1.6-1.11,3.23-.81-.92-.88-1.81-2.03-2.54-3.52-.02-.04,.03-.08,.07-.06,2.23,1.67,8.11,1.42,8.11,1.42,0,0,7.25,.24,9.74-1.3,.09-.06,.21,.04,.16,.14-.76,1.69-1.8,2.92-2.91,3.81,.17,.02,.31,.02,.41-.02,1.47-.47,4.04-1.02,2.96,1.23-.1,.21-.2,.42-.3,.63-1.84,3.96-2.71,7.01-2.94,9.37-.27,2.72,.32,4.5,1.29,5.67,.75,.91,1.72,1.44,2.7,1.75,2.52,.79,5.24,.14,7.31-1.49,6.43-5.04,1.72-14.39-2.01-19.92Zm-23.02-10.13c-1.41,0-2.55-1.14-2.55-2.55s1.14-2.55,2.55-2.55,2.55,1.14,2.55,2.55-1.14,2.55-2.55,2.55Zm13.52,0c-1.41,0-2.55-1.14-2.55-2.55s1.14-2.55,2.55-2.55,2.55,1.14,2.55,2.55-1.14,2.55-2.55,2.55Z"/></g><path class="an" d="M45.55,5.05c-.88,.71-1.63,1.61-2.2,2.43-5.08-1.03-7.8,2.19-8.05,2.49-4.81-1.2-10.53,2.16-7.75,10.08,1.95,5.56-6.16,5.86-4.21,0,2.5-7.5-3.72-11-8.61-9.9l-.02-.16s-.38-3.46-5.79-3.76c0,0-.03,.05-.09,.14-.37-1.47-1.56-2.87-4.69-2.9,3.08-2.21,7.88-1.96,12.23,.12,1.04,.5,2.23,.56,3.35,.27,2.13-.56,5.27-.75,5.27-.75,0,0,3.14,.19,5.27,.75,1.11,.29,2.29,.19,3.35-.27,3.57-1.54,8.87-1.57,11.93,1.45Z"/><path class="ap" d="M10.74,12.85c-1.25,1.94-1.93,3.8-2.4,6.01-.85-2.17,.24-5.04,2.4-6.01h0Z"/><path class="ap" d="M43.33,7.59c-2.91-.06-5.7,.99-7.98,2.77l-.12-.56c.77,.33,1.6,.65,2.22,1.24-.89-.33-2.05-.5-2.97-.73,2.12-2.43,5.71-3.96,8.85-2.71h0Z"/><path class="ap" d="M14.35,23.96c.57-.07,1.14-.13,1.71-.19l.07,.05c5.9,3.63,13.29,2.93,19.34,.03l1.25,.11-1.25,.11c-5.3,4.13-14.19,4.82-19.57,.03l.11,.04c-.56-.05-1.11-.11-1.67-.18h0Z"/><ellipse class="ap" cx="25.46" cy="22.31" rx="2.07" ry="1.5"/><path class="av" d="M34.91,28.54c-.76,1.69-1.8,2.92-2.91,3.81-2.98,2.41-6.47,2.42-6.54,2.42,0,0-3.21-.17-6.08-2.91-.92-.88-1.81-2.03-2.54-3.52-.02-.04,.03-.08,.07-.06,2.23,1.67,15.36,1.66,17.85,.11,.09-.06,.21,.04,.16,.14Z"/><g id="m"><path class="ae" d="M6.84,28.77c2.38-1.28,6.17-.61,7.21,2.1-2.29-1.4-4.56-1.6-7.21-2.1h0Z"/><path class="ae" d="M8.85,6.39c2.54-.91,6.14,.79,5.89,3.77-1.09-2.44-3.38-3.25-5.89-3.77h0Z"/><path class="ae" d="M40.78,17.32c2.65-2.67,4-6.17,2.58-9.84,2.76,3.14,1.09,8.19-2.58,9.84h0Z"/><g><path class="au" d="M34.81,34.78s-2.75,3.9-2.75,9.91"/><path class="ae" d="M34.81,34.78c-1.09,3.24-1.9,6.61-2.75,9.91-.83-3.44,.17-7.45,2.75-9.91h0Z"/></g><g><path class="ae" d="M22.46,44.39c-1.45-.59-1.92-2.59-1.2-3.9,.4,1.46,.56,2.53,1.2,3.9h0Z"/><path class="ae" d="M23.71,44.39c.3-1.48,.48-2.55,.61-4.06,.94,1.2,.62,3.17-.61,4.06h0Z"/><path class="ae" d="M27.66,47.64c-1.39-.73-1.65-2.77-.81-4,.25,1.49,.31,2.58,.81,4h0Z"/><path class="ae" d="M28.91,47.76c.44-1.44,.72-2.49,1.01-3.98,.81,1.29,.3,3.22-1.01,3.98h0Z"/><path class="ae" d="M25.26,62.36c-1.39-.73-1.65-2.77-.81-4,.25,1.49,.31,2.58,.81,4h0Z"/><path class="ae" d="M26.51,62.48c.44-1.44,.72-2.49,1.01-3.98,.81,1.29,.3,3.22-1.01,3.98h0Z"/><path class="ae" d="M25.86,70.47c-1.39-.73-1.65-2.77-.81-4,.25,1.49,.31,2.58,.81,4h0Z"/><path class="ae" d="M27.11,70.59c.44-1.44,.72-2.49,1.01-3.98,.81,1.29,.3,3.22-1.01,3.98h0Z"/><path class="ae" d="M20.07,63.96c-1.52-.36-2.29-2.27-1.79-3.67,.62,1.38,.94,2.42,1.79,3.67h0Z"/><path class="ae" d="M21.31,63.76c.07-1.51,.08-2.59-.02-4.1,1.11,1.04,1.09,3.04,.02,4.1h0Z"/><path class="ae" d="M31.59,63.75c-1.27-.92-1.23-2.98-.22-4.08,.03,1.51-.07,2.59,.22,4.08h0Z"/><path class="ae" d="M32.81,64.05c.65-1.36,1.08-2.36,1.58-3.79,.62,1.39-.17,3.23-1.58,3.79h0Z"/><path class="ae" d="M26.78,38.4c-1.48-.5-2.06-2.48-1.43-3.83,.48,1.43,.71,2.5,1.43,3.83h0Z"/><path class="ae" d="M28.03,38.33c.21-1.49,.32-2.57,.37-4.08,1.01,1.14,.8,3.13-.37,4.08h0Z"/><path class="ae" d="M22.27,54.02c-1.48-.5-2.06-2.48-1.43-3.83,.48,1.43,.71,2.5,1.43,3.83h0Z"/><path class="ae" d="M23.53,53.95c.21-1.49,.32-2.57,.37-4.08,1.01,1.14,.8,3.13-.37,4.08h0Z"/><path class="ae" d="M28.31,55.05c-1.28-.9-1.28-2.96-.29-4.08,.06,1.51-.03,2.6,.29,4.08h0Z"/><path class="ae" d="M29.54,55.33c.62-1.37,1.04-2.38,1.52-3.81,.64,1.38-.12,3.23-1.52,3.81h0Z"/></g><path class="ae" d="M38.37,69.02c-2.72,2.27-5.85,3.47-7.6,6.61-.4-3.9,4.18-6.47,7.6-6.61h0Z"/><path class="ae" d="M6.24,71.42c.62,4.45,.48,8.63,1.8,12.92-3.25-3.29-3.3-8.79-1.8-12.92h0Z"/></g><g class="am"><g><circle class="av" cx="18.68" cy="16.62" r="3.37"/><path class="ae" d="M18.48,13.25c1.61-.76,3.48,.72,3.87,2.33,.51,1.66-.53,3.59-2.16,4.05,.46-.65,.82-1.25,1-1.88,.52-1.93-.66-4.08-2.71-4.49h0Z"/><path class="ap" d="M18.87,13.25c-2.02,1.07-3.14,3.01-1.84,5.05,.37,.6,.89,1.15,1.56,1.72-4.86-.11-4.8-7.36,.28-6.77h0Z"/></g></g><g class="as"><g><circle class="av" cx="31.34" cy="16.59" r="3.37"/><path class="ae" d="M31.54,19.96c-1.61,.76-3.48-.72-3.87-2.33-.51-1.66,.53-3.59,2.16-4.05-.46,.65-.82,1.25-1,1.88-.52,1.93,.66,4.08,2.71,4.49h0Z"/><path class="ap" d="M31.14,19.96c2.02-1.07,3.14-3.01,1.84-5.05-.37-.6-.89-1.15-1.56-1.72,4.86,.11,4.8,7.36-.28,6.77h0Z"/></g></g></g></g><g class="be"><g><path class="ac" d="M41.38,64.81s-4.81-3.3-1.8-9.91c-4.18-1.39-5.75-3.59-6.15-5.65l-3.76,3.55L35.66,6.24l9.89-1.19c2.87,2.84,3.75,8.4-.69,17.95-1.43,3.07-.98,6.66,1.04,9.38,2.84,3.82,5.34,10.26,.12,18.59-1.92,3.06-2.05,6.91-.43,10.14,3.47,6.93,5.15,17.81-.73,21.97l-3.48-18.27Z"/><path class="ac" d="M18.49,67.39l1.56-2.58-10.13-1.96c.91-1.95,1.86-5.47-.08-9.75,4.4,.12,6.3-1.28,6.97-3.04l9.85,4.24-1.2-44.46S15.2,6.56,4.73,3.24C.74,5.71-.92,11.89,4.26,23.01c1.43,3.07,.98,6.66-1.04,9.38-2.84,3.82-5.34,10.26-.12,18.59,1.92,3.06,2.05,6.91,.43,10.14-3.99,7.96-5.14,21.15,4.62,23.35l10.34-17.07Z"/><path class="at" d="M27.74,82.23l12.59-5.85,1.05-11.56c-1.05-.75-4.06-4.96-1.8-9.91-6.16-2.25-6.15-5.65-6.15-5.65,0,0,3.3-.5,4.2-.5s-1.3-21.92-1.3-21.92H15.67l-2.98,12.01,4.14,10.92-1.43-1.3c.52,1.01-.9,5.11-5.56,4.66,1.65,7.06-1.95,16.07-1.95,16.07l15.38,12.65c.57-.24,1.15-.49,1.75-.76,.95,.43,1.86,.82,2.73,1.17"/><g id="q"><path class="bb" d="M44.86,83.08c-2.64,1.87-6.8,2.38-13,.57-1.28-.37-2.65-.85-4.12-1.43-.78-3.72-1.22-13.34,13.64-17.42,4.79,4.29,7.25,11.32,3.48,18.27Z"/><path class="bb" d="M23.26,81.82c-1.84,.77-3.53,1.37-5.11,1.83-4.23,1.23-7.55,1.39-10.11,.79-2.83-6.06-2.93-16.02,1.57-21.29,13.09,3.43,13.89,14.25,13.64,18.67Z"/><path class="bb" d="M40.65,17.51c.08-1.75-.29-3.2-.97-4.36-.98-1.69-2.6-2.74-4.36-3.18,.24-.3,2.96-3.52,8.05-2.49,3.28,5.82-2.01,9.03-2.71,10.03Z"/><path class="bb" d="M14.74,10.15c-1.65,.37-3.16,1.26-4.16,2.69-.77,1.1-1.24,2.52-1.23,4.27-.12-.96,.34-2-.42-2.76-2.85-2.85-.58-7.12-.09-7.96h0c.05-.1,.09-.15,.09-.15,5.41,.3,5.79,3.76,5.79,3.76l.02,.16Z"/><path class="bb" d="M41.42,29.59c-1.79-2.65-2.22-5.97-1.32-9.04,.32-1.1,.5-2.11,.54-3.04,.08-1.75-.29-3.2-.97-4.36-.98-1.69-2.6-2.74-4.36-3.18-4.81-1.2-10.7,2.22-7.75,10.08,.12,.32,.2,.63,.24,.91,.52,3.75-5.35,4.35-4.66-.02,.05-.28,.11-.58,.22-.9,2.38-7.54-3.72-11-8.61-9.9-1.65,.37-3.16,1.26-4.16,2.69-.77,1.1-1.24,2.52-1.23,4.27,0,1.03,.18,2.18,.55,3.44,.91,3.07,1.67,6.39-.11,9.04-3.73,5.53-7.24,14.88-.81,19.92,2.08,1.63,3.6,2.28,6.11,1.49,.48-.15,.96-.36,1.42-.64,1.88-1.16,3.6-4.46,2.62-9.35-.41-2.02-1.21-4.47-2.57-7.43-.13-.29-.27-.59-.42-.9-1.09-2.29,1.6-1.11,3.23-.81-.92-.88-1.81-2.03-2.54-3.52-.02-.04,.03-.08,.07-.06,2.23,1.67,8.11,1.42,8.11,1.42,0,0,7.25,.24,9.74-1.3,.09-.06,.21,.04,.16,.14-.76,1.69-1.8,2.92-2.91,3.81,.17,.02,.31,.02,.41-.02,1.47-.47,4.04-1.02,2.96,1.23-.1,.21-.2,.42-.3,.63-1.84,3.96-2.71,7.01-2.94,9.37-.27,2.72,.32,4.5,1.29,5.67,.75,.91,1.72,1.44,2.7,1.75,2.52,.79,5.24,.14,7.31-1.49,6.43-5.04,1.72-14.39-2.01-19.92Zm-23.02-10.13c-1.41,0-2.55-1.14-2.55-2.55s1.14-2.55,2.55-2.55,2.55,1.14,2.55,2.55-1.14,2.55-2.55,2.55Zm13.52,0c-1.41,0-2.55-1.14-2.55-2.55s1.14-2.55,2.55-2.55,2.55,1.14,2.55,2.55-1.14,2.55-2.55,2.55Z"/></g><path class="bk" d="M45.55,5.05c-.88,.71-1.63,1.61-2.2,2.43-5.08-1.03-7.8,2.19-8.05,2.49-4.81-1.2-10.53,2.16-7.75,10.08,1.95,5.56-6.16,5.86-4.21,0,2.5-7.5-3.72-11-8.61-9.9l-.02-.16s-.38-3.46-5.79-3.76c0,0-.03,.05-.09,.14-.37-1.47-1.56-2.87-4.69-2.9,3.08-2.21,7.88-1.96,12.23,.12,1.04,.5,2.23,.56,3.35,.27,2.13-.56,5.27-.75,5.27-.75,0,0,3.14,.19,5.27,.75,1.11,.29,2.29,.19,3.35-.27,3.57-1.54,8.87-1.57,11.93,1.45Z"/><path class="ac" d="M10.74,12.85c-1.25,1.94-1.93,3.8-2.4,6.01-.85-2.17,.24-5.04,2.4-6.01h0Z"/><path class="ac" d="M43.33,7.59c-2.91-.06-5.7,.99-7.98,2.77l-.12-.56c.77,.33,1.6,.65,2.22,1.24-.89-.33-2.05-.5-2.97-.73,2.12-2.43,5.71-3.96,8.85-2.71h0Z"/><path class="ac" d="M14.35,23.96c.57-.07,1.14-.13,1.71-.19l.07,.05c5.9,3.63,13.29,2.93,19.34,.03l1.25,.11-1.25,.11c-5.3,4.13-14.19,4.82-19.57,.03l.11,.04c-.56-.05-1.11-.11-1.67-.18h0Z"/><ellipse class="ac" cx="25.46" cy="22.31" rx="2.07" ry="1.5"/><path class="bk" d="M34.91,28.54c-.76,1.69-1.8,2.92-2.91,3.81-2.98,2.41-6.47,2.42-6.54,2.42,0,0-3.21-.17-6.08-2.91-.92-.88-1.81-2.03-2.54-3.52-.02-.04,.03-.08,.07-.06,2.23,1.67,15.36,1.66,17.85,.11,.09-.06,.21,.04,.16,.14Z"/><g id="r"><path class="ao" d="M6.84,28.77c2.38-1.28,6.17-.61,7.21,2.1-2.29-1.4-4.56-1.6-7.21-2.1h0Z"/><path class="ao" d="M8.85,6.39c2.54-.91,6.14,.79,5.89,3.77-1.09-2.44-3.38-3.25-5.89-3.77h0Z"/><path class="ao" d="M40.78,17.32c2.65-2.67,4-6.17,2.58-9.84,2.76,3.14,1.09,8.19-2.58,9.84h0Z"/><g><path class="au" d="M34.81,34.78s-2.75,3.9-2.75,9.91"/><path class="ao" d="M34.81,34.78c-1.09,3.24-1.9,6.61-2.75,9.91-.83-3.44,.17-7.45,2.75-9.91h0Z"/></g><g><path class="ao" d="M22.46,44.39c-1.45-.59-1.92-2.59-1.2-3.9,.4,1.46,.56,2.53,1.2,3.9h0Z"/><path class="ao" d="M23.71,44.39c.3-1.48,.48-2.55,.61-4.06,.94,1.2,.62,3.17-.61,4.06h0Z"/><path class="ao" d="M27.66,47.64c-1.39-.73-1.65-2.77-.81-4,.25,1.49,.31,2.58,.81,4h0Z"/><path class="ao" d="M28.91,47.76c.44-1.44,.72-2.49,1.01-3.98,.81,1.29,.3,3.22-1.01,3.98h0Z"/><path class="ao" d="M25.26,62.36c-1.39-.73-1.65-2.77-.81-4,.25,1.49,.31,2.58,.81,4h0Z"/><path class="ao" d="M26.51,62.48c.44-1.44,.72-2.49,1.01-3.98,.81,1.29,.3,3.22-1.01,3.98h0Z"/><path class="ao" d="M25.86,70.47c-1.39-.73-1.65-2.77-.81-4,.25,1.49,.31,2.58,.81,4h0Z"/><path class="ao" d="M27.11,70.59c.44-1.44,.72-2.49,1.01-3.98,.81,1.29,.3,3.22-1.01,3.98h0Z"/><path class="ao" d="M20.07,63.96c-1.52-.36-2.29-2.27-1.79-3.67,.62,1.38,.94,2.42,1.79,3.67h0Z"/><path class="ao" d="M21.31,63.76c.07-1.51,.08-2.59-.02-4.1,1.11,1.04,1.09,3.04,.02,4.1h0Z"/><path class="ao" d="M31.59,63.75c-1.27-.92-1.23-2.98-.22-4.08,.03,1.51-.07,2.59,.22,4.08h0Z"/><path class="ao" d="M32.81,64.05c.65-1.36,1.08-2.36,1.58-3.79,.62,1.39-.17,3.23-1.58,3.79h0Z"/><path class="ao" d="M26.78,38.4c-1.48-.5-2.06-2.48-1.43-3.83,.48,1.43,.71,2.5,1.43,3.83h0Z"/><path class="ao" d="M28.03,38.33c.21-1.49,.32-2.57,.37-4.08,1.01,1.14,.8,3.13-.37,4.08h0Z"/><path class="ao" d="M22.27,54.02c-1.48-.5-2.06-2.48-1.43-3.83,.48,1.43,.71,2.5,1.43,3.83h0Z"/><path class="ao" d="M23.53,53.95c.21-1.49,.32-2.57,.37-4.08,1.01,1.14,.8,3.13-.37,4.08h0Z"/><path class="ao" d="M28.31,55.05c-1.28-.9-1.28-2.96-.29-4.08,.06,1.51-.03,2.6,.29,4.08h0Z"/><path class="ao" d="M29.54,55.33c.62-1.37,1.04-2.38,1.52-3.81,.64,1.38-.12,3.23-1.52,3.81h0Z"/></g><path class="ao" d="M38.37,69.02c-2.72,2.27-5.85,3.47-7.6,6.61-.4-3.9,4.18-6.47,7.6-6.61h0Z"/><path class="ao" d="M6.24,71.42c.62,4.45,.48,8.63,1.8,12.92-3.25-3.29-3.3-8.79-1.8-12.92h0Z"/></g><g class="bn"><g><circle class="bk" cx="18.68" cy="16.62" r="3.37"/><path class="ao" d="M18.48,13.25c1.61-.76,3.48,.72,3.87,2.33,.51,1.66-.53,3.59-2.16,4.05,.46-.65,.82-1.25,1-1.88,.52-1.93-.66-4.08-2.71-4.49h0Z"/><path class="ac" d="M18.87,13.25c-2.02,1.07-3.14,3.01-1.84,5.05,.37,.6,.89,1.15,1.56,1.72-4.86-.11-4.8-7.36,.28-6.77h0Z"/></g></g><g class="aw"><g><circle class="bk" cx="31.34" cy="16.59" r="3.37"/><path class="ao" d="M31.54,19.96c-1.61,.76-3.48-.72-3.87-2.33-.51-1.66,.53-3.59,2.16-4.05-.46,.65-.82,1.25-1,1.88-.52,1.93,.66,4.08,2.71,4.49h0Z"/><path class="ac" d="M31.14,19.96c2.02-1.07,3.14-3.01,1.84-5.05-.37-.6-.89-1.15-1.56-1.72,4.86,.11,4.8,7.36-.28,6.77h0Z"/></g></g></g></g><g class="aq"><g><path class="ag" d="M41.38,64.81s-4.81-3.3-1.8-9.91c-4.18-1.39-5.75-3.59-6.15-5.65l-3.76,3.55L35.66,6.24l9.89-1.19c2.87,2.84,3.75,8.4-.69,17.95-1.43,3.07-.98,6.66,1.04,9.38,2.84,3.82,5.34,10.26,.12,18.59-1.92,3.06-2.05,6.91-.43,10.14,3.47,6.93,5.15,17.81-.73,21.97l-3.48-18.27Z"/><path class="ag" d="M18.49,67.39l1.56-2.58-10.13-1.96c.91-1.95,1.86-5.47-.08-9.75,4.4,.12,6.3-1.28,6.97-3.04l9.85,4.24-1.2-44.46S15.2,6.56,4.73,3.24C.74,5.71-.92,11.89,4.26,23.01c1.43,3.07,.98,6.66-1.04,9.38-2.84,3.82-5.34,10.26-.12,18.59,1.92,3.06,2.05,6.91,.43,10.14-3.99,7.96-5.14,21.15,4.62,23.35l10.34-17.07Z"/><path class="bi" d="M27.74,82.23l12.59-5.85,1.05-11.56c-1.05-.75-4.06-4.96-1.8-9.91-6.16-2.25-6.15-5.65-6.15-5.65,0,0,3.3-.5,4.2-.5s-1.3-21.92-1.3-21.92H15.67l-2.98,12.01,4.14,10.92-1.43-1.3c.52,1.01-.9,5.11-5.56,4.66,1.65,7.06-1.95,16.07-1.95,16.07l15.38,12.65c.57-.24,1.15-.49,1.75-.76,.95,.43,1.86,.82,2.73,1.17"/><g id="v"><path class="bd" d="M44.86,83.08c-2.64,1.87-6.8,2.38-13,.57-1.28-.37-2.65-.85-4.12-1.43-.78-3.72-1.22-13.34,13.64-17.42,4.79,4.29,7.25,11.32,3.48,18.27Z"/><path class="bd" d="M23.26,81.82c-1.84,.77-3.53,1.37-5.11,1.83-4.23,1.23-7.55,1.39-10.11,.79-2.83-6.06-2.93-16.02,1.57-21.29,13.09,3.43,13.89,14.25,13.64,18.67Z"/><path class="bd" d="M40.65,17.51c.08-1.75-.29-3.2-.97-4.36-.98-1.69-2.6-2.74-4.36-3.18,.24-.3,2.96-3.52,8.05-2.49,3.28,5.82-2.01,9.03-2.71,10.03Z"/><path class="bd" d="M14.74,10.15c-1.65,.37-3.16,1.26-4.16,2.69-.77,1.1-1.24,2.52-1.23,4.27-.12-.96,.34-2-.42-2.76-2.85-2.85-.58-7.12-.09-7.96h0c.05-.1,.09-.15,.09-.15,5.41,.3,5.79,3.76,5.79,3.76l.02,.16Z"/><path class="bd" d="M41.42,29.59c-1.79-2.65-2.22-5.97-1.32-9.04,.32-1.1,.5-2.11,.54-3.04,.08-1.75-.29-3.2-.97-4.36-.98-1.69-2.6-2.74-4.36-3.18-4.81-1.2-10.7,2.22-7.75,10.08,.12,.32,.2,.63,.24,.91,.52,3.75-5.35,4.35-4.66-.02,.05-.28,.11-.58,.22-.9,2.38-7.54-3.72-11-8.61-9.9-1.65,.37-3.16,1.26-4.16,2.69-.77,1.1-1.24,2.52-1.23,4.27,0,1.03,.18,2.18,.55,3.44,.91,3.07,1.67,6.39-.11,9.04-3.73,5.53-7.24,14.88-.81,19.92,2.08,1.63,3.6,2.28,6.11,1.49,.48-.15,.96-.36,1.42-.64,1.88-1.16,3.6-4.46,2.62-9.35-.41-2.02-1.21-4.47-2.57-7.43-.13-.29-.27-.59-.42-.9-1.09-2.29,1.6-1.11,3.23-.81-.92-.88-1.81-2.03-2.54-3.52-.02-.04,.03-.08,.07-.06,2.23,1.67,8.11,1.42,8.11,1.42,0,0,7.25,.24,9.74-1.3,.09-.06,.21,.04,.16,.14-.76,1.69-1.8,2.92-2.91,3.81,.17,.02,.31,.02,.41-.02,1.47-.47,4.04-1.02,2.96,1.23-.1,.21-.2,.42-.3,.63-1.84,3.96-2.71,7.01-2.94,9.37-.27,2.72,.32,4.5,1.29,5.67,.75,.91,1.72,1.44,2.7,1.75,2.52,.79,5.24,.14,7.31-1.49,6.43-5.04,1.72-14.39-2.01-19.92Zm-23.02-10.13c-1.41,0-2.55-1.14-2.55-2.55s1.14-2.55,2.55-2.55,2.55,1.14,2.55,2.55-1.14,2.55-2.55,2.55Zm13.52,0c-1.41,0-2.55-1.14-2.55-2.55s1.14-2.55,2.55-2.55,2.55,1.14,2.55,2.55-1.14,2.55-2.55,2.55Z"/></g><path class="bm" d="M45.55,5.05c-.88,.71-1.63,1.61-2.2,2.43-5.08-1.03-7.8,2.19-8.05,2.49-4.81-1.2-10.53,2.16-7.75,10.08,1.95,5.56-6.16,5.86-4.21,0,2.5-7.5-3.72-11-8.61-9.9l-.02-.16s-.38-3.46-5.79-3.76c0,0-.03,.05-.09,.14-.37-1.47-1.56-2.87-4.69-2.9,3.08-2.21,7.88-1.96,12.23,.12,1.04,.5,2.23,.56,3.35,.27,2.13-.56,5.27-.75,5.27-.75,0,0,3.14,.19,5.27,.75,1.11,.29,2.29,.19,3.35-.27,3.57-1.54,8.87-1.57,11.93,1.45Z"/><path class="ag" d="M10.74,12.85c-1.25,1.94-1.93,3.8-2.4,6.01-.85-2.17,.24-5.04,2.4-6.01h0Z"/><path class="ag" d="M43.33,7.59c-2.91-.06-5.7,.99-7.98,2.77l-.12-.56c.77,.33,1.6,.65,2.22,1.24-.89-.33-2.05-.5-2.97-.73,2.12-2.43,5.71-3.96,8.85-2.71h0Z"/><path class="ag" d="M14.35,23.96c.57-.07,1.14-.13,1.71-.19l.07,.05c5.9,3.63,13.29,2.93,19.34,.03l1.25,.11-1.25,.11c-5.3,4.13-14.19,4.82-19.57,.03l.11,.04c-.56-.05-1.11-.11-1.67-.18h0Z"/><ellipse class="ag" cx="25.46" cy="22.31" rx="2.07" ry="1.5"/><path class="b`" d="M34.91,28.54c-.76,1.69-1.8,2.92-2.91,3.81-2.98,2.41-6.47,2.42-6.54,2.42,0,0-3.21-.17-6.08-2.91-.92-.88-1.81-2.03-2.54-3.52-.02-.04,.03-.08,.07-.06,2.23,1.67,15.36,1.66,17.85,.11,.09-.06,.21,.04,.16,.14Z"/><g id="w"><path class="bo" d="M6.84,28.77c2.38-1.28,6.17-.61,7.21,2.1-2.29-1.4-4.56-1.6-7.21-2.1h0Z"/><path class="bo" d="M8.85,6.39c2.54-.91,6.14,.79,5.89,3.77-1.09-2.44-3.38-3.25-5.89-3.77h0Z"/><path class="bo" d="M40.78,17.32c2.65-2.67,4-6.17,2.58-9.84,2.76,3.14,1.09,8.19-2.58,9.84h0Z"/><g><path class="au" d="M34.81,34.78s-2.75,3.9-2.75,9.91"/><path class="bo" d="M34.81,34.78c-1.09,3.24-1.9,6.61-2.75,9.91-.83-3.44,.17-7.45,2.75-9.91h0Z"/></g><g><path class="bo" d="M22.46,44.39c-1.45-.59-1.92-2.59-1.2-3.9,.4,1.46,.56,2.53,1.2,3.9h0Z"/><path class="bo" d="M23.71,44.39c.3-1.48,.48-2.55,.61-4.06,.94,1.2,.62,3.17-.61,4.06h0Z"/><path class="bo" d="M27.66,47.64c-1.39-.73-1.65-2.77-.81-4,.25,1.49,.31,2.58,.81,4h0Z"/><path class="bo" d="M28.91,47.76c.44-1.44,.72-2.49,1.01-3.98,.81,1.29,.3,3.22-1.01,3.98h0Z"/><path class="bo" d="M25.26,62.36c-1.39-.73-1.65-2.77-.81-4,.25,1.49,.31,2.58,.81,4h0Z"/><path class="bo" d="M26.51,62.48c.44-1.44,.72-2.49,1.01-3.98,.81,1.29,.3,3.22-1.01,3.98h0Z"/><path class="bo" d="M25.86,70.47c-1.39-.73-1.65-2.77-.81-4,.25,1.49,.31,2.58,.81,4h0Z"/><path class="bo" d="M27.11,70.59c.44-1.44,.72-2.49,1.01-3.98,.81,1.29,.3,3.22-1.01,3.98h0Z"/><path class="bo" d="M20.07,63.96c-1.52-.36-2.29-2.27-1.79-3.67,.62,1.38,.94,2.42,1.79,3.67h0Z"/><path class="bo" d="M21.31,63.76c.07-1.51,.08-2.59-.02-4.1,1.11,1.04,1.09,3.04,.02,4.1h0Z"/><path class="bo" d="M31.59,63.75c-1.27-.92-1.23-2.98-.22-4.08,.03,1.51-.07,2.59,.22,4.08h0Z"/><path class="bo" d="M32.81,64.05c.65-1.36,1.08-2.36,1.58-3.79,.62,1.39-.17,3.23-1.58,3.79h0Z"/><path class="bo" d="M26.78,38.4c-1.48-.5-2.06-2.48-1.43-3.83,.48,1.43,.71,2.5,1.43,3.83h0Z"/><path class="bo" d="M28.03,38.33c.21-1.49,.32-2.57,.37-4.08,1.01,1.14,.8,3.13-.37,4.08h0Z"/><path class="bo" d="M22.27,54.02c-1.48-.5-2.06-2.48-1.43-3.83,.48,1.43,.71,2.5,1.43,3.83h0Z"/><path class="bo" d="M23.53,53.95c.21-1.49,.32-2.57,.37-4.08,1.01,1.14,.8,3.13-.37,4.08h0Z"/><path class="bo" d="M28.31,55.05c-1.28-.9-1.28-2.96-.29-4.08,.06,1.51-.03,2.6,.29,4.08h0Z"/><path class="bo" d="M29.54,55.33c.62-1.37,1.04-2.38,1.52-3.81,.64,1.38-.12,3.23-1.52,3.81h0Z"/></g><path class="bo" d="M38.37,69.02c-2.72,2.27-5.85,3.47-7.6,6.61-.4-3.9,4.18-6.47,7.6-6.61h0Z"/><path class="bo" d="M6.24,71.42c.62,4.45,.48,8.63,1.8,12.92-3.25-3.29-3.3-8.79-1.8-12.92h0Z"/></g><g class="aj"><g><circle class="b`" cx="18.68" cy="16.62" r="3.37"/><path class="bo" d="M18.48,13.25c1.61-.76,3.48,.72,3.87,2.33,.51,1.66-.53,3.59-2.16,4.05,.46-.65,.82-1.25,1-1.88,.52-1.93-.66-4.08-2.71-4.49h0Z"/><path class="ag" d="M18.87,13.25c-2.02,1.07-3.14,3.01-1.84,5.05,.37,.6,.89,1.15,1.56,1.72-4.86-.11-4.8-7.36,.28-6.77h0Z"/></g></g><g class="bl"><g><circle class="b`" cx="31.34" cy="16.59" r="3.37"/><path class="bo" d="M31.54,19.96c-1.61,.76-3.48-.72-3.87-2.33-.51-1.66,.53-3.59,2.16-4.05-.46,.65-.82,1.25-1,1.88-.52,1.93,.66,4.08,2.71,4.49h0Z"/><path class="ag" d="M31.14,19.96c2.02-1.07,3.14-3.01,1.84-5.05-.37-.6-.89-1.15-1.56-1.72,4.86,.11,4.8,7.36-.28,6.77h0Z"/></g></g></g></g><g/></svg>