<?xml version="1.0" encoding="UTF-8"?><svg xmlns="http://www.w3.org/2000/svg" xmlns:xlink="http://www.w3.org/1999/xlink" viewBox="0 0 300 450"><defs><style>.k{fill:#fef6a3;}.l{fill:#ffee02;}.m{fill:#fed404;}.n{fill:#fdd501;}.o{fill:#f9bd05;}.p{fill:#bfd87c;}.q{fill:#fecd04;}.r{fill:none;}.s{clip-path:url(#j);}.t{clip-path:url(#i);}</style><clipPath id="i"><circle class="r" cx="126.8" cy="91.4" r="16.76"/></clipPath><clipPath id="j"><circle class="r" cx="190.77" cy="91.4" r="16.76"/></clipPath></defs><g id="a"/><g id="b"/><g id="c"/><g id="d"/><g id="e"/><g id="f"><g><path class="o" d="M241.8,335.88s-24.37-16.76-9.14-50.27c-21.2-7.07-29.14-18.19-31.21-28.67l-19.06,18,30.42-236.1,50.15-6.02c14.58,14.42,19.04,42.59-3.5,91.04-7.24,15.57-4.98,33.77,5.26,47.57,14.38,19.36,27.1,52.05,.61,94.26-9.73,15.52-10.39,35.03-2.19,51.41,17.61,35.12,26.09,90.3-3.69,111.41l-17.64-92.64Z"/><path class="o" d="M125.74,348.95l7.92-13.07-51.38-9.96c4.63-9.9,9.44-27.75-.41-49.44,22.31,.59,31.96-6.5,35.37-15.43l49.93,21.52-6.09-225.43S109.05,40.45,55.97,23.62c-20.23,12.53-28.64,43.9-2.42,100.26,7.24,15.57,4.98,33.77-5.26,47.57-14.38,19.36-27.1,52.05-.61,94.26,9.73,15.52,10.39,35.03,2.19,51.41-20.24,40.39-26.07,107.27,23.44,118.41l52.42-86.57Z"/><path class="m" d="M172.65,424.19l63.82-29.67,5.33-58.64c-5.33-3.81-20.56-25.13-9.14-50.27-31.23-11.42-31.21-28.67-31.21-28.67,0,0,16.74-2.56,21.31-2.56s-6.58-111.16-6.58-111.16H111.44l-15.1,60.89,20.97,55.35-7.26-6.61c2.62,5.13-4.57,25.89-28.18,23.61,8.38,35.8-9.9,81.49-9.9,81.49l77.97,64.17c2.88-1.2,5.83-2.48,8.85-3.85,4.8,2.18,9.41,4.14,13.86,5.91"/><g id="g"><path class="l" d="M259.44,428.52c-13.37,9.47-34.47,12.08-65.92,2.91-6.5-1.89-13.45-4.3-20.87-7.24-3.98-18.87-6.2-67.66,69.15-88.32,24.3,21.74,36.79,57.42,17.64,92.64Z"/><path class="l" d="M149.94,422.14c-9.31,3.88-17.91,6.96-25.89,9.28-21.45,6.21-38.28,7.04-51.26,3.99-14.33-30.74-14.84-81.23,7.97-107.96,66.38,17.38,70.43,72.25,69.18,94.7Z"/><path class="l" d="M238.08,96c.41-8.86-1.49-16.24-4.94-22.1-4.97-8.55-13.18-13.91-22.13-16.12,1.23-1.52,15.03-17.85,40.81-12.63,16.63,29.49-10.17,45.8-13.74,50.84Z"/><path class="l" d="M106.74,58.7c-8.38,1.87-16.04,6.38-21.1,13.63-3.91,5.57-6.28,12.78-6.21,21.63-.61-4.87,1.71-10.14-2.13-13.98-14.46-14.46-2.94-36.12-.44-40.38v-.02c.27-.47,.44-.73,.44-.73,27.42,1.52,29.35,19.06,29.35,19.06l.09,.79Z"/><path class="l" d="M242.03,157.25c-9.06-13.45-11.27-30.28-6.67-45.85,1.64-5.56,2.51-10.69,2.73-15.4,.41-8.86-1.49-16.24-4.94-22.1-4.97-8.55-13.18-13.91-22.13-16.12-24.37-6.06-54.24,11.26-39.28,51.13,.61,1.64,1.01,3.18,1.22,4.63,2.65,18.99-27.13,22.04-23.64-.08,.23-1.42,.58-2.94,1.1-4.55,12.06-38.23-18.89-55.78-43.67-50.22-8.38,1.87-16.04,6.38-21.1,13.63-3.91,5.57-6.28,12.78-6.21,21.63,.03,5.24,.9,11.04,2.79,17.44,4.6,15.57,8.48,32.4-.58,45.85-18.92,28.04-36.71,75.46-4.11,101,10.54,8.26,18.23,11.58,31,7.56,2.44-.78,4.89-1.83,7.19-3.24,9.54-5.86,18.23-22.6,13.3-47.43-2.06-10.25-6.15-22.67-13.04-37.68-.67-1.49-1.39-3.02-2.12-4.55-5.53-11.61,8.12-5.64,16.37-4.11-4.68-4.48-9.17-10.28-12.9-17.84-.09-.21,.15-.43,.34-.29,11.32,8.47,41.13,7.19,41.13,7.19,0,0,36.77,1.22,49.4-6.61,.47-.3,1.05,.18,.82,.7-3.87,8.55-9.12,14.79-14.76,19.34,.85,.09,1.57,.08,2.07-.08,7.46-2.36,20.47-5.16,15.02,6.26-.52,1.08-1.02,2.15-1.51,3.21-9.31,20.08-13.75,35.57-14.91,47.52-1.36,13.77,1.63,22.82,6.53,28.74,3.79,4.6,8.74,7.3,13.69,8.87,12.76,4.02,26.55,.7,37.09-7.56,32.6-25.54,8.71-72.96-10.21-101Zm-116.75-51.38c-7.14,0-12.95-5.8-12.95-12.95s5.8-12.95,12.95-12.95,12.95,5.8,12.95,12.95-5.8,12.95-12.95,12.95Zm68.54,0c-7.14,0-12.95-5.8-12.95-12.95s5.8-12.95,12.95-12.95,12.95,5.8,12.95,12.95-5.8,12.95-12.95,12.95Z"/></g><path class="n" d="M262.96,32.84c-4.48,3.63-8.24,8.16-11.13,12.32-25.77-5.22-39.57,11.1-40.81,12.63-24.37-6.06-53.4,10.95-39.28,51.13,9.9,28.18-31.23,29.7-21.32,0,12.68-38.03-18.89-55.78-43.67-50.22l-.09-.79s-1.93-17.53-29.35-19.06c0,0-.17,.26-.44,.73-1.89-7.48-7.89-14.55-23.79-14.7,15.61-11.23,39.95-9.96,62.04,.59,5.27,2.51,11.32,2.83,16.97,1.36,10.81-2.83,26.72-3.81,26.72-3.81,0,0,15.9,.97,26.72,3.81,5.65,1.48,11.59,.96,16.97-1.36,18.08-7.8,45-7.97,60.49,7.36Z"/><path class="o" d="M86.43,72.36c-5.18,8.27-9.05,16.76-11.14,26.25-.37,1.37-.57,2.76-1.05,4.22-.28-.69-.49-1.4-.7-2.11-2.92-10.72,2.6-23.76,12.89-28.35h0Z"/><path class="o" d="M251.7,45.71c-14.75-.28-28.93,4.97-40.45,14.03l-.63-2.84c1.99,.79,3.96,1.66,5.87,2.66,1.89,1.03,3.89,2.03,5.38,3.62-1.69-.75-4.28-1.25-6.08-1.71-1.84-.41-7.12-1.58-8.9-1.97,3.29-3.62,6.92-7.05,11.14-9.62,9.83-6.08,22.73-8.59,33.66-4.17h0Z"/><path class="o" d="M104.71,128.72c2.9-.38,5.79-.66,8.69-.94,1.86,1.23,3.89,2.34,5.93,3.33,30.05,14.94,62.56,11.01,92.23-2.88l.19-.08c2.15,.16,4.3,.36,6.44,.58-2.11,.21-4.23,.41-6.34,.57l.29-.08c-28.95,21.42-71.28,24.52-99.55,.22l.58,.21c-2.82-.28-5.64-.55-8.46-.92h0Z"/><ellipse class="o" cx="161.07" cy="120.34" rx="10.47" ry="7.62"/><path class="q" d="M209,151.94c-3.87,8.55-9.12,14.79-14.76,19.34-15.09,12.22-32.79,12.28-33.18,12.28,0,0-16.28-.85-30.84-14.78-4.68-4.48-9.17-10.28-12.9-17.84-.09-.21,.15-.43,.34-.29,11.32,8.47,77.9,8.41,90.52,.58,.47-.3,1.05,.18,.82,.7Z"/><g id="h"><path class="k" d="M66.63,153.09c11.89-6.5,31.5-3.11,36.56,10.66-3.08-1.77-5.85-3.23-8.73-4.35-9-3.58-18.26-4.37-27.82-6.31h0Z"/><path class="k" d="M76.85,39.58c13.03-4.52,31.12,3.72,29.89,19.12-6.02-12.99-16.87-16.21-29.89-19.12h0Z"/><path class="k" d="M238.76,95.06c14.17-15.15,20.02-29.52,13.06-49.9,1.67,1.78,2.92,3.9,4,6.1,8.14,16.91-.77,35.99-17.07,43.8h0Z"/><g><path class="p" d="M208.51,183.56s-13.93,19.8-13.93,50.27"/><path class="k" d="M208.51,183.56c-3.79,12.02-7.86,25.2-10.65,37.42-1.12,4.29-1.93,8.55-3.28,12.85-.31-1.1-.54-2.21-.75-3.33-2.82-15.88,2.63-35.88,14.68-46.94h0Z"/></g><g><path class="k" d="M145.84,232.3c-5.57-2.1-8.2-8.75-7.72-14.35,.15-1.91,.69-3.77,1.62-5.46,.35,.94,.54,1.83,.75,2.7,1.36,5.96,2.73,11.47,5.34,17.1h0Z"/><path class="k" d="M152.21,232.3c1.42-7.05,2.46-13.4,3.11-20.56,4.76,6.06,3.13,16.13-3.11,20.56h0Z"/><path class="k" d="M172.26,248.79c-5.33-2.63-7.3-9.51-6.27-15.03,.34-1.89,1.06-3.69,2.15-5.27,.26,.97,.36,1.87,.48,2.77,.77,6.07,1.59,11.69,3.63,17.54h0Z"/><path class="k" d="M178.59,249.41c2.1-6.88,3.76-13.1,5.12-20.16,4.14,6.5,1.53,16.36-5.12,20.16h0Z"/><path class="k" d="M160.07,323.42c-5.33-2.63-7.3-9.51-6.27-15.03,.34-1.89,1.06-3.69,2.15-5.27,.26,.97,.36,1.87,.48,2.77,.77,6.07,1.59,11.69,3.63,17.54h0Z"/><path class="k" d="M166.41,324.05c2.11-6.88,3.76-13.1,5.12-20.16,4.14,6.5,1.53,16.36-5.12,20.16h0Z"/><path class="k" d="M163.12,364.55c-5.33-2.63-7.3-9.51-6.27-15.03,.34-1.89,1.06-3.69,2.15-5.27,.26,.97,.36,1.87,.48,2.77,.77,6.07,1.59,11.69,3.63,17.54h0Z"/><path class="k" d="M169.45,365.18c2.11-6.88,3.76-13.1,5.12-20.16,4.14,6.5,1.53,16.36-5.12,20.16h0Z"/><path class="k" d="M133.73,331.53c-5.82-1.22-9.44-7.39-9.82-12.99-.14-1.91,.1-3.83,.77-5.64,.49,.87,.82,1.73,1.16,2.56,2.26,5.69,4.46,10.92,7.9,16.08h0Z"/><path class="k" d="M140.02,330.55c.32-7.18,.37-13.62-.08-20.8,5.63,5.26,5.56,15.46,.08,20.8h0Z"/><path class="k" d="M192.15,330.46c-4.89-3.38-5.83-10.48-4.01-15.79,.61-1.82,1.58-3.49,2.9-4.9,.11,1,.08,1.91,.07,2.81-.13,6.12-.13,11.79,1.03,17.88h0Z"/><path class="k" d="M198.33,332.01c3.09-6.49,5.64-12.41,8-19.19,3.15,7.03-.88,16.41-8,19.19h0Z"/><path class="k" d="M167.77,201.95c-5.68-1.77-8.7-8.25-8.55-13.87,.04-1.92,.47-3.81,1.3-5.54,.41,.92,.65,1.79,.91,2.66,1.71,5.87,3.4,11.29,6.33,16.75h0Z"/><path class="k" d="M174.13,201.57c1-7.12,1.67-13.52,1.9-20.71,5.11,5.77,4.07,15.92-1.9,20.71h0Z"/><path class="k" d="M144.92,281.15c-5.68-1.77-8.7-8.25-8.55-13.87,.04-1.92,.47-3.81,1.3-5.54,.41,.92,.65,1.79,.91,2.66,1.71,5.87,3.4,11.29,6.33,16.75h0Z"/><path class="k" d="M151.28,280.78c1-7.12,1.67-13.52,1.9-20.71,5.11,5.77,4.07,15.92-1.9,20.71h0Z"/><path class="k" d="M175.55,286.37c-4.95-3.3-6-10.38-4.26-15.72,.58-1.83,1.53-3.52,2.82-4.95,.13,.99,.11,1.91,.12,2.81-.03,6.12,.06,11.79,1.33,17.86h0Z"/><path class="k" d="M181.76,287.81c2.98-6.54,5.43-12.5,7.69-19.32,3.27,6.98-.61,16.42-7.69,19.32h0Z"/></g><path class="k" d="M226.57,357.2c-10.17,8.3-21.52,14.29-30.87,23.29-2.99,2.86-5.49,6.04-7.69,10.23-3.06-18.7,22.24-33.5,38.56-33.53h0Z"/><path class="k" d="M63.58,369.39c3.14,22.13,2.36,44,9.14,65.5-16.03-14.53-16.87-46.54-9.14-65.5h0Z"/></g><g class="t"><g><circle class="q" cx="126.68" cy="91.48" r="17.08"/><path class="k" d="M125.67,74.4c8.33-3.86,17.67,3.59,19.65,11.78,1.83,6.36-.39,13.71-5.59,17.74-1.64,1.27-3.45,2.24-5.37,2.81,4.21-5.44,7.08-12.22,5.08-18.96-1.87-6.54-6.5-11.95-13.77-13.37h0Z"/><path class="o" d="M127.68,74.4c-6.17,3.61-12.36,8.66-12.19,16.19,.11,7.4,4.79,13.22,10.78,18.14-9.55,.48-18.51-8.21-18.4-18.14-.09-10.61,9.86-18.14,19.8-16.2h0Z"/></g></g><g class="s"><g><circle class="q" cx="190.89" cy="91.33" r="17.08"/><path class="k" d="M191.9,108.41c-8.33,3.86-17.67-3.59-19.65-11.78-1.83-6.36,.39-13.71,5.59-17.74,1.64-1.27,3.45-2.24,5.37-2.81-4.21,5.44-7.08,12.22-5.08,18.96,1.87,6.54,6.5,11.95,13.77,13.37h0Z"/><path class="o" d="M189.89,108.41c6.17-3.61,12.36-8.66,12.19-16.19-.11-7.4-4.79-13.22-10.78-18.14,9.55-.48,18.51,8.21,18.4,18.14,.09,10.61-9.86,18.14-19.8,16.2h0Z"/></g></g></g></g></svg>