<?xml version="1.0" encoding="UTF-8"?><svg id="a" xmlns="http://www.w3.org/2000/svg" xmlns:xlink="http://www.w3.org/1999/xlink" viewBox="0 0 510.64 449.77"><defs><style>.f{fill:#fff;}.g{fill:#38a933;}.h{fill:#36ad35;}.i{fill:#79b823;}.j{stroke:#000;stroke-miterlimit:10;stroke-width:.5px;}.k{fill:#76b727;}.l{fill:#117b23;}.m{fill:#fbf2a1;}.n{fill:#ffe900;}.o{fill:#bfd87c;}.p{clip-path:url(#e);}.q{fill:#fed702;}.r{clip-path:url(#d);}.s{fill:none;}.t{fill:#00842d;}.u{fill:#149737;}.v{fill:#f9fbc3;}.w{fill:#ba1417;}.x{fill:#c4d97e;}.y{fill:#e40d17;}</style><clipPath id="d"><circle class="s" cx="66.25" cy="69.41" r="8.13"/></clipPath><clipPath id="e"><circle class="s" cx="97.31" cy="69.41" r="8.13"/></clipPath></defs><g><path class="n" d="M494.25,62.74c-8.11-26.36-28.53-31.31-45.2-30.46,3,5.42-4.84,8.24-4.84,8.24,0,0-14.52,4.86-23.5,11.73-8.99,6.87-11.9,21.3-17.49,25.92-3.13,2.58-5.11,.79-6.24-1.29-1.2,3.74-2.31,7.82-3.3,12.27,0,0,.05-6.65,2.05-15.68v-.02l-2.05,5.8c-6.01-8.21-11.35-13.9-15.88-17.85,3.46,3.14,6.91,7,10.01,11.73-9.89-8.49-19.01-9.08-19.44-9.11-.88-1.55-1.88-3.12-3.02-4.7,3.43,6.99,6.26,15.77,6.37,16.15-7-8.21-14.57-13.42-21.62-16.7,4.69,2.51,9.54,5.95,14.27,10.65-9.72-4.67-17.82-4.13-21.86-3.37,5.67,5.94,6.97,10.95,6.97,10.95-1.5-.92-3-1.76-4.49-2.51-21.75-11.03-41.02-4.83-41.02-4.83,7.89,.91,14.46,3.57,19.63,6.62,8.99,5.31,13.75,11.77,13.98,12.08-3.03-2.55-6.54-4.74-10.26-6.61,0,0-37.68,20.33-54.74,59.81,0,0-8.11,15.33-21.25,16.24,5.28-.13,10.83,1.59,16.15,4.26,1.6,.8,3.11,1.65,4.5,2.56,5.38,.93,8.25,2.45,18.08,1.14,.22-.03,.44-.05,.66-.09-.67-.21-1.32-.48-1.95-.81-8.73-4.64-9.88-19.57-2.57-33.33,7.32-13.77,20.33-21.16,29.06-16.52,8.74,4.64,9.89,19.57,2.57,33.33-3.08,5.8-7.17,10.47-11.53,13.58-3.61,4.41-20.56,8.44-26.86,9.8,3.68,5.68,3.94,13.05-1.07,23.04-4.41,8.8-11.28,15.25-18.65,18.52,0,0-3.77,22.44,44.9,26.31,15.28-4.98,26.42-13.94,26.42-13.94-2.37-6.62-9.38-11.43-9.38-11.43,0,0,8.59-.71,16.94,9.3,8.36,10.01,3.79,19.07,3.79,19.07-1.66-7.64-5.84-10.54-5.84-10.54-22.01,60.51-39.97,58.12-48.93,55.41-8.95-2.7-2.65-39.11-2.65-39.11-15.48,.6-25.11-1.87-37.45-10.33-11.72-8.03-15.77-30.94-15.91-31.73-5.61-8.74-5.67-22.17,.6-34.67,2.98-5.95,6.66-9.69,10.72-11.76-13.9,5.62-32.06,22.71-29.94,52.75,2.34,33.32,29.61,103.97,123.05,106.69-4.31-41.11,15.16-70.81,39.86-67.68,9.21,1.16,14.47,6.7,17.4,13.52,40.81-19.84,55.02-116.3,55.02-116.3,0,0,4.03-2.55,9.76-7.15,16.49-13.24,47.07-43.5,36.17-78.95Zm-184.31,40.72c10.71-14.63,23.54-6.15,23.54-6.15-13.97-2.07-23.05,5.72-23.54,6.15Zm54.1,58.78c-7.53,16.58-22.16,26.15-32.68,21.37-10.53-4.77-12.96-22.09-5.43-38.67,7.53-16.59,22.16-26.16,32.69-21.38,10.52,4.78,12.95,22.09,5.42,38.68Zm9.04-52.88c25.63,10.34,7.42,37.5,7.42,37.5,3.82-28.38-7.42-37.5-7.42-37.5Zm8.56,52.1c.43-.31,14.04-10.35,14.09-28.72,0,0,9.51,17.93-14.09,28.72Zm55.75-59.68c-.71,.57-1.44,1.14-2.2,1.7,0,0,.68-.83,1.8-2.26-3.74-5.19-11.34-5.98-11.34-5.98-1.01,2.17-1.91,4.43-2.67,6.78,0,0,3-41.98,42.47-45.55,0,0-2.33,1.08-5.93,3.25h0c.07,.56,2.47,22.47-22.13,42.06Z"/><g><path class="n" d="M422.98,31.95c-17.21,9.98-24.31,28.26-27.24,41.47,0,.01,0,.02-.01,.03,0,0-21.22-31.35-45.75-26.04,0,0,3.29,1.35,8.84,12.3-.26-.19-5.34-3.9-13.24-6.92,.69-7.63,5.12-32.96,33.37-35.82,33.31-3.37,44.03,14.98,44.03,14.98Z"/><path d="M422.6,31.3c-12.33,7.22-20.47,19.35-25,32.67-.53,1.57-1.02,3.15-1.46,4.75-.41,1.49-.64,3.07-1.13,4.52l1.37-.18c-2.57-3.79-5.67-7.3-8.88-10.56-6.19-6.29-13.51-11.96-21.97-14.78-5.09-1.7-10.49-2.15-15.76-1.04-.59,.12-.78,1.12-.18,1.37,.84,.36,1.56,1.22,2.19,1.93,2.64,2.97,4.59,6.58,6.38,10.1l1.03-1.03c-4.06-2.97-8.75-5.19-13.42-7l.55,.72c1.12-12.17,6.93-24.44,17.89-30.61,4.04-2.27,8.53-3.62,13.11-4.26,5.62-.78,11.44-.84,17.08-.18,7.49,.87,14.92,3.27,21.08,7.71,2.56,1.85,5.27,4.2,6.85,6.89,.49,.83,1.79,.08,1.3-.76-1.42-2.41-3.65-4.49-5.81-6.22-5.78-4.64-12.86-7.4-20.12-8.65-5.48-.94-11.07-1.09-16.6-.67-5.14,.39-10.18,1.36-14.9,3.47-7.2,3.22-12.88,8.96-16.46,15.94-2.75,5.38-4.36,11.34-4.91,17.34-.03,.35,.26,.61,.55,.72,4.55,1.76,9.1,3.96,13.06,6.84,.65,.48,1.34-.42,1.03-1.03-1.86-3.64-3.89-7.34-6.62-10.41-.67-.76-1.52-1.75-2.49-2.16l-.18,1.37c16.9-3.55,32.3,9.83,42.14,22.03,.96,1.19,1.91,2.4,2.76,3.67,.37,.54,1.16,.45,1.37-.18,.39-1.18,.58-2.48,.9-3.69,.37-1.39,.77-2.76,1.21-4.13,.95-2.98,2.07-5.91,3.39-8.74,2.86-6.16,6.61-11.93,11.41-16.76,2.99-3.01,6.35-5.59,10-7.73,.83-.49,.08-1.78-.76-1.3Z"/></g><path class="q" d="M282.05,258.79s-50,1.57-47.02-39.91,0,0,0,0l56.3,28.53-9.27,11.38h0Z"/><path class="m" d="M304.62,239.59c-8.91,2.92-19.23,4.48-29.57,2.12-28.05-6.39-31.97-19.73-33.29-27.25,5.62,2.03,11.96,1.48,17.96-1.18,0,0-3.77,22.44,44.9,26.31Z"/><path class="m" d="M387.81,73.13c-9.89-8.49-19.01-9.08-19.44-9.11-.88-1.55-1.88-3.12-3.02-4.7-2.71-3.75-6.21-7.5-10.7-10.82,0,0,11.6,2.48,23.04,12.8,.04,.04,.08,.07,.11,.1,3.46,3.14,6.91,7,10.01,11.73Z"/><path class="m" d="M364.37,69.42c-9.72-4.67-17.82-4.13-21.86-3.37-1.65,.32-2.62,.66-2.76,.71-4.89-5.59-11.46-10.97-20.06-14.18,0,0,14.19-2.48,30.39,6.18t.02,.01c4.69,2.51,9.54,5.95,14.27,10.65Z"/><path class="s" d="M323.6,76.28h-.01"/><path class="q" d="M430.63,372.96l3.45,2.82c-.57,.52-1.13,1.01-1.69,1.48-29.72,25.06-49.28-10.81-49.28-10.81,2.76,17.51-8.39,25.32-20.92,28.13-12.53,2.81-25.92-14.75-25.92-14.75h.01l4.61-4.2,7.52-6.84,26.93-24.48,1.44-1.31,3.2-2.91h.01l4.91-4.47,.98,.8,8.99,7.34,4.59,3.75,18.3,14.95,8.58,7,2.41,1.97,1.88,1.53Z"/><path class="v" d="M444.21,40.52s-14.52,4.86-23.5,11.73c-8.99,6.87-11.9,21.3-17.49,25.92-3.13,2.58-5.11,.79-6.24-1.29-.83-1.53-1.2-3.21-1.25-3.41v-.02s.01-.02,.01-.03l6.51-13.7,13.11-18.71s28.45-15.78,33.05-9.71c.25,.33,.47,.66,.64,.98,3,5.42-4.84,8.24-4.84,8.24Z"/><path class="q" d="M459.62,210.64c-.15,11.13-9.6,27.14-21.28,42.75-.16,.21-.32,.43-.49,.65-2.25,2.99-4.58,5.96-6.94,8.88-13.74,6.65-25.05,24.14-30.76,34.37h-.01c-3.83,3.93-6.19,6.23-6.19,6.23h0l-.47-3.97-3.85-32.86c1.25-.45,2.47-.96,3.67-1.55,40.81-19.84,55.02-116.3,55.02-116.3h.01l11.29-4.65s.01,.01,.01,.02c4.4,7.17,.38,37.05-.01,66.43Z"/><path class="q" d="M437.01,101.2s-.02,.01-.02,.02c-3.74-5.19-11.34-5.98-11.34-5.98,0-.02,.01-.04,.02-.06,.26-.47,1.9-3.61,4.36-7.84,7.03-12.13,20.68-33.23,26.8-25.93,.02,.01,.03,.03,.04,.04,8.3,10.07-19.12,38.97-19.86,39.75Z"/><path class="q" d="M281.99,178.54s35.64-10.75,38.1-28.16c0,0,1.48-3.38-2.26-2.04-3.73,1.34-38.39,23.38-38.39,23.38l2.55,6.82Z"/><path class="q" d="M378.79,58.69s19.59-6.87,17.79-40.57c0,0,16.67,.72,25.25,13.48,5.29,7.86,.02,.98,.02,.98l-27.25,41.5-15.8-15.39"/><path class="y" d="M418.63,334.66s5.48,.44,9.43-1.97c0,0,18.64,24.99-4.17,38.37-22.8,13.37-34.71-16.71-34.71-16.71l-.65-.57c6.28-1.51,14.7-6.55,20.27-21.79,8.78-24.03-1.3-31.04-11.5-29.33,.67-1.34,1.63-3.19,2.84-5.36h.01c5.71-10.24,17.02-27.73,30.76-34.38,7.23-3.5,15.13-4,23.24,1.13,30.48,19.3-35.52,70.61-35.52,70.61Z"/><path class="y" d="M402.06,333.38s-8.45,18.85-21.7,15.39v.17c.15-8.67-1.11-15.75-2.59-17.13,0,0,8.96-11.2,14.46-23.92,0,0,22.46-5.48,9.83,25.49Z"/><path class="y" d="M338.03,331.81s-1.87,2.7-4.03,6.93c-9.74-1.35-72.6-11.1-78.68-37.68,35.4,24.51,74.36,24.65,81.54,24.45,.33,2.08,.72,4.18,1.17,6.3Z"/><path class="w" d="M315.35,319.9s7.19,12.57-1.37,18.84l17.51,5.46,9.55-15.82-1.62-8.48h-24.07Z"/><path class="w" d="M385.78,310.37s7.46-2.12,7.54,1.06c.18,6.85-12.56,43.89-16.18,32.99-3.64-10.96,8.64-34.06,8.64-34.06Z"/><path class="q" d="M363.57,423.66c8.04-7.72,17.74-14.28,28.27-15.69l-5.74,6.53-33.92,38.64h-11.14s7.17-13.26,18.54-25.45c1.28-1.37,2.61-2.72,3.99-4.03Z"/><path class="q" d="M397.19,407.25c.65-.09,1.24-.17,1.79-.24l-1.79,.24Z"/><path class="m" d="M255.87,302.99l3.8,13.3c-50.35,46.62-49.24,136.85-49.24,136.85h-15.13c-9-58.13,23.86-109.25,44.49-134.79,.62-.77,1.24-1.53,1.87-2.29,6.99-8.45,12.26-13.65,13.42-14.77,.12-.12,.2-.19,.23-.21h0v-.02l.03,.06,.2,.72,.3,1.06,.03,.09Z"/><path class="s" d="M262.91,313.3s-.01,0-.01,0"/><path class="q" d="M432.39,377.26c-29.72,25.06-49.28-10.81-49.28-10.81,2.76,17.51-8.39,25.32-20.92,28.13-12.53,2.81-25.92-14.75-25.92-14.75h.01c-12.17-9.65-9.18-24.91-4.79-35.63-44.96-8.48-64.01-19.25-71.82-27.91-50.35,46.62-49.24,136.85-49.24,136.85h130.61s7.17-13.26,18.54-25.45c-3.66-6.9-9.82-15.05-10.08-15.39,4.29,1.96,10.08,7.33,14.07,11.36,8.04-7.72,17.74-14.28,28.27-15.69l-5.74,6.53c-10.47,13.7-23.91,38.64-23.91,38.64h88.55s11.99-10.19,15.12-24.75c2.47-11.47-22.67-39.66-33.47-51.13Zm-35.2,29.99c.65-.09,1.24-.17,1.79-.24l-1.79,.24Z"/><path class="n" d="M248.65,306.05c-13.11,10.48-35.01,32.54-49.07,71.05,0,0-59.13-10.91-80.99-112.92,13.17-8.11,19.28-17.3,19.28-17.3-45.74,42.99-103.16,27.57-104.44,4.51-.97-17.51,41.26-7.6,42.69-7.26-36.61-13.42-45.61,.79-45.61,.79,0,0-.43,1.4-.6,3.61,0,0-12.52-1.57-11.84-11.57s15.68-12.27,15.68-12.27l48.17,3.86s5.6,6.99,5.08,16.45c0,0,5.42-20.29-7.85-30.71l42.68-57.99s25.19-9.7,30.64-1.72c5.46,7.99-15.78,35.82-15.78,35.82,0,0,17.15,12.47,13.51,44.6,0,0,70.68,64.18,98.45,71.05Z"/><path class="m" d="M60.26,241.5s-13.57,3.59-11.74,11.73,14.23,27.91,89.35-6.36,0,0,0,0c0,0-30.33,40.68-91.92,23.37s0,0,0,0c0,0-19.96-14.74-13.21-24.11s27.52-4.64,27.52-4.64"/><path class="m" d="M155.91,163.28s-9.98-6.84-37.35,0c-27.37,6.84,15.66-12.9,15.66-12.9l18.59,1.15,3.1,11.75Z"/><g><path d="M460.64,143.72c-.33,.17-.67,.33-1.01,.49-.83,.4-1.67,.79-2.54,1.17-2.75,1.22-5.67,2.38-8.76,3.45,.24-.15,4.2-2.68,9.75-7.14,16.49-13.24,47.07-43.5,36.17-78.95-8.11-26.36-28.53-31.31-45.2-30.46-13.54,.69-24.6,5.21-24.6,5.21,0,0-17.02,6.65-27.47,39.39-1.2,3.74-2.31,7.82-3.3,12.27,0,0,.05-6.65,2.05-15.68v-.02s.01-.02,.01-.03c2.93-13.21,10.03-31.49,27.24-41.47l2.69-1.45c6.14-3.07,13.47-5.12,22.2-5.64,53.72-3.22,55.1,51.43,55.1,51.43,0,0,5.12,44.14-42.33,67.43Z"/><path d="M460.26,143.07c-3.91,1.96-8,3.59-12.13,5.03l.58,1.37c6.47-4.07,12.46-9.1,18.05-14.3,6.54-6.07,12.57-12.76,17.64-20.12,5.55-8.07,9.96-17.11,11.86-26.78,2.02-10.3,.95-20.88-3.01-30.59-3.42-8.39-9.02-15.8-16.92-20.42-6.56-3.84-14.15-5.53-21.7-5.79-9.51-.33-19.19,1.39-28.18,4.48-2.08,.72-3.92,1.55-5.75,2.8-4.75,3.21-8.7,7.54-12.03,12.17-6.18,8.58-10.32,18.53-13.3,28.62-.92,3.1-1.71,6.24-2.42,9.4l1.47,.2c.05-5.11,.89-10.27,1.97-15.24,.03-.15,.05-.3,.08-.44-.08,.38,.03-.06,.04-.11,.06-.27,.12-.53,.18-.8,.15-.64,.3-1.27,.47-1.9,.34-1.33,.71-2.65,1.12-3.95,.85-2.75,1.83-5.47,2.98-8.11,2.52-5.78,5.8-11.27,9.98-16.01,4.04-4.58,8.81-8.2,14.16-11.09,6.1-3.29,13.06-5.02,19.93-5.68,6-.58,12.13-.48,18.06,.63,8.79,1.64,16.97,5.64,23.3,12.01,5.12,5.16,8.85,11.55,11.38,18.33,1.84,4.94,3.11,10.11,3.78,15.34,.21,1.65,.32,3.31,.44,4.97,.31,4.46-.06,8.99-.79,13.39-1.36,8.16-4.17,16.07-8.35,23.22-5.82,9.96-14.21,18.16-23.91,24.34-2.9,1.85-5.9,3.51-8.98,5.03-.87,.43-.11,1.72,.76,1.3,11.35-5.6,21.61-13.38,29.22-23.56,5.54-7.41,9.52-15.96,11.7-24.96,1.34-5.53,2.07-11.27,1.93-16.97-.04-1.59-.15-3.2-.3-4.78-.45-4.82-1.42-9.61-2.86-14.23-2.13-6.85-5.33-13.39-9.84-18.99-5.43-6.75-12.73-11.71-20.98-14.35-5.15-1.65-10.56-2.41-15.96-2.54-7.35-.17-14.81,.71-21.8,3.03-11.88,3.95-21.63,12.2-28.08,22.89-6.34,10.49-9.74,22.79-10.86,34.93-.13,1.43-.25,2.87-.26,4.31,0,.83,1.29,1.04,1.47,.2,2.51-11.19,6.16-22.28,12.01-32.2,3.37-5.72,7.5-11.11,12.66-15.33,1.33-1.08,2.74-2.08,4.23-2.93,.37-.21,.74-.4,1.12-.59,.1-.05,.2-.09,.3-.13,.03-.01-.2,.08-.06,.03,7.56-3.08,16.03-4.72,24.15-5.16,7.26-.39,14.66,.33,21.47,2.97,7.83,3.04,14.23,8.71,18.48,15.93,5.25,8.92,7.66,19.56,6.87,29.87-.74,9.71-4.3,19-9.24,27.33-8.8,14.85-21.84,27.48-35.92,37.33-.83,.58-1.67,1.17-2.53,1.71-.69,.43-.26,1.66,.58,1.37,4.25-1.48,8.46-3.17,12.49-5.19,.86-.43,.1-1.73-.76-1.3Z"/></g><g><g><path d="M465.45,56.47s-2.33,1.08-5.93,3.25h0s-.1,.07-.16,.1c-.79,.47-1.64,1-2.53,1.59-7.65,4.93-18.82,13.58-26.8,25.93-1.6,2.46-3.07,5.08-4.36,7.84,0,.02-.02,.04-.02,.06-1.01,2.17-1.91,4.43-2.67,6.78,0,0,3-41.98,42.47-45.55Z"/><path d="M465.07,55.82c-.77,.36-1.52,.75-2.26,1.15-.83,.45-1.66,.91-2.47,1.39-.51,.3-1.57,.63-1.57,1.37l.37-.65c-5.62,3.17-10.91,7.29-15.69,11.59-5.89,5.3-11.14,11.37-15.24,18.16-2.47,4.09-4.46,8.45-5.95,12.98l1.47,.2c.33-4.61,1.66-9.56,3.27-14.02,3.37-9.39,9.16-18.07,17.53-23.68,6.23-4.18,13.49-6.41,20.92-7.1,.95-.09,.96-1.59,0-1.5-6.81,.64-13.5,2.46-19.45,5.91-4.88,2.83-9.1,6.66-12.52,11.13-5.3,6.92-8.7,15.26-10.42,23.77-.37,1.81-.7,3.65-.83,5.49-.06,.88,1.22,.97,1.47,.2,4.83-14.73,15.35-26.9,27.62-36.07,2.74-2.05,5.59-4.09,8.58-5.77,.23-.13,.37-.39,.37-.65h0l-.37,.64c1.93-1.16,3.89-2.3,5.93-3.25,.87-.41,.11-1.7-.76-1.3Z"/></g><g><path d="M437.39,101.78c-.71,.57-1.44,1.14-2.2,1.7,0,0,.68-.83,1.8-2.26,0,0,.01-.02,.02-.02,5.69-7.32,22.48-30.12,16.63-37.65l3.23-2.1,2.49-1.63,.16-.1h0c.07,.56,2.47,22.47-22.13,42.06Z"/><path d="M436.86,101.25c-.67,.54-1.36,1.07-2.05,1.58l.91,1.18c3.81-4.66,7.36-9.56,10.63-14.62,3.66-5.66,7.57-11.95,8.92-18.65,.51-2.51,.63-5.42-.98-7.57l-.27,1.03c1.96-1.27,3.9-2.59,5.88-3.83l-1.13-.65c0,2.93,0,5.73-.54,8.65-1.34,7.2-4.49,13.97-8.77,19.89-3.55,4.91-7.88,9.21-12.6,12.99-.75,.6,.31,1.66,1.06,1.06,11.98-9.6,21.84-23.56,22.42-39.38,.04-1.08-.07-2.14-.07-3.21,0-.56-.64-.95-1.13-.65-1.98,1.24-3.92,2.56-5.88,3.83-.31,.2-.52,.69-.27,1.03,1.36,1.81,1.27,4.19,.85,6.3-.59,3.02-1.82,5.9-3.17,8.65-2.99,6.07-6.78,11.74-10.75,17.2-1.7,2.33-3.44,4.63-5.27,6.87-.49,.6,.17,1.73,.91,1.18,.8-.59,1.58-1.2,2.35-1.82s-.31-1.66-1.06-1.06Z"/></g></g><path d="M461.25,143.42s17.98,68.5-17.03,109.16l-9.02,2.07s35.2-40.03,21.9-109.28l4.16-1.95Z"/><path d="M425.67,30.5l-2.69,1.45s-10.72-18.35-44.03-14.98c-28.25,2.86-32.68,28.19-33.37,35.82-.13,1.37-.13,2.17-.13,2.17l-7.86-3.75s.06-.29,.2-.82c1.36-5.38,10.24-35.55,37.98-38.48,33.68-3.55,49.9,18.59,49.9,18.59Z"/><g><path d="M395.73,73.45l-2.05,5.8c-6.01-8.21-11.35-13.9-15.88-17.85-.03-.03-.07-.06-.11-.1-10.48-9.1-16.58-8.83-16.58-8.83,1.42,1.58,2.88,4.07,4.24,6.85,3.43,6.99,6.26,15.77,6.37,16.15-7-8.21-14.57-13.42-21.62-16.7t-.02-.01c-14.86-6.91-27.4-5.28-27.4-5.28,9.55,3.67,15.79,8.35,19.83,12.57,5.49,5.75,6.88,10.64,6.96,10.94-1.5-.91-2.99-1.75-4.48-2.5-21.75-11.03-41.02-4.83-41.02-4.83,7.89,.91,14.46,3.57,19.63,6.62,8.99,5.31,13.75,11.77,13.98,12.08-3.03-2.55-6.54-4.74-10.26-6.61h-.01c-16.13-8.15-35.99-10.32-35.99-10.32,10.96-13.19,39.56-7.02,40.44-6.83-8.85-7.84-21.98-12.89-21.98-12.89,10.15-3.68,19.91-3.22,28.01-1.32,2.82,.66,5.43,1.5,7.79,2.4,7.9,3.02,12.98,6.73,13.24,6.92-5.55-10.95-8.84-12.3-8.84-12.3,24.53-5.31,45.75,26.04,45.75,26.04Z"/><path d="M395.01,73.25l-2.05,5.8,1.37-.18c-4.52-6.15-9.43-12.09-15.11-17.22-4.38-3.95-9.48-7.87-15.27-9.47-.9-.25-1.9-.5-2.84-.46-.67,.03-.96,.79-.53,1.28,3.44,3.93,5.46,9.29,7.34,14.1,1.11,2.82,2.2,5.67,3.07,8.57l1.25-.73c-11.21-13.06-27.21-21.83-44.61-22.35-1.64-.05-3.33-.06-4.96,.15-.84,.11-1.02,1.16-.2,1.47,6.51,2.53,12.76,5.98,17.88,10.78,3.47,3.25,7.1,7.5,8.39,12.21l1.1-.85c-12.77-7.7-28.2-11.04-42.94-8.16-1.05,.21-2.11,.43-3.14,.75-.85,.27-.62,1.38,.2,1.47,8.01,.96,15.65,3.89,22.29,8.46,3.93,2.7,7.86,6.08,10.67,9.87l1.18-.91c-6.66-5.55-14.75-9.15-22.93-11.83-6.47-2.12-13.13-3.68-19.85-4.76-1.33-.21-2.67-.42-4.01-.57l.53,1.28c4.43-5.25,11.42-7.25,18.02-7.92,5.87-.6,11.85-.29,17.67,.57,1.35,.2,2.69,.42,4.02,.71,.68,.15,1.33-.73,.73-1.25-6.43-5.65-14.33-10-22.31-13.08v1.45c14.62-5.21,30.57-2.4,43.89,5.06,1.57,.88,3.12,1.8,4.57,2.86,.65,.48,1.34-.42,1.03-1.03-1.86-3.64-3.89-7.34-6.62-10.41-.67-.76-1.52-1.75-2.49-2.16l-.18,1.37c16.9-3.55,32.3,9.83,42.14,22.03,.96,1.19,1.91,2.4,2.76,3.67,.54,.79,1.84,.04,1.3-.76-2.57-3.79-5.67-7.3-8.88-10.56-6.19-6.29-13.51-11.96-21.97-14.78-5.09-1.7-10.49-2.15-15.76-1.04-.59,.12-.78,1.12-.18,1.37,.84,.36,1.56,1.22,2.19,1.93,2.64,2.97,4.59,6.58,6.38,10.1l1.03-1.03c-4.06-2.96-8.74-5.21-13.42-7-7.08-2.71-14.72-4.17-22.32-3.82-4.74,.22-9.41,1.15-13.88,2.74-.72,.26-.7,1.18,0,1.45,7.72,2.98,15.43,7.23,21.65,12.7l.73-1.25c-3.69-.8-7.49-1.24-11.26-1.48-6.84-.43-14.06-.15-20.55,2.25-3.57,1.32-6.89,3.32-9.36,6.25-.44,.52-.13,1.21,.53,1.28,3.62,.4,7.23,1.1,10.79,1.86,7.71,1.67,15.38,3.93,22.55,7.25,4.4,2.03,8.65,4.49,12.39,7.6,.6,.5,1.72-.17,1.18-.91-3.03-4.09-7.04-7.54-11.21-10.41-6.87-4.72-14.77-7.67-23.05-8.66l.2,1.47c2.79-.89,5.79-1.27,8.69-1.51,7.24-.6,14.58,.17,21.55,2.22,5.17,1.52,10.07,3.77,14.68,6.55,.56,.34,1.27-.22,1.1-.85-1.35-4.95-5.12-9.45-8.77-12.87-5.32-4.98-11.78-8.54-18.54-11.16l-.2,1.47c4.37-.56,9.02-.03,13.31,.78,8.44,1.6,16.45,5.08,23.43,10.08,4.36,3.13,8.27,6.84,11.77,10.91,.5,.58,1.46-.04,1.25-.73-.94-3.16-2.15-6.26-3.37-9.31-1.93-4.82-3.98-10.06-7.44-14.02l-.53,1.28c2.57-.1,5.46,1.41,7.65,2.61,5.93,3.26,10.98,8.03,15.52,13,3.12,3.43,6.02,7.06,8.76,10.79,.39,.53,1.15,.46,1.37-.18l2.05-5.8c.32-.91-1.13-1.3-1.45-.4Z"/></g><path class="j" d="M315.26,115.01c-8.73-4.64-21.74,2.75-29.06,16.52-7.31,13.76-6.16,28.69,2.57,33.33,.63,.33,1.28,.6,1.95,.81-.22,.04-.44,.06-.66,.09-9.83,1.31-12.7-.21-18.08-1.14-1.39-.91-2.9-1.76-4.5-2.56-5.32-2.67-10.87-4.39-16.15-4.26-.05,0-.1,.01-.15,.01-2.85,.08-5.63,.71-8.23,2.04-.01,.01-.02,.01-.02,.01-4.06,2.07-7.74,5.81-10.72,11.76-6.27,12.5-6.21,25.93-.6,34.67,1.98,3.08,4.64,5.57,7.96,7.24,.72,.36,1.45,.67,2.19,.93,5.62,2.03,11.96,1.48,17.96-1.18,7.37-3.27,14.24-9.72,18.65-18.52,5.01-9.99,4.75-17.36,1.07-23.04,6.3-1.36,23.25-5.39,26.86-9.8,4.36-3.11,8.45-7.78,11.53-13.58,7.32-13.76,6.17-28.69-2.57-33.33Zm-39.87,59.68c-1.49,3.3-8.62,3.27-15.93-.04-7.3-3.32-12.02-8.67-10.52-11.97,1.49-3.29,8.63-3.27,15.93,.05,7.31,3.32,12.02,8.67,10.52,11.96Zm33.62-26.71c-.81,.92-2.04,1.65-3.46,2.07-2.33,.67-4.68,.31-5.71-.89-.2-.24-.35-.5-.43-.79-.51-1.75,1.41-3.86,4.29-4.7,2.34-.68,4.68-.31,5.71,.89,.21,.24,.35,.5,.43,.79,.24,.82-.05,1.75-.83,2.63Zm6.56-.85c-1.6,3-3.49,5.7-5.57,8.01,.95-1.8,1.55-3.66,1.74-5.43,.28-2.69-.41-4.85-1.96-6.08-.54-.42-1.16-.73-1.86-.9-3.55-.89-8.46,1.57-11.96,5.96-4.3,5.43-5.11,11.98-1.79,14.61,.18,.14,.37,.27,.57,.37-.3,.02-.61,.01-.91-.01-1.39-.09-2.69-.45-3.85-1.07-7.35-3.9-8.04-17.58-1.51-29.86,5.41-10.18,14.35-16.98,21.73-16.52,1.39,.09,2.69,.45,3.86,1.07,3.42,1.82,5.53,5.78,5.95,11.17,.45,5.82-1.13,12.45-4.44,18.68Z"/><path class="j" d="M275.39,174.69c-1.49,3.3-8.62,3.27-15.93-.04-7.3-3.32-12.02-8.67-10.52-11.97,1.49-3.29,8.63-3.27,15.93,.05,7.31,3.32,12.02,8.67,10.52,11.96Z"/><path class="f" d="M275.39,174.69c-1.49,3.3-8.62,3.27-15.93-.04-7.3-3.32-12.02-8.67-10.52-11.97,1.49-3.29,8.63-3.27,15.93,.05,7.31,3.32,12.02,8.67,10.52,11.96Z"/><g><g><path d="M364.04,162.24c-7.53,16.58-22.16,26.15-32.68,21.37-10.53-4.77-12.96-22.09-5.43-38.67,7.53-16.59,22.16-26.16,32.69-21.38,10.52,4.78,12.95,22.09,5.42,38.68Z"/><path class="f" d="M337.17,181.84c-1.63,0-3.17-.32-4.58-.96-8.85-4.02-10.65-19.91-3.93-34.7,5.57-12.27,15.5-20.85,24.14-20.85,1.63,0,3.17,.32,4.58,.96,4.12,1.87,6.88,6.34,7.75,12.6,.95,6.75-.41,14.6-3.82,22.11-5.57,12.27-15.5,20.85-24.14,20.85Z"/></g><g><path class="j" d="M339.76,182.32c-.83-.15-1.58-.46-2.23-.92-4.05-2.83-3.59-10.52,1.03-17.16,3.75-5.38,9.31-8.6,13.5-7.83,.83,.15,1.58,.46,2.23,.92,1.9,1.32,2.87,3.79,2.73,6.94-.14,3.31-1.48,6.94-3.76,10.22-3.75,5.38-9.31,8.6-13.5,7.83Z"/><path class="f" d="M343.12,164.5c-.25-.26-.44-.56-.56-.88-.72-2.01,1.37-4.61,4.66-5.79,2.67-.96,5.44-.7,6.73,.62,.25,.26,.44,.56,.56,.88,.34,.94,.06,2.05-.78,3.13-.88,1.13-2.26,2.08-3.89,2.66-2.67,.96-5.44,.7-6.73-.62Z"/></g></g><g><g><path d="M309.01,147.98c-.81,.92-2.04,1.65-3.46,2.07-2.33,.67-4.68,.31-5.71-.89-.2-.24-.35-.5-.43-.79-.51-1.75,1.41-3.86,4.29-4.7,2.34-.68,4.68-.31,5.71,.89,.21,.24,.35,.5,.43,.79,.24,.82-.05,1.75-.83,2.63Z"/><path d="M315.57,147.13c-1.6,3-3.49,5.7-5.57,8.01,.95-1.8,1.55-3.66,1.74-5.43,.28-2.69-.41-4.85-1.96-6.08-.54-.42-1.16-.73-1.86-.9-3.55-.89-8.46,1.57-11.96,5.96-4.3,5.43-5.11,11.98-1.79,14.61,.18,.14,.37,.27,.57,.37-.3,.02-.61,.01-.91-.01-1.39-.09-2.69-.45-3.85-1.07-7.35-3.9-8.04-17.58-1.51-29.86,5.41-10.18,14.35-16.98,21.73-16.52,1.39,.09,2.69,.45,3.86,1.07,3.42,1.82,5.53,5.78,5.95,11.17,.45,5.82-1.13,12.45-4.44,18.68Z"/><path class="f" d="M309.01,147.98c-.81,.92-2.04,1.65-3.46,2.07-2.33,.67-4.68,.31-5.71-.89-.2-.24-.35-.5-.43-.79-.51-1.75,1.41-3.86,4.29-4.7,2.34-.68,4.68-.31,5.71,.89,.21,.24,.35,.5,.43,.79,.24,.82-.05,1.75-.83,2.63Z"/><path class="f" d="M315.57,147.13c-1.6,3-3.49,5.7-5.57,8.01,.95-1.8,1.55-3.66,1.74-5.43,.28-2.69-.41-4.85-1.96-6.08-.54-.42-1.16-.73-1.86-.9-3.55-.89-8.46,1.57-11.96,5.96-4.3,5.43-5.11,11.98-1.79,14.61,.18,.14,.37,.27,.57,.37-.3,.02-.61,.01-.91-.01-1.39-.09-2.69-.45-3.85-1.07-7.35-3.9-8.04-17.58-1.51-29.86,5.41-10.18,14.35-16.98,21.73-16.52,1.39,.09,2.69,.45,3.86,1.07,3.42,1.82,5.53,5.78,5.95,11.17,.45,5.82-1.13,12.45-4.44,18.68Z"/></g><g><path class="j" d="M309.01,147.98c-.81,.92-2.04,1.65-3.46,2.07-2.33,.67-4.68,.31-5.71-.89-.2-.24-.35-.5-.43-.79-.51-1.75,1.41-3.86,4.29-4.7,2.34-.68,4.68-.31,5.71,.89,.21,.24,.35,.5,.43,.79,.24,.82-.05,1.75-.83,2.63Z"/><path class="f" d="M309.01,147.98c-.81,.92-2.04,1.65-3.46,2.07-2.33,.67-4.68,.31-5.71-.89-.2-.24-.35-.5-.43-.79-.51-1.75,1.41-3.86,4.29-4.7,2.34-.68,4.68-.31,5.71,.89,.21,.24,.35,.5,.43,.79,.24,.82-.05,1.75-.83,2.63Z"/></g></g><g><path d="M342.39,242.59c-1.66-7.64-5.84-10.54-5.84-10.54-22.01,60.51-39.97,58.12-48.93,55.41-8.95-2.7-2.65-39.11-2.65-39.11-15.48,.6-25.11-1.87-37.45-10.33-11.72-8.03-15.77-30.94-15.91-31.73v-.02l10.15,8.19c1.32,7.52,5.24,20.86,33.29,27.25,10.34,2.36,20.66,.8,29.57-2.12,15.28-4.98,26.42-13.94,26.42-13.94-2.37-6.62-9.38-11.43-9.38-11.43,0,0,8.59-.71,16.94,9.3,8.36,10.01,3.79,19.07,3.79,19.07Z"/><path d="M343.11,242.39c-.89-3.93-2.74-8.56-6.18-10.99-.43-.3-.95,.03-1.1,.45-4.96,13.61-10.58,27.38-18.79,39.4-4.01,5.88-8.99,11.9-15.61,14.92-3.62,1.65-7.61,1.99-11.4,1.15-.72-.16-1.47-.33-2.17-.58-1.25-.43-2-1.5-2.54-2.66-1.7-3.68-1.73-8.21-1.75-12.18-.02-7.67,.84-15.36,2.05-22.93,.02-.15,.05-.29,.07-.44,.08-.46-.2-.97-.72-.95-6.38,.24-12.82,.03-19.04-1.56-5.99-1.53-11.51-4.34-16.65-7.73-8.33-5.49-12.41-15.17-15.09-24.44-.52-1.78-.98-3.58-1.38-5.4-.12-.55-.24-1.1-.34-1.65-.03-.15-.11-.91-.11-.55l-1.28,.53,5.94,4.79,3.37,2.72c.25,.2,.59,.4,.8,.65-.06-.07-.07-.28-.08,.07-.01,.23,.1,.53,.15,.76,1.01,4.99,3.21,9.58,6.68,13.34,6.11,6.6,14.94,10.18,23.46,12.46,6.47,1.73,13,2.44,19.68,1.74,6.3-.66,12.45-2.33,18.33-4.65,7.82-3.08,15.6-7.2,22.18-12.48,.19-.15,.28-.5,.19-.73-1.78-4.79-5.54-8.99-9.72-11.88l-.38,1.4c3.73-.29,7.74,1.67,10.69,3.73,6.14,4.28,11.15,11.38,10.47,19.14-.13,1.44-.5,3.22-1.08,4.37-.43,.86,.86,1.62,1.3,.76,2.01-4.04,1.66-9.31,.06-13.4-2.77-7.08-9.46-13.38-16.83-15.46-1.45-.41-3.09-.76-4.61-.64-.75,.06-1,.97-.38,1.4,3.84,2.65,7.4,6.59,9.04,10.98l.19-.73c-5.12,4.11-11.51,7.67-17.62,10.44-11.84,5.38-25.21,8.31-38.09,5.32-8.88-2.06-18.23-5.32-24.87-11.85-3.63-3.58-6.01-8.03-7.1-12.99-.19-.84-.16-1.76-.83-2.35-1.02-.89-2.12-1.71-3.17-2.56l-6.69-5.4c-.48-.39-1.28-.17-1.28,.53s.25,1.4,.39,2.04c.34,1.58,.72,3.16,1.15,4.72,1.25,4.55,2.83,9.03,4.92,13.26,2.22,4.48,5.1,8.86,9.15,11.9,4.99,3.74,10.79,6.78,16.74,8.64,7.03,2.2,14.44,2.55,21.76,2.28l-.72-.95c-1.19,6.88-1.94,13.91-2.14,20.88-.13,4.52-.14,9.31,1.13,13.7,.81,2.81,2.19,4.92,5.08,5.71,3.85,1.06,7.85,1.17,11.67-.1,6.52-2.17,11.62-7.39,15.72-12.71,8.4-10.9,14.06-23.89,19.02-36.63,.87-2.24,1.72-4.5,2.54-6.76l-1.1,.45s.36,.29,.55,.48c.57,.53,1.08,1.13,1.55,1.75,1.72,2.33,2.76,5.05,3.4,7.86,.21,.94,1.66,.54,1.45-.4Z"/></g><path class="y" d="M285.38,271.71s-1.23,12.85,5.7,13.58c7.79,.82,15.02-1.39,23.69-16.1,8.03-13.62-13.01-12.51-16.17-12.27-.28,.02-.55,.07-.82,.15-2.04,.62-10.75,3.86-12.39,14.64Z"/><g><path d="M380.5,146.86c3.82-28.38-7.42-37.5-7.42-37.5,25.63,10.34,7.42,37.5,7.42,37.5Z"/><path d="M381.25,146.86c1.11-8.36,1.29-17.06-.88-25.28-1.07-4.02-2.73-8.03-5.37-11.28-.42-.52-.87-1.05-1.38-1.47l-.73,1.25c4.01,1.64,7.86,4.08,10.3,7.73,1.83,2.73,2.73,5.94,2.83,9.21,.16,5.63-1.73,11.23-4.28,16.17-.58,1.12-1.18,2.23-1.88,3.28-.54,.8,.76,1.56,1.3,.76,2.11-3.16,3.71-6.79,4.85-10.4,2-6.32,2.41-13.55-1.25-19.37-2.66-4.23-6.93-6.97-11.47-8.83-.69-.28-1.29,.79-.73,1.25,1.46,1.19,2.54,2.96,3.43,4.57,2.78,5.02,3.99,10.84,4.4,16.51,.38,5.3,.07,10.62-.63,15.88-.13,.95,1.38,.94,1.5,0Z"/></g><g><path d="M381.64,161.46c.43-.31,14.04-10.35,14.09-28.72,0,0,9.51,17.93-14.09,28.72Z"/><path d="M382.02,162.11c5.98-4.33,10.46-11.3,12.7-18.22,1.17-3.6,1.73-7.36,1.76-11.14l-1.4,.38c3.31,6.27,1.9,14.61-2.78,19.95-3,3.43-6.94,5.84-11.04,7.74-.88,.4-.11,1.7,.76,1.3,6.55-3.03,12.9-7.68,15.35-14.75,1.38-3.99,1.29-8.43,.03-12.44-.27-.87-.59-1.75-1.01-2.55-.36-.67-1.39-.34-1.4,.38-.08,10.1-4.51,19.76-11.94,26.57-.57,.52-1.35,1.19-1.78,1.5-.77,.56-.03,1.86,.76,1.3Z"/></g><g><path d="M333.48,97.31c-13.97-2.07-23.05,5.72-23.54,6.15,10.71-14.63,23.54-6.15,23.54-6.15Z"/><path d="M333.68,96.59c-8.3-1.18-17.8,.69-24.27,6.34l1.18,.91c3.68-4.96,8.96-8.67,15.36-8.17,2.44,.19,5.09,.93,7.16,2.29,.81,.53,1.56-.77,.76-1.3-5.01-3.29-11.99-3.31-17.15-.45-2.99,1.66-5.39,4.14-7.41,6.86-.53,.72,.57,1.44,1.18,.91,6.03-5.27,15.09-7.05,22.81-5.96,.94,.13,1.35-1.31,.4-1.45Z"/></g><path d="M338.03,325.46s-.4,.03-1.17,.05c-7.18,.2-46.14,.06-81.54-24.45-6.33-4.38-12.55-9.54-18.45-15.62-42.43-43.71-34.57-88.05-27.5-103.6,7.07-15.55,24.94-28.9,37.45-30.04,12.5-1.14,21.73-12.22,24.08-20.18,2.35-7.96,32.28-51.19,53.7-51.17l2.71,1.29h.01s-37.68,20.34-54.74,59.82c0,0-8.11,15.33-21.25,16.24-.05,0-.1,.01-.15,.01-2.37,.14-5.2,.82-8.23,2.04-.01,.01-.02,.01-.02,.01-13.9,5.62-32.06,22.71-29.94,52.75,2.34,33.32,29.61,103.97,123.05,106.69,.06,.01,.13,.01,.19,.01l1.8,6.15Z"/><path d="M335.27,338.91l-2.56,5.52c-.41-.08-.82-.15-1.22-.23-44.96-8.48-64.01-19.25-71.82-27.91-5.66-6.28-5.41-11.44-4.84-13.82,.17-.67,.35-1.12,.45-1.31,0-.04,.02-.07,.03-.08h0v-.02s.02,.04,.02,.06h.01c.05,.25,.11,.5,.18,.74,.1,.35,.2,.7,.32,1.04l.03,.09c1.29,3.78,3.75,7.21,7.03,10.31,0,0,.01-.01,.01,0,12.5,11.78,36.89,18.75,53.88,22.37,8.15,1.74,14.59,2.7,17.21,3.07,.29,.04,.53,.07,.72,.1,.36,.05,.55,.07,.55,.07Z"/><path d="M393.3,265.14c-2.93-6.82-8.19-12.36-17.4-13.52-24.7-3.13-44.17,26.57-39.86,67.68,.02,.2,.04,.4,.07,.6,.2,1.84,.45,3.71,.75,5.61,.33,2.08,.72,4.18,1.17,6.3,0,0-1.87,2.7-4.03,6.93-.83,1.62-1.69,3.46-2.51,5.46-4.39,10.72-7.38,25.98,4.79,35.63,2.79,2.22,6.37,4.14,10.92,5.64,23.6,7.81,31.47-13.42,32.92-31.49,.13-1.67,.2-3.31,.23-4.9v-.14c.01-.79,.02-1.56,0-2.33,.01-.29,0-.57-.01-.86,0-.17-.01-.34-.01-.5-.01-.28-.02-.55-.03-.83-.02-.41-.04-.83-.06-1.23v-.1c-.05-.82-.12-1.62-.19-2.38-.02-.21-.04-.41-.07-.62-.04-.43-.09-.86-.14-1.26-.01-.14-.03-.27-.05-.41-.03-.19-.06-.38-.09-.56-.02-.17-.05-.35-.08-.52-.04-.25-.08-.49-.12-.72-.22-1.16-.47-2.15-.74-2.94l-.12-.33c-.04-.11-.08-.21-.12-.31-.04-.09-.08-.18-.12-.26-.04-.09-.08-.17-.12-.25-.04-.08-.08-.15-.12-.22-.13-.21-.26-.38-.39-.5l.09-.12c.11-.13,.3-.37,.57-.72,.1-.14,.22-.3,.35-.48,.39-.51,.87-1.16,1.43-1.93,.13-.19,.27-.38,.42-.58,.71-1.01,1.52-2.18,2.4-3.5,.32-.49,.65-.99,.99-1.51,.04-.06,.08-.13,.12-.2,.54-.83,1.09-1.71,1.64-2.62,1.91-3.12,3.88-6.67,5.61-10.4,.29-.61,.57-1.23,.84-1.86,.42-.96,.82-1.94,1.18-2.92,.19-.48,.37-.96,.54-1.45h0c.82-2.33,1.49-4.67,1.92-6.97,0,0,.12-.68,.26-1.86h0c.62-4.97,1.77-18.84-2.83-29.55Zm-42.67,114.09c-4.03-.74-7.23-1.99-9.74-3.6-17.48-11.2-1.5-40.08-1.5-40.08,0,0,.01,.02,.03,.07,.25,.71,2.39,6.39,6.49,6.98,0,0-.13-.59-.34-1.66-.8-4.06-2.76-15.1-3.11-27.83-.01-.23-.02-.44-.02-.66-.24-9.82,.5-20.57,3.45-29.85,.03-.08,.06-.17,.09-.26,4.13-12.78,12.49-22.72,28.36-23.55,0,0,33.39,5.62,0,70.52,0,0,1,6.59,1,15,0,16.08-3.61,38.81-24.71,34.92Z"/><path class="y" d="M374.34,329.31s8.43,55.85-23.71,49.92c-32.14-5.92-11.24-43.68-11.24-43.68,0,0,.01,.02,.03,.07,.25,.71,2.39,6.39,6.49,6.98,0,0-.13-.59-.34-1.66,.32,.11,.66,.18,1,.23,0,0-3.37-12.65-4.11-28.06-.01-.23-.02-.44-.02-.66-.24-9.82,.5-20.57,3.45-29.85,.03-.08,.06-.17,.09-.26,4.13-12.78,12.49-22.72,28.36-23.55,0,0,33.39,5.62,0,70.52Z"/><path class="s" d="M342.44,312.45c-.42-9.73,.23-20.5,3.45-29.85-2.95,9.28-3.69,20.03-3.45,29.85Z"/><path class="s" d="M345.91,342.6c-4.1-.59-6.24-6.27-6.49-6.98,.33,.54,2.63,4.25,6.15,5.32,.21,1.07,.34,1.66,.34,1.66Z"/><path class="s" d="M342.44,312.45c-.42-9.73,.23-20.5,3.45-29.85-2.95,9.28-3.69,20.03-3.45,29.85Z"/><path class="s" d="M345.91,342.6c-4.1-.59-6.24-6.27-6.49-6.98,.33,.54,2.63,4.25,6.15,5.32,.21,1.07,.34,1.66,.34,1.66Z"/><path d="M408.8,331.99c-5.57,15.24-13.99,20.28-20.27,21.79-2.11,.5-3.98,.6-5.41,.56-1.76-.05-2.87-.32-3-.36h-.01l.24-4.9v-.31c13.26,3.46,21.71-15.39,21.71-15.39,12.63-30.97-9.83-25.49-9.83-25.49,0,0-7.09-.35-1.65-3.01h.01c.82-.4,1.91-.85,3.36-1.36,1.11-.39,2.22-.68,3.34-.86h.01c10.2-1.71,20.28,5.3,11.5,29.33Z"/><path d="M432.01,330.27c17.76,16.45,7.01,46.93-16.89,49.4-23.9,2.47-32.01-25.32-32.01-25.32h.01l2.62-3.03,2.79,2.46,.65,.57s11.91,30.08,34.71,16.71c22.81-13.38,4.17-38.37,4.17-38.37-3.95,2.41-9.43,1.97-9.43,1.97,0,0,66-51.31,35.52-70.61-8.11-5.13-16.01-4.63-23.24-1.13-13.74,6.65-25.05,24.14-30.76,34.37h-.01c-1.21,2.18-2.17,4.03-2.84,5.37h-.01c-.76,1.52-1.16,2.4-1.16,2.4l-2.72-.09-2.82-.09h-.01l2.9-5.33,2.65-4.86h0c12.76-29.39,27.78-38.94,39.84-40.99,.8-.14,1.59-.24,2.37-.31,1.03-.1,2.04-.15,3.02-.15,9.9-.02,16.74,4.45,16.74,4.45,28.94,31.58-26.09,72.58-26.09,72.58Z"/><path class="f" d="M352.99,298.24c.1-9.83,3.96-19.17,10.56-26.49,1.22-1.26,2.4-2.65,4.2-3.2,2.27-.68,4.54-.31,6.71,1.25l.42,.91c-.09,2.59-.14,4.1-.88,6.01-.54,1.22-1.58,1.85-2.47,2.79-1.84,1.76-3.64,3.81-5.5,5.9-3.62,4.07-8.06,9.45-12.11,13.2l-.93-.37h0Z"/><path class="f" d="M419.83,287.77c3.2-8.6,9.68-15.44,17.89-19.53,2.63-1.46,5.66-2.03,8.24,.1,.77,.67,1.4,1.3,1.96,2.28l.06,1c-.73,1.86-1.48,3.84-2.69,5.21-.83,.9-1.93,1.06-3,1.57-4.58,1.92-9.17,4.44-13.83,6.67-2.49,1.18-5.04,2.38-7.9,3.4l-.73-.69h0Z"/><path class="f" d="M338.33,355.89c3.42,6.76,7.83,9.79,15.1,10.98,2.26,.41,4.68,.62,7.42,.78l.2,.43c-6.27,6.47-19.24,4.96-23.01-3.57-1.27-2.83-1.43-5.93-.3-8.63h.6Z"/><path class="f" d="M404.87,363.08c14.49-1.7,15.31-3.8,19.44-17.17h1c2.38,9.13-1.46,20.07-12.3,20.03-2.96,.03-5.78-.55-8.35-1.88l.21-.98h0Z"/><path d="M461.67,453.14h-10.93s11.99-10.19,15.12-24.75c2.47-11.47-22.67-39.66-33.47-51.13-1.23-1.31-2.28-2.4-3.07-3.22-1.09-1.13-1.71-1.75-1.71-1.75l1.14-.86,2.72-2.05c.5,.43,1,.87,1.49,1.32,1.14,.99,2.27,2.01,3.37,3.03h.01c22.18,20.39,37.12,42.53,37.52,52.52,.43,10.7-12.19,26.89-12.19,26.89Z"/><g><path d="M391.82,407.23c-1.71,1.56-3.65,3.82-5.72,6.52-10.47,13.7-23.91,38.64-23.91,38.64h-10.01c.76-4.61,10.01-18.76,10.01-18.76-.24-1.75-1.25-4.14-2.61-6.69-3.66-6.9-9.82-15.05-10.08-15.39,4.29,1.96,10.08,7.33,14.07,11.36,2.72,2.75,4.61,4.88,4.61,4.88,14.76-17.47,23.13-20.4,23.64-20.56Z"/><path d="M391.29,406.7c-3.37,3.12-6.13,6.93-8.76,10.67s-4.91,7.27-7.24,10.99c-4.02,6.44-7.84,13-11.54,19.62-.75,1.34-1.49,2.67-2.21,4.02l.65-.37h-10.01l.72,.95c.47-2.63,1.99-5.16,3.26-7.47,1.52-2.79,3.16-5.52,4.84-8.22,.51-.81,1.02-1.62,1.53-2.42s.37-1.35,.11-2.3c-1.27-4.55-4.11-8.79-6.67-12.7-1.85-2.83-3.78-5.61-5.83-8.3l-1.03,1.03c4.07,1.91,7.54,5.12,10.79,8.18,2.69,2.54,5.29,5.18,7.74,7.94,.25,.29,.81,.3,1.06,0,4.33-5.12,8.94-10.06,14.1-14.36,2.44-2.03,5.03-3.99,7.88-5.42,.59-.3,.81-.42,1.34-.58,.92-.29,.52-1.74-.4-1.45-1.5,.48-2.92,1.36-4.23,2.2-3.92,2.5-7.46,5.61-10.78,8.85-3.15,3.08-6.12,6.34-8.96,9.71h1.06c-2.54-2.86-5.24-5.6-8.04-8.22-3.24-3.04-6.74-6.23-10.8-8.14-.59-.28-1.53,.36-1.03,1.03,1.63,2.14,3.17,4.34,4.67,6.57,2.65,3.93,5.4,8.04,7.13,12.48,.2,.53,.39,1.06,.54,1.6,.08,.27,.15,1.31,.34,.68-.04,.13-.17,.27-.25,.38-.51,.76-.99,1.55-1.47,2.32-1.62,2.6-3.2,5.22-4.68,7.9s-3.16,5.4-3.68,8.33c-.08,.47,.2,.95,.72,.95h10.01c.26,0,.52-.14,.65-.37,6.05-11.22,12.52-22.32,19.73-32.83,2.92-4.27,5.97-8.64,9.78-12.17,.71-.66-.35-1.72-1.06-1.06Z"/></g><path class="j" d="M259.65,298.43c-1.26,1-2.49,2.02-3.7,3.06-.14,.12-.27,.24-.41,.35,0,0,0,.02-.02,.02-.23,.2-.46,.41-.69,.61-4.76,4.21-9.14,8.76-13.17,13.59-.81,.98-1.62,1.97-2.41,2.97-41.75,52.89-43.95,134.11-43.95,134.11h-9.04c.47-25.67,4.29-47.52,9.95-66.01,1.06-3.46,2.18-6.8,3.37-10.03,14.06-38.51,35.96-60.57,49.07-71.05h.01c2.04-1.63,3.86-2.98,5.41-4.06l.14-.1c.3-.21,.59-.41,.87-.6,.07-.05,.13-.09,.2-.13h0s.03-.03,.05-.04h.01l.03-.03c2.53-1.7,4.09-2.56,4.28-2.66Z"/><path d="M255.32,301.06h-.01l-1.1,.83-.14,.1-5.41,4.06h-.01c-27.77-6.87-98.45-71.05-98.45-71.05,3.64-32.13-13.51-44.6-13.51-44.6,0,0,21.24-27.83,15.78-35.82-5.45-7.98-30.64,1.72-30.64,1.72,0,0,23.37-20.09,35.19-5.92,11.82,14.18-11.96,40.4-11.96,40.4,14.87,9.57,11.96,41.08,11.96,41.08,12.08,16.31,95.63,67.56,98.24,69.16,.04,.03,.06,.04,.06,.04Z"/><path d="M199.58,377.1l-3.37,10.03c-77.61-35.83-77.69-118.99-77.65-122.94v-.14s.02,.09,.03,.13c21.86,102.01,80.99,112.92,80.99,112.92Z"/><g><path d="M137.87,246.88s-6.11,9.19-19.28,17.3c-.01,0-.02,0-.03,.01-10.41,6.41-25.24,12.14-44.94,12.1-36.8-.07-43.22-15.34-43.75-24.55v-.02c-.07-1.18-.04-2.26,.04-3.19,.17-2.21,.6-3.61,.6-3.61,0,0,9-14.21,45.61-.79-1.43-.34-43.66-10.25-42.69,7.26,1.28,23.06,58.7,38.48,104.44-4.51Z"/><path d="M137.22,246.5c-2.61,3.91-6.23,7.32-9.79,10.35-6.36,5.4-13.65,9.72-21.41,12.79-8.5,3.36-17.53,5.23-26.65,5.75s-18.25,.08-26.97-2.15-18.05-7.2-20.91-16.54c-.42-1.38-.7-2.81-.83-4.24-.15-1.7-.11-3.41,.12-5.1,.1-.72,.23-1.44,.42-2.14,.05-.2-.1,.21-.02,.05,.14-.27-.03,0,.21-.27,.21-.24,.43-.48,.66-.7,.76-.74,1.6-1.35,2.51-1.9,3.42-2.05,7.46-2.92,11.4-3.18,7.59-.51,15.23,1.02,22.48,3.16,2.52,.74,5.02,1.58,7.49,2.49l.4-1.45c-7.5-1.78-15.31-2.93-23.02-3.11-7.44-.17-21.17,.61-20.62,11.09,.48,9.08,8.77,15.36,16.43,18.69,11.81,5.13,25.35,5.7,37.92,3.65,16.87-2.74,32.61-10.56,45.75-21.37,1.93-1.59,3.8-3.24,5.62-4.95,.71-.66-.36-1.72-1.06-1.06-12.57,11.77-27.82,20.73-44.65,24.73-12.53,2.97-26.12,3.31-38.48-.67-7.9-2.54-17.21-7.58-19.57-16.22-.99-3.63-.44-7.36,2.89-9.53,3.73-2.43,8.68-2.79,13.01-2.87,8.27-.15,16.64,1.09,24.7,2.91,.23,.05,.45,.1,.68,.16,.95,.23,1.3-1.12,.4-1.45-8.4-3.06-17.26-5.53-26.25-5.78-4.89-.13-9.93,.44-14.41,2.49-1.99,.91-3.98,2.17-5.39,3.88-.67,.82-.76,1.77-.91,2.83-.38,2.56-.35,5.16,.1,7.71,1.59,9.01,8.68,15.1,16.88,18.31,7.63,2.99,16.01,3.92,24.15,4.14,10.07,.27,20.18-.82,29.83-3.78,14.39-4.4,28.44-12.93,37.57-25.08,.22-.29,.44-.58,.64-.88,.54-.81-.76-1.56-1.3-.76Z"/></g><g><path d="M87,245c.52-9.46-5.08-16.45-5.08-16.45l-48.17-3.86s-15,2.27-15.68,12.27,11.84,11.57,11.84,11.57l-.04,3.19v.02l-.04,3.4c-4.49-.5-16.08-4.32-17.21-16.78-1.14-12.45,11.59-16.63,11.59-16.63-.91-6.36,5.62-9.02,5.62-9.02,26.65-7.37,41.35-4.67,49.32,1.58,13.27,10.42,7.85,30.71,7.85,30.71Z"/><path d="M87.75,245c.26-5.69-1.48-11.53-4.73-16.21-.4-.58-.67-.92-1.38-1.01-.77-.09-1.56-.12-2.33-.19l-23.83-1.91-20.9-1.67c-1.49-.12-2.91,.32-4.34,.74-4.07,1.19-8.32,3.18-10.9,6.68-2.85,3.88-2.73,9.44,.52,13.04,2.33,2.59,5.87,4.06,9.24,4.68,.27,.05,.54,.09,.81,.13l-.75-.75c-.03,2.2-.05,4.41-.08,6.61l.75-.75c-5.97-.7-11.97-4.42-14.72-9.82-1.88-3.7-2.43-8.32-1.09-12.28,1.03-3.03,3.19-5.56,5.78-7.39,1.4-.99,2.96-1.9,4.6-2.45,.28-.09,.59-.39,.55-.72-.4-3.26,1.21-5.97,3.93-7.67,.93-.58,1.32-.68,2.09-.89,2.56-.69,5.14-1.33,7.73-1.88,7.99-1.71,16.3-2.83,24.48-2,5.18,.52,10.4,1.95,14.69,4.99,5.78,4.09,8.68,10.79,9.31,17.68,.38,4.22,.18,8.73-.91,12.84-.25,.93,1.2,1.33,1.45,.4,.99-3.74,1.26-7.8,1.08-11.65-.35-7.34-2.91-14.68-8.72-19.47-4.24-3.49-9.55-5.3-14.93-6.06-8.27-1.17-16.76-.2-24.91,1.42-3.08,.61-6.14,1.34-9.18,2.15-1.17,.31-2.07,.61-3.07,1.26-3.06,1.97-4.99,5.16-4.53,8.87l.55-.72c-4.68,1.55-9.08,5.25-11.01,9.8-3.39,7.97,.49,17.25,7.54,21.72,2.78,1.76,6.01,2.98,9.29,3.37,.41,.05,.75-.38,.75-.75,.03-2.2,.05-4.41,.08-6.61,0-.44-.35-.7-.75-.75,.38,.05-.42-.08-.55-.1-.57-.11-1.13-.25-1.68-.41-1.72-.49-3.39-1.2-4.87-2.22-3.9-2.67-5.23-7.81-2.78-11.96,2.14-3.62,6.37-5.62,10.25-6.8,1.12-.34,2.26-.64,3.41-.84,.38-.07,.07-.01,.12-.01,.18,0,.36,.03,.53,.04l18.66,1.5,23.9,1.92,3.48,.28c.23,.02,1.31,.27,1.5,.12-.26,.2-.81-.67-.2,.19,.45,.64,.86,1.31,1.25,1.99,1.38,2.45,2.38,5.12,2.93,7.89,.37,1.86,.48,3.74,.39,5.63-.04,.97,1.46,.96,1.5,0Z"/></g></g><g><path class="t" d="M122.09,188.1s-11.83-8.13-4.44-24.4c-10.29-3.43-14.15-8.83-15.15-13.92l-9.25,8.74,14.77-114.63,24.35-2.92c7.08,7,9.24,20.68-1.7,44.2-3.51,7.56-2.42,16.4,2.55,23.1,6.98,9.4,13.16,25.27,.3,45.76-4.73,7.54-5.04,17.01-1.06,24.96,8.55,17.05,12.67,43.84-1.79,54.09l-8.56-44.98Z"/><path class="t" d="M65.74,194.45l3.84-6.35-24.94-4.84c2.25-4.81,4.59-13.47-.2-24,10.83,.29,15.52-3.16,17.17-7.49l24.24,10.45-2.96-109.45s-25.26-8.1-51.03-16.27c-9.82,6.09-13.91,21.31-1.18,48.68,3.51,7.56,2.42,16.4-2.55,23.1-6.98,9.4-13.16,25.27-.3,45.76,4.73,7.54,5.04,17.01,1.06,24.96-9.83,19.61-12.66,52.08,11.38,57.49l25.45-42.03Z"/><path class="h" d="M88.51,230.98l30.99-14.41,2.59-28.47c-2.59-1.85-9.98-12.2-4.44-24.4-15.16-5.55-15.15-13.92-15.15-13.92,0,0,8.13-1.24,10.35-1.24s-3.19-53.97-3.19-53.97H58.8l-7.33,29.56,10.18,26.87-3.53-3.21c1.27,2.49-2.22,12.57-13.68,11.46,4.07,17.38-4.81,39.56-4.81,39.56l37.86,31.16c1.4-.58,2.83-1.21,4.3-1.87,2.33,1.06,4.57,2.01,6.73,2.87"/><g id="b"><path class="i" d="M130.65,233.08c-6.49,4.6-16.74,5.86-32.01,1.41-3.16-.92-6.53-2.09-10.13-3.51-1.93-9.16-3.01-32.85,33.57-42.88,11.8,10.55,17.86,27.88,8.56,44.98Z"/><path class="i" d="M77.49,229.98c-4.52,1.89-8.7,3.38-12.57,4.5-10.41,3.02-18.58,3.42-24.89,1.94-6.96-14.92-7.2-39.44,3.87-52.42,32.23,8.44,34.2,35.08,33.59,45.98Z"/><path class="k" d="M120.28,71.64c.2-4.3-.72-7.88-2.4-10.73-2.41-4.15-6.4-6.75-10.75-7.82,.6-.74,7.3-8.67,19.81-6.13,8.08,14.32-4.94,22.24-6.67,24.69Z"/><path class="k" d="M56.51,53.53c-4.07,.91-7.79,3.1-10.24,6.62-1.9,2.71-3.05,6.2-3.02,10.5-.3-2.37,.83-4.93-1.04-6.79-7.02-7.02-1.43-17.53-.21-19.6h0c.13-.24,.21-.36,.21-.36,13.31,.74,14.25,9.25,14.25,9.25l.04,.38Z"/><path class="i" d="M122.2,101.38c-4.4-6.53-5.47-14.7-3.24-22.26,.8-2.7,1.22-5.19,1.32-7.48,.2-4.3-.72-7.88-2.4-10.73-2.41-4.15-6.4-6.75-10.75-7.82-11.83-2.94-26.33,5.47-19.07,24.83,.3,.8,.49,1.55,.59,2.25,1.29,9.22-13.17,10.7-11.48-.04,.11-.69,.28-1.43,.53-2.21,5.86-18.56-9.17-27.08-21.2-24.38-4.07,.91-7.79,3.1-10.24,6.62-1.9,2.71-3.05,6.2-3.02,10.5,.01,2.54,.44,5.36,1.35,8.47,2.23,7.56,4.12,15.73-.28,22.26-9.18,13.61-17.82,36.64-2,49.04,5.12,4.01,8.85,5.62,15.05,3.67,1.18-.38,2.37-.89,3.49-1.58,4.63-2.85,8.85-10.97,6.46-23.03-1-4.98-2.99-11-6.33-18.3-.33-.72-.67-1.46-1.03-2.21-2.68-5.64,3.94-2.74,7.95-2-2.27-2.17-4.45-4.99-6.26-8.66-.04-.1,.07-.21,.16-.14,5.49,4.11,19.97,3.49,19.97,3.49,0,0,17.85,.59,23.98-3.21,.23-.15,.51,.09,.4,.34-1.88,4.15-4.43,7.18-7.17,9.39,.41,.04,.76,.04,1.01-.04,3.62-1.15,9.94-2.51,7.29,3.04-.25,.53-.5,1.04-.73,1.56-4.52,9.75-6.68,17.27-7.24,23.07-.66,6.69,.79,11.08,3.17,13.95,1.84,2.23,4.24,3.54,6.65,4.3,6.2,1.95,12.89,.34,18.01-3.67,15.83-12.4,4.23-35.42-4.95-49.04Zm-56.68-24.94c-3.47,0-6.29-2.82-6.29-6.29s2.82-6.29,6.29-6.29,6.29,2.82,6.29,6.29-2.82,6.29-6.29,6.29Zm33.28,0c-3.47,0-6.29-2.82-6.29-6.29s2.82-6.29,6.29-6.29,6.29,2.82,6.29,6.29-2.82,6.29-6.29,6.29Z"/></g><path class="g" d="M132.36,40.97c-2.17,1.76-4,3.96-5.41,5.98-12.51-2.54-19.21,5.39-19.81,6.13-11.83-2.94-25.93,5.32-19.07,24.83,4.81,13.68-15.16,14.42-10.35,0,6.16-18.47-9.17-27.08-21.2-24.38l-.04-.38s-.94-8.51-14.25-9.25c0,0-.08,.13-.21,.35-.92-3.63-3.83-7.06-11.55-7.14,7.58-5.45,19.4-4.84,30.12,.29,2.56,1.22,5.49,1.38,8.24,.66,5.25-1.38,12.97-1.85,12.97-1.85,0,0,7.72,.47,12.97,1.85,2.74,.72,5.63,.47,8.24-.66,8.78-3.79,21.85-3.87,29.37,3.57Z"/><path class="t" d="M46.66,60.16c-2.51,4.01-4.39,8.14-5.41,12.74-.18,.66-.28,1.34-.51,2.05-.13-.33-.24-.68-.34-1.02-1.42-5.2,1.26-11.53,6.26-13.77h0Z"/><path class="t" d="M126.89,47.22c-7.16-.14-14.04,2.41-19.64,6.81l-.31-1.38c.97,.39,1.92,.81,2.85,1.29,.92,.5,1.89,.98,2.61,1.76-.82-.36-2.08-.61-2.95-.83-.89-.2-3.46-.77-4.32-.96,1.6-1.76,3.36-3.42,5.41-4.67,4.77-2.95,11.03-4.17,16.34-2.02h0Z"/><path class="l" d="M55.53,87.53c1.41-.19,2.81-.32,4.22-.46,.9,.6,1.89,1.13,2.88,1.62,14.59,7.25,30.37,5.34,44.78-1.4l.09-.04c1.04,.08,2.09,.18,3.13,.28-1.03,.1-2.05,.2-3.08,.28l.14-.04c-14.06,10.4-34.61,11.9-48.33,.1l.28,.1c-1.37-.13-2.74-.26-4.11-.45h0Z"/><ellipse class="l" cx="82.89" cy="83.46" rx="5.08" ry="3.7"/><path class="u" d="M106.17,98.8c-1.88,4.15-4.43,7.18-7.17,9.39-7.33,5.93-15.92,5.96-16.11,5.96,0,0-7.91-.41-14.98-7.17-2.27-2.17-4.45-4.99-6.26-8.66-.04-.1,.07-.21,.16-.14,5.49,4.11,37.82,4.08,43.95,.28,.23-.15,.51,.09,.4,.34Z"/><g id="c"><path class="x" d="M37.04,99.36c5.77-3.15,15.3-1.51,17.75,5.18-1.5-.86-2.84-1.57-4.24-2.11-4.37-1.74-8.86-2.12-13.51-3.07h0Z"/><path class="x" d="M42,44.25c6.33-2.2,15.11,1.81,14.51,9.28-2.92-6.31-8.19-7.87-14.51-9.28h0Z"/><path class="x" d="M120.61,71.18c6.88-7.36,9.72-14.33,6.34-24.23,.81,.86,1.42,1.89,1.94,2.96,3.95,8.21-.37,17.47-8.29,21.26h0Z"/><g><path class="o" d="M105.93,114.15s-6.76,9.61-6.76,24.4"/><path class="x" d="M105.93,114.15c-1.84,5.83-3.81,12.24-5.17,18.17-.55,2.08-.94,4.15-1.59,6.24-.15-.53-.26-1.07-.36-1.62-1.37-7.71,1.28-17.42,7.13-22.79h0Z"/></g><g><path class="x" d="M75.5,137.81c-2.7-1.02-3.98-4.25-3.75-6.96,.07-.93,.33-1.83,.79-2.65,.17,.46,.26,.89,.37,1.31,.66,2.9,1.33,5.57,2.59,8.3h0Z"/><path class="x" d="M78.59,137.81c.69-3.42,1.19-6.51,1.51-9.98,2.31,2.94,1.52,7.83-1.51,9.98h0Z"/><path class="x" d="M88.32,145.82c-2.59-1.28-3.54-4.62-3.04-7.3,.17-.92,.51-1.79,1.04-2.56,.13,.47,.17,.91,.23,1.34,.37,2.95,.77,5.67,1.76,8.52h0Z"/><path class="x" d="M91.4,146.12c1.02-3.34,1.83-6.36,2.48-9.79,2.01,3.15,.74,7.94-2.48,9.79h0Z"/><path class="x" d="M82.41,182.06c-2.59-1.28-3.54-4.62-3.04-7.3,.17-.92,.51-1.79,1.04-2.56,.13,.47,.17,.91,.23,1.34,.37,2.95,.77,5.67,1.76,8.52h0Z"/><path class="x" d="M85.48,182.36c1.02-3.34,1.83-6.36,2.48-9.79,2.01,3.15,.74,7.94-2.48,9.79h0Z"/><path class="x" d="M83.89,202.02c-2.59-1.28-3.54-4.62-3.04-7.3,.17-.92,.51-1.79,1.04-2.56,.13,.47,.17,.91,.23,1.34,.37,2.95,.77,5.67,1.76,8.52h0Z"/><path class="x" d="M86.96,202.33c1.02-3.34,1.83-6.36,2.48-9.79,2.01,3.15,.74,7.94-2.48,9.79h0Z"/><path class="x" d="M69.62,185.99c-2.83-.59-4.58-3.59-4.77-6.31-.07-.93,.05-1.86,.37-2.74,.24,.42,.4,.84,.56,1.24,1.1,2.76,2.16,5.3,3.83,7.81h0Z"/><path class="x" d="M72.67,185.52c.16-3.49,.18-6.61-.04-10.1,2.74,2.55,2.7,7.51,.04,10.1h0Z"/><path class="x" d="M97.98,185.47c-2.37-1.64-2.83-5.09-1.95-7.67,.3-.88,.77-1.7,1.41-2.38,.06,.48,.04,.93,.04,1.36-.06,2.97-.06,5.73,.5,8.68h0Z"/><path class="x" d="M100.98,186.22c1.5-3.15,2.74-6.02,3.89-9.32,1.53,3.41-.43,7.97-3.89,9.32h0Z"/><path class="x" d="M86.15,123.08c-2.76-.86-4.22-4.01-4.15-6.73,.02-.93,.23-1.85,.63-2.69,.2,.44,.31,.87,.44,1.29,.83,2.85,1.65,5.48,3.08,8.13h0Z"/><path class="x" d="M89.23,122.9c.49-3.46,.81-6.57,.92-10.06,2.48,2.8,1.98,7.73-.92,10.06h0Z"/><path class="x" d="M75.05,161.53c-2.76-.86-4.22-4.01-4.15-6.73,.02-.93,.23-1.85,.63-2.69,.2,.44,.31,.87,.44,1.29,.83,2.85,1.65,5.48,3.08,8.13h0Z"/><path class="x" d="M78.14,161.35c.49-3.46,.81-6.57,.92-10.06,2.48,2.8,1.98,7.73-.92,10.06h0Z"/><path class="x" d="M89.92,164.06c-2.4-1.6-2.91-5.04-2.07-7.63,.28-.89,.74-1.71,1.37-2.4,.06,.48,.05,.92,.06,1.36-.01,2.97,.03,5.73,.64,8.67h0Z"/><path class="x" d="M92.94,164.76c1.45-3.18,2.64-6.07,3.73-9.38,1.59,3.39-.3,7.97-3.73,9.38h0Z"/></g><path class="x" d="M114.69,198.46c-4.94,4.03-10.45,6.94-14.99,11.31-1.45,1.39-2.66,2.93-3.73,4.97-1.48-9.08,10.8-16.27,18.72-16.28h0Z"/><path class="x" d="M35.56,204.37c1.52,10.75,1.14,21.36,4.44,31.8-7.78-7.05-8.19-22.6-4.44-31.8h0Z"/></g><g class="r"><g><circle class="u" cx="66.19" cy="69.44" r="8.29"/><path class="o" d="M65.71,61.15c4.05-1.88,8.58,1.74,9.54,5.72,.89,3.09-.19,6.66-2.71,8.61-.8,.62-1.68,1.09-2.61,1.36,2.04-2.64,3.44-5.93,2.47-9.2-.91-3.18-3.15-5.8-6.69-6.49h0Z"/><path class="t" d="M66.68,61.15c-2.99,1.75-6,4.2-5.92,7.86,.05,3.59,2.33,6.42,5.24,8.81-4.64,.23-8.99-3.99-8.93-8.81-.04-5.15,4.79-8.81,9.61-7.86h0Z"/></g></g><g class="p"><g><circle class="u" cx="97.37" cy="69.37" r="8.29"/><path class="o" d="M97.86,77.67c-4.05,1.88-8.58-1.74-9.54-5.72-.89-3.09,.19-6.66,2.71-8.61,.8-.62,1.68-1.09,2.61-1.36-2.04,2.64-3.44,5.93-2.47,9.2,.91,3.18,3.15,5.8,6.69,6.49h0Z"/><path class="t" d="M96.88,77.67c2.99-1.75,6-4.2,5.92-7.86-.05-3.59-2.33-6.42-5.24-8.81,4.64-.23,8.99,3.99,8.93,8.81,.04,5.15-4.79,8.81-9.61,7.86h0Z"/></g></g></g></svg>